<svg viewBox="0 0 24 24" xmlns="http://www.w3.org/2000/svg" width="24" height="24"><path d="M11.993 6.703A3 3 0 1 1 11.993 .703A3 3 0 0 1 11.993 6.703"/><path d="M20.615 6.449L20.565 6.449L20.425 6.499C19.515 6.729 15.085 7.839 11.975 7.839C9.075 7.839 5.055 6.889 3.775 6.559L3.375 6.449C2.445 6.229 1.815 7.069 1.815 7.849C1.815 8.599 2.575 8.969 3.355 9.229L3.355 9.239L8.015 10.539C8.495 10.699 8.615 10.869 8.685 11.009C8.885 11.479 8.725 12.389 8.665 12.709L8.395 14.689L6.815 21.289L6.805 21.359L6.795 21.409C6.675 22.109 7.255 22.809 8.355 22.809C9.315 22.809 9.745 22.209 9.925 21.409C10.105 20.609 11.295 14.529 11.985 14.529C12.675 14.529 14.085 21.409 14.085 21.409C14.265 22.209 14.685 22.809 15.645 22.809C16.745 22.809 17.335 22.109 17.215 21.409L17.175 21.229L15.575 14.689L15.295 12.719C15.095 11.579 15.255 11.199 15.315 11.119L15.315 11.099C15.365 11.019 15.615 10.819 16.175 10.629L20.545 9.269L20.625 9.249C21.405 8.989 22.185 8.619 22.185 7.849C22.185 7.079 21.555 6.239 20.625 6.449"/></svg>