<svg viewBox="0 0 24 24" xmlns="http://www.w3.org/2000/svg" width="24" height="24"><path d="M12 7a3 3 0 1 1 0-6 3 3 0 0 1 0 6"/><path d="M20.62 6.76h-.05l-.14.05c-.91.23-5.34 1.34-8.45 1.34-2.9 0-6.92-.95-8.2-1.28l-.4-.11c-.93-.22-1.56.62-1.56 1.4 0 .75.76 1.12 1.54 1.38v.01l4.66 1.3c.48.16.6.33.67.47.2.47.04 1.38-.02 1.7L8.4 15l-1.58 6.6-.01.07-.01.05c-.12.7.46 1.4 1.56 1.4.96 0 1.39-.6 1.57-1.4s1.37-6.88 2.06-6.88 2.1 6.88 2.1 6.88c.18.8.6 1.4 1.56 1.4 1.1 0 1.69-.7 1.57-1.4l-.04-.18-1.6-6.54-.28-1.97c-.2-1.14-.04-1.52.02-1.6v-.02c.05-.08.3-.28.86-.47l4.37-1.36.08-.02c.78-.26 1.56-.63 1.56-1.4s-.63-1.61-1.56-1.4"/></svg>