<svg viewBox="0 0 24 24" xmlns="http://www.w3.org/2000/svg" width="24" height="24"><path fill-rule="evenodd" d="M12 1a2.4 2.4 0 0 1 2.41 2.4v.92h.5a4.75 4.75 0 0 1 4.74 4.75v8.25a4.75 4.75 0 0 1-4.75 4.75H9.1a4.75 4.75 0 0 1-4.75-4.75V9.07A4.75 4.75 0 0 1 9.1 4.32h.49V3.4A2.4 2.4 0 0 1 12 .99M8.62 16.3a.9.9 0 0 0 0 1.79h2.74a.9.9 0 0 0 0-1.8H8.62m0-4a.9.9 0 0 0 0 1.79h6.66a.9.9 0 0 0 0-1.8H8.62m0-4a.9.9 0 0 0 0 1.79h6.66a.9.9 0 0 0 0-1.8H8.62M12 2.5a.9.9 0 0 0-.91.9v.92h1.82V3.4a.9.9 0 0 0-.91-.91" clip-rule="evenodd"/></svg>