<svg viewBox="0 0 24 24" xmlns="http://www.w3.org/2000/svg" width="24" height="24"><path fill-rule="evenodd" d="M15.63 2.58c.96 0 1.87.4 2.52 1.1l1.9 2.08c.58.63.9 1.46.9 2.31v8.78c0 2.35-1.9 4.26-4.26 4.26H7.31a4.26 4.26 0 0 1-4.26-4.26V8.07a3.4 3.4 0 0 1 .87-2.29l1.93-2.1c.65-.7 1.56-1.1 2.52-1.1zm0 7.49a.9.9 0 0 0-1.27 0L12 12.43l-2.36-2.36-.07-.06a.9.9 0 0 0-1.27 1.27l.06.06 2.37 2.37-2.37 2.36a.9.9 0 0 0 1.28 1.27L12 14.98l2.36 2.36.07.07a.9.9 0 0 0 1.27-1.27l-.06-.07-2.37-2.36 2.37-2.37a.9.9 0 0 0 0-1.27M8.38 4.36c-.46 0-.9.19-1.2.53l-.57.62-1.57 1.78h13.94L17.41 5.5l-.57-.62a1.6 1.6 0 0 0-1.2-.53z" clip-rule="evenodd"/></svg>