<svg viewBox="0 0 24 24" xmlns="http://www.w3.org/2000/svg" width="24" height="24"><path fill-rule="evenodd" d="M15.63 2.58c.96 0 1.87.4 2.52 1.1l1.9 2.08c.58.63.9 1.46.9 2.31v8.78c0 2.35-1.9 4.26-4.26 4.26H7.31a4.26 4.26 0 0 1-4.26-4.26V8.07a3.4 3.4 0 0 1 .87-2.29l1.93-2.1c.65-.7 1.56-1.1 2.52-1.1zM15.63 9.765A.9 .9 0 0 0 14.36 9.765L12 12.125L9.57 9.705A.9 .9 0 0 0 8.3 10.975L10.73 13.405L8.36 15.765A.9 .9 0 0 0 9.64 17.035L12 14.675L14.43 17.105A.9 .9 0 0 0 15.7 15.835L13.27 13.405L15.64 11.035A.9 .9 0 0 0 15.64 9.765M8.38 4.36C7.92 4.36 7.48 4.55 7.18 4.89L5.04 7.29L18.98 7.29L16.84 4.88A1.6 1.6 0 0 0 15.64 4.35Z" clip-rule="evenodd"/></svg>