<svg viewBox="0 0 24 24" xmlns="http://www.w3.org/2000/svg" width="24" height="24"><path fill-rule="evenodd" d="M15.63 2.58c.96 0 1.87.4 2.52 1.1l1.9 2.08c.58.63.9 1.46.9 2.31v8.78c0 2.35-1.9 4.26-4.26 4.26H7.31a4.26 4.26 0 0 1-4.26-4.26V8.07a3.4 3.4 0 0 1 .87-2.29l1.93-2.1c.65-.7 1.56-1.1 2.52-1.1zM12 9.53A.9 .9 0 0 0 11.1 10.34L11.1 14.83L9.34 13.07A.9 .9 0 0 0 8.07 14.34L11.37 17.64A.9 .9 0 0 0 12.64 17.64L16 14.27A.9 .9 0 0 0 14.73 13L12.9 14.83L12.9 10.34A.9 .9 0 0 0 12 9.54M8.37 4.36C7.91 4.36 7.47 4.55 7.17 4.89L5.03 7.29L18.97 7.29L16.84 4.88A1.6 1.6 0 0 0 15.64 4.35Z" clip-rule="evenodd"/></svg>