<svg viewBox="0 0 24 24" xmlns="http://www.w3.org/2000/svg" width="24" height="24"><path fill-rule="evenodd" d="M12 1a11 11 0 1 1 0 22 11 11 0 0 1 0-22M11.71 6.94A.5 .5 0 0 0 11.19 7.02L7.39 10.39A1.47 1.47 0 0 0 7.39 12.59L11.19 15.96A.5 .5 0 0 0 12 15.59L12 13.75C13.1 13.79 13.87 13.98 14.46 14.29C15.06 14.59 15.52 15.03 16.02 15.62L16.23 15.89A.5 .5 0 0 0 17.11 15.59C17.11 14.09 16.86 12.51 16.01 11.29C15.21 10.13 13.91 9.36 12.01 9.25L12.01 7.4L12 7.3A.5 .5 0 0 0 11.71 6.93" clip-rule="evenodd"/></svg>