<svg viewBox="0 0 24 24" xmlns="http://www.w3.org/2000/svg" width="24" height="24"><path fill-rule="evenodd" d="M12.27 1a5 5 0 0 1 4.74 5v1.04c1.09.05 1.84.18 2.47.5a5 5 0 0 1 2.19 2.19c.54 1.07.54 2.47.54 5.27s0 4.2-.54 5.27a5 5 0 0 1-2.19 2.19c-1.07.54-2.47.54-5.27.54H9.8c-2.8 0-4.2 0-5.27-.54a5 5 0 0 1-2.19-2.19C1.8 19.2 1.8 17.8 1.8 15s0-4.2.54-5.27a5 5 0 0 1 2.19-2.19A6 6 0 0 1 7 7.04V5.99a5 5 0 0 1 4.74-4.98L12 1zm-1.64 11.36a.9.9 0 0 0-1.27 1.27L10.73 15l-1.37 1.37-.06.07a.9.9 0 0 0 1.27 1.26l.06-.06L12 16.27l1.37 1.37.07.06a.9.9 0 0 0 1.26-1.27l-.06-.06L13.28 15l1.36-1.37a.9.9 0 0 0-1.27-1.27L12 13.73zM12 2.8a3.2 3.2 0 0 0-3.2 3.03V7h6.42V6a3.2 3.2 0 0 0-3.03-3.2z" clip-rule="evenodd"/></svg>