<svg viewBox="0 0 24 24" xmlns="http://www.w3.org/2000/svg" width="24" height="24"><path fill-rule="evenodd" d="M12.27 1a5 5 0 0 1 4.74 5v1.04c1.09.05 1.84.18 2.47.5a5 5 0 0 1 2.19 2.19c.54 1.07.54 2.47.54 5.27s0 4.2-.54 5.27a5 5 0 0 1-2.19 2.19c-1.07.54-2.47.54-5.27.54H9.8c-2.8 0-4.2 0-5.27-.54a5 5 0 0 1-2.19-2.19C1.8 19.2 1.8 17.8 1.8 15s0-4.2.54-5.27a5 5 0 0 1 2.19-2.19A6 6 0 0 1 7 7.04V5.99a5 5 0 0 1 4.74-4.98L12 1zm3.05 10.3a.9.9 0 0 0-1.2.2l-.05.08-3.03 4.82-1.18-1.46A.9.9 0 0 0 8.41 16l.05.07 1.26 1.56q.17.22.34.4c.1.1.26.25.48.34l.1.04q.52.17 1.03-.06l.1-.05c.2-.12.34-.28.43-.4q.15-.2.29-.43l3.1-4.93a.9.9 0 0 0-.27-1.24m-3.33-8.5a3.2 3.2 0 0 0-3.2 3.03V7h6.42V6a3.2 3.2 0 0 0-3.03-3.2z" clip-rule="evenodd"/></svg>