<svg viewBox="0 0 24 24" xmlns="http://www.w3.org/2000/svg" width="24" height="24"><path d="M12.92 14.51a.63.63 0 0 1 .62.63v3.45c0 1.06.6 1.56.96 1.93l.05.08a.16.16 0 0 1-.16.19H4.77q-2.34 0-3.2-1.59c-.33-.62-.56-1.45-.56-3.43a1.26 1.26 0 0 1 1.25-1.26z"/><path fill-rule="evenodd" d="M15.01 3.17a.5.5 0 0 1 .46 0l1.79.92q.22.1.45 0l1.38-.68a.5.5 0 0 1 .72.45v14.89a2.04 2.04 0 0 1-2.04 2.04h-.47c-1.2 0-2.5-.99-2.5-2.2v-4.08a1.26 1.26 0 0 0-1.26-1.25H5.86V3.82c0-.36.37-.6.7-.46l1.72.75q.22.09.43-.02l1.81-.92a.5.5 0 0 1 .46 0l1.78.91a.5.5 0 0 0 .46 0zm-3.18 6.69a.9.9 0 0 0 0 1.8h5a.9.9 0 0 0 0-1.8zm-2.9-3.53a.9.9 0 0 0 0 1.8h7.9a.9.9 0 0 0 0-1.8z" clip-rule="evenodd"/></svg>