<svg viewBox="0 0 24 24" xmlns="http://www.w3.org/2000/svg" width="24" height="24"><path d="M18.37 8.08c.49.06.84.5.78 1l-.93 8.25-.17 1.32q-.09.6-.2 1.07c-.16.67-.4 1.25-.86 1.74q-.27.3-.6.51c-.55.38-1.16.54-1.86.62q-.99.09-2.48.07h-.1q-1.5.02-2.48-.07a4 4 0 0 1-1.86-.62 4 4 0 0 1-.6-.5 3.7 3.7 0 0 1-.86-1.75q-.2-.95-.37-2.39l-.95-8.25a.9.9 0 0 1 1-1z"/><path fill-rule="evenodd" d="M12.13 2.06c.62 0 1.14 0 1.59.14.82.27 1.47.9 1.76 1.72q.14.42.15.94h4.08a.9.9 0 0 1 0 1.8H4.3a.9.9 0 0 1 0-1.8h4.08q0-.52.15-.94a2.8 2.8 0 0 1 1.76-1.72c.45-.15.97-.14 1.59-.14zM12 3.86c-.82 0-1.02 0-1.15.05a1 1 0 0 0-.64.61c-.02.06-.03.14-.04.34h3.66c-.01-.2-.02-.28-.04-.34a1 1 0 0 0-.64-.6A5 5 0 0 0 12 3.85" clip-rule="evenodd"/></svg>