<svg viewBox="0 0 24 24" xmlns="http://www.w3.org/2000/svg" width="24" height="24"><path d="M9.4 5.43c-1.62-.79-3.9-1.18-6.96-1.19a1.4 1.4 0 0 0-1.27.77q-.17.33-.17.7v12.56c0 .88.62 1.55 1.44 1.55 3.21 0 6.43.3 8.36 2.16a.2.2 0 0 0 .2.03.2.2 0 0 0 .11-.17V6.94a.7.7 0 0 0-.24-.55q-.66-.58-1.46-.96m12.15-1.19a1.4 1.4 0 0 1 1.28.77q.16.33.16.7v12.64q0 .62-.42 1.04c-.27.28-.64.43-1.02.43-5.18 0-7.21.98-8.37 2.15a.2.2 0 0 1-.2.03l-.07-.06-.03-.1V6.94a.7.7 0 0 1 .24-.55q.68-.58 1.46-.96c1.63-.79 3.91-1.18 6.97-1.19"/></svg>