<svg viewBox="0 0 24 24" xmlns="http://www.w3.org/2000/svg" width="24" height="24"><path fill-rule="evenodd" d="M16.91 1.63a2.66 2.66 0 0 1 2.65 2.62v10.6q0 .75-.02 1.26c-.03.3-.08.71-.32 1.06-.42.6-1.14.9-1.86.78-.4-.06-.71-.29-.95-.48v.19q0 .88-.03 1.44c-.03.35-.1.78-.38 1.1-.36.43-.9.66-1.46.62a2 2 0 0 1-1.06-.5q-.44-.36-1.06-.97l-1.33-1.3-.42-.39-.1-.07h-.15l-.09.07q-.13.11-.42.4l-1.33 1.3q-.62.61-1.05.98c-.28.22-.63.47-1.07.5-.55.04-1.1-.18-1.45-.61a2 2 0 0 1-.39-1.11q-.04-.57-.03-1.45V7.25a2.44 2.44 0 0 1 2.5-2.47h.35v-.53a2.6 2.6 0 0 1 2.64-2.62zm-6.83 1.8a1 1 0 0 0-.62.24.8.8 0 0 0-.22.58v.53h4.67a2.47 2.47 0 0 1 2.5 2.48v7.84q.15.06.3.19a17 17 0 0 0 .97.88l.03-.01.03-.2q.03-.34.02-1.12V4.25a.8.8 0 0 0-.24-.58 1 1 0 0 0-.61-.24z" clip-rule="evenodd"/></svg>