<svg viewBox="0 0 24 24" xmlns="http://www.w3.org/2000/svg" width="24" height="24"><path d="M15.875 1.75A3.1 3.1 0 0 1 19.025 4.87L19.025 17.76Q19.025 18.7 18.995 19.3C18.965 19.67 18.895 20.12 18.595 20.46C18.215 20.89 17.655 21.1 17.085 21.04A2 2 0 0 1 16.005 20.46Q15.575 20.05 14.945 19.35L12.065 16.25A.3 .3 0 0 0 11.905 16.25L11.355 16.79L9.075 19.24Q8.435 19.94 8.005 20.34C7.735 20.58 7.375 20.86 6.935 20.9A1.8 1.8 0 0 1 5.435 20.31A2 2 0 0 1 5.035 19.16Q4.995 18.57 5.005 17.64L5.005 4.86A3.07 3.07 0 0 1 8.135 1.75Z"/></svg>