<svg viewBox="0 0 24 24" xmlns="http://www.w3.org/2000/svg" width="24" height="24"><path fill-rule="evenodd" d="M16.91 1.63A2.66 2.66 0 0 1 19.56 4.25L19.56 14.85Q19.56 15.6 19.54 16.11C19.51 16.41 19.46 16.82 19.22 17.17C18.8 17.77 18.08 18.07 17.36 17.95C16.96 17.89 16.65 17.66 16.41 17.47L16.41 17.66Q16.41 18.54 16.38 19.1C16.35 19.45 16.28 19.88 16 20.2C15.64 20.63 15.1 20.86 14.54 20.82A2 2 0 0 1 13.48 20.32Q13.04 19.96 12.42 19.35L10.57 17.59L10.42 17.59L10.33 17.66Q10.2 17.77 9.91 18.06L8.58 19.36Q7.96 19.97 7.53 20.34C7.25 20.56 6.9 20.81 6.46 20.84C5.91 20.88 5.36 20.66 5.01 20.23A2 2 0 0 1 4.62 19.12Q4.58 18.55 4.59 17.67L4.59 7.25A2.44 2.44 0 0 1 7.09 4.78L7.44 4.78L7.44 4.25A2.6 2.6 0 0 1 10.08 1.63ZM10.08 3.43A1 1 0 0 0 9.46 3.67A.8 .8 0 0 0 9.24 4.25L9.24 4.78L13.91 4.78A2.47 2.47 0 0 1 16.41 7.26L16.41 15.1Q16.56 15.16 16.71 15.29A17 17 0 0 0 17.68 16.17L17.74 15.96Q17.77 15.62 17.76 14.84L17.76 4.25A.8 .8 0 0 0 17.52 3.67A1 1 0 0 0 16.91 3.43Z" clip-rule="evenodd"/></svg>