<svg viewBox="0 0 24 24" xmlns="http://www.w3.org/2000/svg" width="24" height="24"><path d="M14.2 18.36a.9.9 0 0 1 .87 1.13l-.37 1.4a2.8 2.8 0 0 1-5.4 0l-.37-1.4a.9.9 0 0 1 .87-1.13zM12 1.05a7.27 7.27 0 0 1 7.32 7.32c0 2.18-.78 4.07-2.24 5.46l-.23.22c-.81.77-1.92 1.3-1.92 2.22v.1a.73.73 0 0 1-.73.72h-.92a.37.37 0 0 1-.36-.36v-4.85a.4.4 0 0 1 .23-.34c.42-.17.64-.39 1.01-.65a.73.73 0 0 0-.85-1.19c-.34.24-.99.6-1.31.6a3 3 0 0 1-1.31-.6.73.73 0 0 0-1.17.42.7.7 0 0 0 .32.77c.37.26.6.48 1.03.65a.4.4 0 0 1 .23.35v4.84a.37.37 0 0 1-.36.36H9.8a.73.73 0 0 1-.74-.73v-.1c0-.93-1.12-1.46-1.95-2.23l-.2-.2a7.5 7.5 0 0 1-2.24-5.46A7.3 7.3 0 0 1 12 1.05"/></svg>