<svg viewBox="0 0 24 24" xmlns="http://www.w3.org/2000/svg" width="24" height="24"><path d="M9.9 11.7Q10 11.7 10 11.8L10 13.8A.1 .1 0 0 1 9.9 13.9L7.9 13.9A.1 .1 0 0 1 7.8 13.8L7.8 11.8Q7.8 11.7 7.9 11.7Z"/><path fill-rule="evenodd" d="M20.56 8.4c.42 0 .76.34.76.76v7.14a4.75 4.75 0 0 1-4.75 4.75H7.43a4.75 4.75 0 0 1-4.75-4.75V9.16c0-.42.34-.76.76-.76zM7.9 9.9A1.9 1.9 0 0 0 6 11.8L6 13.8C6 14.85 6.85 15.7 7.9 15.7L9.9 15.7A1.9 1.9 0 0 0 11.8 13.8L11.8 11.8A1.9 1.9 0 0 0 9.9 9.9Z" clip-rule="evenodd"/><path d="M16.17 1c.41 0 .75.34.75.75v.65h.66a3.74 3.74 0 0 1 3.74 3.75c0 .41-.34.75-.75.75H3.43a.76.76 0 0 1-.75-.75A3.74 3.74 0 0 1 6.42 2.4h.68v-.65a.75.75 0 0 1 1.5 0v.65h6.82v-.65c0-.41.34-.75.75-.75"/></svg>