<svg viewBox="0 0 24 24" xmlns="http://www.w3.org/2000/svg" width="24" height="24"><path fill-rule="evenodd" d="M20.56 8.4c.42 0 .76.34.76.76v7.14a4.75 4.75 0 0 1-4.75 4.75H7.43a4.75 4.75 0 0 1-4.75-4.75V9.16c0-.42.34-.76.76-.76zm-14.06 8a1 1 0 1 0 0 2 1 1 0 0 0 0-2m3 0a1 1 0 1 0 0 2 1 1 0 0 0 0-2m3 0a1 1 0 1 0 0 2 1 1 0 0 0 0-2m-6-3a1 1 0 1 0 0 2 1 1 0 0 0 0-2m3 0a1 1 0 1 0 0 2 1 1 0 0 0 0-2m3 0a1 1 0 1 0 0 2 1 1 0 0 0 0-2m3 0a1 1 0 1 0 0 2 1 1 0 0 0 0-2m-1-3a1 1 0 1 0 0 2 1 1 0 0 0 0-2m3 0a1 1 0 1 0 0 2 1 1 0 0 0 0-2" clip-rule="evenodd"/><path d="M16.17 1c.41 0 .75.34.75.75v.65h.66a3.74 3.74 0 0 1 3.74 3.75c0 .41-.34.75-.75.75H3.43a.76.76 0 0 1-.75-.75A3.74 3.74 0 0 1 6.42 2.4h.68v-.65a.75.75 0 0 1 1.5 0v.65h6.82v-.65c0-.41.34-.75.75-.75"/></svg>