<svg viewBox="0 0 24 24" xmlns="http://www.w3.org/2000/svg" width="24" height="24"><path fill-rule="evenodd" d="M20.56 8.4c.42 0 .76.34.76.76v7.14a4.75 4.75 0 0 1-4.75 4.75H7.43a4.75 4.75 0 0 1-4.75-4.75V9.16c0-.42.34-.76.76-.76zM6.5 15.9A1 1 0 1 0 6.5 17.9A1 1 0 0 0 6.5 15.9M9.5 15.9A1 1 0 1 0 9.5 17.9A1 1 0 0 0 9.5 15.9M12.5 15.9A1 1 0 1 0 12.5 17.9A1 1 0 0 0 12.5 15.9M6.5 12.9A1 1 0 1 0 6.5 14.9A1 1 0 0 0 6.5 12.9M9.5 12.9A1 1 0 1 0 9.5 14.9A1 1 0 0 0 9.5 12.9M12.5 12.9A1 1 0 1 0 12.5 14.9A1 1 0 0 0 12.5 12.9M15.5 12.9A1 1 0 1 0 15.5 14.9A1 1 0 0 0 15.5 12.9M14.5 9.9A1 1 0 1 0 14.5 11.9A1 1 0 0 0 14.5 9.9M17.5 9.9A1 1 0 1 0 17.5 11.9A1 1 0 0 0 17.5 9.9" clip-rule="evenodd"/><path d="M16.17 1c.41 0 .75.34.75.75v.65h.66a3.74 3.74 0 0 1 3.74 3.75c0 .41-.34.75-.75.75H3.43a.76.76 0 0 1-.75-.75A3.74 3.74 0 0 1 6.42 2.4h.68v-.65a.75.75 0 0 1 1.5 0v.65h6.82v-.65c0-.41.34-.75.75-.75"/></svg>