<svg viewBox="0 0 24 24" xmlns="http://www.w3.org/2000/svg" width="24" height="24"><path fill-rule="evenodd" d="M13.7 2c.83 0 1.25 0 1.6.14a2 2 0 0 1 .8.58c.24.29.38.68.64 1.47l.11.34q.05.17.1.23.1.18.3.23l.25.01c1.4 0 2.1 0 2.67.17a4 4 0 0 1 2.66 2.67A10 10 0 0 1 23 10.5v3.1c0 2.24 0 3.36-.43 4.22a4 4 0 0 1-1.75 1.74c-.86.44-1.98.44-4.22.44H7.41c-2.24 0-3.36 0-4.21-.44a4 4 0 0 1-1.75-1.74C1 16.96 1 15.84 1 13.6v-3.11c0-1.39 0-2.08.17-2.64a4 4 0 0 1 1.87-2.33V4.9a.9.9 0 0 1 .9-.8h.81c.45.05.8.43.8.9h1.2a.5.5 0 0 0 .3-.23c.04-.05.06-.1.1-.23l.11-.34c.26-.79.4-1.18.64-1.47a2 2 0 0 1 .8-.58C9.05 2 9.47 2 10.3 2zM8.5 8.86a2 2 0 0 0-1.17 0l-.2.08q-.25.13-.45.3l-.53.5-.61.62-.06.07a.9.9 0 0 0 1.26 1.26l.07-.06.18-.17c0 1.46.26 2.42.8 3.27a5 5 0 0 0 2.18 1.86c.9.39 1.88.49 2.83.3a.9.9 0 0 0-.37-1.77 3 3 0 0 1-1.74-.18 3 3 0 0 1-1.38-1.18c-.31-.49-.52-1.09-.53-2.37l.24.24a.9.9 0 0 0 1.34-1.2l-.06-.07-.61-.61q-.3-.3-.53-.5a2 2 0 0 0-.46-.31zm5.55-1.58A4.7 4.7 0 0 0 11.22 7a.9.9 0 0 0 .37 1.76 3 3 0 0 1 1.75.18 3 3 0 0 1 1.37 1.18c.31.49.52 1.1.53 2.37l-.24-.24a.9.9 0 0 0-1.34 1.2l.06.07.62.62.52.5q.2.16.46.3l.2.08q.59.2 1.17 0l.2-.07q.27-.15.45-.31.25-.22.53-.5l.61-.62.06-.06a.9.9 0 0 0-1.26-1.27l-.07.06-.17.17a6 6 0 0 0-.81-3.27 5 5 0 0 0-2.18-1.86" clip-rule="evenodd"/></svg>