<svg viewBox="0 0 24 24" xmlns="http://www.w3.org/2000/svg" width="24" height="24"><path d="M12 8.83a3.2 3.2 0 1 1 0 6.4 3.2 3.2 0 0 1 0-6.4"/><path fill-rule="evenodd" d="M13.7 2c.83 0 1.25 0 1.6.14a2 2 0 0 1 .8.58c.24.29.38.68.64 1.47l.11.34q.05.17.1.23.1.18.3.23l.25.01c1.4 0 2.1 0 2.67.17a4 4 0 0 1 2.66 2.67A10 10 0 0 1 23 10.5v3.1c0 2.24 0 3.36-.43 4.22a4 4 0 0 1-1.75 1.74c-.86.44-1.98.44-4.22.44H7.41c-2.24 0-3.36 0-4.21-.44a4 4 0 0 1-1.75-1.74C1 16.96 1 15.84 1 13.6v-3.11c0-1.39 0-2.08.17-2.64a4 4 0 0 1 1.87-2.33V4.9a.9.9 0 0 1 .9-.8h.81c.45.05.8.43.8.9h1.2a.5.5 0 0 0 .3-.23c.04-.05.06-.1.1-.23l.11-.34c.26-.79.4-1.18.64-1.47a2 2 0 0 1 .8-.58C9.05 2 9.47 2 10.3 2zM12 7.03a5 5 0 1 0 0 10 5 5 0 0 0 0-10" clip-rule="evenodd"/></svg>