<svg viewBox="0 0 24 24" xmlns="http://www.w3.org/2000/svg" width="24" height="24"><path d="M8.6 18.93a1.7 1.7 0 1 1-1.87 1.87v-.35a1.7 1.7 0 0 1 1.7-1.53zm11.24 0a1.7 1.7 0 1 1-1.87 1.87v-.35a1.7 1.7 0 0 1 1.7-1.53zM2.53 2.27q.7 0 1.19.02.5.02 1 .23l.18.09q.63.34 1.04.93l.13.23q.18.35.26.72l.05.19h12.7q.4 0 .74.03a3 3 0 0 1 1.3.37l.21.14q.75.54 1.06 1.41l.05.17q.13.58.04 1.17-.03.33-.11.74l-.18.88-.33 1.63q-.13.67-.25 1.14-.1.36-.28.7l-.13.21q-.41.59-1.04.9l-.18.1q-.48.19-.98.21-.48.04-1.16.03H8.13l.11.54c.06.23.1.33.15.38l.1.12q.15.18.36.27l.14.05.26.03c.25.02.57.02 1.06.02h10.26a.9.9 0 0 1 0 1.8H10.3q-.7 0-1.2-.03-.38-.02-.74-.13l-.25-.1a3 3 0 0 1-1.1-.86l-.13-.16c-.2-.3-.3-.61-.4-.94l-.22-1.17-1.48-8.36a16 16 0 0 0-.28-1.3l-.06-.12a1 1 0 0 0-.33-.32l-.14-.07a1 1 0 0 0-.4-.07l-1.05-.02H2a.9.9 0 0 1 0-1.8z"/></svg>