<svg viewBox="0 0 24 24" xmlns="http://www.w3.org/2000/svg" width="24" height="24"><path d="M8.6 18.93a1.7 1.7 0 1 1-1.87 1.87v-.35a1.7 1.7 0 0 1 1.7-1.53zm11.24 0a1.7 1.7 0 1 1-1.87 1.87v-.35a1.7 1.7 0 0 1 1.7-1.53zM2.53 2.27Q3.23 2.27 3.72 2.29Q4.22 2.31 4.72 2.52L4.9 2.61Q5.53 2.95 5.94 3.54L6.07 3.77Q6.25 4.12 6.33 4.49L6.38 4.68L19.08 4.68Q19.48 4.68 19.82 4.71A3 3 0 0 1 21.12 5.08L21.33 5.22Q22.08 5.76 22.39 6.63L22.44 6.8Q22.57 7.38 22.48 7.97Q22.45 8.3 22.37 8.71L21.86 11.22Q21.73 11.89 21.61 12.36Q21.51 12.72 21.33 13.06L21.2 13.27Q20.79 13.86 20.16 14.17L19.98 14.27Q19.5 14.46 19 14.48Q18.52 14.52 17.84 14.51L8.13 14.51L8.24 15.05C8.3 15.28 8.34 15.38 8.39 15.43L8.49 15.55Q8.64 15.73 8.85 15.82L8.99 15.87L9.25 15.9C9.5 15.92 9.82 15.92 10.31 15.92L20.57 15.92A.9 .9 0 0 1 20.57 17.72L10.3 17.72Q9.6 17.72 9.1 17.69Q8.72 17.67 8.36 17.56L8.11 17.46A3 3 0 0 1 7.01 16.6L6.88 16.44C6.68 16.14 6.58 15.83 6.48 15.5L4.78 5.97A16 16 0 0 0 4.5 4.67L4.44 4.55A1 1 0 0 0 4.11 4.23L3.97 4.16A1 1 0 0 0 3.57 4.09L2 4.07A.9 .9 0 0 1 2 2.27Z"/></svg>