<svg viewBox="0 0 24 24" xmlns="http://www.w3.org/2000/svg" width="24" height="24"><path d="M2.78 9.44a.3.3 0 0 1 .53.12l.01.24c0 4.1 2.29 7.67 5.66 9.5q1.96 1.15 4.18 1.74c.4.11.6.16.67.26q.09.14.02.3c-.05.1-.23.17-.6.32a13.8 13.8 0 0 1-10.2.08c-.34-.13-.4-.57-.18-.85q.68-.82.96-1.9a1 1 0 0 0-.18-.79 8.8 8.8 0 0 1-.87-9.02"/><path d="M14.12 1a8.89 8.89 0 0 1 7.33 13.92c-.17.24-.25.37-.3.49s-.06.26-.05.37c0 .14.03.22.08.4q.23.7.62 1.29c.27.38.4.58.41.72q.02.2-.12.35c-.08.1-.26.17-.61.3a13.8 13.8 0 0 1-11.6-1.13A8.89 8.89 0 0 1 14.13 1"/></svg>