<svg viewBox="0 0 24 24" xmlns="http://www.w3.org/2000/svg" width="24" height="24"><path fill-rule="evenodd" d="M12 1a11 11 0 1 1 0 22 11 11 0 0 1 0-22M17.54 7.87A1 1 0 0 0 16.16 8.2L12.08 14.78L12.03 14.87A1 1 0 0 0 13.72 15.92L13.78 15.83L17.86 9.25A1 1 0 0 0 17.54 7.87M13.18 7.88A1 1 0 0 0 11.86 8.12L11.8 8.2L8.28 13.88L7.12 12.2L7.06 12.12A1 1 0 0 0 5.42 13.25L5.47 13.34L6.81 15.27Q6.97 15.51 7.14 15.72C7.24 15.84 7.4 16.02 7.64 16.14L7.76 16.19C8.13 16.33 8.55 16.32 8.92 16.16L9.02 16.1C9.26 15.97 9.42 15.79 9.51 15.66Q9.67 15.44 9.81 15.19L13.5 9.26L13.55 9.16A1 1 0 0 0 13.18 7.88" clip-rule="evenodd"/></svg>