<svg viewBox="0 0 24 24" xmlns="http://www.w3.org/2000/svg" width="24" height="24"><path fill-rule="evenodd" d="M12 1a11 11 0 1 1 0 22 11 11 0 0 1 0-22m5.54 7.17a1 1 0 0 0-1.38.33l-4.08 6.58-.05.09a1 1 0 0 0 1.69 1.05l.06-.09 4.08-6.58a1 1 0 0 0-.32-1.38m-4.36.01a1 1 0 0 0-1.32.24l-.06.08-3.52 5.68-1.16-1.68-.06-.08a1 1 0 0 0-1.64 1.13l.05.09 1.34 1.93q.16.24.33.45c.1.12.26.3.5.42l.12.05c.37.14.79.13 1.16-.03l.1-.06c.24-.13.4-.31.49-.44q.16-.22.3-.47l3.69-5.93.05-.1a1 1 0 0 0-.37-1.28" clip-rule="evenodd"/></svg>