<svg viewBox="0 0 24 24" xmlns="http://www.w3.org/2000/svg" width="24" height="24"><path d="M12.9 19.92L14.33 18.51A.9 .9 0 0 1 15.59 19.77L12.65 22.73A.9 .9 0 0 1 11.37 22.73L8.5 19.84A.9 .9 0 0 1 9.77 18.57L11.12 19.92L11.12 16.03L12.92 16.03ZM12 1c3.32 0 6.1 2.35 6.75 6.04.82.15 1.68.48 2.4 1.03a4.2 4.2 0 0 1 1.67 3.42c0 1.5-.57 2.68-1.55 3.47a5.6 5.6 0 0 1-3.48 1.07h-4.88v-5.47a.9.9 0 0 0-1.8 0v5.47H7.04c-3.14 0-5.86-2.22-5.86-5.53 0-1.66.64-3 1.68-3.95.87-.8 2-1.29 3.18-1.5A6.4 6.4 0 0 1 12 1"/></svg>