<svg viewBox="0 0 24 24" xmlns="http://www.w3.org/2000/svg" width="24" height="24"><path d="M12.9 19.23v.1a.9.9 0 0 1-1.79 0v-3.3h1.8zM12 1C15.32 1 18.1 3.35 18.75 7.04C19.57 7.19 20.43 7.52 21.15 8.07A4.2 4.2 0 0 1 22.82 11.49C22.82 12.99 22.25 14.17 21.27 14.96A5.6 5.6 0 0 1 17.79 16.03L12.91 16.03L12.91 9.97L14.26 11.32A.9 .9 0 0 0 15.53 10.05L12.64 7.16A.9 .9 0 0 0 11.37 7.16L8.43 10.12A.9 .9 0 0 0 9.7 11.38L11.12 9.97L11.12 16.03L7.04 16.03C3.9 16.03 1.18 13.81 1.18 10.5C1.18 8.84 1.82 7.5 2.86 6.55C3.73 5.75 4.86 5.26 6.04 5.05A6.4 6.4 0 0 1 12 1"/></svg>