<svg viewBox="0 0 24 24" xmlns="http://www.w3.org/2000/svg" width="24" height="24"><path d="M23.1 11.68a.6.6 0 0 0-.5-.53l-1.36-.23a.3.3 0 0 1-.24-.25l-.1-.5a.3.3 0 0 1 .15-.32l1.21-.67a.55.55 0 0 0 .27-.69l-.21-.58a.55.55 0 0 0-.65-.35l-1.36.27a.3.3 0 0 1-.31-.15l-.26-.45a.3.3 0 0 1 .02-.35l.91-1.04a.56.56 0 0 0 .02-.74l-.4-.47a.55.55 0 0 0-.72-.11l-1.2.72a.3.3 0 0 1-.34-.04l-.39-.33a.3.3 0 0 1-.1-.33l.5-1.3a.55.55 0 0 0-.23-.7l-.54-.32a.55.55 0 0 0-.71.16l-.88 1.1a.25.25 0 0 1-.3.08c-.03 0-.3-.12-.52-.2a.3.3 0 0 1-.2-.27l.02-1.4a.56.56 0 0 0-.45-.58l-.61-.1a.56.56 0 0 0-.63.38l-.46 1.33a.3.3 0 0 1-.28.19h-.52a.3.3 0 0 1-.29-.2L11 1.4a.56.56 0 0 0-.63-.39l-.6.1a.56.56 0 0 0-.47.58l.03 1.4a.3.3 0 0 1-.21.28l-.5.2q-.18.04-.33-.12l-.86-1.07a.55.55 0 0 0-.72-.15l-.54.31a.55.55 0 0 0-.23.7l.5 1.3a.3.3 0 0 1-.1.34l-.4.33a.3.3 0 0 1-.33.03l-1.18-.73a.56.56 0 0 0-.73.1l-.4.48a.55.55 0 0 0 .03.74l.9 1.04a.3.3 0 0 1 .03.35q-.14.22-.25.45a.3.3 0 0 1-.32.15l-1.36-.26a.55.55 0 0 0-.65.34l-.21.59a.55.55 0 0 0 .27.68l1.21.68a.3.3 0 0 1 .14.31v.07l-.09.44a.3.3 0 0 1-.23.25l-1.38.22a.56.56 0 0 0-.49.55v.62a.55.55 0 0 0 .5.54l1.37.23a.3.3 0 0 1 .24.24q.03.26.09.51a.3.3 0 0 1-.14.32l-1.22.67a.55.55 0 0 0-.27.69l.22.58a.55.55 0 0 0 .64.35l1.37-.27a.3.3 0 0 1 .3.15l.27.45a.3.3 0 0 1-.03.35l-.9 1.05a.56.56 0 0 0-.03.73l.4.48a.55.55 0 0 0 .72.1l1.2-.71a.3.3 0 0 1 .33.03l.4.33a.3.3 0 0 1 .09.33l-.5 1.3a.55.55 0 0 0 .23.7l.54.32a.55.55 0 0 0 .72-.16l.89-1.08q.13-.16.28-.1c.18.08.3.12.53.2a.3.3 0 0 1 .2.27l-.03 1.4a.56.56 0 0 0 .46.57l.61.11a.56.56 0 0 0 .63-.38l.45-1.32a.3.3 0 0 1 .3-.2h.51a.3.3 0 0 1 .28.2L13 22.6a.56.56 0 0 0 .63.4l.6-.12a.56.56 0 0 0 .47-.57l-.03-1.4a.3.3 0 0 1 .2-.28l.48-.17.03-.01c.17-.06.25.01.3.07l.89 1.1a.55.55 0 0 0 .72.15l.53-.31a.55.55 0 0 0 .23-.7l-.49-1.3a.3.3 0 0 1 .09-.33l.4-.33a.3.3 0 0 1 .34-.04l1.2.72a.56.56 0 0 0 .72-.1l.4-.48a.55.55 0 0 0-.03-.74l-.9-1.05a.3.3 0 0 1-.03-.34l.26-.45a.3.3 0 0 1 .3-.15l1.37.26a.55.55 0 0 0 .65-.35l.2-.58a.55.55 0 0 0-.26-.68l-1.22-.68a.3.3 0 0 1-.14-.31l.02-.07.08-.44a.3.3 0 0 1 .23-.25l1.38-.22a.56.56 0 0 0 .49-.55zM8.04 16.69a.84.84 0 0 1-1.36.15 7.2 7.2 0 0 1 .02-9.7.84.84 0 0 1 1.36.15l2.44 4.29a.9.9 0 0 1 0 .84zM12 19.21a7 7 0 0 1-1.51-.16.84.84 0 0 1-.55-1.24l2.46-4.27a.8.8 0 0 1 .73-.43h4.92a.84.84 0 0 1 .8 1.1 7.2 7.2 0 0 1-6.85 5m.4-8.75L9.97 6.18a.84.84 0 0 1 .55-1.24q.73-.15 1.48-.15a7.2 7.2 0 0 1 6.85 5 .84.84 0 0 1-.8 1.1h-4.91a.8.8 0 0 1-.74-.43"/></svg>