<svg viewBox="0 0 24 24" xmlns="http://www.w3.org/2000/svg" width="24" height="24"><path d="M23.1 11.68A.6 .6 0 0 0 22.6 11.15L21.24 10.92A.3 .3 0 0 1 21 10.67L20.9 10.17A.3 .3 0 0 1 21.05 9.85L22.26 9.18A.55 .55 0 0 0 22.53 8.49L22.32 7.91A.55 .55 0 0 0 21.67 7.56L20.31 7.83A.3 .3 0 0 1 20 7.68L19.74 7.23A.3 .3 0 0 1 19.76 6.88L20.67 5.84A.56 .56 0 0 0 20.69 5.1L20.29 4.63A.55 .55 0 0 0 19.57 4.52L18.37 5.24A.3 .3 0 0 1 18.03 5.2L17.64 4.87A.3 .3 0 0 1 17.54 4.54L18.04 3.24A.55 .55 0 0 0 17.81 2.54L17.27 2.22A.55 .55 0 0 0 16.56 2.38L15.68 3.48A.25 .25 0 0 1 15.38 3.56C15.35 3.56 15.08 3.44 14.86 3.36A.3 .3 0 0 1 14.66 3.09L14.68 1.69A.56 .56 0 0 0 14.23 1.11L13.62 1.01A.56 .56 0 0 0 12.99 1.39L12.53 2.72A.3 .3 0 0 1 12.25 2.91L11.73 2.91A.3 .3 0 0 1 11.44 2.71L11 1.4A.56 .56 0 0 0 10.37 1.01L9.77 1.11A.56 .56 0 0 0 9.3 1.69L9.33 3.09A.3 .3 0 0 1 9.12 3.37L8.62 3.57Q8.44 3.61 8.29 3.45L7.43 2.38A.55 .55 0 0 0 6.71 2.23L6.17 2.54A.55 .55 0 0 0 5.94 3.24L6.44 4.54A.3 .3 0 0 1 6.34 4.88L5.94 5.21A.3 .3 0 0 1 5.61 5.24L4.43 4.51A.56 .56 0 0 0 3.7 4.61L3.3 5.09A.55 .55 0 0 0 3.33 5.83L4.23 6.87A.3 .3 0 0 1 4.26 7.22Q4.12 7.44 4.01 7.67A.3 .3 0 0 1 3.69 7.82L2.33 7.56A.55 .55 0 0 0 1.68 7.9L1.47 8.49A.55 .55 0 0 0 1.74 9.17L2.95 9.85A.3 .3 0 0 1 3.09 10.16L3 10.67A.3 .3 0 0 1 2.77 10.92L1.39 11.14A.56 .56 0 0 0 .9 11.69L.9 12.31A.55 .55 0 0 0 1.4 12.85L2.77 13.08A.3 .3 0 0 1 3.01 13.32Q3.04 13.58 3.1 13.83A.3 .3 0 0 1 2.96 14.15L1.74 14.82A.55 .55 0 0 0 1.47 15.51L1.69 16.09A.55 .55 0 0 0 2.33 16.44L3.7 16.17A.3 .3 0 0 1 4 16.32L4.27 16.77A.3 .3 0 0 1 4.24 17.12L3.34 18.17A.56 .56 0 0 0 3.31 18.9L3.71 19.38A.55 .55 0 0 0 4.43 19.48L5.63 18.77A.3 .3 0 0 1 5.96 18.8L6.36 19.13A.3 .3 0 0 1 6.45 19.46L5.95 20.76A.55 .55 0 0 0 6.18 21.46L6.72 21.78A.55 .55 0 0 0 7.44 21.62L8.33 20.54Q8.46 20.38 8.61 20.44C8.79 20.52 8.91 20.56 9.14 20.64A.3 .3 0 0 1 9.34 20.91L9.31 22.31A.56 .56 0 0 0 9.77 22.88L10.38 22.99A.56 .56 0 0 0 11.01 22.61L11.46 21.29A.3 .3 0 0 1 11.76 21.09L12.27 21.09A.3 .3 0 0 1 12.55 21.29L13 22.6A.56 .56 0 0 0 13.63 23L14.23 22.88A.56 .56 0 0 0 14.7 22.31L14.67 20.91A.3 .3 0 0 1 14.87 20.63L15.38 20.45C15.55 20.39 15.63 20.46 15.68 20.52L16.57 21.62A.55 .55 0 0 0 17.29 21.77L17.82 21.46A.55 .55 0 0 0 18.05 20.76L17.56 19.46A.3 .3 0 0 1 17.65 19.13L18.05 18.8A.3 .3 0 0 1 18.39 18.76L19.59 19.48A.56 .56 0 0 0 20.31 19.38L20.71 18.9A.55 .55 0 0 0 20.68 18.16L19.78 17.11A.3 .3 0 0 1 19.75 16.77L20.01 16.32A.3 .3 0 0 1 20.31 16.17L21.68 16.43A.55 .55 0 0 0 22.33 16.08L22.53 15.5A.55 .55 0 0 0 22.27 14.82L21.05 14.14A.3 .3 0 0 1 20.91 13.83L21.01 13.32A.3 .3 0 0 1 21.24 13.07L22.62 12.85A.56 .56 0 0 0 23.11 12.3ZM8.04 16.69a.84.84 0 0 1-1.36.15 7.2 7.2 0 0 1 .02-9.7.84.84 0 0 1 1.36.15l2.44 4.29a.9.9 0 0 1 0 .84zM12 19.21a7 7 0 0 1-1.51-.16.84.84 0 0 1-.55-1.24l2.46-4.27a.8.8 0 0 1 .73-.43h4.92a.84.84 0 0 1 .8 1.1 7.2 7.2 0 0 1-6.85 5m.4-8.75L9.97 6.18a.84.84 0 0 1 .55-1.24q.73-.15 1.48-.15a7.2 7.2 0 0 1 6.85 5 .84.84 0 0 1-.8 1.1h-4.91a.8.8 0 0 1-.74-.43"/></svg>