<svg viewBox="0 0 24 24" xmlns="http://www.w3.org/2000/svg" width="24" height="24"><path d="m19.46 16.66.13.15a1.96 1.96 0 0 1-2.9 2.62l-5.71-5.68a.5.5 0 0 1 0-.71l2.07-2.07c.2-.2.5-.2.7 0zM8.08 8.08c.76-.77 2-.77 2.77 0l1.13 1.12c.2.2.2.52 0 .71l-2.06 2.07a.5.5 0 0 1-.71 0l-1.13-1.12-.14-.15a1.96 1.96 0 0 1 .14-2.63M5.1 11.71a.9.9 0 0 1 1.21 1.33l-1.68 1.69-.07.06a.9.9 0 0 1-1.2-1.34l1.68-1.68zm-.73-3.56a.9.9 0 0 1 0 1.79H1.9a.9.9 0 1 1 0-1.8zm-1.02-4.8a.9.9 0 0 1 1.2-.06l.08.06L6.3 5.04l.06.07A.9.9 0 0 1 5.1 6.37l-.07-.06-1.69-1.68-.06-.07a.9.9 0 0 1 .06-1.2m10.18-.06a.9.9 0 0 1 1.2 1.33L13.05 6.3l-.06.06a.9.9 0 0 1-1.2-1.33l1.67-1.69zM9.04 1c.5 0 .9.4.9.9v2.38a.9.9 0 1 1-1.8 0V1.9c0-.5.4-.9.9-.9"/></svg>