<svg viewBox="0 0 24 24" xmlns="http://www.w3.org/2000/svg" width="24" height="24"><path d="m19.46 16.66.13.15a1.96 1.96 0 0 1-2.9 2.62l-5.71-5.68a.5.5 0 0 1 0-.71l2.07-2.07c.2-.2.5-.2.7 0zM8.08 8.08C8.84 7.31 10.08 7.31 10.85 8.08L11.98 9.2C12.18 9.4 12.18 9.72 11.98 9.91L9.92 11.98A.5 .5 0 0 1 9.21 11.98L7.94 10.71A1.96 1.96 0 0 1 8.08 8.08M5.1 11.71A.9 .9 0 0 1 6.31 13.04L4.56 14.79A.9 .9 0 0 1 3.36 13.45L5.04 11.77ZM4.37 8.15a.9.9 0 0 1 0 1.79H1.9a.9.9 0 1 1 0-1.8zM3.35 3.35A.9 .9 0 0 1 4.55 3.29L6.36 5.11A.9 .9 0 0 1 5.1 6.37L3.28 4.56A.9 .9 0 0 1 3.34 3.36M13.52 3.3A.9 .9 0 0 1 14.72 4.63L12.99 6.36A.9 .9 0 0 1 11.79 5.03L13.46 3.34ZM9.04 1c.5 0 .9.4.9.9v2.38a.9.9 0 1 1-1.8 0V1.9c0-.5.4-.9.9-.9"/></svg>