<svg viewBox="0 0 24 24" xmlns="http://www.w3.org/2000/svg" width="24" height="24"><path d="M14.84 21.475C14.531 21.784 14.137 22.146 13.859 22.365C13.58 22.584 13.385 22.685 13.169 22.792C12.953 22.898 12.758 22.96 12.561 23.006C12.364 23.052 12.179 23.071 11.988 23.07C11.796 23.069 11.611 23.049 11.415 23C11.218 22.952 11.024 22.889 10.808 22.78C10.593 22.672 10.396 22.567 10.121 22.35C9.847 22.132 9.468 21.785 9.16 21.475C8.851 21.166 8.489 20.772 8.27 20.494C8.051 20.215 7.95 20.02 7.843 19.804C7.737 19.588 7.675 19.393 7.629 19.196C7.583 18.999 7.564 18.814 7.565 18.623C7.566 18.431 7.586 18.246 7.635 18.05C7.683 17.853 7.746 17.659 7.855 17.443C7.963 17.228 8.068 17.031 8.285 16.756C8.503 16.482 8.85 16.103 9.16 15.795C9.469 15.486 9.863 15.124 10.141 14.905C10.42 14.686 10.615 14.585 10.831 14.478C11.047 14.372 11.242 14.31 11.439 14.264C11.636 14.218 11.821 14.199 12.012 14.2C12.204 14.201 12.389 14.221 12.585 14.27C12.782 14.318 12.976 14.381 13.192 14.49C13.407 14.598 13.604 14.702 13.879 14.92C14.153 15.138 14.532 15.485 14.84 15.795C15.149 16.104 15.511 16.498 15.73 16.776C15.949 17.055 16.05 17.25 16.157 17.466C16.263 17.682 16.325 17.877 16.371 18.074C16.417 18.271 16.436 18.456 16.435 18.647C16.434 18.839 16.414 19.024 16.365 19.22C16.317 19.417 16.254 19.611 16.145 19.827C16.037 20.042 15.932 20.239 15.715 20.514C15.497 20.788 15.15 21.167 14.84 21.475ZM8.21 14.84C7.901 15.149 7.507 15.511 7.229 15.73C6.95 15.949 6.755 16.05 6.539 16.157C6.323 16.263 6.128 16.325 5.931 16.371C5.734 16.417 5.549 16.436 5.358 16.435C5.166 16.434 4.981 16.414 4.785 16.365C4.588 16.317 4.394 16.254 4.178 16.145C3.963 16.037 3.766 15.932 3.491 15.715C3.217 15.497 2.838 15.15 2.53 14.84C2.221 14.531 1.859 14.137 1.64 13.859C1.421 13.58 1.32 13.385 1.213 13.169C1.107 12.953 1.045 12.758 .999 12.561C.953 12.364 .934 12.179 .935 11.988C.936 11.796 .956 11.611 1.005 11.415C1.053 11.218 1.116 11.024 1.225 10.808C1.333 10.593 1.438 10.396 1.655 10.121C1.873 9.847 2.22 9.468 2.53 9.16C2.839 8.851 3.233 8.489 3.511 8.27C3.79 8.051 3.985 7.95 4.201 7.843C4.417 7.737 4.612 7.675 4.809 7.629C5.006 7.583 5.191 7.564 5.382 7.565C5.574 7.566 5.759 7.586 5.955 7.635C6.152 7.683 6.346 7.746 6.562 7.855C6.777 7.963 6.974 8.068 7.249 8.285C7.523 8.503 7.902 8.85 8.21 9.16C8.519 9.469 8.881 9.863 9.1 10.141C9.319 10.42 9.42 10.615 9.527 10.831C9.633 11.047 9.695 11.242 9.741 11.439C9.787 11.636 9.806 11.821 9.805 12.012C9.804 12.204 9.784 12.389 9.735 12.585C9.687 12.782 9.624 12.976 9.515 13.192C9.407 13.407 9.302 13.604 9.085 13.879C8.867 14.153 8.52 14.532 8.21 14.84ZM21.475 14.84C21.166 15.149 20.772 15.511 20.494 15.73C20.215 15.949 20.02 16.05 19.804 16.157C19.588 16.263 19.393 16.325 19.196 16.371C18.999 16.417 18.814 16.436 18.623 16.435C18.431 16.434 18.246 16.414 18.05 16.365C17.853 16.317 17.659 16.254 17.443 16.145C17.228 16.037 17.031 15.932 16.756 15.715C16.482 15.497 16.103 15.15 15.795 14.84C15.486 14.531 15.124 14.137 14.905 13.859C14.686 13.58 14.585 13.385 14.478 13.169C14.372 12.953 14.31 12.758 14.264 12.561C14.218 12.364 14.199 12.179 14.2 11.988C14.201 11.796 14.221 11.611 14.27 11.415C14.318 11.218 14.381 11.024 14.49 10.808C14.598 10.593 14.702 10.396 14.92 10.121C15.138 9.847 15.485 9.468 15.795 9.16C16.104 8.851 16.498 8.489 16.776 8.27C17.055 8.051 17.25 7.95 17.466 7.843C17.682 7.737 17.877 7.675 18.074 7.629C18.271 7.583 18.456 7.564 18.647 7.565C18.839 7.566 19.024 7.586 19.22 7.635C19.417 7.683 19.611 7.746 19.827 7.855C20.042 7.963 20.239 8.068 20.514 8.285C20.788 8.503 21.167 8.85 21.475 9.16C21.784 9.469 22.146 9.863 22.365 10.141C22.584 10.42 22.685 10.615 22.792 10.831C22.898 11.047 22.96 11.242 23.006 11.439C23.052 11.636 23.071 11.821 23.07 12.012C23.069 12.204 23.049 12.389 23 12.585C22.952 12.782 22.889 12.976 22.78 13.192C22.672 13.407 22.567 13.604 22.35 13.879C22.132 14.153 21.785 14.532 21.475 14.84ZM14.84 8.21C14.531 8.519 14.137 8.881 13.859 9.1C13.58 9.319 13.385 9.42 13.169 9.527C12.953 9.633 12.758 9.695 12.561 9.741C12.364 9.787 12.179 9.806 11.988 9.805C11.796 9.804 11.611 9.784 11.415 9.735C11.218 9.687 11.024 9.624 10.808 9.515C10.593 9.407 10.396 9.302 10.121 9.085C9.847 8.867 9.468 8.52 9.16 8.21C8.851 7.901 8.489 7.507 8.27 7.229C8.051 6.95 7.95 6.755 7.843 6.539C7.737 6.323 7.675 6.128 7.629 5.931C7.583 5.734 7.564 5.549 7.565 5.358C7.566 5.166 7.586 4.981 7.635 4.785C7.683 4.588 7.746 4.394 7.855 4.178C7.963 3.963 8.068 3.766 8.285 3.491C8.503 3.217 8.85 2.838 9.16 2.53C9.469 2.221 9.863 1.859 10.141 1.64C10.42 1.421 10.615 1.32 10.831 1.213C11.047 1.107 11.242 1.045 11.439 .999C11.636 .953 11.821 .934 12.012 .935C12.204 .936 12.389 .956 12.585 1.005C12.782 1.053 12.976 1.116 13.192 1.225C13.407 1.333 13.604 1.438 13.879 1.655C14.153 1.873 14.532 2.22 14.84 2.53C15.149 2.839 15.511 3.233 15.73 3.511C15.949 3.79 16.05 3.985 16.157 4.201C16.263 4.417 16.325 4.612 16.371 4.809C16.417 5.006 16.436 5.191 16.435 5.382C16.434 5.574 16.414 5.759 16.365 5.955C16.317 6.152 16.254 6.346 16.145 6.562C16.037 6.777 15.932 6.974 15.715 7.249C15.497 7.523 15.15 7.902 14.84 8.21Z"/></svg>