<svg viewBox="0 0 24 24" xmlns="http://www.w3.org/2000/svg" width="24" height="24"><g clip-path="url(#a)"><path d="M11 14.37a3 3 0 0 1 1.76-.07l.25.07q.57.22.96.6.39.33.87.82l.83.87c.23.27.46.58.6.97l.07.24a3 3 0 0 1-.08 1.77l-.05.14a3 3 0 0 1-.54.83q-.33.38-.83.86-.48.5-.87.84-.4.36-.96.59l-.25.07a3 3 0 0 1-1.77-.07l-.14-.06a3 3 0 0 1-.82-.53q-.39-.34-.87-.84-.49-.47-.83-.87-.31-.34-.54-.82l-.05-.14a3 3 0 0 1-.08-1.77l.08-.24c.13-.39.36-.7.59-.97q.33-.37.83-.87.48-.48.87-.83.34-.32.82-.53zM4.36 7.74a3 3 0 0 1 1.77-.08l.24.08c.39.13.7.36.97.59q.38.33.87.83.48.48.83.87.36.4.59.96l.07.25a3 3 0 0 1-.07 1.77l-.06.14a3 3 0 0 1-.53.82q-.34.39-.83.87l-.87.83c-.27.23-.58.46-.97.6l-.24.07a3 3 0 0 1-1.77-.08l-.14-.05a3 3 0 0 1-.82-.54q-.39-.33-.87-.83-.5-.48-.84-.87-.32-.34-.53-.82L1.1 13a3 3 0 0 1-.07-1.77L1.1 11q.22-.57.6-.96.32-.39.83-.87.47-.49.87-.83.34-.32.82-.54zm13.27 0a3 3 0 0 1 1.76-.08l.25.08c.39.13.7.36.96.59q.39.33.87.83.5.48.84.87.36.4.59.96l.07.25a3 3 0 0 1-.07 1.77l-.06.14a3 3 0 0 1-.53.82q-.34.39-.84.87-.47.49-.87.83c-.26.23-.57.46-.96.6l-.25.07a3 3 0 0 1-1.76-.08l-.14-.05a3 3 0 0 1-.83-.54q-.37-.33-.87-.83-.48-.48-.83-.87-.32-.34-.53-.82l-.06-.14a3 3 0 0 1-.07-1.77l.07-.25q.22-.57.6-.96.33-.39.82-.87l.87-.83q.35-.32.83-.54zM11 1.1a3 3 0 0 1 1.76-.07l.25.07q.57.23.96.6.39.32.87.83.49.47.83.87c.23.26.46.57.6.96l.07.25a3 3 0 0 1-.08 1.76l-.05.14a3 3 0 0 1-.54.83q-.33.38-.83.87-.48.48-.87.83-.4.36-.96.59l-.25.07a3 3 0 0 1-1.77-.07l-.14-.06a3 3 0 0 1-.82-.53q-.39-.34-.87-.83l-.83-.87q-.31-.35-.54-.83l-.05-.14a3 3 0 0 1-.08-1.76l.08-.25c.13-.39.36-.7.59-.96q.33-.39.83-.87.48-.5.87-.84.34-.32.82-.53z"/></g><defs><clipPath id="a"><path d="M0 0h24v24H0z"/></clipPath></defs></svg>