<svg viewBox="0 0 24 24" xmlns="http://www.w3.org/2000/svg" width="24" height="24"><path fill-rule="evenodd" d="M16.6 1c2.25 0 3.37 0 4.22.44a4 4 0 0 1 1.75 1.74c.44.86.44 1.98.44 4.22v9.2c0 2.24 0 3.36-.44 4.22a4 4 0 0 1-1.75 1.74c-.85.44-1.97.44-4.21.44H7.4c-2.24 0-3.36 0-4.22-.44a4 4 0 0 1-1.75-1.74C1 19.96 1 18.84 1 16.6V7.4c0-2.24 0-3.36.43-4.22A4 4 0 0 1 3.2 1.44C4.05 1 5.17 1 7.41 1zm-6.94 9.3a.9.9 0 1 0 0 1.8h3.13a.9.9 0 0 0 0-1.8zM5.6 4.38a.9.9 0 0 0-1.12 1.4l.07.06 2.91 2.33-2.91 2.33a.9.9 0 0 0 1.05 1.46l.07-.06 3.8-3.03.07-.07a.9.9 0 0 0 0-1.27l-.07-.07-3.8-3.03z" clip-rule="evenodd"/></svg>