<svg viewBox="0 0 24 24" xmlns="http://www.w3.org/2000/svg" width="24" height="24"><path fill-rule="evenodd" d="M16.6 1c2.25 0 3.37 0 4.22.44a4 4 0 0 1 1.75 1.74c.44.86.44 1.98.44 4.22v9.2c0 2.24 0 3.36-.44 4.22a4 4 0 0 1-1.75 1.74c-.85.44-1.97.44-4.21.44H7.4c-2.24 0-3.36 0-4.22-.44a4 4 0 0 1-1.75-1.74C1 19.96 1 18.84 1 16.6V7.4c0-2.24 0-3.36.43-4.22A4 4 0 0 1 3.2 1.44C4.05 1 5.17 1 7.41 1zm-6.94 9.3a.9.9 0 1 0 0 1.8h3.13a.9.9 0 0 0 0-1.8zM5.6 4.38A.9 .9 0 0 0 4.48 5.78L7.46 8.17L4.55 10.5A.9 .9 0 0 0 5.6 11.96L9.54 8.8A.9 .9 0 0 0 9.54 7.53L5.67 4.43Z" clip-rule="evenodd"/></svg>