<svg viewBox="0 0 24 24" xmlns="http://www.w3.org/2000/svg" width="24" height="24"><path fill-rule="evenodd" d="M8.29 10.9a8 8 0 0 1 1.5.97 4 4 0 0 1 1.22 2.1c.1.43.1.88.1 1.8v6.25c0 .45-.43.78-.83.58l-.23-.12-6.15-3.55a3.9 3.9 0 0 1-1.95-3.38v-7.1c0-.59.65-.85 1.15-.56zm-3.73 3.59c-.42 0-.77.52-.77 1.16s.35 1.15.77 1.15.77-.51.77-1.15-.34-1.16-.77-1.16m3.63-.54c-.42 0-.77.52-.77 1.16s.35 1.15.77 1.15.77-.51.77-1.15-.34-1.16-.77-1.16M20.92 7.9c.5-.28 1.13-.02 1.13.55v7.1a3.9 3.9 0 0 1-1.95 3.38l-6.15 3.55c-.5.3-1.05-.14-1.05-.72v-5.99c0-.9 0-1.36.09-1.78a4 4 0 0 1 1.23-2.12c.32-.29.7-.52 1.5-.97zm-5.1 9.29c-.43 0-.78.52-.78 1.16s.35 1.15.77 1.15.77-.51.77-1.15-.34-1.16-.77-1.16m3.62-2.7c-.43 0-.77.52-.77 1.16s.34 1.15.77 1.15c.42 0 .77-.51.77-1.15s-.35-1.16-.77-1.16m-3.63-.54c-.42 0-.77.52-.77 1.16s.35 1.15.77 1.15.77-.51.77-1.15-.34-1.16-.77-1.16m3.63-2.55c-.43 0-.77.52-.77 1.16s.34 1.15.77 1.15c.42 0 .77-.51.77-1.15s-.35-1.16-.77-1.16m-9.15-10a3.9 3.9 0 0 1 3.67.12l6.15 3.55.22.14c.38.25.3.8-.1 1.02l-5.4 3.11a9 9 0 0 1-1.6.81 4 4 0 0 1-2.44 0c-.4-.13-.8-.36-1.59-.81L4 6.33c-.5-.29-.59-.97-.1-1.26l6.16-3.55zM12 4.9c-.64 0-1.16.34-1.16.76 0 .43.52.77 1.16.77s1.16-.34 1.16-.77c0-.42-.52-.77-1.16-.77" clip-rule="evenodd"/></svg>