<svg viewBox="0 0 24 24" xmlns="http://www.w3.org/2000/svg" width="24" height="24"><path fill-rule="evenodd" d="M8.29 10.9A8 8 0 0 1 9.79 11.87A4 4 0 0 1 11.01 13.97C11.11 14.4 11.11 14.85 11.11 15.77L11.11 22.02C11.11 22.47 10.68 22.8 10.28 22.6L3.9 18.93A3.9 3.9 0 0 1 1.95 15.55L1.95 8.45C1.95 7.86 2.6 7.6 3.1 7.89ZM5.56 13.49C5.14 13.49 4.79 14.01 4.79 14.65C4.79 15.29 5.14 15.8 5.56 15.8C5.98 15.8 6.33 15.29 6.33 14.65C6.33 14.01 5.99 13.49 5.56 13.49M9.19 12.95C8.77 12.95 8.42 13.47 8.42 14.11C8.42 14.75 8.77 15.26 9.19 15.26C9.61 15.26 9.96 14.75 9.96 14.11C9.96 13.47 9.62 12.95 9.19 12.95M20.92 7.9c.5-.28 1.13-.02 1.13.55v7.1a3.9 3.9 0 0 1-1.95 3.38l-6.15 3.55c-.5.3-1.05-.14-1.05-.72v-5.99c0-.9 0-1.36.09-1.78a4 4 0 0 1 1.23-2.12c.32-.29.7-.52 1.5-.97zM14.83 16.19C14.4 16.19 14.05 16.71 14.05 17.35C14.05 17.99 14.4 18.5 14.82 18.5C15.24 18.5 15.59 17.99 15.59 17.35C15.59 16.71 15.25 16.19 14.82 16.19M18.44 13.49C18.01 13.49 17.67 14.01 17.67 14.65C17.67 15.29 18.01 15.8 18.44 15.8C18.86 15.8 19.21 15.29 19.21 14.65C19.21 14.01 18.86 13.49 18.44 13.49M14.81 12.95C14.39 12.95 14.04 13.47 14.04 14.11C14.04 14.75 14.39 15.26 14.81 15.26C15.23 15.26 15.58 14.75 15.58 14.11C15.58 13.47 15.24 12.95 14.81 12.95M18.44 10.4C18.01 10.4 17.67 10.92 17.67 11.56C17.67 12.2 18.01 12.71 18.44 12.71C18.86 12.71 19.21 12.2 19.21 11.56C19.21 10.92 18.86 10.4 18.44 10.4M10.28 1.4A3.9 3.9 0 0 1 13.95 1.52L20.32 5.21C20.7 5.46 20.62 6.01 20.22 6.23L14.82 9.34A9 9 0 0 1 13.22 10.15A4 4 0 0 1 10.78 10.15C10.38 10.02 9.98 9.79 9.19 9.34L4 6.33C3.5 6.04 3.41 5.36 3.9 5.07L10.06 1.52ZM12 5.9C11.36 5.9 10.84 6.24 10.84 6.66C10.84 7.09 11.36 7.43 12 7.43C12.64 7.43 13.16 7.09 13.16 6.66C13.16 6.24 12.64 5.89 12 5.89" clip-rule="evenodd"/></svg>