<svg viewBox="0 0 24 24" xmlns="http://www.w3.org/2000/svg" width="24" height="24"><path d="M12.9 8.32c2.05 0 3.1.02 3.92.43a4 4 0 0 1 1.74 1.75c.44.86.44 1.98.44 4.22v1.2c0 2.24 0 3.36-.44 4.21a4 4 0 0 1-1.74 1.75c-.86.44-1.98.44-4.22.44h-1.2c-2.24 0-3.36 0-4.22-.44a4 4 0 0 1-1.74-1.75C5 19.28 5 18.16 5 15.92v-1.2c0-2.24 0-3.36.44-4.22a4 4 0 0 1 1.74-1.75c.82-.41 1.88-.43 3.93-.43v6.5l-1.35-1.35a.9.9 0 0 0-1.27 1.27l2.88 2.89a.9.9 0 0 0 1.28 0l2.88-2.89.06-.07a.9.9 0 0 0-1.26-1.26l-.07.06-1.35 1.35zM12 3.4a.9.9 0 0 1 .9.8v4.1h-1.8v-4l.01-.1a.9.9 0 0 1 .9-.8"/></svg>