<svg viewBox="0 0 24 24" xmlns="http://www.w3.org/2000/svg" width="24" height="24"><path d="M12 1a8.1 8.1 0 0 0-8.07 8.07v9.46A4.47 4.47 0 0 0 8.33 23q2.55 0 4.13-2.13.3-.42.71-1.14c.7-1.2 1.66-2.86 2.9-3.7a10 10 0 0 0 2.84-2.92 7.6 7.6 0 0 0 1.16-4.04A8.1 8.1 0 0 0 12 1m4.4 8.43a.73.73 0 0 1-.73-.73c0-1.82-1.65-3.3-3.67-3.3S8.33 6.88 8.33 8.7v1c0 .2.2.34.39.3 1.14-.25 2.32-.21 2.56-.2a2.2 2.2 0 0 1 1.73 3.53c-.76.87-1.65 2.09-1.77 2.52a.73.73 0 0 1-1.42-.37c.26-.96 1.7-2.67 2.05-3.08a.73.73 0 0 0-.61-1.13h-.04c-.7-.04-1.91.02-2.7.3a.3.3 0 0 0-.19.27v2.36a.73.73 0 1 1-1.46 0V8.7c0-2.63 2.3-4.77 5.13-4.77s5.13 2.14 5.13 4.77a.73.73 0 0 1-.73.73"/></svg>