<svg viewBox="0 0 24 24" xmlns="http://www.w3.org/2000/svg" width="24" height="24"><path d="M15.24 3.37c1.87 0 2.8 0 3.53.3a4 4 0 0 1 2.17 2.17c.3.73.3 1.66.3 3.53v5.26c0 1.87 0 2.8-.3 3.53a4 4 0 0 1-2.17 2.17c-.73.3-1.66.3-3.53.3s-2.8 0-3.53-.3a4 4 0 0 1-2.16-2.17c-.3-.73-.3-1.66-.3-3.53V12.9h5.59l-1.76 1.76a.9.9 0 0 0 1.27 1.27l3.3-3.3a.9.9 0 0 0 0-1.27l-3.3-3.3-.07-.06A.9.9 0 0 0 13 9.27l.07.07 1.76 1.76h-5.6V9.37c0-1.87 0-2.8.3-3.53a4 4 0 0 1 2.17-2.17c.74-.3 1.67-.3 3.53-.3m-6 9.53h-5a.9.9 0 0 1 0-1.8h5.01z"/></svg>