<svg viewBox="0 0 24 24" xmlns="http://www.w3.org/2000/svg" width="24" height="24"><path d="M10.98 1.57a2.83 2.83 0 0 1 2.46 2.81v1.03h3.43l.23.02a2.3 2.3 0 0 1 2.05 2.26v3.43h1.03a2.79 2.79 0 1 1 .04 5.59h-1.07v3.46a2.3 2.3 0 0 1-2.05 2.27l-.23.01h-3.44a.5.5 0 0 1-.5-.5v-1.33c0-1.1-.92-1.95-2.1-2.03h-.24a2.4 2.4 0 0 0-2.26 2.35v1.01a.5.5 0 0 1-.5.5h-3.4a2.3 2.3 0 0 1-2.32-2.31v-3.4a.5.5 0 0 1 .15-.36l.07-.06a.5.5 0 0 1 .28-.08h1.34c1.11 0 2.07-.97 2.17-2.12v-.24a2.3 2.3 0 0 0-2.2-2.25H2.6a.5.5 0 0 1-.5-.5v-3.4l.02-.23a2.3 2.3 0 0 1 2.3-2.09h3.43V4.34l.01-.28a2.8 2.8 0 0 1 2.83-2.51z"/></svg>