<svg viewBox="0 0 24 24" xmlns="http://www.w3.org/2000/svg" width="24" height="24"><path d="M18.64 4.1A.9 .9 0 0 1 19.91 5.37L5.29 19.98A.9 .9 0 0 1 4.03 18.72L4.09 18.65ZM19.65 7.53q1.2 1.02 2.08 1.99c.6.64.9.97 1.1 1.62.14.46.14 1.32 0 1.77-.2.66-.5.98-1.1 1.63-2.12 2.28-5.68 5.29-9.72 5.29a10 10 0 0 1-3.8-.85l2.63-2.63a4.5 4.5 0 0 0 5.5-5.51zM12 4.22a9.5 9.5 0 0 1 3.77.83l-2.6 2.6a4.5 4.5 0 0 0-5.52 5.51L4.33 16.5a24 24 0 0 1-2.05-1.95c-.6-.65-.9-.97-1.1-1.63a4 4 0 0 1 0-1.77c.2-.65.5-.98 1.1-1.62 2.12-2.28 5.69-5.3 9.73-5.3"/></svg>