<svg viewBox="0 0 24 24" xmlns="http://www.w3.org/2000/svg" width="24" height="24"><path fill-rule="evenodd" d="M17.45 1.98A3.2 3.2 0 0 1 22.04 1.96L22.15 2.08A3.2 3.2 0 0 1 22.15 6.41L21.95 6.61L18.58 9.21A.8 .8 0 0 0 18.39 9.74L18.4 9.91L18.44 9.95A2.45 2.45 0 0 1 14.97 13.42L14.51 12.96L5.81 21.66C5.51 21.96 5.07 22.16 4.72 22.3Q4.14 22.51 3.52 22.67A20 20 0 0 1 2.18 22.96L2.06 22.98A.9 .9 0 0 1 1.02 21.94L1.04 21.81A20 20 0 0 1 1.71 19.27C1.84 18.93 2.04 18.49 2.34 18.19L11.04 9.49L10.58 9.03A2.45 2.45 0 0 1 14.05 5.55L14.11 5.61L14.25 5.63C14.41 5.63 14.6 5.59 14.78 5.42L17.39 2.05ZM8.92 14.16l.92.92 3.4-3.4-.93-.92z" clip-rule="evenodd"/></svg>