<svg viewBox="0 0 24 24" xmlns="http://www.w3.org/2000/svg" width="24" height="24"><path fill-rule="evenodd" d="M17.45 1.98a3.2 3.2 0 0 1 4.59-.02l.11.12a3.2 3.2 0 0 1 0 4.33l-.12.13-.08.07-3.37 2.6a.8.8 0 0 0-.19.53l.01.17.04.04a2.45 2.45 0 0 1-3.47 3.47l-.46-.46-8.7 8.7c-.3.3-.74.5-1.09.64q-.58.21-1.2.37a20 20 0 0 1-1.34.29l-.09.01h-.03v.01a.9.9 0 0 1-1.04-1.04v-.04l.02-.09a20 20 0 0 1 .67-2.54c.13-.34.33-.78.63-1.08l8.7-8.7-.46-.46a2.45 2.45 0 0 1 3.47-3.48l.06.06.14.02c.16 0 .35-.04.53-.21l2.61-3.37zM8.92 14.16l.92.92 3.4-3.4-.93-.92z" clip-rule="evenodd"/></svg>