<svg viewBox="0 0 24 24" xmlns="http://www.w3.org/2000/svg" width="24" height="24"><path fill-rule="evenodd" d="M13.12 1c.82 0 1.62.32 2.23.89l4.73 4.46a4.2 4.2 0 0 1 1.3 3.02v4.92q.01 1.38-.04 2.27a4 4 0 0 1-.4 1.65 4.2 4.2 0 0 1-1.84 1.83q-.33.17-.7.25-.06.22-.17.42a4.2 4.2 0 0 1-1.83 1.83 4 4 0 0 1-1.65.41q-.89.06-2.27.05H8.82q-1.38.01-2.27-.05a4 4 0 0 1-1.65-.4 4.2 4.2 0 0 1-1.83-1.84 4 4 0 0 1-.4-1.64q-.07-.9-.06-2.28V9.71q-.01-1.38.05-2.27a4 4 0 0 1 .4-1.65A4.2 4.2 0 0 1 5.6 3.7q.08-.21.18-.41A4.2 4.2 0 0 1 7.6 1.46a4 4 0 0 1 1.65-.41q.89-.06 2.27-.05zm5.2 9.17q.36.8.37 1.7v4.92q0 .99-.02 1.72.57-.39.89-1c.12-.24.2-.55.24-1.07.05-.53.05-1.22.05-2.19v-4.08zM9.65 9.2q0 .68.02 1.16.03.5.25.96.36.72 1.08 1.09.46.21.97.24.47.03 1.15.02h4.03V12c0-.31 0-.47-.04-.65a2 2 0 0 0-.15-.47c-.07-.17-.14-.27-.27-.46a3 3 0 0 0-.37-.44l-4.2-4.03c-.34-.33-.51-.5-.71-.62a2 2 0 0 0-.57-.22 4 4 0 0 0-.93-.06h-.26zm4.23-3.64 3.27 3.07h2.59a3 3 0 0 0-.72-1.16L14.3 3a2 2 0 0 0-.4-.29zm-2.33-3.02c-.97 0-1.65 0-2.18.04-.52.05-.83.13-1.07.25q-.5.26-.85.68h2.97c.7 0 1.37.22 1.93.63v-1.6z" clip-rule="evenodd"/></svg>