<svg viewBox="0 0 24 24" xmlns="http://www.w3.org/2000/svg" width="24" height="24"><path fill-rule="evenodd" d="M12.27 1c.83 0 1.62.31 2.23.88l4.73 4.47c.83.78 1.3 1.88 1.3 3.02v7.42q.01 1.39-.04 2.28a4 4 0 0 1-.4 1.65 4.2 4.2 0 0 1-1.84 1.83 4 4 0 0 1-1.65.4q-.89.06-2.27.05h-3.66c-.93 0-2.67 0-3.27-.05a4 4 0 0 1-1.65-.4 4.2 4.2 0 0 1-1.83-1.83 4 4 0 0 1-.4-1.65q-.08-.9-.06-2.28V7.21q-.01-1.39.05-2.28a4 4 0 0 1 .4-1.65 4.2 4.2 0 0 1 1.84-1.83 4 4 0 0 1 1.65-.4C8 1 9.74 1 10.67 1zM7.61 17.86A.9 .9 0 0 0 7.61 19.66L15.27 19.66A.9 .9 0 0 0 15.27 17.86ZM7.7 14.36L7.6 14.36A.9 .9 0 0 0 7.6 16.16L11.34 16.16A.9 .9 0 0 0 11.34 14.36ZM11.49 6.69q0 .68.02 1.16.03.5.25.96.36.72 1.08 1.09.46.21.97.24.47.04 1.15.03H19v-.69c0-.31 0-.47-.04-.65a2 2 0 0 0-.15-.47 3 3 0 0 0-.27-.45 3 3 0 0 0-.37-.45l-4.2-4.03c-.34-.33-.51-.5-.71-.61a2 2 0 0 0-.57-.23 4 4 0 0 0-.94-.05h-.25z" clip-rule="evenodd"/></svg>