<svg viewBox="0 0 24 24" xmlns="http://www.w3.org/2000/svg" width="24" height="24"><path fill-rule="evenodd" d="M12.27 1c.83 0 1.62.32 2.23.89l4.73 4.46c.83.79 1.3 1.88 1.3 3.03v7.41q.01 1.38-.04 2.28a4 4 0 0 1-.4 1.64 4.2 4.2 0 0 1-1.84 1.83 4 4 0 0 1-1.65.4q-.89.07-2.27.06h-3.66c-.93 0-2.67 0-3.27-.05a4 4 0 0 1-1.65-.4 4.2 4.2 0 0 1-1.83-1.84 4 4 0 0 1-.4-1.64q-.08-.9-.06-2.28V7.21q-.01-1.38.05-2.28a4 4 0 0 1 .4-1.64 4.2 4.2 0 0 1 1.84-1.83 4 4 0 0 1 1.65-.41C8 1 9.74 1 10.67 1zm-.77 1.54V6.7q0 .67.02 1.15.03.5.25.97.36.7 1.08 1.08.46.22.97.25.47.02 1.15.02H19V9.5c0-.32 0-.48-.04-.66a2 2 0 0 0-.15-.47 3 3 0 0 0-.27-.45 3 3 0 0 0-.37-.44l-4.2-4.04c-.34-.33-.51-.5-.71-.61a2 2 0 0 0-.57-.23 4 4 0 0 0-.94-.05z" clip-rule="evenodd"/></svg>