<svg viewBox="0 0 24 24" xmlns="http://www.w3.org/2000/svg" width="24" height="24"><path d="M3.25 5.8L20.87 5.8C20.87 5.8 20.87 5.8 20.87 5.8A1.2 1.2 0 0 1 22.07 7C22.07 7 22.07 7 22.07 7L22.07 7C22.07 7 22.07 7 22.07 7A1.2 1.2 0 0 1 20.87 8.2C20.87 8.2 20.87 8.2 20.87 8.2L3.25 8.2C3.25 8.2 3.25 8.2 3.25 8.2A1.2 1.2 0 0 1 2.05 7C2.05 7 2.05 7 2.05 7L2.05 7C2.05 7 2.05 7 2.05 7A1.2 1.2 0 0 1 3.25 5.8C3.25 5.8 3.25 5.8 3.25 5.8ZM5.88 10.8L18.25 10.8C18.25 10.8 18.25 10.8 18.25 10.8A1.2 1.2 0 0 1 19.45 12C19.45 12 19.45 12 19.45 12L19.45 12C19.45 12 19.45 12 19.45 12A1.2 1.2 0 0 1 18.25 13.2C18.25 13.2 18.25 13.2 18.25 13.2L5.88 13.2C5.88 13.2 5.88 13.2 5.88 13.2A1.2 1.2 0 0 1 4.68 12C4.68 12 4.68 12 4.68 12L4.68 12C4.68 12 4.68 12 4.68 12A1.2 1.2 0 0 1 5.88 10.8C5.88 10.8 5.88 10.8 5.88 10.8ZM8.485 15.815L15.635 15.815C15.635 15.815 15.635 15.815 15.635 15.815A1.185 1.185 0 0 1 16.82 17C16.82 17 16.82 17 16.82 17L16.82 17C16.82 17 16.82 17 16.82 17A1.185 1.185 0 0 1 15.635 18.185C15.635 18.185 15.635 18.185 15.635 18.185L8.485 18.185C8.485 18.185 8.485 18.185 8.485 18.185A1.185 1.185 0 0 1 7.3 17C7.3 17 7.3 17 7.3 17L7.3 17C7.3 17 7.3 17 7.3 17A1.185 1.185 0 0 1 8.485 15.815C8.485 15.815 8.485 15.815 8.485 15.815Z"/></svg>