<svg viewBox="0 0 24 24" xmlns="http://www.w3.org/2000/svg" width="24" height="24"><path fill-rule="evenodd" d="M8.85 .94C12.55 .94 15.97 2.24 18.49 4.3C20.99 6.35 22.66 9.2 22.66 12.28C22.66 14.58 21.93 17.48 20.08 19.48L19.47 20.1L19.06 20.46Q18.47 20.96 17.88 21.36L17.85 21.37A10 10 0 0 1 12.02 23A8.3 8.3 0 0 1 7.3 21.66L6.61 21.15A9 9 0 0 1 5.98 20.58L5.92 20.52C5.22 19.82 4.32 18.75 3.92 17.32C3.49 15.85 3.6 14.1 4.73 12.12C5.3 11.14 5.97 10.36 6.58 9.68C7.21 8.98 7.74 8.43 8.13 7.79C8.51 7.19 8.75 6.54 8.78 5.69A9 9 0 0 0 8.01 2.17A.9 .9 0 0 1 8.74 .94ZM12.15 10.27c-.66-.07-1.12.58-.96 1.15l.07.27c.33 1.3.22 2.1 0 2.65-.25.6-.7 1.03-1.33 1.51-.56.44-1.38 1-1.92 1.74q-.46.62-.63 1.4c-.02.12-.03.18-.02.26q0 .1.07.2.05.07.18.19a6.4 6.4 0 0 0 4.4 1.57 8.4 8.4 0 0 0 4.95-1.42l.1-.13.05-.22c.23-1.17.28-2.51.04-3.8a6.4 6.4 0 0 0-4.58-5.27l-.28-.08z" clip-rule="evenodd"/></svg>