<svg viewBox="0 0 24 24" xmlns="http://www.w3.org/2000/svg" width="24" height="24"><path d="M8.2 2.55c.48 0 .8 0 1.13.05q1.03.17 1.86.78c.27.2.5.43.84.77l.04.05c.4.4.53.53.68.63q.5.37 1.09.46c.17.03.36.03.93.03h.85c1.47 0 2.65 0 3.59.12a4.2 4.2 0 0 1 2.66 1.22c.62.67.9 1.5 1.02 2.46.12.94.12 2.12.12 3.59v1.22c0 1.52 0 2.76-.13 3.73a4.2 4.2 0 0 1-1.11 2.55c-.68.68-1.54.97-2.55 1.1-.97.14-2.2.14-3.73.14H8.5c-1.53 0-2.76 0-3.73-.13a4.2 4.2 0 0 1-2.55-1.11 4.2 4.2 0 0 1-1.1-2.55c-.14-.97-.14-2.2-.14-3.73V9.18q-.02-1.64.07-2.72c.08-.74.23-1.39.6-1.97q.5-.76 1.27-1.26a4 4 0 0 1 1.97-.6c.72-.08 1.61-.08 2.72-.08z"/></svg>