<svg viewBox="0 0 24 24" xmlns="http://www.w3.org/2000/svg" width="24" height="24"><path d="M9.72 6.66c-.28 0-.42 0-.52-.06a.4.4 0 0 1-.17-.24c-.03-.11.01-.24.1-.5.7-2.19 1.7-3.57 2.5-4.33q.13-.15.25-.19h.24q.12.03.26.2c.8.75 1.8 2.13 2.5 4.32.08.26.12.39.1.5a.4.4 0 0 1-.18.24c-.1.06-.24.06-.52.06zM8.39 9.43q.02-.28.08-.37a.4.4 0 0 1 .17-.15c.08-.04.18-.04.38-.04h5.96q.28-.01.38.04a.4.4 0 0 1 .17.15c.05.08.06.17.08.37a24 24 0 0 1 0 5.14q-.02.28-.08.37a.4.4 0 0 1-.17.15q-.1.05-.38.04H9.02q-.28.01-.38-.04a.4.4 0 0 1-.17-.15c-.05-.08-.06-.17-.08-.37a24 24 0 0 1 0-5.14M6.77 6.16a1 1 0 0 1-.12.34.4.4 0 0 1-.16.13q-.1.04-.35.03H3.48c-.35 0-.52 0-.63-.08a.4.4 0 0 1-.16-.3c0-.14.09-.27.28-.55a11 11 0 0 1 4.17-3.6c.46-.23.7-.34.84-.3a.4.4 0 0 1 .27.27c.05.15-.08.42-.34.94q-.67 1.34-1.14 3.12M1.01 12q0-1.38.33-2.67a1 1 0 0 1 .1-.3q.07-.09.17-.13.09-.04.33-.03h3.6c.25 0 .38 0 .47.05q.12.05.17.2.05.1 0 .47a27 27 0 0 0 0 4.82c.03.26.04.39 0 .48a.4.4 0 0 1-.17.2c-.1.04-.22.04-.47.04h-3.6q-.24 0-.33-.03a.4.4 0 0 1-.17-.13 1 1 0 0 1-.1-.3Q1 13.38 1 12m5.14 5.34q.25 0 .35.03a.4.4 0 0 1 .16.13q.06.07.12.34.46 1.79 1.14 3.12c.26.52.39.79.34.94a.4.4 0 0 1-.27.27c-.15.04-.38-.07-.84-.3a11 11 0 0 1-4.17-3.6c-.2-.28-.28-.41-.28-.55 0-.1.07-.23.16-.3.1-.08.28-.08.63-.08zm10.72 4.53c-.46.22-.7.34-.84.3a.4.4 0 0 1-.27-.27c-.05-.15.08-.42.34-.94q.67-1.34 1.14-3.12.06-.27.12-.34a.4.4 0 0 1 .16-.13q.1-.04.35-.03h2.66c.35 0 .52 0 .63.08s.15.2.16.3c0 .14-.09.27-.28.55a11 11 0 0 1-4.17 3.6m1.6-6.74q-.35.01-.47-.05a.4.4 0 0 1-.17-.2q-.05-.1 0-.47a27 27 0 0 0 0-4.82c-.03-.26-.04-.39 0-.48a.4.4 0 0 1 .17-.2c.1-.04.22-.04.47-.04h3.6q.24 0 .33.03.1.04.17.13.05.08.1.3a11 11 0 0 1-.1 5.64q-.06.09-.17.13-.09.04-.33.03zm2.57-9.4c.2.28.29.41.28.55 0 .1-.07.23-.16.3-.1.08-.28.08-.63.08h-2.66q-.25 0-.35-.03a.4.4 0 0 1-.16-.13q-.06-.07-.12-.34-.46-1.78-1.14-3.12c-.26-.52-.39-.79-.34-.94a.4.4 0 0 1 .27-.27c.15-.04.38.08.84.3 1.68.83 3.11 2.08 4.17 3.6M9.12 18.14c-.08-.26-.12-.39-.1-.5q.05-.15.18-.24c.1-.06.24-.06.52-.06h4.56c.28 0 .42 0 .52.06q.13.1.17.24c.03.11-.01.24-.1.5a10 10 0 0 1-2.5 4.33q-.13.15-.25.19h-.24q-.12-.03-.26-.2a10 10 0 0 1-2.5-4.32"/></svg>