<svg viewBox="0 0 24 24" xmlns="http://www.w3.org/2000/svg" width="24" height="24"><path fill-rule="evenodd" d="M12 1a11 11 0 0 1 10.99 11.55l-.02.19-.02.35-.03.23-.04.33-.04.2-.05.3-.05.24-.07.3-.1.34-.04.15q-.14.45-.31.9l-.04.09-.15.34-.06.13-.18.37-.05.1-.2.37-.04.07-.24.39-.03.04a11 11 0 0 1-4.6 4l-.15.06-.3.14-.12.04q-.54.21-1.1.37l-.15.05-.27.06-.23.05a11 11 0 0 1-1.05.18l-.2.02-.37.03h-.16a11 11 0 0 1-1.06 0h-.15l-.9-.1q-.08 0-.15-.02l-.4-.07-.1-.02-.5-.11-.15-.04-.3-.09-.26-.08-.2-.07-.25-.09-.22-.09-.24-.1-.21-.1-.42-.2-.2-.1-.26-.14a11 11 0 0 1-1-.65 11 11 0 0 1-2.48-2.48l-.04-.05-.25-.36-.04-.07-.24-.38-.03-.07-.2-.36-.07-.13-.17-.34-.05-.1-.17-.4-.03-.06-.32-.9-.05-.2-.09-.31-.07-.3q0-.1-.04-.18v-.07l-.06-.3-.04-.21-.03-.28-.04-.3-.02-.32-.02-.18L1 12A11 11 0 0 1 12 1M8.8 16a5.6 5.6 0 0 0-3.6 1.3.6.6 0 0 0-.06.83 9 9 0 0 0 4.45 2.75 4.3 4.3 0 0 0 3.11-.32c.8-.42 1.22-1.36.73-2.11q-.52-.8-1.31-1.38A5.6 5.6 0 0 0 8.8 16m7.37.32q-1.05 0-1.96.52c-.15.09-.18.3-.07.44q.18.22.35.48l.09.15a2.6 2.6 0 0 1-.28 3 9.2 9.2 0 0 0 4.9-3.2 4 4 0 0 0-3.04-1.4m0-6.63a2.92 2.92 0 1 0 0 5.84 2.92 2.92 0 0 0 0-5.84M8.8 6.98a3.9 3.9 0 1 0 0 7.8 3.9 3.9 0 0 0 0-7.8" clip-rule="evenodd"/></svg>