<svg viewBox="0 0 24 24" xmlns="http://www.w3.org/2000/svg" width="24" height="24"><path d="M7.95 14c1.52 0 3 .47 4.2 1.35a7 7 0 0 1 1.66 1.75c.62.95.09 2.14-.92 2.67a10.7 10.7 0 0 1-9.89 0c-1-.53-1.54-1.72-.92-2.67a7 7 0 0 1 1.66-1.75A7 7 0 0 1 7.94 14m9.34.4a5 5 0 0 1 3.29 1.22 6 6 0 0 1 1.48 1.92c.34.7-.01 1.5-.68 1.91a8 8 0 0 1-6.53.74c.81-.99 1.21-2.4.43-3.78l-.12-.19a8 8 0 0 0-.71-.93 5 5 0 0 1 2.84-.9M17.445 6.14A3.7 3.7 0 1 1 17.445 13.54A3.7 3.7 0 0 1 17.445 6.14M7.95 2.56a4.94 4.94 0 1 1 0 9.88 4.94 4.94 0 0 1 0-9.88"/></svg>