<svg viewBox="0 0 24 24" xmlns="http://www.w3.org/2000/svg" width="24" height="24"><path fill-rule="evenodd" d="M16.15 2.8a1.2 1.2 0 0 1 1.04 1.35l-.46 3.65H20a1.2 1.2 0 0 1 0 2.4h-3.57l-.45 3.6H19a1.2 1.2 0 0 1 0 2.4h-3.32l-.49 3.95a1.2 1.2 0 0 1-2.38-.3l.45-3.65H9.68l-.49 3.95a1.2 1.2 0 0 1-2.38-.3l.45-3.65H4a1.2 1.2 0 0 1 0-2.4h3.56l.45-3.6H5a1.2 1.2 0 0 1 0-2.4h3.32l.49-3.95a1.2 1.2 0 0 1 2.38.3l-.46 3.65h3.59l.49-3.95a1.2 1.2 0 0 1 1.34-1.04m-6.17 11h3.58l.45-3.6h-3.58z" clip-rule="evenodd"/></svg>