<svg viewBox="0 0 24 24" xmlns="http://www.w3.org/2000/svg" width="24" height="24"><g clip-path="url(#a)"><path d="M21.24 18.54a.9.9 0 1 1-1.68-.65zM21.2 12c0-5.06-4.5-9.2-9.2-9.2S2.8 6.94 2.8 12c0 .7.23 1.74.57 2.88.34 1.1.75 2.22 1.06 3a.9.9 0 0 1-1.67.67l-.26-.67c-.27-.72-.58-1.6-.85-2.48A13 13 0 0 1 1 12C1 5.9 6.34 1 12 1s11 4.9 11 11c0 .99-.31 2.28-.67 3.44-.36 1.19-.8 2.34-1.09 3.1l-1.68-.65c.3-.74.7-1.85 1.05-2.98.35-1.15.6-2.21.6-2.91"/><path d="m19.17 12.69.67.39c1.46.85 1.54 3.51.16 5.93s-3.69 3.68-5.15 2.82l-.67-.38a.8.8 0 0 1-.28-1.07l4.22-7.4a.76.76 0 0 1 1.05-.3m-14.34.01-.67.39C2.7 13.94 2.62 16.59 4 19s3.69 3.68 5.15 2.82l.67-.38a.8.8 0 0 0 .28-1.07l-4.22-7.4a.76.76 0 0 0-1.05-.3"/><path d="M5.16 11.68q.17 0 .33.03l.16.03.16.05.3.15.13.1.12.1q.18.16.3.39l4.22 7.4v.01l.08.15a1.7 1.7 0 0 1-.54 2.04l-.15.1-.66.38c-1.11.65-2.41.43-3.5-.17a8 8 0 0 1-2.9-2.98 8 8 0 0 1-1.1-4.03c.04-1.24.5-2.48 1.6-3.13l.67-.4.14-.07q.23-.1.48-.13zM19 11.7l.17.03.3.1.15.08.67.39.2.13c.96.67 1.36 1.84 1.4 3a8 8 0 0 1-1.1 4.03 8 8 0 0 1-2.9 2.98c-1.02.56-2.23.8-3.29.28l-.2-.1-.67-.4h-.01a1.7 1.7 0 0 1-.6-2.28l4.22-7.41q.16-.3.42-.5l.14-.1q.22-.13.45-.19l.16-.03.33-.03zM4.62 13.85c-.36.22-.68.73-.7 1.63-.03.89.24 2 .86 3.09a6 6 0 0 0 2.2 2.3c.77.42 1.36.4 1.72.19l.56-.33-4.1-7.2zm10.12 6.88.56.33.15.07c.36.14.9.1 1.57-.27a6 6 0 0 0 2.2-2.3c.62-1.08.89-2.2.87-3.08-.03-.9-.34-1.41-.7-1.63l-.55-.32z"/></g><defs><clipPath id="a"><path d="M0 0h24v24H0z"/></clipPath></defs></svg>