<svg viewBox="0 0 24 24" xmlns="http://www.w3.org/2000/svg" width="24" height="24"><path d="M12.373 1.15A10.86 10.86 0 0 1 12.373 22.85L11.953 22.85A10.9 10.9 0 0 1 2.143 15.62A1.2 1.2 0 0 1 4.403 14.82A8.46 8.46 0 1 0 6.273 6.15L7.883 7.8A1 1 0 0 1 7.173 9.5L2.233 9.5A1 1 0 0 1 1.233 8.5L1.233 3.57A1 1 0 0 1 2.933 2.87L4.553 4.47L4.913 4.12A10.8 10.8 0 0 1 12.373 1.15"/><path d="M12.31 6.265C12.97 6.265 13.51 6.805 13.51 7.465L13.51 11.485L16.08 11.485A1.2 1.2 0 0 1 16.08 13.885L12.31 13.885Q12.14 13.885 12 13.845L11.71 13.725A1.2 1.2 0 0 1 11.11 12.805L11.1 7.455C11.1 6.795 11.64 6.255 12.3 6.255"/></svg>