<svg viewBox="0 0 24 24" xmlns="http://www.w3.org/2000/svg" width="24" height="24"><path d="M12.14 1.15a10.86 10.86 0 0 1 0 21.7h-.42a10.9 10.9 0 0 1-9.81-7.23 1.2 1.2 0 0 1 2.26-.8 8.46 8.46 0 1 0 1.87-8.67l-.02.02L7.65 7.8a1 1 0 0 1-.71 1.7H2a1 1 0 0 1-1-1V3.57a1 1 0 0 1 1.7-.7l1.62 1.6.36-.35a10.8 10.8 0 0 1 7.46-2.97"/><path d="M12 6.58c.66 0 1.2.54 1.2 1.2v4.02h2.57a1.2 1.2 0 0 1 0 2.4H12q-.17 0-.31-.04l-.04-.01h-.03v-.01l-.08-.03-.14-.07a1.2 1.2 0 0 1-.6-.92v-.1h-.01V7.77c0-.66.54-1.2 1.2-1.2"/></svg>