<svg viewBox="0 0 24 24" xmlns="http://www.w3.org/2000/svg" width="24" height="24"><path d="M12.14 1.15A10.86 10.86 0 0 1 12.14 22.85L11.72 22.85A10.9 10.9 0 0 1 1.91 15.62A1.2 1.2 0 0 1 4.17 14.82A8.46 8.46 0 1 0 6.04 6.15L7.65 7.8A1 1 0 0 1 6.94 9.5L2 9.5A1 1 0 0 1 1 8.5L1 3.57A1 1 0 0 1 2.7 2.87L4.32 4.47L4.68 4.12A10.8 10.8 0 0 1 12.14 1.15"/><path d="M12 6.58C12.66 6.58 13.2 7.12 13.2 7.78L13.2 11.8L15.77 11.8A1.2 1.2 0 0 1 15.77 14.2L12 14.2Q11.83 14.2 11.69 14.16L11.4 14.04A1.2 1.2 0 0 1 10.8 13.12L10.79 7.77C10.79 7.11 11.33 6.57 11.99 6.57"/></svg>