<svg viewBox="0 0 24 24" xmlns="http://www.w3.org/2000/svg" width="24" height="24"><path d="M11.14 1.07q1-.18 2 .06l.17.05c.81.24 1.52.76 2.27 1.3l.12.09 4.1 2.91.1.07.43.31c.43.32.84.64 1.16 1.05l.14.18q.45.65.67 1.4l.07.25c.13.59.12 1.2.12 1.83v7.15l-.02.48-.02.45c-.05.59-.16 1.2-.47 1.8q-.6 1.17-1.71 1.86l-.32.18q-.68.33-1.36.41l-.45.05-.37.02-.39.02h-.33q-.15-.01-.36-.07l-.14-.06a1.3 1.3 0 0 1-.53-.48l-.06-.1q-.13-.29-.13-.5l-.01-.33v-7.33a2.1 2.1 0 0 0-2.1-2.1h-3.43a2.1 2.1 0 0 0-2.1 2.1v7.67q-.01.15-.08.36l-.06.14q-.17.33-.5.52l-.08.05q-.3.14-.5.12h-.74l-.37-.03a5 5 0 0 1-1.58-.35l-.23-.11a4.7 4.7 0 0 1-2.03-2.04q-.33-.67-.41-1.36l-.06-.44q-.03-.43-.03-.93l-.01-1.08v-6.07c0-.72 0-1.42.19-2.09l.07-.2q.26-.75.74-1.37l.17-.2c.4-.44.9-.8 1.42-1.16l.06-.04.04-.03 4.1-2.91.13-.1.59-.41c.58-.4 1.18-.76 1.84-.93z"/></svg>