<svg viewBox="0 0 24 24" xmlns="http://www.w3.org/2000/svg" width="24" height="24"><path fill-rule="evenodd" d="M16.06 1.72a3.05 3.05 0 0 1 3.05 3.05 6 6 0 0 1-1.28 3.74l-1.95 2.5c-.28.36-.41.53-.47.73a1 1 0 0 0 0 .52c.06.2.2.37.47.72l1.95 2.5a6 6 0 0 1 1.28 3.75 3.05 3.05 0 0 1-3.05 3.05H7.94a3.05 3.05 0 0 1-3.05-3.05 6 6 0 0 1 1.28-3.74l1.95-2.5c.28-.36.41-.53.47-.73a1 1 0 0 0 0-.52c-.06-.2-.2-.37-.47-.72l-1.95-2.5A6 6 0 0 1 4.9 4.76a3.05 3.05 0 0 1 3.05-3.05zM10.12 6.05A1.35 1.35 0 0 0 9.06 8.23L10.36 9.83Q10.63 10.17 10.78 10.46L10.98 11.14Q11.15 12 10.98 12.86L10.91 13.16Q10.78 13.6 10.4 14.1L9.29 15.47L7.63 17.61Q7.39 17.92 7.34 18.34L7.34 18.45C7.34 19.21 7.95 19.83 8.71 19.83L15.43 19.82A1.38 1.38 0 0 0 16.5 17.8L14.59 15.32L14.2 14.87Q13.99 14.65 13.78 14.38Q13.41 13.93 13.21 13.47L13.11 13.16Q12.81 12 13.11 10.84L13.16 10.66Q13.35 10.14 13.79 9.62Q13.99 9.35 14.2 9.12Q14.41 8.89 14.59 8.68L15.06 8.06C15.56 7.19 14.93 6.05 13.88 6.05Z" clip-rule="evenodd"/></svg>