<svg viewBox="0 0 24 24" xmlns="http://www.w3.org/2000/svg" width="24" height="24"><path fill-rule="evenodd" d="M16.06 1.72a3.05 3.05 0 0 1 3.05 3.05 6 6 0 0 1-1.28 3.74l-1.95 2.5c-.28.36-.41.53-.47.73a1 1 0 0 0 0 .52c.06.2.2.37.47.72l1.95 2.5a6 6 0 0 1 1.28 3.75 3.05 3.05 0 0 1-3.05 3.05H7.94a3.05 3.05 0 0 1-3.05-3.05 6 6 0 0 1 1.28-3.74l1.95-2.5c.28-.36.41-.53.47-.73a1 1 0 0 0 0-.52c-.06-.2-.2-.37-.47-.72l-1.95-2.5A6 6 0 0 1 4.9 4.76a3.05 3.05 0 0 1 3.05-3.05zm-5.94 4.33a1.35 1.35 0 0 0-1.06 2.18l.23.3.34.43.36.43.37.44q.27.34.42.63l.07.2.05.17.08.31q.17.86 0 1.72l-.07.3q-.13.44-.51.94l-.39.48-.38.46-.34.43-1.66 2.14q-.24.31-.29.73v.11c0 .76.61 1.38 1.37 1.38h6.58l.14-.01a1.38 1.38 0 0 0 1.07-2.02l-.02-.03-.02-.03-.05-.08-.02-.03-.02-.02-1.66-2.14-.12-.15-.39-.45q-.21-.22-.42-.49-.37-.45-.57-.91l-.05-.13-.05-.18q-.3-1.16 0-2.32l.05-.18q.19-.52.63-1.04.2-.27.41-.5t.39-.44l.12-.15.23-.3.12-.17c.5-.87-.13-2.01-1.18-2.01z" clip-rule="evenodd"/></svg>