<svg viewBox="0 0 24 24" xmlns="http://www.w3.org/2000/svg" width="24" height="24"><path fill-rule="evenodd" d="M18.1 2C19.4 2.03 20.18 2.1 20.83 2.44A4 4 0 0 1 22.57 4.18C23.01 5.04 23.01 6.16 23.01 8.4L22.99 17.59C22.95 18.59 22.86 19.26 22.57 19.82L22.42 20.09A4 4 0 0 1 20.82 21.56L20.66 21.64C20.05 21.9 19.28 21.97 18.09 21.99L5.92 22A7 7 0 0 1 3.36 21.64L3.19 21.56A4 4 0 0 1 1.59 20.09L1.44 19.82C1.12 19.17 1.04 18.38 1.02 17.08L1.02 16.84A1 1 0 0 1 1.02 16.5L1 8.4C1 6.3 1 5.18 1.36 4.35L1.43 4.18A4 4 0 0 1 2.92 2.6L3.19 2.45C3.83 2.12 4.62 2.04 5.92 2.02L18.09 2M17.49 15A1 1 0 0 0 17.16 15.12L17.06 15.19L12.06 20.2L16.6 20.2C17.75 20.2 18.5 20.2 19.08 20.15C19.63 20.11 19.87 20.03 20 19.96L20.15 19.87Q20.67 19.57 20.95 19L21.01 18.88A3 3 0 0 0 21.17 17.84L17.84 15.08A1 1 0 0 0 17.5 15M8.9 10.13A2.5 2.5 0 0 0 7.38 10.6L2.8 14.65L2.86 18.08C2.9 18.64 2.98 18.87 3.05 19Q3.38 19.63 4.01 19.96L4.13 20.01C4.28 20.06 4.51 20.11 4.93 20.15C5.5 20.2 6.26 20.2 7.41 20.2L9.61 20.2Q9.68 20.05 9.81 19.91L14.72 15L10.56 10.84A2.5 2.5 0 0 0 8.9 10.13M15.94 5.66a2.4 2.4 0 1 0 0 4.8 2.4 2.4 0 0 0 0-4.8" clip-rule="evenodd"/></svg>