<svg viewBox="0 0 24 24" xmlns="http://www.w3.org/2000/svg" width="24" height="24"><path fill-rule="evenodd" d="M18.1 1.87c1.3.02 2.08.1 2.73.43a4 4 0 0 1 1.74 1.75c.44.86.44 1.98.44 4.22v5.68c-.03 1.3-.11 2.1-.44 2.73l-.15.28a4 4 0 0 1-1.6 1.47l-.16.08q-.42.18-1 .25c-.04.58-.13 1-.32 1.37l-.13.24q-.51.8-1.35 1.25l-.14.06c-.52.23-1.17.29-2.19.3H5.2a6 6 0 0 1-2.19-.3l-.14-.06a3.4 3.4 0 0 1-1.35-1.25l-.13-.24a5 5 0 0 1-.37-2.32v-7.38c0-1.78 0-2.73.3-3.44l.07-.14A3.4 3.4 0 0 1 2.64 5.5l.23-.13c.41-.21.89-.3 1.57-.34q.07-.45.23-.82l.07-.16a4 4 0 0 1 1.47-1.6l.28-.15c.64-.33 1.43-.4 2.73-.43h8.87M7.72 11.9q-.72-.01-1.3.4l-.15.13-3.73 3.31v.81l.04 2.1c.04.48.1.68.16.79q.28.54.82.82l.1.04c.13.04.32.09.68.12.49.04 1.13.04 2.1.04h1.88q.06-.14.17-.24l4.17-4.18-3.53-3.53a2 2 0 0 0-1.41-.6m7.3 4.14q-.15 0-.28.1l-.08.07-4.25 4.25h3.85c.98 0 1.62 0 2.11-.04.47-.04.67-.1.78-.16l.13-.08q.45-.27.69-.74l.04-.1a3 3 0 0 0 .14-.89l-2.74-2.28-.09-.06a1 1 0 0 0-.3-.07m-4.3-12.38c-1.15 0-1.9 0-2.49.04-.55.05-.78.13-.91.2A2.2 2.2 0 0 0 6.29 5h9.24c1.1.02 1.78.09 2.33.37a3.4 3.4 0 0 1 1.48 1.48c.37.73.37 1.68.37 3.58v6.5q.2-.05.3-.1l.15-.09q.52-.32.8-.87l.06-.12c.05-.15.1-.38.14-.8.05-.58.05-1.33.05-2.48v-4.2c0-1.15 0-1.9-.05-2.48a3 3 0 0 0-.14-.8l-.05-.12A2.2 2.2 0 0 0 20 3.9a3 3 0 0 0-.92-.2c-.58-.04-1.33-.04-2.48-.04zm3 4.44a2.04 2.04 0 1 0 0 4.07 2.04 2.04 0 0 0 0-4.07" clip-rule="evenodd"/></svg>