<svg viewBox="0 0 24 24" xmlns="http://www.w3.org/2000/svg" width="24" height="24"><path fill-rule="evenodd" d="M18.1 2c1.3.03 2.08.1 2.73.44a4 4 0 0 1 1.74 1.74c.44.86.44 1.98.44 4.22v8.68l-.02.27v.24c-.04 1-.13 1.67-.42 2.23l-.15.27a4 4 0 0 1-1.6 1.47l-.16.08c-.61.26-1.38.33-2.57.35l-1.48.01H5.92a7 7 0 0 1-2.56-.36l-.17-.08a4 4 0 0 1-1.6-1.47l-.15-.27c-.32-.65-.4-1.44-.42-2.74v-.24a1 1 0 0 1 0-.34L1 15.6V8.4c0-2.1 0-3.22.36-4.05l.07-.17A4 4 0 0 1 2.92 2.6l.27-.15c.64-.33 1.43-.41 2.73-.43L7.41 2h10.68m-.6 13a1 1 0 0 0-.33.12l-.1.07-5 5.01h4.54c1.15 0 1.9 0 2.48-.05.55-.04.79-.12.92-.19l.15-.09q.52-.3.8-.87l.06-.12a3 3 0 0 0 .16-1.04l-3.23-2.69-.1-.07a1 1 0 0 0-.34-.08m-8.6-4.87a2.5 2.5 0 0 0-1.52.47l-.18.15-4.4 3.9v.95l.06 2.48c.04.56.12.79.19.92q.33.63.96.96l.12.05c.15.05.38.1.8.14.57.05 1.33.05 2.48.05h2.2q.07-.15.2-.29L14.72 15l-4.16-4.16a2.5 2.5 0 0 0-1.66-.71m7.04-4.47a2.4 2.4 0 1 0 0 4.8 2.4 2.4 0 0 0 0-4.8" clip-rule="evenodd"/></svg>