<svg viewBox="0 0 24 24" xmlns="http://www.w3.org/2000/svg" width="24" height="24"><path d="M20.64 15.49c.32.14 1.06.56 1.06 1.36s-.74 1.21-1.06 1.36l-6.9 3.15c-.49.22-1.11.34-1.74.34s-1.26-.12-1.75-.34l-6.9-3.15c-.31-.15-1.05-.57-1.05-1.36s.74-1.22 1.05-1.36l.71-.32 1.81.82 4.39 2c.49.23 1.12.34 1.74.34.63 0 1.26-.1 1.75-.33l6.19-2.83z"/><path d="M20.64 10.64c.32.14 1.06.56 1.06 1.36s-.74 1.22-1.06 1.36l-6.9 3.15c-.48.23-1.11.34-1.74.34a4 4 0 0 1-1.75-.34l-6.9-3.15c-.31-.14-1.05-.57-1.05-1.36s.74-1.22 1.05-1.36l.71-.32 6.2 2.83c.49.23 1.12.34 1.74.34.63 0 1.26-.11 1.75-.34l6.19-2.83z"/><path d="M10.31 2.63a4.5 4.5 0 0 1 3.37 0l6.97 3.17c.31.15 1.05.57 1.05 1.36s-.74 1.21-1.05 1.36l-6.9 3.15c-.5.22-1.12.33-1.75.33s-1.26-.11-1.75-.33l-6.9-3.15c-.31-.14-1.05-.56-1.05-1.36s.74-1.21 1.05-1.36z"/></svg>