<svg viewBox="0 0 24 24" xmlns="http://www.w3.org/2000/svg" width="24" height="24"><path fill-rule="evenodd" d="M9.04 4.97c.7.07 1.24.67 1.23 1.39v.14a1.4 1.4 0 0 1-1.25 1.23h-.14l-.83-.01A4.26 4.26 0 0 0 3.76 12v.22c.13 2.23 1.97 4 4.23 4l.98.02.14.01c.7.08 1.24.67 1.24 1.39v.14a1.4 1.4 0 0 1-1.25 1.23H7.97A7.03 7.03 0 0 1 1 12.37l-.01-.36a7.03 7.03 0 0 1 7.07-7.07l.84.01zm7.35.04c3.68.2 6.6 3.25 6.62 6.97v.36a7.03 7.03 0 0 1-6.7 6.7l-.37.01-.84-.01a1.39 1.39 0 0 1 .02-2.77l.84.01h.22a4.26 4.26 0 0 0 4.05-4.06V12a4.26 4.26 0 0 0-4-4.22L16 7.77l-.98-.02c-.72 0-1.3-.55-1.37-1.25l-.01-.14c0-.77.63-1.38 1.4-1.38l.98.02z" clip-rule="evenodd"/></svg>