<svg viewBox="0 0 24 24" xmlns="http://www.w3.org/2000/svg" width="24" height="24"><path fill-rule="evenodd" d="M9.04 4.97C9.74 5.04 10.28 5.64 10.27 6.36L10.27 6.5A1.4 1.4 0 0 1 9.02 7.73L8.05 7.72A4.26 4.26 0 0 0 3.76 12L3.76 12.22C3.89 14.45 5.73 16.22 7.99 16.22L9.11 16.25C9.81 16.33 10.35 16.92 10.35 17.64L10.35 17.78A1.4 1.4 0 0 1 9.1 19.01L7.97 19.01A7.03 7.03 0 0 1 1 12.37L.99 12.01A7.03 7.03 0 0 1 8.06 4.94L8.9 4.95ZM16.39 5.01C20.07 5.21 22.99 8.26 23.01 11.98L23.01 12.34A7.03 7.03 0 0 1 16.31 19.04L15.1 19.04A1.39 1.39 0 0 1 15.12 16.27L16.18 16.28A4.26 4.26 0 0 0 20.23 12.22L20.23 12A4.26 4.26 0 0 0 16.23 7.78L15.02 7.75C14.3 7.75 13.72 7.2 13.65 6.5L13.64 6.36C13.64 5.59 14.27 4.98 15.04 4.98L16.02 5Z" clip-rule="evenodd"/><path fill-rule="evenodd" d="M15.47 10.64C16.17 10.72 16.71 11.31 16.71 12.04L16.7 12.17A1.4 1.4 0 0 1 15.45 13.4L8.67 13.36C7.95 13.36 7.37 12.81 7.3 12.11L7.3 11.97C7.3 11.2 7.92 10.59 8.69 10.59L15.33 10.64Z" clip-rule="evenodd"/></svg>