<svg viewBox="0 0 24 24" xmlns="http://www.w3.org/2000/svg" width="24" height="24"><path fill-rule="evenodd" d="M4.93 9.12a1.4 1.4 0 0 1 1.86.1l.1.11c.4.52.4 1.25-.02 1.75l-.1.1-.6.59a4.26 4.26 0 0 0 0 6.06l.16.15a4.26 4.26 0 0 0 5.82-.15l.71-.69.1-.1a1.4 1.4 0 0 1 1.86.11l.1.11c.4.51.4 1.25-.02 1.75l-.1.1-.7.69a7.03 7.03 0 0 1-9.61.25l-.26-.25a7.03 7.03 0 0 1 0-10l.6-.58zm5.23-5.17a7.03 7.03 0 0 1 9.61.25l.25.26a7.03 7.03 0 0 1 0 9.48l-.25.26-.6.58a1.39 1.39 0 0 1-1.95-1.97l.6-.58.16-.16a4.26 4.26 0 0 0 0-5.74l-.16-.16A4.26 4.26 0 0 0 12 6.02l-.15.15-.71.69a1.4 1.4 0 0 1-1.86.08l-.1-.1a1.4 1.4 0 0 1 .01-1.96l.7-.68z" clip-rule="evenodd"/><path fill-rule="evenodd" d="M13.5 8.59a1.4 1.4 0 0 1 1.85.1l.1.11c.4.51.4 1.25-.02 1.75l-.1.1-4.72 4.67c-.51.5-1.31.53-1.85.08l-.1-.1a1.4 1.4 0 0 1 0-1.95l4.73-4.67z" clip-rule="evenodd"/></svg>