<svg viewBox="0 0 24 24" xmlns="http://www.w3.org/2000/svg" width="24" height="24"><path fill-rule="evenodd" d="M4.739 9.334A1.4 1.4 0 0 1 6.599 9.434L6.699 9.544C7.099 10.064 7.099 10.794 6.679 11.294L6.579 11.394L5.979 11.984A4.26 4.26 0 0 0 5.979 18.044L6.139 18.194A4.26 4.26 0 0 0 11.959 18.044L12.669 17.354L12.769 17.254A1.4 1.4 0 0 1 14.629 17.364L14.729 17.474C15.129 17.984 15.129 18.724 14.709 19.224L14.609 19.324L13.909 20.014A7.03 7.03 0 0 1 4.299 20.264L4.039 20.014A7.03 7.03 0 0 1 4.039 10.014L4.639 9.434ZM10.352 3.783A7.03 7.03 0 0 1 19.962 4.033L20.212 4.293A7.03 7.03 0 0 1 20.212 13.773L19.962 14.033L19.362 14.613A1.39 1.39 0 0 1 17.412 12.643L18.012 12.063L18.172 11.903A4.26 4.26 0 0 0 18.172 6.163L18.012 6.003A4.26 4.26 0 0 0 12.192 5.853L12.042 6.003L11.332 6.693A1.4 1.4 0 0 1 9.472 6.773L9.372 6.673A1.4 1.4 0 0 1 9.382 4.713L10.082 4.033Z" clip-rule="evenodd"/><path fill-rule="evenodd" d="M13.5 8.59a1.4 1.4 0 0 1 1.85.1l.1.11c.4.51.4 1.25-.02 1.75l-.1.1-4.72 4.67c-.51.5-1.31.53-1.85.08l-.1-.1a1.4 1.4 0 0 1 0-1.95l4.73-4.67z" clip-rule="evenodd"/></svg>