<svg viewBox="0 0 24 24" xmlns="http://www.w3.org/2000/svg" width="24" height="24"><path d="M4.05 15.95c.77.01 1.4.64 1.4 1.42s-.64 1.39-1.4 1.38H3.9a1.4 1.4 0 0 1-1.26-1.42c0-.77.63-1.39 1.4-1.38m16.16.2a1.2 1.2 0 0 1 0 2.4h-12a1.2 1.2 0 0 1 0-2.4h12.01M4.04 10.6c.77 0 1.4.64 1.4 1.41 0 .73-.54 1.32-1.25 1.38l-.14.01a1.4 1.4 0 0 1-1.4-1.41c0-.73.54-1.32 1.25-1.38zm16.16.2a1.2 1.2 0 0 1 0 2.4h-12a1.2 1.2 0 0 1 0-2.4h12.01M4.04 5.25c.77 0 1.4.64 1.4 1.41 0 .72-.54 1.32-1.25 1.38l-.14.01a1.4 1.4 0 0 1-1.4-1.41c0-.73.54-1.32 1.25-1.38zm16.16.2a1.2 1.2 0 0 1 0 2.4h-12a1.2 1.2 0 0 1 0-2.4h12.01"/></svg>