<svg viewBox="0 0 24 24" xmlns="http://www.w3.org/2000/svg" width="24" height="24"><path d="M8.2 10.8L20.2 10.8C20.2 10.8 20.2 10.8 20.2 10.8A1.2 1.2 0 0 1 21.4 12C21.4 12 21.4 12 21.4 12L21.4 12C21.4 12 21.4 12 21.4 12A1.2 1.2 0 0 1 20.2 13.2C20.2 13.2 20.2 13.2 20.2 13.2L8.2 13.2C8.2 13.2 8.2 13.2 8.2 13.2A1.2 1.2 0 0 1 7 12C7 12 7 12 7 12L7 12C7 12 7 12 7 12A1.2 1.2 0 0 1 8.2 10.8C8.2 10.8 8.2 10.8 8.2 10.8ZM8.2 16.15L20.2 16.15C20.2 16.15 20.2 16.15 20.2 16.15A1.2 1.2 0 0 1 21.4 17.35C21.4 17.35 21.4 17.35 21.4 17.35L21.4 17.35C21.4 17.35 21.4 17.35 21.4 17.35A1.2 1.2 0 0 1 20.2 18.55C20.2 18.55 20.2 18.55 20.2 18.55L8.2 18.55C8.2 18.55 8.2 18.55 8.2 18.55A1.2 1.2 0 0 1 7 17.35C7 17.35 7 17.35 7 17.35L7 17.35C7 17.35 7 17.35 7 17.35A1.2 1.2 0 0 1 8.2 16.15C8.2 16.15 8.2 16.15 8.2 16.15ZM8.2 5.45L20.2 5.45C20.2 5.45 20.2 5.45 20.2 5.45A1.2 1.2 0 0 1 21.4 6.65C21.4 6.65 21.4 6.65 21.4 6.65L21.4 6.65C21.4 6.65 21.4 6.65 21.4 6.65A1.2 1.2 0 0 1 20.2 7.85C20.2 7.85 20.2 7.85 20.2 7.85L8.2 7.85C8.2 7.85 8.2 7.85 8.2 7.85A1.2 1.2 0 0 1 7 6.65C7 6.65 7 6.65 7 6.65L7 6.65C7 6.65 7 6.65 7 6.65A1.2 1.2 0 0 1 8.2 5.45C8.2 5.45 8.2 5.45 8.2 5.45ZM2.636 17.353a1.406 1.406 0 1 0 2.811 0a1.406 1.406 0 1 0 -2.811 0ZM2.645 12.001a1.399 1.399 0 1 0 2.798 0a1.399 1.399 0 1 0 -2.798 0ZM2.645 6.65a1.399 1.399 0 1 0 2.798 0a1.399 1.399 0 1 0 -2.798 0Z"/></svg>