<svg viewBox="0 0 24 24" xmlns="http://www.w3.org/2000/svg" width="24" height="24"><path d="M14.71 4c.28 0 .41 0 .51.04q.13.07.21.18c.06.09.1.25.15.58a4.5 4.5 0 0 0 1.66 2.75q.32.24.36.33.05.11 0 .22c-.03.08-.13.15-.33.3L12 12.37l-7.44-5.6c-.15-.1-.23-.16-.34-.18a1 1 0 0 0-.3.03 1 1 0 0 0-.25.22l-.24.32c-.14.2-.2.29-.23.4q-.02.16.05.3c.05.11.15.19.35.34l4.49 3.44-3.4 2.5a.9.9 0 1 0 1.07 1.45l3.82-2.81 1.88 1.44a.9.9 0 0 0 1.1 0l1.87-1.44 3.82 2.81.08.05a.9.9 0 0 0 1.07-1.44l-.08-.06-3.4-2.5 3.85-2.96.16-.12.1-.04.23-.02q.76-.04 1.45-.33c.44-.18.66-.27.8-.24q.2.03.31.19c.09.12.1.3.13.65.06.83.07 1.87.07 3.24l-.01 1.85c-.03 1.63-.13 2.62-.54 3.42l-.1.17a5 5 0 0 1-2.08 2.02l-.2.1c-.78.32-1.73.4-3.22.43l-1.85.01h-7.9c-1.49-.03-2.44-.12-3.21-.45l-.2-.1a5 5 0 0 1-2.1-2l-.09-.18C.98 16.2.97 14.8.97 12c0-2.63 0-4.02.45-5.07l.1-.2.05-.09v-.01a5 5 0 0 1 1.96-2l.18-.09c.8-.4 1.79-.5 3.41-.53L8.98 4z"/><path d="M20 1a3 3 0 1 1 0 6 3 3 0 0 1 0-6"/></svg>