<svg viewBox="0 0 24 24" xmlns="http://www.w3.org/2000/svg" width="24" height="24"><path fill-rule="evenodd" d="M9.57 1.84A4 4 0 0 1 14.37 1.84L21.77 7.4A3 3 0 0 1 22.97 9.79L22.99 15.93A5 5 0 0 1 18.25 20.95L5.73 20.95A5 5 0 0 1 1 16.23L.96 9.8A3 3 0 0 1 2.02 7.5L2.16 7.4ZM10.65 3.28A2.2 2.2 0 0 1 13.29 3.28L19.52 7.96L20.96 9.13L17.6 11.58A.2 .2 0 0 0 17.6 11.89L20.33 14.02A.9 .9 0 1 1 19.21 15.45L13.25 10.79A2 2 0 0 0 10.89 10.69L4.78 15.44A.9 .9 0 1 1 3.68 14.02L6.6 11.73L3 9.1L4.45 7.93Z" clip-rule="evenodd"/></svg>