<svg viewBox="0 0 24 24" xmlns="http://www.w3.org/2000/svg" width="24" height="24"><path fill-rule="evenodd" d="M16.88 4c1.62.03 2.61.14 3.42.54a5 5 0 0 1 2.18 2.19c.55 1.07.55 2.47.55 5.27l-.01 1.85c-.03 1.63-.13 2.62-.54 3.42l-.1.17a5 5 0 0 1-2.08 2.02l-.2.1c-.78.32-1.73.4-3.22.43l-1.85.01H7.12c-1.49-.03-2.44-.12-3.21-.45l-.2-.1a5 5 0 0 1-2.1-2l-.09-.18C.98 16.2.97 14.8.97 12c0-2.63 0-4.02.45-5.07l.1-.2.05-.09v-.01a5 5 0 0 1 1.96-2l.18-.09c.8-.4 1.79-.5 3.41-.53L8.98 4zM4.57 6.77c-.15-.1-.23-.16-.34-.18a1 1 0 0 0-.3.03 1 1 0 0 0-.25.22l-.24.32c-.14.2-.2.29-.23.4q-.02.16.05.3c.05.11.15.19.35.34l4.49 3.44-3.4 2.5a.9.9 0 1 0 1.07 1.45l3.82-2.81 1.88 1.44a.9.9 0 0 0 1.1 0l1.87-1.44 3.82 2.81.08.05a.9.9 0 0 0 1.07-1.44l-.08-.06-3.4-2.5 4.5-3.47c.2-.14.28-.21.33-.32q.07-.13.05-.3a1 1 0 0 0-.19-.36l-.28-.36c-.1-.11-.15-.17-.26-.22a1 1 0 0 0-.3-.03c-.1.02-.18.08-.34.2L12 12.36z" clip-rule="evenodd"/></svg>