<svg viewBox="0 0 24 24" xmlns="http://www.w3.org/2000/svg" width="24" height="24"><path d="M10.82 6.5a.4.4 0 0 1 .4.4v7.06a.4.4 0 0 1-.4.4c-.68 0-1.23.56-1.18 1.23.11 1.41.34 2.33.57 2.97.16.47.34.81.5 1.15q.2.36.4.8l.1.3v.01l.05.2a1.7 1.7 0 0 1-1.45 1.96l-.2.01H7.04a1.3 1.3 0 0 1-1.29-1.29v-7.34h-.04a3.93 3.93 0 0 1 0-7.86zm8.03-5c.36-.45.97-.62 1.55-.42a1.5 1.5 0 0 1 1.03 1.4V18.4c0 .62-.4 1.15-1.04 1.36q-.25.09-.51.09a1.3 1.3 0 0 1-1.04-.49 21 21 0 0 0-2.54-2.56q-1.61-1.36-3.04-1.98a.8.8 0 0 1-.48-.72V6.5a.4.4 0 0 1 .26-.37 12 12 0 0 0 3.29-2.08q1.36-1.16 2.52-2.54"/></svg>