<svg viewBox="0 0 24 24" xmlns="http://www.w3.org/2000/svg" width="24" height="24"><path d="M5.26 7.82L18.61 7.82C18.61 7.82 18.61 7.82 18.61 7.82A1.2 1.2 0 0 1 19.81 9.02C19.81 9.02 19.81 9.02 19.81 9.02L19.81 9.02C19.81 9.02 19.81 9.02 19.81 9.02A1.2 1.2 0 0 1 18.61 10.22C18.61 10.22 18.61 10.22 18.61 10.22L5.26 10.22C5.26 10.22 5.26 10.22 5.26 10.22A1.2 1.2 0 0 1 4.06 9.02C4.06 9.02 4.06 9.02 4.06 9.02L4.06 9.02C4.06 9.02 4.06 9.02 4.06 9.02A1.2 1.2 0 0 1 5.26 7.82C5.26 7.82 5.26 7.82 5.26 7.82ZM5.26 13.78L18.61 13.78C18.61 13.78 18.61 13.78 18.61 13.78A1.2 1.2 0 0 1 19.81 14.98C19.81 14.98 19.81 14.98 19.81 14.98L19.81 14.98C19.81 14.98 19.81 14.98 19.81 14.98A1.2 1.2 0 0 1 18.61 16.18C18.61 16.18 18.61 16.18 18.61 16.18L5.26 16.18C5.26 16.18 5.26 16.18 5.26 16.18A1.2 1.2 0 0 1 4.06 14.98C4.06 14.98 4.06 14.98 4.06 14.98L4.06 14.98C4.06 14.98 4.06 14.98 4.06 14.98A1.2 1.2 0 0 1 5.26 13.78C5.26 13.78 5.26 13.78 5.26 13.78Z"/></svg>