<svg viewBox="0 0 24 24" xmlns="http://www.w3.org/2000/svg" width="24" height="24"><path d="M21.46 1.26a.9.9 0 0 1 1.28 1.28l-20.2 20.2-.07.06a.9.9 0 0 1-1.27-1.27l.07-.07 5.51-5.52zM19.5 11c.5 0 .9.4.9.9a8.4 8.4 0 0 1-7.5 8.35v1.84a.9.9 0 0 1-1.8 0v-1.84a8 8 0 0 1-2.75-.78l1.37-1.38a6.6 6.6 0 0 0 8.88-6.2c0-.5.4-.9.9-.9"/><path d="M17.1 12.02a5.04 5.04 0 0 1-6.17 4.87l6.17-6.18zM4.5 11c.5 0 .9.4.9.9q0 1.26.46 2.42L4.5 15.68a8.4 8.4 0 0 1-.9-3.78c0-.5.4-.9.9-.9M12 .99a5.1 5.1 0 0 1 4.52 2.67l-9.5 9.5a5 5 0 0 1-.13-1.14V5.97A5.04 5.04 0 0 1 12 .99"/></svg>