<svg viewBox="0 0 24 24" xmlns="http://www.w3.org/2000/svg" width="24" height="24"><path fill-rule="evenodd" d="M12 1a11 11 0 1 1 0 22 11 11 0 0 1 0-22M17.6 10.3A.9 .9 0 0 0 16.63 11.02L16.63 11.12A4.6 4.6 0 0 1 15.29 13.95L15.12 14.1A4.65 4.65 0 0 1 8.74 13.95L8.6 13.8A4.6 4.6 0 0 1 7.43 11.31L7.41 11.11L7.39 11.02A.9 .9 0 0 0 5.61 11.18L5.61 11.28L5.64 11.55C5.82 12.85 6.39 14.05 7.28 15.02L7.48 15.22A6.3 6.3 0 0 0 11.11 17.02L11.11 19.16A.9 .9 0 1 0 12.91 19.16L12.91 17.03A6.4 6.4 0 0 0 16.32 15.44L16.55 15.23C17.56 14.23 18.2 12.93 18.38 11.55L18.41 11.27A.9 .9 0 0 0 17.6 10.3M12 5A3.1 3.1 0 0 0 8.88 8.05L8.88 10.76A3.1 3.1 0 0 0 12.01 13.81C13.71 13.81 15.13 12.46 15.13 10.76L15.13 8.06A3.1 3.1 0 0 0 12.01 5" clip-rule="evenodd"/></svg>