<svg viewBox="0 0 24 24" xmlns="http://www.w3.org/2000/svg" width="24" height="24"><path fill-rule="evenodd" d="M12 1a11 11 0 1 1 0 22 11 11 0 0 1 0-22m5.6 9.6a.9.9 0 0 0-.97.72v.1a4.6 4.6 0 0 1-1.34 2.83l-.17.15a4.65 4.65 0 0 1-6.38-.15l-.14-.15a4.6 4.6 0 0 1-1.17-2.49l-.02-.2-.02-.09a.9.9 0 0 0-1.78.16v.1l.03.27c.18 1.3.75 2.5 1.64 3.47l.2.2a6.3 6.3 0 0 0 3.63 1.8v2.14a.9.9 0 1 0 1.8 0v-2.13a6.4 6.4 0 0 0 3.41-1.59l.23-.21c1.01-1 1.65-2.3 1.83-3.68l.03-.28a.9.9 0 0 0-.81-.97M12 5.3a3.1 3.1 0 0 0-3.12 3.05v2.71a3.1 3.1 0 0 0 3.13 3.05c1.7 0 3.12-1.35 3.12-3.05v-2.7a3.1 3.1 0 0 0-3.12-3.06" clip-rule="evenodd"/></svg>