<svg viewBox="0 0 24 24" xmlns="http://www.w3.org/2000/svg" width="24" height="24"><path d="M14.67 2.73c.7-.59 1.86-.82 2.87-.23A11 11 0 0 1 12 23a11 11 0 0 1-9.6-5.6 2.2 2.2 0 0 1 .42-2.67c.62-.6 1.65-.9 2.65-.51q1.09.41 2.31.42a6.8 6.8 0 0 0 6.69-6.9q-.01-1.35-.46-2.52c-.36-.95 0-1.92.67-2.49"/><path d="M8.78 6.85A.5 .5 0 0 1 9.24 6.85L9.34 6.91Q9.44 7.03 9.46 7.09L9.86 8.15L10.92 8.54C10.95 8.56 11.09 8.62 11.16 8.77L11.21 8.88L11.21 9.12L11.1 9.33C11.03 9.41 10.94 9.44 10.92 9.45L9.86 9.85L9.46 10.91Q9.46 10.96 9.34 11.09L9.13 11.2A.5 .5 0 0 1 8.78 11.15C8.63 11.08 8.58 10.95 8.55 10.91L8.16 9.85L7.1 9.45A.5 .5 0 0 1 6.85 9.23A.5 .5 0 0 1 6.85 8.77C6.93 8.62 7.06 8.57 7.1 8.54L8.16 8.15L8.55 7.09C8.57 7.06 8.63 6.92 8.78 6.85M3.73 1.05A.6 .6 0 0 1 4.29 1.05L4.35 1.08A1 1 0 0 1 4.55 1.35L5.13 2.87L6.65 3.45C6.72 3.48 6.88 3.55 6.96 3.72L6.99 3.79A.6 .6 0 0 1 6.99 4.21L6.93 4.34A1 1 0 0 1 6.65 4.54Q6.52 4.62 6.34 4.67L5.14 5.12L4.56 6.65A1 1 0 0 1 4.35 6.92L4.22 6.98A.6 .6 0 0 1 3.72 6.95A.6 .6 0 0 1 3.46 6.65L2.89 5.13L1.36 4.55A.6 .6 0 0 1 1.06 4.28A.6 .6 0 0 1 1.06 3.72A.6 .6 0 0 1 1.36 3.45L2.88 2.88L3.46 1.35C3.49 1.28 3.56 1.13 3.73 1.05"/></svg>