<svg viewBox="0 0 24 24" xmlns="http://www.w3.org/2000/svg" width="24" height="24"><g clip-path="url(#a)"><path d="M11.32.8a2.2 2.2 0 0 1 1.36 0l.12.04q.4.17.64.4.26.22.55.52L16 3.78l.09.1a1.2 1.2 0 0 1-1.7 1.68l-.08-.08-1.12-1.11v6.42h6.42l-1.1-1.1-.09-.1a1.2 1.2 0 0 1 1.7-1.68l.08.08L22.24 10l.52.55q.26.27.44.75.21.69 0 1.36l-.04.12q-.18.4-.4.64l-.52.54L20.2 16a1.2 1.2 0 0 1-1.7-1.7l1.11-1.1H13.2v6.42l1.1-1.11.1-.08a1.2 1.2 0 0 1 1.69 1.69l-.09.09-2.02 2.02q-.27.3-.55.52a2 2 0 0 1-.63.4l-.12.04a2.2 2.2 0 0 1-1.36 0l-.12-.04a2 2 0 0 1-.63-.4q-.28-.22-.55-.52L8 20.21l-.09-.1a1.2 1.2 0 0 1 1.7-1.68l.08.08 1.1 1.1.01-6.42H4.37L5.5 14.3l.08.1a1.2 1.2 0 0 1-1.69 1.68l-.1-.08-2.02-2.03-.52-.54a2 2 0 0 1-.4-.64l-.04-.12a2.2 2.2 0 0 1 0-1.36l.04-.11q.18-.4.4-.64l.52-.55L3.8 8l.09-.08A1.2 1.2 0 0 1 5.58 9.6l-.08.1-1.11 1.1h6.42V4.37L9.7 5.48l-.1.08a1.2 1.2 0 0 1-1.69-1.69L8 3.78l2.03-2.02q.28-.3.54-.53c.19-.15.43-.33.75-.44"/></g><defs><clipPath id="a"><path d="M0 0h24v24H0z"/></clipPath></defs></svg>