<svg viewBox="0 0 24 24" xmlns="http://www.w3.org/2000/svg" width="24" height="24"><g clip-path="url(#a)"><path d="M11.32 .8A2.2 2.2 0 0 1 12.68 .8L12.8 .84Q13.2 1.01 13.44 1.24Q13.7 1.46 13.99 1.76L16.09 3.88A1.2 1.2 0 0 1 14.39 5.56L13.19 4.37L13.19 10.79L19.61 10.79L18.42 9.59A1.2 1.2 0 0 1 20.12 7.91L22.24 10L22.76 10.55Q23.02 10.82 23.2 11.3Q23.41 11.99 23.2 12.66L23.16 12.78Q22.98 13.18 22.76 13.42L20.2 16A1.2 1.2 0 0 1 18.5 14.3L19.61 13.2L13.2 13.2L13.2 19.62L14.4 18.43A1.2 1.2 0 0 1 16.09 20.12L13.98 22.23Q13.71 22.53 13.43 22.75A2 2 0 0 1 12.8 23.15L12.68 23.19A2.2 2.2 0 0 1 11.32 23.19L11.2 23.15A2 2 0 0 1 10.57 22.75Q10.29 22.53 10.02 22.23L7.91 20.11A1.2 1.2 0 0 1 9.61 18.43L10.79 19.61L10.8 13.19L4.37 13.19L5.58 14.4A1.2 1.2 0 0 1 3.89 16.08L1.25 13.43A2 2 0 0 1 .85 12.79L.81 12.67A2.2 2.2 0 0 1 .81 11.31L.85 11.2Q1.03 10.8 1.25 10.56L3.89 7.92A1.2 1.2 0 0 1 5.58 9.6L4.39 10.8L10.81 10.8L10.81 4.37L9.6 5.56A1.2 1.2 0 0 1 7.91 3.87L10.03 1.76Q10.31 1.46 10.57 1.23C10.76 1.08 11 .9 11.32 .79"/></g><defs><clipPath id="a"><path d="M0 0h24v24H0z"/></clipPath></defs></svg>