<svg viewBox="0 0 24 24" xmlns="http://www.w3.org/2000/svg" width="24" height="24"><path d="M13.39 20.2c.5 0 .93.43.78.92C13.86 22.22 13 23 12 23s-1.86-.78-2.18-1.88c-.14-.5.28-.92.79-.92zM12 1q.3 0 .56.02a5.8 5.8 0 0 1 4.82 2.76 7.6 7.6 0 0 1 1.3 4.17v3.38c0 1.02.01 1.3.1 1.55l.06.17c.1.23.28.45.96 1.19l.04.05q.77.8 1.2 1.42c.28.39.63 1 .45 1.7q-.08.3-.24.55c-.38.63-1.05.78-1.51.84q-.74.07-1.83.06H6.1c-.72 0-1.36 0-1.84-.06-.46-.06-1.13-.21-1.51-.84q-.15-.25-.23-.55c-.18-.7.16-1.31.43-1.7q.46-.6 1.21-1.42l.04-.05c.68-.74.86-.96.96-1.2l.07-.16c.08-.25.1-.53.1-1.55V7.95c0-1.13.31-2.76 1.29-4.17a5.8 5.8 0 0 1 4.8-2.76z"/></svg>