<svg viewBox="0 0 24 24" xmlns="http://www.w3.org/2000/svg" width="24" height="24"><path fill-rule="evenodd" d="M12.69 1.6c2.5 0 4.92.8 6.72 2.4a5.25 5.25 0 0 1 0 7.97l-1.6 1.44c-.75.68-.75 1.66 0 2.34.36.32.59.43 1.2.53.43.07.94.15 1.29.48.63.6.75 1.87 0 2.55a11.7 11.7 0 0 1-7.84 2.8h-.09c-2.91-.03-5.86-1-8.04-2.96a9.44 9.44 0 0 1 0-14.34 12.6 12.6 0 0 1 8.36-3.2m-.84 13.8c-1.12 0-2.02.9-2.02 2.03s.9 2.04 2.02 2.04c1.1 0 2-.91 2-2.04s-.9-2.04-2-2.04m-5.17-2.5A1.7 1.7 0 0 0 5 14.61c0 .95.75 1.72 1.68 1.72a1.7 1.7 0 0 0 1.69-1.71 1.7 1.7 0 0 0-1.69-1.71m-.2-5.08a1.7 1.7 0 0 0-1.7 1.7c0 .95.76 1.71 1.7 1.71a1.7 1.7 0 0 0 1.68-1.7 1.7 1.7 0 0 0-1.69-1.71m8.6-2.33a1.7 1.7 0 0 0-1.68 1.7c0 .95.76 1.72 1.69 1.72a1.7 1.7 0 0 0 1.68-1.71c0-.95-.75-1.71-1.68-1.71m-4.78-.85a1.7 1.7 0 0 0-1.68 1.7c0 .95.75 1.71 1.68 1.71a1.7 1.7 0 0 0 1.7-1.7 1.7 1.7 0 0 0-1.69-1.71" clip-rule="evenodd"/></svg>