<svg viewBox="0 0 24 24" xmlns="http://www.w3.org/2000/svg" width="24" height="24"><path d="M14.15 8.4L14.15 8.4C14.15 8.4 14.15 8.4 14.15 8.4A1.65 1.65 0 0 1 15.8 10.05C15.8 10.05 15.8 10.05 15.8 10.05L15.8 14.01C15.8 14.01 15.8 14.01 15.8 14.01A1.65 1.65 0 0 1 14.15 15.66C14.15 15.66 14.15 15.66 14.15 15.66L14.15 15.66C14.15 15.66 14.15 15.66 14.15 15.66A1.65 1.65 0 0 1 12.5 14.01C12.5 14.01 12.5 14.01 12.5 14.01L12.5 10.05C12.5 10.05 12.5 10.05 12.5 10.05A1.65 1.65 0 0 1 14.15 8.4C14.15 8.4 14.15 8.4 14.15 8.4ZM9.86 8.4L9.86 8.4C9.86 8.4 9.86 8.4 9.86 8.4A1.66 1.66 0 0 1 11.52 10.06C11.52 10.06 11.52 10.06 11.52 10.06L11.52 14C11.52 14 11.52 14 11.52 14A1.66 1.66 0 0 1 9.86 15.66C9.86 15.66 9.86 15.66 9.86 15.66L9.86 15.66C9.86 15.66 9.86 15.66 9.86 15.66A1.66 1.66 0 0 1 8.2 14C8.2 14 8.2 14 8.2 14L8.2 10.06C8.2 10.06 8.2 10.06 8.2 10.06A1.66 1.66 0 0 1 9.86 8.4C9.86 8.4 9.86 8.4 9.86 8.4ZM1 12a11 11 0 1 0 22 0a11 11 0 1 0 -22 0Z"/></svg>