<svg viewBox="0 0 24 24" xmlns="http://www.w3.org/2000/svg" width="24" height="24"><path d="M6.885 3.54L6.885 3.54C7.802 3.54 8.26 3.54 8.63 3.664A2.4 2.4 0 0 1 10.146 5.18C10.27 5.55 10.27 6.008 10.27 6.925L10.27 17.135C10.27 18.052 10.27 18.51 10.146 18.88A2.4 2.4 0 0 1 8.63 20.396C8.26 20.52 7.802 20.52 6.885 20.52L6.885 20.52C5.968 20.52 5.51 20.52 5.14 20.396A2.4 2.4 0 0 1 3.624 18.88C3.5 18.51 3.5 18.052 3.5 17.135L3.5 6.925C3.5 6.008 3.5 5.55 3.624 5.18A2.4 2.4 0 0 1 5.14 3.664C5.51 3.54 5.968 3.54 6.885 3.54ZM17.115 3.54L17.115 3.54C18.032 3.54 18.49 3.54 18.86 3.664A2.4 2.4 0 0 1 20.376 5.18C20.5 5.55 20.5 6.008 20.5 6.925L20.5 17.135C20.5 18.052 20.5 18.51 20.376 18.88A2.4 2.4 0 0 1 18.86 20.396C18.49 20.52 18.032 20.52 17.115 20.52L17.115 20.52C16.198 20.52 15.74 20.52 15.37 20.396A2.4 2.4 0 0 1 13.854 18.88C13.73 18.51 13.73 18.052 13.73 17.135L13.73 6.925C13.73 6.008 13.73 5.55 13.854 5.18A2.4 2.4 0 0 1 15.37 3.664C15.74 3.54 16.198 3.54 17.115 3.54Z"/></svg>