<svg viewBox="0 0 24 24" xmlns="http://www.w3.org/2000/svg" width="24" height="24"><path d="M12 10.86c.83 0 1.44.24 2 .78.53.51 1.02 1.3 1.65 2.35l.1.14a6 6 0 0 0 1.9 1.58c.73.44 1.56.92 1.9 1.85q.2.5.2 1.03l-.02.27a2.6 2.6 0 0 1-2.52 2.4c-.81 0-1.75-.32-2.62-.6a9 9 0 0 0-2.59-.57c-.8 0-1.67.27-2.58.57-.88.29-1.82.6-2.63.6a2.6 2.6 0 0 1-2.53-2.4l-.01-.27q0-.53.19-1.02l.07-.17c.36-.82 1.14-1.28 1.83-1.7a5.3 5.3 0 0 0 2-1.71l.46-.74c.43-.69.8-1.23 1.2-1.6a2.7 2.7 0 0 1 2-.79M3.2 7.54c.59 0 1.17.27 1.67.7q.77.66 1.24 1.75l.12.32c.26.74.32 1.5.2 2.15-.14.73-.53 1.39-1.22 1.66a2 2 0 0 1-.66.13c-.6 0-1.18-.28-1.68-.7a5 5 0 0 1-1.12-1.5l-.12-.26a4.4 4.4 0 0 1-.31-2.46c.13-.74.53-1.4 1.21-1.67l.17-.05q.24-.07.5-.07m17.6 0q.26 0 .5.07l.16.05.13.06c.6.3.96.92 1.1 1.6.13.75.03 1.62-.32 2.47q-.47 1.1-1.24 1.76c-.5.42-1.08.7-1.68.7a2 2 0 0 1-.66-.13c-.69-.27-1.08-.93-1.22-1.66a4.4 4.4 0 0 1 .32-2.47l.12-.26q.44-.9 1.1-1.48c.5-.43 1.08-.7 1.67-.71zM8.56 2.73c.66 0 1.26.4 1.7.94.44.56.76 1.32.89 2.17l.03.34c.07.78-.05 1.52-.32 2.11-.3.68-.83 1.21-1.55 1.32l-.12.01h-.12c-.67 0-1.26-.38-1.7-.93a4.4 4.4 0 0 1-.83-1.85l-.06-.32c-.13-.9-.02-1.77.29-2.45.3-.67.83-1.21 1.54-1.32zm7 .01.12.01c.72.1 1.25.65 1.55 1.32.3.68.42 1.55.29 2.45-.12.85-.45 1.61-.89 2.17s-1.03.94-1.7.94l-.24-.02c-.72-.1-1.25-.64-1.55-1.32a4.5 4.5 0 0 1-.29-2.45l.06-.32q.24-1.1.83-1.85c.44-.55 1.03-.94 1.7-.94z"/></svg>