<svg viewBox="0 0 24 24" xmlns="http://www.w3.org/2000/svg" width="24" height="24"><path d="M9.924 11.749L5.146 16.055A3 3 0 0 0 4.651 19.936A3 3 0 0 0 8.414 21.006A8.542 8.542 0 0 1 15.587 21.005A3 3 0 0 0 19.349 19.936A3 3 0 0 0 18.854 16.055L14.076 11.749A3.101 3.101 0 0 0 9.924 11.749ZM5.24 14.116C5.121 14.166 4.997 14.203 4.866 14.225C4.734 14.247 4.597 14.257 4.452 14.248C4.307 14.239 4.153 14.216 3.995 14.17C3.836 14.125 3.667 14.062 3.499 13.973C3.33 13.884 3.152 13.772 2.982 13.637C2.812 13.501 2.637 13.339 2.477 13.158C2.317 12.977 2.159 12.769 2.022 12.551C1.884 12.333 1.757 12.091 1.654 11.849C1.55 11.606 1.463 11.347 1.4 11.096C1.337 10.846 1.296 10.587 1.276 10.345C1.255 10.103 1.259 9.863 1.279 9.644C1.299 9.426 1.342 9.219 1.395 9.034C1.448 8.849 1.52 8.682 1.597 8.535C1.675 8.387 1.765 8.26 1.86 8.149C1.955 8.037 2.058 7.945 2.165 7.865C2.273 7.785 2.386 7.722 2.505 7.671C2.624 7.621 2.748 7.584 2.879 7.562C3.01 7.54 3.148 7.53 3.293 7.539C3.438 7.548 3.591 7.571 3.75 7.617C3.909 7.663 4.077 7.726 4.246 7.815C4.415 7.904 4.593 8.015 4.763 8.151C4.933 8.286 5.108 8.448 5.268 8.629C5.428 8.81 5.586 9.018 5.723 9.236C5.86 9.454 5.988 9.696 6.091 9.938C6.195 10.181 6.282 10.44 6.345 10.691C6.408 10.941 6.449 11.2 6.469 11.442C6.489 11.684 6.486 11.924 6.466 12.143C6.446 12.361 6.403 12.568 6.35 12.753C6.297 12.938 6.225 13.105 6.148 13.252C6.07 13.4 5.979 13.527 5.885 13.639C5.79 13.75 5.687 13.843 5.58 13.922C5.472 14.002 5.359 14.065 5.24 14.116ZM21.495 7.671C21.614 7.722 21.727 7.785 21.834 7.865C21.941 7.944 22.044 8.036 22.138 8.147C22.232 8.258 22.323 8.383 22.4 8.529C22.477 8.676 22.549 8.84 22.602 9.024C22.655 9.207 22.699 9.412 22.719 9.629C22.74 9.845 22.745 10.084 22.726 10.325C22.707 10.566 22.667 10.823 22.605 11.074C22.544 11.324 22.458 11.583 22.356 11.826C22.254 12.069 22.127 12.312 21.991 12.531C21.854 12.75 21.697 12.96 21.537 13.143C21.377 13.325 21.201 13.489 21.03 13.627C20.859 13.764 20.681 13.877 20.511 13.968C20.341 14.058 20.171 14.122 20.011 14.169C19.851 14.215 19.697 14.238 19.551 14.248C19.405 14.257 19.267 14.248 19.135 14.225C19.003 14.203 18.879 14.166 18.76 14.116C18.641 14.065 18.528 14.002 18.421 13.923C18.314 13.843 18.211 13.751 18.117 13.641C18.023 13.53 17.933 13.404 17.855 13.258C17.778 13.112 17.706 12.947 17.653 12.764C17.6 12.58 17.556 12.375 17.536 12.159C17.515 11.942 17.51 11.703 17.529 11.462C17.548 11.222 17.588 10.964 17.65 10.714C17.711 10.463 17.797 10.204 17.899 9.961C18.002 9.718 18.128 9.476 18.264 9.256C18.401 9.037 18.558 8.827 18.718 8.645C18.878 8.462 19.054 8.298 19.225 8.16C19.396 8.023 19.575 7.91 19.744 7.819C19.914 7.729 20.084 7.665 20.244 7.618C20.404 7.572 20.558 7.549 20.704 7.539C20.85 7.53 20.988 7.54 21.12 7.562C21.252 7.584 21.376 7.621 21.495 7.671ZM9.311 9.617C9.187 9.635 9.061 9.639 8.933 9.627C8.804 9.615 8.673 9.59 8.538 9.545C8.404 9.5 8.265 9.44 8.126 9.356C7.988 9.273 7.844 9.17 7.706 9.042C7.568 8.915 7.427 8.763 7.299 8.59C7.171 8.416 7.044 8.216 6.937 8.001C6.83 7.786 6.731 7.545 6.655 7.3C6.579 7.055 6.518 6.79 6.48 6.529C6.442 6.269 6.424 5.997 6.426 5.74C6.429 5.482 6.454 5.222 6.496 4.984C6.537 4.746 6.601 4.517 6.675 4.312C6.748 4.107 6.841 3.92 6.937 3.757C7.034 3.593 7.144 3.453 7.253 3.332C7.363 3.211 7.48 3.114 7.597 3.032C7.714 2.95 7.833 2.888 7.954 2.84C8.074 2.792 8.196 2.761 8.32 2.743C8.444 2.725 8.569 2.721 8.698 2.733C8.827 2.745 8.958 2.77 9.092 2.815C9.227 2.86 9.365 2.92 9.504 3.004C9.643 3.087 9.786 3.19 9.924 3.318C10.062 3.445 10.203 3.597 10.332 3.77C10.46 3.944 10.586 4.144 10.693 4.359C10.801 4.574 10.899 4.815 10.975 5.06C11.052 5.305 11.113 5.57 11.151 5.831C11.189 6.091 11.207 6.363 11.204 6.62C11.202 6.878 11.176 7.138 11.135 7.376C11.093 7.614 11.029 7.843 10.956 8.048C10.882 8.253 10.789 8.44 10.693 8.603C10.597 8.767 10.487 8.907 10.377 9.028C10.267 9.149 10.15 9.246 10.033 9.328C9.916 9.41 9.797 9.472 9.676 9.52C9.556 9.568 9.434 9.599 9.311 9.617ZM15.68 2.743C15.804 2.761 15.925 2.792 16.045 2.84C16.166 2.888 16.284 2.949 16.401 3.03C16.517 3.112 16.633 3.208 16.742 3.327C16.852 3.447 16.961 3.586 17.057 3.747C17.153 3.909 17.246 4.094 17.32 4.297C17.394 4.499 17.458 4.727 17.501 4.964C17.543 5.2 17.57 5.459 17.573 5.715C17.577 5.972 17.561 6.244 17.524 6.504C17.487 6.764 17.428 7.031 17.352 7.277C17.277 7.523 17.179 7.765 17.072 7.982C16.965 8.198 16.839 8.401 16.711 8.576C16.582 8.752 16.441 8.906 16.302 9.035C16.163 9.164 16.018 9.268 15.879 9.353C15.739 9.438 15.6 9.498 15.464 9.544C15.329 9.59 15.197 9.615 15.068 9.627C14.939 9.639 14.813 9.635 14.689 9.617C14.565 9.599 14.444 9.568 14.324 9.52C14.204 9.472 14.085 9.411 13.969 9.33C13.853 9.248 13.737 9.152 13.627 9.033C13.518 8.913 13.409 8.774 13.313 8.613C13.216 8.451 13.124 8.266 13.05 8.063C12.976 7.861 12.911 7.633 12.869 7.396C12.827 7.16 12.8 6.901 12.796 6.645C12.792 6.388 12.809 6.116 12.846 5.856C12.882 5.596 12.942 5.329 13.017 5.083C13.093 4.837 13.19 4.595 13.297 4.378C13.404 4.162 13.53 3.959 13.659 3.784C13.787 3.608 13.929 3.454 14.068 3.325C14.206 3.196 14.351 3.092 14.491 3.007C14.63 2.922 14.77 2.862 14.905 2.816C15.04 2.77 15.172 2.745 15.302 2.733C15.431 2.721 15.556 2.725 15.68 2.743Z"/></svg>