<svg viewBox="0 0 24 24" xmlns="http://www.w3.org/2000/svg" width="24" height="24"><path d="m7.9 17.44-2.35 2.34a.95.95 0 0 1-1.33-1.34l2.34-2.34zm7.31-15.06q.98-.28 1.94 0 .7.23 1.27.72.54.46 1.27 1.2v.01l.07.06q.76.74 1.25 1.3.51.56.75 1.27.3.99 0 1.98-.24.72-.75 1.28-.47.54-1.23 1.27l-.02.02-1.14 1.13c-.3.3-.38.38-.44.46q-.2.25-.27.55l-.07.64v.03a38 38 0 0 1-.26 2.3c-.1.58-.23 1.13-.53 1.57a3.5 3.5 0 0 1-3.84 1.4 4 4 0 0 1-1.41-.87q-.66-.57-1.65-1.57l-.02-.02-.82-.8-2.42-2.43-.02.01a36 36 0 0 1-1.5-1.53c-.4-.45-.74-.9-.9-1.41a3.5 3.5 0 0 1 1.4-3.9c.44-.29 1-.42 1.58-.51q.88-.14 2.3-.25h.06c.41-.04.52-.06.62-.08q.3-.08.55-.26c.08-.05.16-.13.45-.42l1.24-1.22q.74-.75 1.28-1.2.55-.52 1.26-.73"/></svg>