<svg viewBox="0 0 24 24" xmlns="http://www.w3.org/2000/svg" width="24" height="24"><path d="M7.729 17.593L5.379 19.933A.95 .95 0 0 1 4.049 18.593L6.389 16.253ZM15.039 2.533Q16.019 2.253 16.979 2.533Q17.679 2.763 18.249 3.253Q18.789 3.713 19.519 4.453L19.519 4.463L19.589 4.523Q20.349 5.263 20.839 5.823Q21.349 6.383 21.589 7.093Q21.889 8.083 21.589 9.073Q21.349 9.793 20.839 10.353Q20.369 10.893 19.609 11.623L19.589 11.643L18.449 12.773C18.149 13.073 18.069 13.153 18.009 13.233Q17.809 13.483 17.739 13.783L17.669 14.423L17.669 14.453A38 38 0 0 1 17.409 16.753C17.309 17.333 17.179 17.883 16.879 18.323A3.5 3.5 0 0 1 13.039 19.723A4 4 0 0 1 11.629 18.853Q10.969 18.283 9.979 17.283L9.959 17.263L9.139 16.463L6.719 14.033L6.699 14.043A36 36 0 0 1 5.199 12.513C4.799 12.063 4.459 11.613 4.299 11.103A3.5 3.5 0 0 1 5.699 7.203C6.139 6.913 6.699 6.783 7.279 6.693Q8.159 6.553 9.579 6.443L9.639 6.443C10.049 6.403 10.159 6.383 10.259 6.363Q10.559 6.283 10.809 6.103C10.889 6.053 10.969 5.973 11.259 5.683L12.499 4.463Q13.239 3.713 13.779 3.263Q14.329 2.743 15.039 2.533"/></svg>