<svg viewBox="0 0 24 24" xmlns="http://www.w3.org/2000/svg" width="24" height="24"><path d="M8.83 22.01L7.6 22.01A1 1 0 0 1 7.25 21.91A1 1 0 0 1 6.98 21.66A.8 .8 0 0 1 6.93 20.93L9.88 14.08L5.45 13.98L3.83 16.03C3.53 16.44 3.28 16.63 2.65 16.63L1.83 16.63A1 1 0 0 1 1.45 16.53A1 1 0 0 1 1.15 16.28A.9 .9 0 0 1 1.05 15.49L1.97 11.99L1.04 8.47C.94 8.11 1.04 7.85 1.16 7.7Q1.26 7.55 1.43 7.46Q1.6 7.37 1.78 7.38L2.65 7.38C3.12 7.38 3.57 7.6 3.84 7.96L5.42 9.98L9.88 9.91L6.93 3.08A.8 .8 0 0 1 7 2.34Q7.1 2.18 7.27 2.08A1 1 0 0 1 7.62 1.98L8.85 1.98Q9.11 1.99 9.35 2.12Q9.57 2.25 9.74 2.46L15.47 9.78L18.97 9.69C21.5 9.69 23.02 10.55 23.02 12C23.02 12.46 22.84 13.3 21.68 13.84Q20.65 14.31 18.97 14.32L15.47 14.23L9.72 21.54Q9.56 21.76 9.33 21.88A1 1 0 0 1 8.83 22.01"/></svg>