<svg viewBox="0 0 24 24" xmlns="http://www.w3.org/2000/svg" width="24" height="24"><path d="M8.83 22.01H7.6a1 1 0 0 1-.35-.1 1 1 0 0 1-.27-.25.8.8 0 0 1-.05-.73l2.95-6.85-4.43-.1-1.62 2.05c-.3.41-.55.6-1.18.6h-.82a1 1 0 0 1-.38-.1 1 1 0 0 1-.3-.25.9.9 0 0 1-.1-.79l.9-3.42.02-.08-.02-.08-.91-3.44c-.1-.36 0-.62.12-.77q.1-.15.27-.24t.35-.08h.87c.47 0 .92.22 1.19.58l1.58 2.02 4.46-.07-2.95-6.83A.8.8 0 0 1 7 2.34q.1-.16.27-.26a1 1 0 0 1 .35-.1h1.23q.26.01.5.14.22.13.39.34l5.73 7.32 2.65-.08.85-.01c2.53 0 4.05.86 4.05 2.31 0 .46-.18 1.3-1.34 1.84q-1.03.47-2.71.48l-.85-.02-2.65-.07-5.75 7.31q-.16.22-.39.34a1 1 0 0 1-.5.13"/></svg>