<svg viewBox="0 0 24 24" xmlns="http://www.w3.org/2000/svg" width="24" height="24"><path fill-rule="evenodd" d="M12 1a11 11 0 1 1 0 22 11 11 0 0 1 0-22M10 7.3L9.85 7.32Q9.31 7.42 8.96 7.87L8.9 7.97C8.76 8.2 8.72 8.45 8.7 8.67Q8.67 9.05 8.68 9.6L8.68 14.4Q8.68 14.96 8.7 15.34Q8.71 15.74 8.96 16.14L9.06 16.25Q9.46 16.66 10.01 16.71L10.12 16.71C10.39 16.71 10.62 16.61 10.82 16.51L11.19 16.29L11.62 16.02L15.41 13.62Q15.82 13.37 16.11 13.16C16.26 13.03 16.44 12.88 16.55 12.66L16.6 12.56C16.73 12.26 16.75 11.9 16.65 11.58L16.6 11.44A1.5 1.5 0 0 0 16.1 10.84L15.79 10.63L15.41 10.38L11.62 7.98Q11.16 7.68 10.82 7.5A1.5 1.5 0 0 0 10.01 7.3" clip-rule="evenodd"/></svg>