<svg viewBox="0 0 24 24" xmlns="http://www.w3.org/2000/svg" width="24" height="24"><path fill-rule="evenodd" d="M12 1a11 11 0 1 1 0 22 11 11 0 0 1 0-22m4.94 7.07a1.5 1.5 0 0 0-.78.2q-.34.17-.8.48l-3.12 1.98-.28.18v-.58q0-.56-.02-.94a2 2 0 0 0-.2-.67l-.06-.1a1.4 1.4 0 0 0-.85-.53l-.15-.02c-.3-.02-.57.09-.78.2q-.35.17-.8.48l-3.12 1.98-.38.24-.32.22a1.5 1.5 0 0 0-.48.57l-.04.13q-.14.48.04.95l.05.1c.11.2.28.35.43.47q.27.21.7.47l3.11 1.97.44.28q.2.12.37.2c.19.1.41.2.67.2h.1q.55-.04.92-.44l.1-.11c.17-.24.22-.52.25-.77q.03-.37.02-.93v-.58l.28.18 3.12 1.97.43.28.37.2c.19.1.42.2.67.2h.11q.55-.04.91-.44l.1-.11c.18-.24.23-.52.25-.77q.02-.37.02-.93v-3.95q0-.56-.02-.94a2 2 0 0 0-.19-.67l-.06-.1a1.4 1.4 0 0 0-.86-.53z" clip-rule="evenodd"/></svg>