<svg viewBox="0 0 24 24" xmlns="http://www.w3.org/2000/svg" width="24" height="24"><path d="m19.87 5.47.22.03c.52.1.99.38 1.3.81l.1.14c.2.33.26.7.29 1.02q.04.57.03 1.4v6.26q0 .83-.03 1.4c-.04.37-.11.8-.39 1.16l-.14.17a2 2 0 0 1-1.38.67h-.17a2.4 2.4 0 0 1-1.02-.3q-.5-.27-1.2-.72l-4.93-3.13-.37-.24v.99q0 .83-.03 1.4c-.03.37-.11.8-.38 1.16l-.15.17a2 2 0 0 1-1.38.67h-.17a2.4 2.4 0 0 1-1.01-.3q-.51-.27-1.2-.72l-4.94-3.13q-.62-.39-1.04-.7a2 2 0 0 1-.65-.72l-.07-.14a2 2 0 0 1-.08-1.44l.08-.2c.16-.39.45-.66.72-.87l.47-.32.57-.37 4.93-3.13q.7-.46 1.2-.72a2.3 2.3 0 0 1 1.2-.3l.22.03c.51.1.98.38 1.3.81l.09.14c.2.33.26.7.29 1.02q.04.57.03 1.4v.98l.37-.23 4.93-3.13q.7-.46 1.2-.72c.33-.17.74-.33 1.19-.3"/></svg>