<svg viewBox="0 0 24 24" xmlns="http://www.w3.org/2000/svg" width="24" height="24"><path fill-rule="evenodd" d="M12 1a11 11 0 1 1 0 22 11 11 0 0 1 0-22m1.33 7.07-.15.02q-.53.1-.86.53l-.06.1q-.18.34-.2.67-.02.38-.02.94v.58l-.28-.18-3.11-1.98q-.47-.3-.8-.48a1.5 1.5 0 0 0-.79-.2l-.15.02q-.52.1-.85.53l-.07.1q-.18.34-.19.67-.02.38-.02.94v3.95q0 .55.02.93c.03.25.08.53.26.77l.1.11q.36.4.9.44h.11c.26 0 .48-.1.67-.2q.18-.08.37-.2l.44-.28 3.11-1.97.28-.18v.58q0 .55.03.93c.02.25.07.53.25.77l.1.11c.23.26.56.42.9.44h.12c.25 0 .48-.1.67-.2l.37-.2.43-.28 3.12-1.97.69-.47q.25-.17.43-.47l.05-.1q.19-.47.05-.95l-.05-.13c-.1-.25-.3-.43-.48-.57l-.31-.22-.38-.24-3.12-1.98q-.47-.3-.8-.48a1.5 1.5 0 0 0-.78-.2" clip-rule="evenodd"/></svg>