<svg viewBox="0 0 24 24" xmlns="http://www.w3.org/2000/svg" width="24" height="24"><path d="M13.76 5.47c.45-.03.86.13 1.19.3q.5.27 1.2.72l4.93 3.13.57.37.47.32c.27.21.56.48.72.87l.08.2c.14.47.12.98-.08 1.44l-.06.14c-.17.31-.43.54-.66.72q-.41.31-1.04.7l-4.93 3.13q-.7.46-1.2.72c-.3.15-.64.3-1.02.3h-.17a2 2 0 0 1-1.38-.67l-.15-.17c-.27-.37-.34-.8-.38-1.16q-.04-.57-.03-1.4v-.99l-.37.24-4.93 3.13q-.7.46-1.2.72c-.29.15-.64.3-1.02.3h-.17a2 2 0 0 1-1.38-.67l-.14-.17c-.28-.37-.35-.8-.39-1.16q-.04-.57-.03-1.4V8.87q0-.83.03-1.4c.03-.32.1-.69.3-1.02l.09-.14a2 2 0 0 1 1.3-.81l.22-.03c.45-.03.86.13 1.19.3q.5.27 1.2.72l4.93 3.13.37.23v-.98q0-.83.03-1.4c.03-.32.1-.69.3-1.02l.08-.14a2 2 0 0 1 1.3-.81z"/></svg>