<svg viewBox="0 0 24 24" xmlns="http://www.w3.org/2000/svg" width="24" height="24"><path fill-rule="evenodd" d="M12 1a11 11 0 1 1 0 22 11 11 0 0 1 0-22M13.33 7.77L13.18 7.79Q12.65 7.89 12.32 8.32L12.26 8.42Q12.08 8.76 12.06 9.09Q12.04 9.47 12.04 10.03L12.04 10.61L11.76 10.43L8.65 8.45Q8.18 8.15 7.85 7.97A1.5 1.5 0 0 0 7.06 7.77L6.91 7.79Q6.39 7.89 6.06 8.32L5.99 8.42Q5.81 8.76 5.8 9.09Q5.78 9.47 5.78 10.03L5.78 13.98Q5.78 14.53 5.8 14.91C5.83 15.16 5.88 15.44 6.06 15.68L6.16 15.79Q6.52 16.19 7.06 16.23L7.17 16.23C7.43 16.23 7.65 16.13 7.84 16.03Q8.02 15.95 8.21 15.83L8.65 15.55L11.76 13.58L12.04 13.4L12.04 13.98Q12.04 14.53 12.07 14.91C12.09 15.16 12.14 15.44 12.32 15.68L12.42 15.79C12.65 16.05 12.98 16.21 13.32 16.23L13.44 16.23C13.69 16.23 13.92 16.13 14.11 16.03L14.48 15.83L14.91 15.55L18.03 13.58L18.72 13.11Q18.97 12.94 19.15 12.64L19.2 12.54Q19.39 12.07 19.25 11.59L19.2 11.46C19.1 11.21 18.9 11.03 18.72 10.89L18.41 10.67L18.03 10.43L14.91 8.45Q14.44 8.15 14.11 7.97A1.5 1.5 0 0 0 13.33 7.77" clip-rule="evenodd"/></svg>