<svg viewBox="0 0 24 24" xmlns="http://www.w3.org/2000/svg" width="24" height="24"><path fill-rule="evenodd" d="M12 1a11 11 0 1 1 0 22 11 11 0 0 1 0-22M14.88 7.33C14.61 7.33 14.38 7.43 14.18 7.53L13.81 7.74L13.38 8.02L9.6 10.42L9.23 10.65L9.23 8.37A1 1 0 0 0 7.23 8.37L7.23 15.6A1 1 0 0 0 9.23 15.6L9.23 13.42L9.6 13.65L13.38 16.05Q13.84 16.35 14.18 16.53C14.4 16.65 14.68 16.76 15 16.73L15.15 16.72Q15.69 16.6 16.04 16.16L16.1 16.06Q16.29 15.72 16.3 15.36Q16.33 14.99 16.32 14.43L16.32 9.63Q16.32 9.08 16.3 8.7A1.5 1.5 0 0 0 16.04 7.9L15.94 7.78A1.4 1.4 0 0 0 15 7.33Z" clip-rule="evenodd"/></svg>