<svg viewBox="0 0 24 24" xmlns="http://www.w3.org/2000/svg" width="24" height="24"><path d="M6.8 2.05C7.44 1.98 8.05 2.18 8.66 2.46Q9.58 2.9 10.96 3.72L19.45 8.63Q20.01 8.97 20.43 9.26A3.6 3.6 0 0 1 21.72 10.66L21.79 10.82A3.3 3.3 0 0 1 21.72 13.34L21.62 13.55A4 4 0 0 1 20.43 14.75Q19.6 15.32 18.2 16.11L10.96 20.28Q9.58 21.1 8.66 21.54C8.13 21.79 7.59 21.97 7.04 21.97L6.8 21.95A3.3 3.3 0 0 1 4.58 20.75L4.48 20.61A3.6 3.6 0 0 1 3.91 18.79Q3.83 17.79 3.85 16.18L3.85 7.82Q3.84 6.22 3.91 5.21C3.96 4.61 4.07 4.06 4.35 3.59L4.48 3.39A3.3 3.3 0 0 1 6.63 2.07Z"/></svg>