<svg viewBox="0 0 24 24" xmlns="http://www.w3.org/2000/svg" width="24" height="24"><path d="M19.87 5.47L20.09 5.5C20.61 5.6 21.08 5.88 21.39 6.31L21.49 6.45C21.69 6.78 21.75 7.15 21.78 7.47Q21.82 8.04 21.81 8.87L21.81 15.13Q21.81 15.96 21.78 16.53C21.74 16.9 21.67 17.33 21.39 17.69L21.25 17.86A2 2 0 0 1 19.87 18.53L19.7 18.53A2.4 2.4 0 0 1 18.68 18.23Q18.18 17.96 17.48 17.51L12.18 14.14L12.18 15.13Q12.18 15.96 12.15 16.53C12.12 16.9 12.04 17.33 11.77 17.69L11.62 17.86A2 2 0 0 1 10.24 18.53L10.07 18.53A2.4 2.4 0 0 1 9.06 18.23Q8.55 17.96 7.86 17.51L2.92 14.38Q2.3 13.99 1.88 13.68A2 2 0 0 1 1.23 12.96L1.16 12.82A2 2 0 0 1 1.08 11.38L1.16 11.18C1.32 10.79 1.61 10.52 1.88 10.31L2.92 9.62L7.85 6.49Q8.55 6.03 9.05 5.77A2.3 2.3 0 0 1 10.25 5.47L10.47 5.5C10.98 5.6 11.45 5.88 11.77 6.31L11.86 6.45C12.06 6.78 12.12 7.15 12.15 7.47Q12.19 8.04 12.18 8.87L12.18 9.85L17.48 6.49Q18.18 6.03 18.68 5.77C19.01 5.6 19.42 5.44 19.87 5.47"/></svg>