<svg viewBox="0 0 24 24" xmlns="http://www.w3.org/2000/svg" width="24" height="24"><path d="M21.1 1C21.6 1 22 1.4 22 1.9L22 22.2A.9 .9 0 0 1 20.2 22.2L20.2 14.9Q19.4 15.43 18.2 16.12L10.96 20.29Q9.58 21.11 8.66 21.55C8.13 21.8 7.59 21.98 7.04 21.98L6.8 21.96A3.3 3.3 0 0 1 4.58 20.76L4.48 20.62A3.6 3.6 0 0 1 3.91 18.8Q3.83 17.8 3.85 16.19L3.85 7.82Q3.83 6.22 3.91 5.21C3.96 4.61 4.07 4.06 4.35 3.59L4.48 3.39A3.3 3.3 0 0 1 6.63 2.07L6.8 2.05C7.44 1.98 8.05 2.18 8.66 2.46Q9.58 2.9 10.96 3.72L19.45 8.63Q19.87 8.88 20.2 9.1L20.2 1.9C20.2 1.4 20.6 1 21.1 1"/></svg>