<svg viewBox="0 0 24 24" xmlns="http://www.w3.org/2000/svg" width="24" height="24"><path fill-rule="evenodd" d="M12 1a11 11 0 1 1 0 22 11 11 0 0 1 0-22M16.94 7.77A1.5 1.5 0 0 0 16.16 7.97Q15.82 8.14 15.36 8.45L12.24 10.43L11.96 10.61L11.96 10.03Q11.96 9.47 11.94 9.09A2 2 0 0 0 11.74 8.42L11.68 8.32A1.4 1.4 0 0 0 10.83 7.79L10.68 7.77C10.38 7.75 10.11 7.86 9.9 7.97Q9.55 8.14 9.1 8.45L5.98 10.43L5.6 10.67L5.28 10.89A1.5 1.5 0 0 0 4.8 11.46L4.76 11.59Q4.62 12.07 4.8 12.54L4.85 12.64C4.96 12.84 5.13 12.99 5.28 13.11Q5.55 13.32 5.98 13.58L9.09 15.55L9.53 15.83Q9.73 15.95 9.9 16.03C10.09 16.13 10.31 16.23 10.57 16.23L10.67 16.23Q11.22 16.19 11.59 15.79L11.69 15.68C11.86 15.44 11.91 15.16 11.94 14.91Q11.97 14.54 11.96 13.98L11.96 13.4L12.24 13.58L15.36 15.55L15.79 15.83L16.16 16.03C16.35 16.13 16.58 16.23 16.83 16.23L16.94 16.23Q17.49 16.19 17.85 15.79L17.95 15.68C18.13 15.44 18.18 15.16 18.2 14.91Q18.22 14.54 18.22 13.98L18.22 10.03Q18.22 9.47 18.2 9.09A2 2 0 0 0 18.01 8.42L17.95 8.32A1.4 1.4 0 0 0 17.09 7.79Z" clip-rule="evenodd"/></svg>