<svg viewBox="0 0 24 24" xmlns="http://www.w3.org/2000/svg" width="24" height="24"><path fill-rule="evenodd" d="M12 1a11 11 0 1 1 0 22 11 11 0 0 1 0-22M9 7.3L8.86 7.32Q8.31 7.42 7.96 7.87L7.9 7.97Q7.71 8.33 7.7 8.67Q7.68 9.05 7.68 9.6L7.68 14.4Q7.68 14.96 7.7 15.34C7.72 15.59 7.78 15.88 7.96 16.14L8.06 16.25Q8.46 16.66 9.01 16.71L9.13 16.71C9.39 16.71 9.63 16.61 9.82 16.51L14.77 13.39L14.77 15.67A1 1 0 0 0 16.77 15.67L16.77 8.44A1 1 0 0 0 14.77 8.44L14.77 10.61L10.63 7.98Q10.17 7.68 9.82 7.5A1.5 1.5 0 0 0 9.01 7.3" clip-rule="evenodd"/></svg>