<svg viewBox="0 0 24 24" xmlns="http://www.w3.org/2000/svg" width="24" height="24"><path fill-rule="evenodd" d="M16 5c1.86 0 2.8 0 3.55.25a5 5 0 0 1 3.2 3.2c.25.76.25 1.69.25 3.55s0 2.8-.24 3.54A5 5 0 0 1 21 18v.84q0 .83-.03 1.4-.04.53-.24 1.01l-.07.14q-.4.75-1.14 1.17l-.22.12q-.59.27-1.2.29-.61.04-1.5.03H7.4q-.88 0-1.5-.03a4 4 0 0 1-1.06-.23l-.14-.06a3 3 0 0 1-1.36-1.29c-.2-.37-.27-.75-.3-1.15q-.05-.57-.04-1.4V18a5 5 0 0 1-1.76-2.46C1 14.8 1 13.86 1 12s0-2.8.24-3.54a5 5 0 0 1 3.21-3.21C5.21 5 6.14 5 8 5zm-8.6 6.83c-.62 0-1.03 0-1.34.02-.3.03-.42.07-.49.1q-.34.16-.51.49a1 1 0 0 0-.1.47c-.03.29-.03.67-.03 1.25v4.68c0 .58 0 .96.02 1.25s.07.4.1.47q.19.32.52.49l.07.03q.1.04.42.07c.31.02.72.02 1.33.02h9.22c.61 0 1.02 0 1.33-.02.3-.03.42-.07.49-.1l.16-.1q.23-.15.35-.39l.03-.06q.05-.1.08-.4c.02-.3.02-.68.02-1.26v-4.68c0-.58 0-.96-.02-1.25a2 2 0 0 0-.08-.41l-.03-.06q-.18-.32-.51-.49c-.07-.03-.2-.07-.5-.1s-.7-.02-1.32-.02zm11.22-3.81A1 1 0 0 0 18.8 10a1 1 0 1 0-.2-1.98" clip-rule="evenodd"/><path d="M15.9 1c.94 0 1.41 0 1.78.16a2 2 0 0 1 1.08 1.08c.15.36.15.83.15 1.77H5.1c0-.94 0-1.4.15-1.77a2 2 0 0 1 1.08-1.08c.27-.12.6-.16 1.14-.16z"/></svg>