<svg viewBox="0 0 24 24" xmlns="http://www.w3.org/2000/svg" width="24" height="24"><path d="M12.9 8.37c2.03 0 3.09.03 3.9.44a4 4 0 0 1 1.75 1.75c.43.85.43 1.97.43 4.21v1.17c0 2.24 0 3.36-.43 4.22a4 4 0 0 1-1.75 1.74c-.86.44-1.98.44-4.22.44h-1.16c-2.24 0-3.36 0-4.22-.44a4 4 0 0 1-1.75-1.74c-.43-.86-.43-1.98-.43-4.22v-1.17c0-2.24 0-3.36.43-4.21A4 4 0 0 1 7.2 8.8c.82-.42 1.87-.43 3.9-.44v6.35l.01.1a.9.9 0 0 0 1.8 0zm-1.53-6.96a.9.9 0 0 1 1.27 0l2.89 2.88a.9.9 0 0 1-1.27 1.28L12.9 4.22v4.15h-1.8V4.22L9.76 5.57l-.07.06a.9.9 0 0 1-1.27-1.27l.07-.07z"/></svg>