<svg viewBox="0 0 24 24" xmlns="http://www.w3.org/2000/svg" width="24" height="24"><path fill-rule="evenodd" d="M6.13 12.75c1.05 0 1.57 0 2 .1a4 4 0 0 1 3.03 3.02c.1.44.1.96.1 2 0 1.05 0 1.57-.1 2l-.07.29a4 4 0 0 1-2.96 2.74l-.16.03c-.4.07-.92.07-1.84.07-.91 0-1.43 0-1.83-.07l-.17-.03a4 4 0 0 1-2.95-2.74l-.07-.28c-.1-.44-.1-.96-.1-2 0-.92 0-1.43.06-1.84l.04-.17a4 4 0 0 1 2.74-2.95l.28-.07c.44-.1.96-.1 2-.1m0 2.4a9 9 0 0 0-1.47.04c-.6.13-1.08.6-1.21 1.2a9 9 0 0 0-.04 1.48c0 1.18.01 1.37.04 1.48l.03.11c.16.55.61.97 1.18 1.1l.1.02c.16.01.5.02 1.37.02 1.18 0 1.37-.01 1.48-.04l.11-.03a1.6 1.6 0 0 0 1.1-1.18l.02-.11c.01-.15.02-.48.02-1.36s-.01-1.22-.02-1.37l-.02-.11a1.6 1.6 0 0 0-1.1-1.18l-.11-.03c-.1-.03-.3-.04-1.48-.04" clip-rule="evenodd"/><path d="M14.76 20a1.5 1.5 0 1 1 0 3 1.5 1.5 0 0 1 0-3m6.25 0a1.5 1.5 0 1 1 0 3 1.5 1.5 0 0 1 0-3m-3.13-3.62a1.5 1.5 0 1 1 0 3 1.5 1.5 0 0 1 0-3m-3.12-3.13a1.5 1.5 0 1 1 0 3 1.5 1.5 0 0 1 0-3m6.25 0a1.5 1.5 0 1 1 0 3 1.5 1.5 0 0 1 0-3"/><path fill-rule="evenodd" d="M6.13 1c1.05 0 1.57 0 2 .1a4 4 0 0 1 3.03 3.02c.1.44.1.96.1 2 0 1.05 0 1.57-.1 2l-.07.29a4 4 0 0 1-2.96 2.74l-.16.03c-.4.07-.92.07-1.84.07-.91 0-1.43 0-1.83-.07l-.17-.03a4 4 0 0 1-2.95-2.74l-.07-.28c-.1-.44-.1-.96-.1-2 0-.92 0-1.43.06-1.84l.04-.17a4 4 0 0 1 2.74-2.95l.28-.07c.44-.1.96-.1 2-.1m0 2.4a9 9 0 0 0-1.47.04c-.6.13-1.08.6-1.21 1.2a9 9 0 0 0-.04 1.49c0 1.17.01 1.36.04 1.47l.03.11c.16.55.61.97 1.18 1.1l.1.02c.16.01.5.02 1.37.02 1.18 0 1.37-.01 1.48-.04l.11-.03a1.6 1.6 0 0 0 1.1-1.18l.02-.11c.01-.15.02-.48.02-1.37 0-.88-.01-1.2-.02-1.36l-.02-.11a1.6 1.6 0 0 0-1.1-1.18l-.11-.03c-.1-.03-.3-.04-1.48-.04M17.88 1c1.05 0 1.57 0 2 .1a4 4 0 0 1 3.03 3.02c.1.44.1.96.1 2 0 1.05 0 1.57-.1 2l-.07.29a4 4 0 0 1-2.96 2.74l-.16.03c-.4.07-.92.07-1.84.07-.91 0-1.43 0-1.83-.07l-.17-.03a4 4 0 0 1-2.95-2.74l-.07-.28c-.1-.44-.1-.96-.1-2 0-.92 0-1.43.06-1.84l.04-.17a4 4 0 0 1 2.74-2.95l.28-.07c.44-.1.96-.1 2-.1m0 2.4a9 9 0 0 0-1.47.04c-.6.13-1.08.6-1.21 1.2a9 9 0 0 0-.04 1.49c0 1.17.01 1.36.04 1.47l.03.11c.16.55.61.97 1.18 1.1l.1.02c.16.01.5.02 1.37.02 1.18 0 1.37-.01 1.48-.04l.11-.03a1.6 1.6 0 0 0 1.1-1.18l.02-.11c.01-.15.02-.48.02-1.37 0-.88-.01-1.2-.02-1.36l-.02-.11a1.6 1.6 0 0 0-1.1-1.18l-.11-.03c-.1-.03-.3-.04-1.48-.04" clip-rule="evenodd"/></svg>