<svg viewBox="0 0 24 24" xmlns="http://www.w3.org/2000/svg" width="24" height="24"><path fill-rule="evenodd" d="M12 1a11 11 0 1 1 0 22 11 11 0 0 1 0-22m0 14.08a1 1 0 1 0 0 2 1 1 0 0 0 0-2m.08-8.17c-1.23 0-2.34.73-2.82 1.85l-.1.23-.04.12a1 1 0 0 0 1.9.65l.04-.13.07-.15c.18-.35.55-.57.95-.57h.1c.38 0 .7.22.85.56v.02q.07.15.07.3v.02q-.02.42-.36.67l-.1.05-.14.06a2.6 2.6 0 0 0-1.49 2.32 1 1 0 0 0 2 0q.02-.33.32-.5l.14-.06.18-.09a2.8 2.8 0 0 0 1.45-2.45V9.8q0-.56-.22-1.09V8.7a2.9 2.9 0 0 0-2.7-1.8z" clip-rule="evenodd"/></svg>