<svg viewBox="0 0 24 24" xmlns="http://www.w3.org/2000/svg" width="24" height="24"><path d="m5 17.86.06.08a.95.95 0 0 1-1.52 1.14zm14 0 1.47 1.21A.95.95 0 0 1 19 17.86M4.26 4.6q.33 0 .6.22c.4.33.46.93.13 1.33a9.1 9.1 0 0 0 0 11.71l-.72.61-.73.61-.3-.37a11 11 0 0 1 .29-13.77 1 1 0 0 1 .73-.34"/><path d="M19.78 4.6q.36 0 .63.27l.06.07.3.38a11.04 11.04 0 0 1-.3 13.75l-.73-.6-.73-.61A9 9 0 0 0 21.13 12v-.4a9 9 0 0 0-1.87-5.14l-.25-.32-.05-.07a.95.95 0 0 1 .82-1.48M5.95 7.23a.95.95 0 0 1 1.44 1.23l-.14.2A6 6 0 0 0 6.2 12v.23a6 6 0 0 0 1.2 3.3.95.95 0 0 1-1.51 1.16 7.7 7.7 0 0 1-1.59-4.38V12a7.7 7.7 0 0 1 1.6-4.69z"/><path d="M16.8 7.15c.4-.3.94-.24 1.27.1l.06.08.2.26A7.7 7.7 0 0 1 19.7 12v.31a7.7 7.7 0 0 1-1.58 4.36l-.06.07a.95.95 0 0 1-1.45-1.23l.14-.19A6 6 0 0 0 17.81 12v-.23a6 6 0 0 0-1.05-3.1l-.14-.19-.05-.08a.95.95 0 0 1 .23-1.25M8.28 9.8a.95.95 0 0 1 1.58 1.06q-.35.52-.35 1.14v.15q.04.46.27.86l.08.13.05.08a.95.95 0 0 1-1.57 1.06l-.06-.08-.15-.25A4 4 0 0 1 7.6 12l.01-.3q.08-1.04.66-1.9"/><path d="M14.58 9.47a.95.95 0 0 1 1.1.27l.05.08.16.25a4 4 0 0 1 .5 1.65v.3c0 .77-.23 1.53-.67 2.18l-.06.07a.95.95 0 0 1-1.52-1.13l.08-.13q.27-.46.27-1v-.15q-.04-.46-.26-.86l-.08-.13-.05-.08a.95.95 0 0 1 .48-1.32M12 10.63l.14.01a1.37 1.37 0 0 1-.14 2.73l-.14-.01a1.37 1.37 0 0 1 .14-2.73"/></svg>