<svg viewBox="0 0 24 24" xmlns="http://www.w3.org/2000/svg" width="24" height="24"><path d="M20.449 4.91A11.03 11.03 0 0 1 20.449 19.09A.95 .95 0 0 1 18.994 17.869A9.13 9.13 0 0 0 18.994 6.131A.95 .95 0 0 1 20.449 4.91ZM3.551 19.09A11.03 11.03 0 0 1 3.551 4.91A.95 .95 0 0 1 5.006 6.131A9.13 9.13 0 0 0 5.006 17.869A.95 .95 0 0 1 3.551 19.09ZM17.899 7.051A7.7 7.7 0 0 1 17.899 16.949A.95 .95 0 0 1 16.443 15.728A5.8 5.8 0 0 0 16.443 8.272A.95 .95 0 0 1 17.899 7.051ZM6.101 16.949A7.7 7.7 0 0 1 6.101 7.051A.95 .95 0 0 1 7.557 8.272A5.8 5.8 0 0 0 7.557 15.728A.95 .95 0 0 1 6.101 16.949ZM15.571 9.499A4.36 4.36 0 0 1 15.571 14.501A.95 .95 0 0 1 14.015 13.411A2.46 2.46 0 0 0 14.015 10.589A.95 .95 0 0 1 15.571 9.499ZM8.429 14.501A4.36 4.36 0 0 1 8.429 9.499A.95 .95 0 0 1 9.985 10.589A2.46 2.46 0 0 0 9.985 13.411A.95 .95 0 0 1 8.429 14.501ZM10.64 12a1.36 1.36 0 1 0 2.72 0a1.36 1.36 0 1 0 -2.72 0Z"/></svg>