<svg viewBox="0 0 24 24" xmlns="http://www.w3.org/2000/svg" width="24" height="24"><path d="M11.95 1.34a1.2 1.2 0 0 1 1.6-.08l.1.08 1.82 1.82.52.55q.23.24.4.64l.04.12q.21.67 0 1.36l-.04.11q-.17.4-.4.64l-.52.54-1.82 1.83-.1.08a1.2 1.2 0 0 1-1.68-1.69l.08-.09.92-.92H12c-1.35 0-2.67.38-3.82 1.08l-.23.15a7.3 7.3 0 0 0-2.57 3.02l-.1.25a7.3 7.3 0 0 0-.42 4.2l.05.27a7.3 7.3 0 0 0 1.94 3.47l.2.18a7.3 7.3 0 0 0 3.53 1.81l.26.05c1.33.21 2.7.05 3.95-.46l.24-.11a7.3 7.3 0 0 0 3.03-2.58l.14-.22a7.3 7.3 0 0 0 1.08-3.82 1.2 1.2 0 0 1 2.4 0c0 1.8-.5 3.55-1.44 5.07l-.19.3a9.7 9.7 0 0 1-4.02 3.43l-.32.14c-1.66.69-3.48.9-5.25.62l-.35-.07a9.7 9.7 0 0 1-4.7-2.4l-.26-.25a9.7 9.7 0 0 1-2.57-4.6l-.08-.35a9.7 9.7 0 0 1 .55-5.6l.15-.33a9.7 9.7 0 0 1 3.42-4.01l.3-.2A9.7 9.7 0 0 1 12 3.93h.84l-.89-.89-.08-.1a1.2 1.2 0 0 1 .08-1.6"/></svg>