<svg viewBox="0 0 24 24" xmlns="http://www.w3.org/2000/svg" width="24" height="24"><path d="M11.959 1.167A1.2 1.2 0 0 1 13.559 1.087L13.659 1.167L15.479 2.987L15.999 3.537Q16.229 3.777 16.399 4.177L16.439 4.297Q16.649 4.967 16.439 5.657L16.399 5.767Q16.229 6.167 15.999 6.407L15.479 6.947L13.659 8.777L13.559 8.857A1.2 1.2 0 0 1 11.879 7.167L11.959 7.077L12.879 6.157L12.009 6.157C10.659 6.157 9.339 6.537 8.189 7.237L7.959 7.387A7.3 7.3 0 0 0 5.389 10.407L5.289 10.657A7.3 7.3 0 0 0 4.869 14.857L4.919 15.127A7.3 7.3 0 0 0 6.859 18.597L7.059 18.777A7.3 7.3 0 0 0 10.589 20.587L10.849 20.637C12.179 20.847 13.549 20.687 14.799 20.177L15.039 20.067A7.3 7.3 0 0 0 18.069 17.487L18.209 17.267A7.3 7.3 0 0 0 19.289 13.447A1.2 1.2 0 0 1 21.689 13.447C21.689 15.247 21.189 16.997 20.249 18.517L20.059 18.817A9.7 9.7 0 0 1 16.039 22.247L15.719 22.387C14.059 23.077 12.239 23.287 10.469 23.007L10.119 22.937A9.7 9.7 0 0 1 5.419 20.537L5.159 20.287A9.7 9.7 0 0 1 2.589 15.687L2.509 15.337A9.7 9.7 0 0 1 3.059 9.737L3.209 9.407A9.7 9.7 0 0 1 6.629 5.397L6.929 5.197A9.7 9.7 0 0 1 12.009 3.757L12.849 3.757L11.959 2.867L11.879 2.767A1.2 1.2 0 0 1 11.959 1.167"/></svg>