<svg viewBox="0 0 24 24" xmlns="http://www.w3.org/2000/svg" width="24" height="24"><path d="M21.43 9.17a1.2 1.2 0 0 1 1.42.94l.05.29a7.9 7.9 0 0 1-3.4 7.77c-1.34.9-2.88 1.33-5.33 1.33h-3.59l.82.81.09.1a1.2 1.2 0 0 1-1.7 1.68l-.08-.08-1.74-1.73q-.28-.28-.52-.55a2 2 0 0 1-.4-.64l-.04-.11a2.2 2.2 0 0 1 0-1.36l.04-.12q.18-.4.4-.64l.52-.54 1.74-1.74.09-.08a1.2 1.2 0 0 1 1.69 1.69l-.09.09-.81.81h3.58c2.14 0 3.17-.35 4-.91a5.5 5.5 0 0 0 2.39-5.2l-.07-.4a1.2 1.2 0 0 1 .94-1.41m-8.81-7.19a1.2 1.2 0 0 1 1.6-.08l.1.08 1.73 1.74.52.54q.23.24.4.64l.04.12q.21.67 0 1.36l-.04.11q-.17.4-.4.64l-.52.55L14.3 9.4l-.09.08a1.2 1.2 0 0 1-1.68-1.69l.08-.09.81-.81h-3.6c-2.13 0-3.16.36-4 .92a5.5 5.5 0 0 0-2.38 5.2l.06.4a1.2 1.2 0 0 1-2.35.46l-.05-.28a7.9 7.9 0 0 1 3.4-7.77c1.35-.9 2.89-1.32 5.33-1.32h3.6l-.81-.82-.08-.1a1.2 1.2 0 0 1 .08-1.6"/></svg>