<svg viewBox="0 0 24 24" xmlns="http://www.w3.org/2000/svg" width="24" height="24"><path d="M1.02 13.57a1.2 1.2 0 0 1 2.39.12v6.89h7.01a1.2 1.2 0 0 1 0 2.4H3.81q-.4 0-.75-.02a2 2 0 0 1-.74-.17l-.1-.05a2.2 2.2 0 0 1-.97-.96l-.05-.12a2 2 0 0 1-.17-.73c-.02-.22-.02-.5-.02-.75zM23 10.43a1.2 1.2 0 0 1-2.4-.12V3.42h-6.9l-.12-.01a1.2 1.2 0 0 1 0-2.39h6.62l.75.01q.31.02.73.17l.11.05q.64.34.96.97l.06.11q.15.4.17.73l.01.76z"/><path d="m3.37 18.93-.08.1a1.2 1.2 0 0 0 1.69 1.68l.09-.08L20.63 5.07a1.2 1.2 0 0 0-1.7-1.7z"/></svg>