<svg viewBox="0 0 24 24" xmlns="http://www.w3.org/2000/svg" width="24" height="24"><path d="m14.96 16.2-.8.29z"/><path fill-rule="evenodd" d="M12 1a11 11 0 1 1 0 22 11 11 0 0 1 0-22m0 12.6c-1.44 0-2.4.5-3.02 1.08a4 4 0 0 0-.82 1.18v.02l.84.3-.85-.3a.9.9 0 0 0 1.7.62v-.01l.06-.11q.08-.16.3-.38c.3-.28.83-.6 1.8-.6.95 0 1.49.32 1.77.6a2 2 0 0 1 .37.49v.01a.9.9 0 0 0 1.7-.62l-.85.3.85-.3v-.02l-.06-.12-.15-.28q-.18-.35-.62-.78A4.3 4.3 0 0 0 12 13.6M9.17 8.2c-.65 0-1.18.63-1.18 1.4S8.52 11 9.17 11s1.18-.63 1.18-1.4-.53-1.4-1.18-1.4m5.66 0c-.65 0-1.18.63-1.18 1.4s.53 1.4 1.18 1.4c.66 0 1.18-.63 1.18-1.4s-.52-1.4-1.18-1.4" clip-rule="evenodd"/></svg>