<svg viewBox="0 0 24 24" xmlns="http://www.w3.org/2000/svg" width="24" height="24"><path fill-rule="evenodd" d="M12 1a11 11 0 1 1 0 22 11 11 0 0 1 0-22M12 13.6C10.56 13.6 9.6 14.1 8.98 14.68A4 4 0 0 0 8.16 15.86L9 16.18L8.15 15.88A.9 .9 0 0 0 9.85 16.5L9.91 16.38Q9.99 16.22 10.21 16C10.51 15.72 11.04 15.4 12.01 15.4C12.96 15.4 13.5 15.72 13.78 16A2 2 0 0 1 14.15 16.49L14.15 16.5A.9 .9 0 0 0 15.85 15.88L15 16.18L15.85 15.86L15.64 15.46Q15.46 15.11 15.02 14.68A4.3 4.3 0 0 0 12 13.6M9.17 8.2c-.65 0-1.18.63-1.18 1.4S8.52 11 9.17 11s1.18-.63 1.18-1.4-.53-1.4-1.18-1.4m5.66 0c-.65 0-1.18.63-1.18 1.4s.53 1.4 1.18 1.4c.66 0 1.18-.63 1.18-1.4s-.52-1.4-1.18-1.4" clip-rule="evenodd"/></svg>