<svg viewBox="0 0 24 24" xmlns="http://www.w3.org/2000/svg" width="24" height="24"><g clip-path="url(#a)"><path d="M21.81 14.7c.66 0 1.2.53 1.2 1.2v.64c0 .6-.02 1.05-.09 1.45l-.04.23a6.05 6.05 0 0 1-4.9 4.7l-.2.04c-.49.06-1.07.05-1.88.05a1.2 1.2 0 0 1 0-2.4c.77 0 1.17 0 1.44-.02l.24-.03a3.7 3.7 0 0 0 2.92-2.7l.06-.28q.03-.19.04-.56l.01-1.13v-.12a1.2 1.2 0 0 1 1.2-1.08m-19.61 0c.66 0 1.2.54 1.2 1.2 0 .77 0 1.17.02 1.44l.03.24a3.7 3.7 0 0 0 2.7 2.92l.28.06.56.04h1.13l.12.02A1.2 1.2 0 0 1 8.12 23h-.65c-.6 0-1.04-.02-1.45-.09l-.23-.05a6.05 6.05 0 0 1-4.7-4.89l-.03-.2C1 17.28 1 16.7 1 15.9c0-.66.54-1.2 1.2-1.2M8.1 1a1.2 1.2 0 0 1 0 2.4c-.77 0-1.17 0-1.44.02l-.23.03a3.7 3.7 0 0 0-2.92 2.7l-.06.28q-.04.19-.05.56v1.13l-.01.12A1.2 1.2 0 0 1 1 8.12v-.65c0-.6.02-1.05.1-1.45l.04-.23a6.05 6.05 0 0 1 4.89-4.7l.2-.04C6.73 1 7.3 1 8.11 1m8.43 0c.6 0 1.05.02 1.45.1l.24.04a6.05 6.05 0 0 1 4.7 4.89l.03.2c.06.5.06 1.07.06 1.88a1.2 1.2 0 0 1-2.4 0c0-.77 0-1.17-.03-1.44l-.03-.24a3.7 3.7 0 0 0-2.7-2.91l-.28-.06q-.19-.04-.56-.05H15.9l-.13-.01A1.2 1.2 0 0 1 15.9 1z"/></g><defs><clipPath id="a"><path d="M0 0h24v24H0z"/></clipPath></defs></svg>