<svg viewBox="0 0 24 24" xmlns="http://www.w3.org/2000/svg" width="24" height="24"><path d="M18.34 14.7A.9 .9 0 0 1 19.65 15.5L19.65 16.07C19.65 17.07 19.15 17.97 18.33 18.51L14.38 20.71A4.9 4.9 0 0 1 9.9 20.85L5.84 18.61A2.9 2.9 0 0 1 4.35 16.07L4.35 15.39A.9 .9 0 0 1 5.66 14.7L9.66 16.77A5.1 5.1 0 0 0 14.35 16.77Z"/><path d="M10 3.04A4.9 4.9 0 0 1 14.27 3.17L22.22 7.32A1.9 1.9 0 0 1 23.24 9L23.24 17.25A.9 .9 0 0 1 21.44 17.25L21.44 11.09L14.27 14.83A4.9 4.9 0 0 1 10 14.96L1.78 10.68A1.9 1.9 0 0 1 1.78 7.32L9.73 3.17Z"/></svg>