<svg viewBox="0 0 24 24" xmlns="http://www.w3.org/2000/svg" width="24" height="24"><path d="M5.863 6L5.623 4.64C5.483 3.83 5.423 3.43 5.523 3.17A1 1 0 0 1 6.393 2.53C6.663 2.51 7.023 2.7 7.763 3.07L19.673 9.15C21.473 10.07 22.373 10.53 22.673 11.15A2 2 0 0 1 22.673 12.85C22.373 13.47 21.473 13.93 19.673 14.85L7.763 20.93C7.023 21.3 6.663 21.49 6.393 21.47A1 1 0 0 1 5.513 20.83C5.413 20.57 5.483 20.17 5.623 19.36L5.863 18C5.963 17.38 6.023 17.07 6.093 16.8A6 6 0 0 1 10.313 12.57C10.593 12.5 10.903 12.45 11.513 12.34L11.843 12.28A.3 .3 0 0 0 11.843 11.72L11.513 11.66C10.903 11.56 10.593 11.5 10.313 11.43A6 6 0 0 1 6.093 7.2C6.023 6.93 5.963 6.62 5.863 6"/></svg>