<svg viewBox="0 0 24 24" xmlns="http://www.w3.org/2000/svg" width="24" height="24"><path fill-rule="evenodd" d="M15.49 1.6c.17.01.34.08.7.23q1.36.56 2.52 1.46c.3.23.46.35.55.5.12.18.12.19.15.41.02.17-.1.7-.33 1.77a2.5 2.5 0 0 0 1.69 2.91c1.04.33 1.56.5 1.7.6.17.14.18.14.28.34.08.16.1.35.15.73a11 11 0 0 1 0 2.9c-.05.38-.07.57-.15.72-.1.2-.1.21-.29.35-.13.1-.65.27-1.7.6a2.5 2.5 0 0 0-1.68 2.91c.24 1.06.35 1.6.33 1.77a.7.7 0 0 1-.15.42c-.1.14-.24.26-.55.5q-1.15.88-2.52 1.45c-.36.15-.53.22-.7.23a.7.7 0 0 1-.44-.08c-.16-.07-.56-.43-1.37-1.17a2.5 2.5 0 0 0-3.36 0c-.8.74-1.21 1.1-1.37 1.17a.7.7 0 0 1-.44.08 2 2 0 0 1-.7-.23q-1.36-.56-2.52-1.46c-.3-.23-.46-.35-.55-.5a.7.7 0 0 1-.15-.41c-.02-.17.1-.7.33-1.77a2.5 2.5 0 0 0-1.69-2.91c-1.04-.33-1.56-.5-1.7-.6a.7.7 0 0 1-.28-.35c-.08-.15-.1-.34-.15-.72a11 11 0 0 1 0-2.9c.05-.38.07-.57.15-.73.1-.2.1-.2.29-.34.13-.1.65-.27 1.7-.6a2.5 2.5 0 0 0 1.68-2.91 11 11 0 0 1-.33-1.77.7.7 0 0 1 .15-.42c.1-.14.25-.26.55-.5Q6.45 2.4 7.8 1.84c.35-.15.53-.22.7-.23a.7.7 0 0 1 .44.08c.16.07.56.43 1.37 1.17q.59.54 1.43.64l.25.01a2.5 2.5 0 0 0 1.68-.65c.8-.74 1.2-1.1 1.36-1.17a.7.7 0 0 1 .45-.08M12 8.66a3.34 3.34 0 1 0 0 6.68 3.34 3.34 0 0 0 0-6.68" clip-rule="evenodd"/></svg>