<svg viewBox="0 0 24 24" xmlns="http://www.w3.org/2000/svg" width="24" height="24"><path d="M14.01 4.16h.1c1.95 0 2.98.03 3.77.44l.17.1-1.2 1.19-.09.1-5.18 5.2a.9.9 0 0 0 1.27 1.27l6.52-6.55.26.44c.4.78.43 1.79.43 3.68l.01.12v3.02q0 .98-.04 1.68v.16a10 10 0 0 1-.12.95v.02a4 4 0 0 1-.26.76l-.02.04-.15.27-.17.25-.03.04a4 4 0 0 1-.84.83l-.03.03a4 4 0 0 1-.53.32l-.16.08-.39.13a9 9 0 0 1-2.18.22l-1.49.01H12.6v.96h2.34a.9.9 0 0 1 0 1.8h-6.6a.9.9 0 0 1 0-1.8h2.46v-.96H7.55a7 7 0 0 1-2.57-.36l-.16-.07a4 4 0 0 1-1.6-1.48l-.15-.27c-.33-.64-.4-1.43-.43-2.73v-3.49q0-1.2.02-2.03l.01-.23.02-.3.02-.2.03-.3.01-.08A5 5 0 0 1 3 6.51l.08-.17a4 4 0 0 1 .32-.52l.02-.04.17-.2.03-.04.15-.17.07-.07a4 4 0 0 1 .7-.55l.28-.15.05-.02.42-.17.11-.03.3-.07.15-.03a7 7 0 0 1 1.06-.1h.07l.58-.01h2.68l2.23-.01zm8.13-3.2c.5 0 .9.4.9.9v4.18a.9.9 0 0 1-1.8-.1v-1.9L19.37 5.9a4 4 0 0 0-1.32-1.22l1.92-1.93h-2.01a.9.9 0 0 1 0-1.8z"/></svg>