<svg viewBox="0 0 24 24" xmlns="http://www.w3.org/2000/svg" width="24" height="24"><path d="M10.88 6.92c2.24 0 3.36 0 4.22.43l.17.1-5.28 5.3a.9.9 0 1 0 1.27 1.27l5.33-5.35.26.43c.43.86.43 1.98.43 4.22v1.2c0 2.24 0 3.36-.43 4.21a4 4 0 0 1-1.75 1.75c-.86.44-1.98.44-4.22.44h-1.2c-2.24 0-3.36 0-4.21-.44a4 4 0 0 1-1.75-1.75c-.44-.85-.44-1.97-.44-4.21v-1.2c0-2.24 0-3.36.44-4.22a4 4 0 0 1 1.75-1.75c.85-.43 1.97-.43 4.21-.43zm9.67-4.4c.5 0 .9.4.9.9V7.6a.9.9 0 0 1-1.8-.1V5.6L16.6 8.67a4 4 0 0 0-1.32-1.22l3.12-3.13h-2.01a.9.9 0 0 1 0-1.8h4.17"/></svg>