<svg viewBox="0 0 24 24" xmlns="http://www.w3.org/2000/svg" width="24" height="24"><path fill-rule="evenodd" d="M11.7 2.39a1 1 0 0 1 .7.04l1.08.52c2.04.94 3.38 1.4 5.61 1.87l1.2.25.15.04a.9.9 0 0 1 .58.79c.33 5.64-1.47 9.57-3.56 12.09a13 13 0 0 1-3.1 2.74q-.71.45-1.3.68c-.34.14-.73.25-1.06.25s-.72-.11-1.07-.25a9 9 0 0 1-1.29-.68A13 13 0 0 1 6.54 18c-2.1-2.52-3.89-6.45-3.56-12.1L3 5.76a.9.9 0 0 1 .71-.68l1.2-.25c2.6-.55 3.99-1.08 6.7-2.4zm3.62 5.9a.9.9 0 0 0-1.2.21l-.04.08-3.04 4.82-1.18-1.46a.9.9 0 0 0-1.45 1.05l.05.08 1.26 1.56q.17.22.34.4c.1.1.26.25.48.34l.1.04q.52.17 1.03-.06l.1-.05c.2-.12.34-.28.43-.4q.15-.2.29-.43l3.1-4.93a.9.9 0 0 0-.27-1.24" clip-rule="evenodd"/></svg>