<svg viewBox="0 0 24 24" xmlns="http://www.w3.org/2000/svg" width="24" height="24"><path fill-rule="evenodd" d="M11.7 2.39A1 1 0 0 1 12.4 2.43L13.48 2.95C15.52 3.89 16.86 4.35 19.09 4.82L20.44 5.11A.9 .9 0 0 1 21.02 5.9C21.35 11.54 19.55 15.47 17.46 17.99A13 13 0 0 1 14.36 20.73Q13.65 21.18 13.06 21.41C12.72 21.55 12.33 21.66 12 21.66C11.67 21.66 11.28 21.55 10.93 21.41A9 9 0 0 1 9.64 20.73A13 13 0 0 1 6.54 18C4.44 15.48 2.65 11.55 2.98 5.9L3 5.76A.9 .9 0 0 1 3.71 5.08L4.91 4.83C7.51 4.28 8.9 3.75 11.61 2.43ZM15.32 8.29A.9 .9 0 0 0 14.12 8.5L11.04 13.4L9.86 11.94A.9 .9 0 0 0 8.41 12.99L9.72 14.63Q9.89 14.85 10.06 15.03C10.16 15.13 10.32 15.28 10.54 15.37L10.64 15.41Q11.16 15.58 11.67 15.35L11.77 15.3C11.97 15.18 12.11 15.02 12.2 14.9Q12.35 14.7 12.49 14.47L15.59 9.54A.9 .9 0 0 0 15.32 8.3" clip-rule="evenodd"/></svg>