<svg viewBox="0 0 24 24" xmlns="http://www.w3.org/2000/svg" width="24" height="24"><path fill-rule="evenodd" d="M13.48 9.06C14.18 8.82 14.94 8.88 15.64 9.28Q16.55 9.79 16.94 10.71C17.19 11.3 17.21 11.91 17.12 12.48A8 8 0 0 1 15.62 15.65Q15.03 16.46 14.35 17.23A5 5 0 0 0 16.95 15.71L17.52 15.09C17.61 15.02 17.76 14.89 17.98 14.8A1.34 1.34 0 0 1 19.52 15.2C19.68 15.39 19.8 15.62 19.88 15.8A4 4 0 0 0 20.63 14.32A1.2 1.2 0 1 1 22.95 14.94C22.75 15.71 22.17 16.94 21.41 17.7C21.05 18.06 20.38 18.6 19.49 18.47A2 2 0 0 1 18.28 17.77A8.3 8.3 0 0 1 14.24 19.73Q13.03 20 12 19.58Q11.52 20.02 11.16 20.29A1.2 1.2 0 0 1 9.67 18.41Q9.97 18.18 10.37 17.83A7 7 0 0 1 10.21 13.93A9 9 0 0 1 11.89 10.23C12.29 9.73 12.83 9.29 13.49 9.06M14.46 11.36q-.13-.07-.2-.03c-.1.04-.28.15-.53.44a6.4 6.4 0 0 0-1.16 2.65q-.16.76-.15 1.38.68-.75 1.25-1.54.95-1.34 1.09-2.17a1 1 0 0 0-.02-.46c-.02-.05-.08-.15-.28-.27" clip-rule="evenodd"/><path d="M7.84 11.93a1.2 1.2 0 0 1 0 2.4H5.27a1.2 1.2 0 0 1 0-2.4zm1.27-4a1.2 1.2 0 0 1 0 2.4H5.27a1.2 1.2 0 0 1 0-2.4zm7.4-4a1.2 1.2 0 0 1 0 2.4H5.26a1.2 1.2 0 0 1 0-2.4h11.22"/></svg>