<svg viewBox="0 0 24 24" xmlns="http://www.w3.org/2000/svg" width="24" height="24"><path d="m9.85 14.2-.8.28z"/><path fill-rule="evenodd" d="M12 1a11 11 0 1 1 0 22 11 11 0 0 1 0-22m3.3 12.65a.9.9 0 0 0-1.15.54l-.06.11q-.07.16-.3.38c-.3.27-.83.6-1.79.6s-1.5-.33-1.78-.6a2 2 0 0 1-.37-.49v-.01a.9.9 0 0 0-1.7.61l.85-.3-.85.3v.01l.01.02.01.03a2 2 0 0 0 .19.37c.13.21.33.5.62.78A4.3 4.3 0 0 0 12 17.09c1.44 0 2.4-.52 3.02-1.1a4 4 0 0 0 .8-1.14l.02-.03v-.02l-.84-.3.85.3a.9.9 0 0 0-.55-1.15M9.17 8.2c-.65 0-1.18.63-1.18 1.4S8.52 11 9.17 11s1.18-.63 1.18-1.4-.53-1.4-1.18-1.4m5.66 0c-.65 0-1.18.63-1.18 1.4s.53 1.4 1.18 1.4c.66 0 1.18-.63 1.18-1.4s-.52-1.4-1.18-1.4" clip-rule="evenodd"/></svg>