<svg viewBox="0 0 24 24" xmlns="http://www.w3.org/2000/svg" width="24" height="24"><path fill-rule="evenodd" d="M12 1a11 11 0 1 1 0 22 11 11 0 0 1 0-22M15.3 13.65A.9 .9 0 0 0 14.15 14.19L14.09 14.3Q14.02 14.46 13.79 14.68C13.49 14.95 12.96 15.28 12 15.28C11.04 15.28 10.5 14.95 10.22 14.68A2 2 0 0 1 9.85 14.19L9.85 14.18A.9 .9 0 0 0 8.15 14.79L8.17 14.85A2 2 0 0 0 8.36 15.22C8.49 15.43 8.69 15.72 8.98 16A4.3 4.3 0 0 0 12 17.09C13.44 17.09 14.4 16.57 15.02 15.99A4 4 0 0 0 15.82 14.85L15.84 14.8L15 14.5L15.85 14.8A.9 .9 0 0 0 15.3 13.65M9.17 8.2c-.65 0-1.18.63-1.18 1.4S8.52 11 9.17 11s1.18-.63 1.18-1.4-.53-1.4-1.18-1.4m5.66 0c-.65 0-1.18.63-1.18 1.4s.53 1.4 1.18 1.4c.66 0 1.18-.63 1.18-1.4s-.52-1.4-1.18-1.4" clip-rule="evenodd"/></svg>