<svg viewBox="0 0 24 24" xmlns="http://www.w3.org/2000/svg" width="24" height="24"><path d="M9 5.35c.92-2.5 1.39-3.76 2.06-4.12a2 2 0 0 1 1.88 0c.67.36 1.14 1.61 2.06 4.12l.48 1.28c.19.5.28.76.43.98a2 2 0 0 0 .48.48c.22.15.47.24.98.43l1.28.48c2.5.92 3.76 1.39 4.12 2.06a2 2 0 0 1 0 1.88c-.36.67-1.61 1.14-4.12 2.06l-1.28.48c-.5.19-.76.28-.98.43a2 2 0 0 0-.48.48c-.15.22-.24.47-.43.98L15 18.65c-.92 2.5-1.39 3.76-2.06 4.12a2 2 0 0 1-1.88 0c-.67-.36-1.14-1.61-2.06-4.12l-.48-1.28c-.19-.5-.28-.76-.43-.98a2 2 0 0 0-.48-.48c-.22-.15-.47-.24-.98-.43L5.35 15c-2.5-.92-3.76-1.39-4.12-2.06a2 2 0 0 1 0-1.88C1.6 10.4 2.84 9.92 5.35 9l1.28-.48c.5-.19.76-.28.98-.43a2 2 0 0 0 .48-.48c.15-.22.24-.47.43-.98z"/></svg>