<svg viewBox="0 0 24 24" xmlns="http://www.w3.org/2000/svg" width="24" height="24"><path d="M9.55 8.57a1.19 1.19 0 0 1 2.22 0l1.44 3.9q.07.15.23.22l3.9 1.45c1 .37 1.03 1.75.1 2.18l-.1.04-3.9 1.44a.4.4 0 0 0-.23.23l-1.44 3.9a1.19 1.19 0 0 1-2.22 0l-1.44-3.9a.4.4 0 0 0-.23-.23l-3.9-1.44a1.18 1.18 0 0 1 0-2.22l3.9-1.45q.16-.06.23-.23zm7.68-7.43a1.2 1.2 0 0 1 1.13 0c.26.14.42.41.55.68q.2.45.46 1.18l.31.85c.08.22.1.26.13.3l.1.1.3.12.84.3q.75.29 1.17.47c.28.13.55.3.69.55.18.35.18.77 0 1.12-.14.27-.41.43-.69.56q-.43.2-1.17.46l-.85.31c-.22.08-.26.1-.3.13l-.1.1-.12.3-.31.84q-.27.75-.46 1.17c-.13.27-.3.55-.55.69a1.2 1.2 0 0 1-1.13 0c-.26-.14-.42-.41-.55-.69q-.2-.43-.46-1.17l-.31-.85-.13-.3-.1-.1-.3-.12-.84-.31q-.75-.27-1.18-.46c-.27-.13-.54-.3-.68-.56a1.2 1.2 0 0 1 0-1.12c.14-.26.41-.42.68-.55q.45-.2 1.18-.46l.85-.31c.22-.09.26-.1.3-.13l.1-.1.12-.3.3-.84.47-1.18c.13-.27.3-.54.55-.68M5 1.13a1 1 0 0 1 .93 0c.23.12.36.36.46.56q.15.33.35.9l.35.94.08.2.05.04.2.09.94.35q.55.19.9.35c.2.1.43.23.55.45l.05.12a1 1 0 0 1-.05.82c-.12.23-.35.36-.55.46l-.9.35-.94.35-.2.08-.05.05-.08.2-.35.94-.35.9c-.08.17-.2.37-.38.5l-.08.05-.11.05A1 1 0 0 1 5 9.83a1 1 0 0 1-.46-.56l-.35-.89-.35-.94-.08-.2-.05-.05-.2-.08-.94-.35-.9-.35c-.2-.1-.43-.23-.55-.46a1 1 0 0 1 0-.94c.12-.22.35-.36.55-.45q.34-.15.9-.35l.94-.35.2-.09.05-.04.08-.2.35-.95q.2-.56.35-.89c.1-.2.23-.44.46-.56"/></svg>