<svg viewBox="0 0 24 24" xmlns="http://www.w3.org/2000/svg" width="24" height="24"><path d="M9.41 5.16c.79-2.42 1.18-3.63 1.77-3.95a1.7 1.7 0 0 1 1.64 0c.59.32.98 1.53 1.77 3.95l.11.35c.22.68.33 1.02.54 1.27q.28.33.68.5c.3.11.66.11 1.37.11h.37c2.54 0 3.81 0 4.3.46.43.4.62.99.5 1.56-.12.66-1.15 1.4-3.2 2.9l-.3.22c-.58.42-.86.63-1.04.9a2 2 0 0 0-.26.8c-.02.33.09.67.31 1.34l.11.36c.79 2.41 1.18 3.62.9 4.23a1.7 1.7 0 0 1-1.33.96c-.67.09-1.7-.66-3.75-2.15l-.3-.22c-.58-.42-.86-.63-1.18-.7a2 2 0 0 0-.84 0c-.32.07-.6.28-1.18.7l-.3.22c-2.06 1.49-3.08 2.24-3.75 2.15a1.7 1.7 0 0 1-1.33-.96c-.28-.6.11-1.82.9-4.23l.11-.36a4 4 0 0 0 .3-1.33 2 2 0 0 0-.25-.8c-.18-.28-.46-.5-1.04-.9l-.3-.23c-2.05-1.5-3.08-2.24-3.2-2.9a1.7 1.7 0 0 1 .5-1.56c.49-.46 1.76-.46 4.3-.46h.37c.71 0 1.07 0 1.37-.12q.4-.15.68-.5c.2-.24.32-.58.54-1.26z"/></svg>