<svg viewBox="0 0 24 24" xmlns="http://www.w3.org/2000/svg" width="24" height="24"><path d="M9.408 5.32C10.198 2.9 10.588 1.69 11.178 1.37A1.7 1.7 0 0 1 12.818 1.37C13.408 1.69 13.798 2.9 14.588 5.32L14.698 5.67C14.918 6.35 15.028 6.69 15.238 6.94Q15.518 7.27 15.918 7.44C16.218 7.55 16.578 7.55 17.288 7.55L17.658 7.55C20.198 7.55 21.468 7.55 21.958 8.01C22.388 8.41 22.578 9 22.458 9.57C22.338 10.23 21.308 10.97 19.258 12.47L18.958 12.69C18.378 13.11 18.098 13.32 17.918 13.59A2 2 0 0 0 17.658 14.39C17.638 14.72 17.748 15.06 17.968 15.73L18.078 16.09C18.868 18.5 19.258 19.71 18.978 20.32A1.7 1.7 0 0 1 17.648 21.28C16.978 21.37 15.948 20.62 13.898 19.13L13.598 18.91C13.018 18.49 12.738 18.28 12.418 18.21A2 2 0 0 0 11.578 18.21C11.258 18.28 10.978 18.49 10.398 18.91L10.098 19.13C8.038 20.62 7.018 21.37 6.348 21.28A1.7 1.7 0 0 1 5.018 20.32C4.738 19.72 5.128 18.5 5.918 16.09L6.028 15.73A4 4 0 0 0 6.328 14.4A2 2 0 0 0 6.078 13.6C5.898 13.32 5.618 13.1 5.038 12.7L4.738 12.47C2.688 10.97 1.658 10.23 1.538 9.57A1.7 1.7 0 0 1 2.038 8.01C2.528 7.55 3.798 7.55 6.338 7.55L6.708 7.55C7.418 7.55 7.778 7.55 8.078 7.43Q8.478 7.28 8.758 6.93C8.958 6.69 9.078 6.35 9.298 5.67Z"/></svg>