<svg viewBox="0 0 24 24" xmlns="http://www.w3.org/2000/svg" width="24" height="24"><path d="M10.27 17.8c.33.02.65.13.9.43q.32.42.4 1.16v.3c.03 1.47-.77 2.9-2.09 3.24l-.13.03c-1.49.29-3.09-.87-3.41-2.54a2 2 0 0 1 .04-1.09q.2-.47.6-.7.4-.2.86-.3l.95-.19.95-.22q.47-.12.93-.12m3.63-4.3c.31-.02.64.05.94.12l.95.22q.5.08.95.18.46.1.85.31c.26.16.49.38.6.7a2 2 0 0 1 .05 1.09c-.32 1.66-1.92 2.82-3.4 2.53-1.5-.29-2.37-1.94-2.22-3.57l.02-.18q.08-.6.37-.98c.25-.3.57-.4.9-.42M6.5 5.33q.71.04 1.26.5.64.51 1.13 1.33a11 11 0 0 1 1.34 3.87l.07.5a5 5 0 0 1-.38 2.82 3 3 0 0 1-2.2 1.5l-.2.03q-1.88.27-2.9-.94a6 6 0 0 1-1.1-2.74l-.09-.5a8 8 0 0 1 .42-4.46c.52-1.11 1.39-1.82 2.46-1.9zM17.69 1l.2.03c.98.14 1.78.83 2.26 1.88a7.7 7.7 0 0 1 .46 4.13l-.04.34a6.5 6.5 0 0 1-1.2 3.23q-.94 1.13-2.65.97l-.23-.03q-1.7-.24-2.4-1.53c-.46-.84-.53-1.97-.32-3.32l.09-.51c.23-1.2.67-2.41 1.24-3.35q.49-.82 1.13-1.34c.43-.33.92-.54 1.46-.5"/></svg>