<svg viewBox="0 0 24 24" xmlns="http://www.w3.org/2000/svg" width="24" height="24"><path d="M7 12a5 5 0 1 0 10 0a5 5 0 1 0 -10 0ZM18.237 19.141a.904 .904 0 1 0 1.809 0a.904 .904 0 1 0 -1.809 0ZM3.994 19.121a.883 .883 0 1 0 1.766 0a.883 .883 0 1 0 -1.766 0ZM11.1 1.9a.9 .9 0 1 0 1.8 0a.9 .9 0 1 0 -1.8 0ZM21.2 12a.9 .9 0 1 0 1.8 0a.9 .9 0 1 0 -1.8 0ZM1 12a.9 .9 0 1 0 1.8 0a.9 .9 0 1 0 -1.8 0ZM11.1 22.1a.9 .9 0 1 0 1.8 0a.9 .9 0 1 0 -1.8 0ZM4.002 4.839a.884 .884 0 1 0 1.767 0a.884 .884 0 1 0 -1.767 0ZM18.235 4.86a.905 .905 0 1 0 1.81 0a.905 .905 0 1 0 -1.81 0Z"/></svg>