<svg viewBox="0 0 24 24" xmlns="http://www.w3.org/2000/svg" width="24" height="24"><path d="M12 21.2a.9.9 0 1 1 0 1.8.9.9 0 0 1 0-1.8m-7.78-2.7a.9.9 0 1 1 1.27 1.28.9.9 0 0 1-1.27-1.27m14.28-.01a.9.9 0 1 1 1.28 1.28.9.9 0 0 1-1.28-1.27M12 7a5 5 0 1 1 0 10 5 5 0 0 1 0-10M1.9 11.1a.9.9 0 1 1 0 1.8.9.9 0 0 1 0-1.8m20.2 0a.9.9 0 1 1 0 1.8.9.9 0 0 1 0-1.8M4.22 4.22A.9.9 0 1 1 5.5 5.5a.9.9 0 0 1-1.27-1.27m14.27-.01a.9.9 0 1 1 1.28 1.28.9.9 0 0 1-1.28-1.28M12 1a.9.9 0 1 1 0 1.8.9.9 0 0 1 0-1.8"/></svg>