<svg viewBox="0 0 24 24" xmlns="http://www.w3.org/2000/svg" width="24" height="24"><path d="M16.33 11.15a1.2 1.2 0 0 1 1.7 0l2.92 2.93.52.54q.22.24.4.64l.04.12c.14.44.14.92 0 1.36l-.04.12q-.18.39-.4.63-.24.27-.52.55l-2.93 2.92-.09.09a1.2 1.2 0 0 1-1.69-1.7l.09-.08 1.96-1.97H3a1.2 1.2 0 0 1 0-2.4h15.38l-2.05-2.05-.09-.1a1.2 1.2 0 0 1 .09-1.6M6.07 2.95a1.2 1.2 0 0 1 1.69 1.7l-.09.08L5.71 6.7H21a1.2 1.2 0 0 1 0 2.4H5.62l2.05 2.05.09.1a1.2 1.2 0 0 1-1.78 1.6L3.05 9.92l-.52-.54a2 2 0 0 1-.4-.64l-.04-.12a2.2 2.2 0 0 1 0-1.36l.04-.12q.18-.39.4-.63.24-.27.52-.55l2.93-2.92z"/></svg>