<svg viewBox="0 0 24 24" xmlns="http://www.w3.org/2000/svg" width="24" height="24"><path d="M11.15 7.67a1.2 1.2 0 0 1 0-1.7l2.93-2.92.54-.52q.25-.22.64-.4l.12-.04a2.2 2.2 0 0 1 1.36 0l.12.04q.39.18.63.4.27.24.55.52l2.92 2.93.09.09a1.2 1.2 0 0 1-1.7 1.69l-.08-.09-1.97-1.96V21a1.2 1.2 0 0 1-2.4 0V5.62l-2.05 2.05-.1.09a1.2 1.2 0 0 1-1.6-.09m-8.2 10.26a1.2 1.2 0 0 1 1.7-1.69l.08.09 1.97 1.96V3a1.2 1.2 0 0 1 2.4 0v15.38l2.05-2.05.1-.09a1.2 1.2 0 0 1 1.6 1.78l-2.93 2.93-.54.52q-.24.22-.64.4l-.12.04a2.2 2.2 0 0 1-1.36 0l-.12-.04a2 2 0 0 1-.63-.4l-.55-.52-2.92-2.93z"/></svg>