<svg viewBox="0 0 24 24" xmlns="http://www.w3.org/2000/svg" width="24" height="24"><path d="M4.42 7.04a2.2 2.2 0 0 1 1.36 0l.12.04c.27.1.48.26.64.4l.54.52 1.73 1.72a1.2 1.2 0 0 1-1.7 1.7l-.8-.8v.46c0 2.12.35 3.15.91 3.98a5.4 5.4 0 0 0 5.57 2.3l.12-.01a1.2 1.2 0 0 1 .35 2.37l-.29.05a7.8 7.8 0 0 1-7.75-3.38c-.9-1.34-1.31-2.88-1.31-5.31v-.47l-.81.81-.1.08a1.2 1.2 0 0 1-1.68-1.69l.08-.09L3.12 8l.55-.52q.24-.23.64-.4zm6.63-2.77a7.8 7.8 0 0 1 7.75 3.38c.9 1.35 1.32 2.89 1.32 5.32v.46l.8-.8.1-.09a1.2 1.2 0 0 1 1.69 1.69l-.09.1-1.72 1.71q-.28.3-.55.53-.24.21-.63.4l-.12.04a2.2 2.2 0 0 1-1.36 0l-.12-.05a2 2 0 0 1-.63-.4q-.27-.22-.55-.52l-1.72-1.72a1.2 1.2 0 0 1 1.7-1.7l.8.8v-.45c0-2.12-.36-3.15-.92-3.98a5.4 5.4 0 0 0-5.57-2.31l-.12.02a1.2 1.2 0 0 1-.35-2.37z"/></svg>