<svg viewBox="0 0 24 24" xmlns="http://www.w3.org/2000/svg" width="24" height="24"><path d="M8.372 1L15.628 1C17.263 1 18.081 1 18.706 1.318A2.92 2.92 0 0 1 19.982 2.594C20.3 3.219 20.3 4.037 20.3 5.672L20.3 18.328C20.3 19.963 20.3 20.781 19.982 21.406A2.92 2.92 0 0 1 18.706 22.682C18.081 23 17.263 23 15.628 23L8.372 23C6.737 23 5.919 23 5.294 22.682A2.92 2.92 0 0 1 4.018 21.406C3.7 20.781 3.7 19.963 3.7 18.328L3.7 5.672C3.7 4.037 3.7 3.219 4.018 2.594A2.92 2.92 0 0 1 5.294 1.318C5.919 1 6.737 1 8.372 1Z"/></svg>