<svg viewBox="0 0 24 24" xmlns="http://www.w3.org/2000/svg" width="24" height="24"><path d="M5.672 3.7L18.328 3.7C19.963 3.7 20.781 3.7 21.406 4.018A2.92 2.92 0 0 1 22.682 5.294C23 5.919 23 6.737 23 8.372L23 15.628C23 17.263 23 18.081 22.682 18.706A2.92 2.92 0 0 1 21.406 19.982C20.781 20.3 19.963 20.3 18.328 20.3L5.672 20.3C4.037 20.3 3.219 20.3 2.594 19.982A2.92 2.92 0 0 1 1.318 18.706C1 18.081 1 17.263 1 15.628L1 8.372C1 6.737 1 5.919 1.318 5.294A2.92 2.92 0 0 1 2.594 4.018C3.219 3.7 4.037 3.7 5.672 3.7Z"/></svg>