<svg viewBox="0 0 24 24" xmlns="http://www.w3.org/2000/svg" width="24" height="24"><path fill-rule="evenodd" d="M18.48 8.15a4.5 4.5 0 0 1 3.2 1.25 4.5 4.5 0 0 1 1.29 3.24v5.91a1.2 1.2 0 0 1-2.3.48c-.92.56-1.99.76-3.01.76-1.8 0-3.67-1.16-3.67-3.32 0-1.14.65-2 1.37-2.56a5 5 0 0 1 2.5-.98l1.08-.12q.85-.09 1.63-.13v-.04c0-.7-.24-1.2-.58-1.53a2 2 0 0 0-1.51-.56q-.75.01-1.3.31c-.35.2-.52.41-.57.55l-.06.12a1.2 1.2 0 0 1-2.17-1l.06-.15a3.7 3.7 0 0 1 1.6-1.63c.72-.38 1.57-.6 2.44-.6m2.03 6.94-1.32.1-1.05.12a3 3 0 0 0-1.33.51c-.34.26-.42.5-.42.65q0 .4.29.62c.2.17.53.3.98.3q1.4-.01 2.08-.65c.33-.3.64-.8.77-1.65M5.63 6.1A1.7 1.7 0 0 1 8.7 6.1L13.22 18.13L10.97 18.97L9.68 15.54L4.64 15.54L3.36 18.97A1.2 1.2 0 0 1 1.11 18.13L5.57 6.23ZM5.54 13.14h3.24L7.16 8.82z" clip-rule="evenodd"/><path d="M13.22 18.13a1.2 1.2 0 0 1-2.25.84z"/></svg>