<svg viewBox="0 0 24 24" xmlns="http://www.w3.org/2000/svg" width="24" height="24"><path fill-rule="evenodd" d="M13.46 2A2.3 2.3 0 0 1 16.51 2.15L17.57 3.2Q17.64 3.3 17.67 3.43L17.69 3.69A1 1 0 0 1 17.52 4.03C17.24 4.36 17.09 4.79 17.11 5.23L17.12 5.39Q17.2 5.96 17.62 6.39C17.92 6.69 18.34 6.87 18.77 6.89L18.93 6.89Q19.51 6.85 19.96 6.47L20.06 6.39Q20.24 6.29 20.44 6.3L20.56 6.32Q20.76 6.37 20.89 6.5L22.01 7.64A2.3 2.3 0 0 1 22.01 10.54L18.64 13.94L18.2 13.48A.9 .9 0 0 0 16.92 14.75L17.37 15.21L10.74 21.82A2.3 2.3 0 0 1 7.67 21.99L6.46 20.8A1 1 0 0 1 6.34 20.54L6.33 20.42Q6.32 20.15 6.49 19.94L6.59 19.81A1.73 1.73 0 0 0 5.41 17.11L5.24 17.09C4.81 17.07 4.38 17.22 4.05 17.5A.7 .7 0 0 1 3.12 17.47L2.16 16.5A2.3 2.3 0 0 1 2.17 13.26L8.8 6.62L9.2 7.02A.9 .9 0 0 0 10.47 5.75L10.07 5.35L13.29 2.15ZM15.34 10.63A.9 .9 0 0 0 14.07 11.9L14.87 12.69A.9 .9 0 0 0 16.14 11.43L16.07 11.36ZM12.6 7.88A.9 .9 0 0 0 11.33 9.15L12.13 9.94A.9 .9 0 0 0 13.4 8.68L13.34 8.61Z" clip-rule="evenodd"/></svg>