<svg viewBox="0 0 24 24" xmlns="http://www.w3.org/2000/svg" width="24" height="24"><path fill-rule="evenodd" d="M13.46 2a2.3 2.3 0 0 1 3.05.15l.98.95.08.1q.07.1.1.23l.02.13v.13a1 1 0 0 1-.17.34c-.28.33-.43.76-.41 1.2l.01.16q.08.57.5 1c.3.3.72.48 1.15.5h.16q.58-.04 1.03-.42l.1-.08q.18-.1.38-.09l.12.02q.2.05.33.18l.97.97.15.17a2.3 2.3 0 0 1 0 2.9l-.15.18-2.22 2.22-1 1-.44-.46a.9.9 0 0 0-1.28 1.27l.45.46-6.63 6.61a2.3 2.3 0 0 1-3.07.17l-.17-.16-.97-.96-.07-.07a1 1 0 0 1-.12-.26l-.01-.12q-.01-.27.16-.48l.1-.13a1.73 1.73 0 0 0-1.18-2.7l-.17-.02c-.43-.02-.86.13-1.19.41a.7.7 0 0 1-.93-.03l-.96-.97a2.3 2.3 0 0 1 .01-3.24L8.8 6.62l.33.33.07.07a.9.9 0 0 0 1.27-1.27l-.06-.07-.34-.33 1-1 2.22-2.2zm1.88 8.63a.9.9 0 0 0-1.27 1.27l.73.73.07.06a.9.9 0 0 0 1.27-1.26l-.07-.07zM12.6 7.88a.9.9 0 0 0-1.27 1.27l.73.73.07.06a.9.9 0 0 0 1.27-1.26l-.06-.07z" clip-rule="evenodd"/></svg>