<svg viewBox="0 0 24 24" xmlns="http://www.w3.org/2000/svg" width="24" height="24"><g clip-path="url(#a)"><path fill-rule="evenodd" d="M12 1a11 11 0 1 1 0 22 11 11 0 0 1 0-22m.22 1.5q-.15 0-.32.03l-.1.04q-.15.07-.29.16l-.08.07a1 1 0 0 0-.2.27l-.04.1a1 1 0 0 0-.09.42v3.75a.9.9 0 0 0 1.8 0v-3a7.71 7.71 0 0 1-.5 15.36H12A7.7 7.7 0 0 1 6.26 6.86a.9.9 0 0 0-1.34-1.2 9.5 9.5 0 0 0-2.41 5.81l-.01.43a9.54 9.54 0 0 0 9.5 9.6h.49a9.5 9.5 0 0 0-.26-19M7.8 7.46a.36.36 0 0 0-.33.32q0 .13.06.24L11 13q.15.2.36.35A1.43 1.43 0 0 0 13 11L8.02 7.52a.4.4 0 0 0-.23-.06" clip-rule="evenodd"/></g><defs><clipPath id="a"><path d="M0 0h24v24H0z"/></clipPath></defs></svg>