<svg viewBox="0 0 24 24" xmlns="http://www.w3.org/2000/svg" width="24" height="24"><path fill-rule="evenodd" d="M15.853 9.3C16.333 9.3 16.763 9.58 16.953 10.03L20.473 18.24A1.2 1.2 0 0 1 18.273 19.19L17.853 18.22L13.853 18.22L13.433 19.19L13.383 19.29A1.2 1.2 0 0 1 11.223 18.24L14.743 10.03L14.833 9.87C15.043 9.52 15.433 9.3 15.853 9.3M14.71 15.76h1.95l-.97-2.28z" clip-rule="evenodd"/><path d="m4.52 15.27 1.22 2.07a1.2 1.2 0 0 1-1.22-2.07"/><path d="M9.23 3.37c.66 0 1.2.54 1.2 1.2v.56h4.21a1.2 1.2 0 0 1 0 2.4h-1.25q-.18.55-.48 1.3a18 18 0 0 1-2.08 3.78l.27.16.03.01h-.03v-.01a1.2 1.2 0 0 1-.64 2.32l.32-1.16-.32 1.15h-.02l-.03-.01-.3-.11a5 5 0 0 1-.85-.52 21 21 0 0 1-3.4 2.82l-.08.06-.03.01h-.01l-1.22-2.06.07-.04.25-.16q.34-.23.92-.69.8-.62 1.81-1.65a11 11 0 0 1-1.23-1.97 5 5 0 0 1-.3-.88l-.01-.03v-.01l1.18-.2-1.19.2a1.2 1.2 0 0 1 2.37-.4V9.4v.03l.13.31q.14.36.63 1.08a16 16 0 0 0 1.7-3.3h-6.9a1.2 1.2 0 0 1 0-2.4h4.08v-.56c0-.66.54-1.2 1.2-1.2"/></svg>