<svg viewBox="0 0 24 24" xmlns="http://www.w3.org/2000/svg" width="24" height="24"><path d="M18.08 4.22A1.2 1.2 0 0 1 19.78 4.22A11 11 0 0 1 22.7 9.46L22.79 9.86A11 11 0 0 1 22.31 15.83L22.16 16.21A11 11 0 0 1 18.45 20.91L18.11 21.15A11 11 0 0 1 5.89 21.15L5.55 20.91A11 11 0 0 1 1.84 16.21L1.69 15.83A11 11 0 0 1 1.21 9.85L1.3 9.45A11 11 0 0 1 3.94 4.52L4.32 4.14A1.2 1.2 0 0 1 6 5.83L5.7 6.15A8.6 8.6 0 0 0 3.63 10L3.57 10.31A8.6 8.6 0 0 0 3.94 15L4.05 15.3A8.6 8.6 0 0 0 6.96 18.97L7.22 19.15A8.6 8.6 0 0 0 16.78 19.15L17.04 18.97A8.6 8.6 0 0 0 19.94 15.29L20.06 14.99C20.62 13.5 20.75 11.89 20.43 10.32L20.37 10.02A8.6 8.6 0 0 0 18.08 5.92A1.2 1.2 0 0 1 18.08 4.22"/><path d="M12 .7C12.67 .7 13.2 1.23 13.2 1.9L13.2 12.12A1.2 1.2 0 0 1 10.82 12.12L10.8 1.9C10.8 1.23 11.34 .7 12 .7"/></svg>