<svg viewBox="0 0 24 24" xmlns="http://www.w3.org/2000/svg" width="24" height="24"><path d="M18.08 4.22a1.2 1.2 0 0 1 1.7 0 11 11 0 0 1 2.92 5.24l.09.4a11 11 0 0 1-.48 5.97l-.15.38a11 11 0 0 1-3.71 4.7l-.34.24a11 11 0 0 1-12.22 0l-.34-.24a11 11 0 0 1-3.71-4.7l-.15-.38a11 11 0 0 1-.48-5.98l.09-.4a11 11 0 0 1 2.64-4.93l.28-.3.1-.08A1.2 1.2 0 0 1 6 5.83l-.08.09-.22.23A8.6 8.6 0 0 0 3.63 10l-.06.31A8.6 8.6 0 0 0 3.94 15l.11.3a8.6 8.6 0 0 0 2.91 3.67l.26.18a8.6 8.6 0 0 0 9.56 0l.26-.18a8.6 8.6 0 0 0 2.9-3.68l.12-.3c.56-1.49.69-3.1.37-4.67l-.06-.3a8.6 8.6 0 0 0-2.29-4.1 1.2 1.2 0 0 1 0-1.7"/><path d="M12 .7c.67 0 1.2.53 1.2 1.2v10.22a1.2 1.2 0 0 1-2.38 0L10.8 12V1.9c0-.67.54-1.2 1.2-1.2"/></svg>