<svg viewBox="0 0 24 24" xmlns="http://www.w3.org/2000/svg" width="24" height="24"><path d="M12.9 19.73v.1a.9.9 0 0 1-1.79 0v-4.3h1.79zm-.4-18.16c2.24 0 3.37 0 4.22.44a4 4 0 0 1 1.75 1.75c.43.85.43 1.97.43 4.21v1.17c0 2.24 0 3.36-.43 4.21a4 4 0 0 1-1.75 1.75c-.8.41-1.84.43-3.81.44V9.23l1.35 1.35a.9.9 0 0 0 1.27-1.28l-2.89-2.88a.9.9 0 0 0-1.27 0L8.5 9.3l-.07.07a.9.9 0 0 0 1.27 1.27l.07-.06 1.35-1.35v6.3c-2.09 0-3.16 0-3.99-.43a4 4 0 0 1-1.74-1.75c-.44-.85-.44-1.97-.44-4.21V7.97c0-2.24 0-3.36.43-4.21A4 4 0 0 1 7.13 2c.86-.44 1.98-.44 4.22-.44z"/></svg>