<svg viewBox="0 0 24 24" xmlns="http://www.w3.org/2000/svg" width="24" height="24"><path d="M12.9 19.73v.1a.9.9 0 0 1-1.79 0v-4.3h1.79zM12.5 1.57C14.74 1.57 15.87 1.57 16.72 2.01A4 4 0 0 1 18.47 3.76C18.9 4.61 18.9 5.73 18.9 7.97L18.9 9.14C18.9 11.38 18.9 12.5 18.47 13.35A4 4 0 0 1 16.72 15.1C15.92 15.51 14.88 15.53 12.91 15.54L12.91 9.23L14.26 10.58A.9 .9 0 0 0 15.53 9.3L12.64 6.42A.9 .9 0 0 0 11.37 6.42L8.43 9.37A.9 .9 0 0 0 9.7 10.64L11.12 9.23L11.12 15.53C9.03 15.53 7.96 15.53 7.13 15.1A4 4 0 0 1 5.39 13.35C4.95 12.5 4.95 11.38 4.95 9.14L4.95 7.97C4.95 5.73 4.95 4.61 5.38 3.76A4 4 0 0 1 7.13 2C7.99 1.56 9.11 1.56 11.35 1.56Z"/></svg>