<svg viewBox="0 0 24 24" xmlns="http://www.w3.org/2000/svg" width="24" height="24"><path fill-rule="evenodd" d="M16.6 2c2.24 0 3.36 0 4.22.44a4 4 0 0 1 1.74 1.74c.44.86.44 1.98.44 4.21v7.22c0 2.23 0 3.35-.44 4.2a4 4 0 0 1-1.74 1.75c-.65.33-1.44.41-2.74.43h-1.26l-.22.01H7.18c-2.1 0-3.17-.01-4-.44a4 4 0 0 1-1.74-1.74C1 18.96 1 17.84 1 15.6V8.39c0-2.23 0-3.35.44-4.2a4 4 0 0 1 1.74-1.75C4.04 2 5.16 2 7.4 2zM4 17.9l-1.16.03v.05a4 4 0 0 0 .2 1.02q.33.63.96.96l.12.05c.15.05.38.1.8.14q.47.04 1.17.04L6.1 20a17 17 0 0 0-.05-1.3l-.03-.12a1 1 0 0 0-.5-.55l-.1-.05a1 1 0 0 0-.39-.06c-.24-.02-.55-.02-1.03-.02m16 0a17 17 0 0 0-1.3.05l-.12.03q-.36.16-.55.5l-.05.1c-.02.06-.05.15-.06.39a17 17 0 0 0 0 1.22q.69 0 1.16-.04c.56-.04.79-.12.92-.19l.15-.09q.53-.3.81-.87l.05-.12c.05-.15.1-.38.14-.8V18l.01-.06-.13-.01c-.24-.02-.55-.02-1.03-.02m-16.5-5-.64.01H2.8v3.17h.06c.1.02.26.02.64.02h1c.5 0 .63 0 .71-.02l.16-.04c.36-.13.63-.44.7-.83l.02-.07a9 9 0 0 0 0-1.28l-.01-.07a1.1 1.1 0 0 0-.7-.83l-.17-.04c-.08-.02-.2-.02-.71-.02zm16 0-.64.01-.07.01c-.39.08-.7.35-.83.7l-.04.17c-.02.08-.02.2-.02.71 0 .5 0 .63.02.71l.04.16c.13.36.44.63.83.7l.07.02.64.01h1c.47 0 .61 0 .7-.02v-3.16a6 6 0 0 0-.7-.02zM8.2 10.8a1.2 1.2 0 0 0 0 2.4h7.6a1.2 1.2 0 0 0 0-2.4zM3.5 7.9l-.64.01H2.8v3.17h.06c.1.02.26.02.64.02h1c.5 0 .63 0 .71-.02l.16-.04c.36-.13.63-.44.7-.83l.02-.07a9 9 0 0 0 0-1.28l-.01-.07a1.1 1.1 0 0 0-.7-.83l-.17-.04c-.08-.02-.2-.02-.71-.02zm16 0-.64.01-.07.01c-.39.08-.7.35-.83.7l-.04.17c-.02.08-.02.2-.02.71 0 .5 0 .63.02.71.09.44.43.78.87.87h.07c.1.02.26.02.64.02h1c.48 0 .62 0 .7-.02V7.92a6 6 0 0 0-.7-.02zM6.09 3.8q-.7.01-1.17.05c-.56.04-.79.12-.92.19a2.2 2.2 0 0 0-.96.96 3 3 0 0 0-.2 1.02v.05l.13.01c.24.02.55.02 1.03.02q.7 0 1.03-.02c.24-.01.34-.04.4-.06l.09-.05q.34-.19.5-.55l.03-.13q.02-.08.03-.26a17 17 0 0 0 0-1.22M17.9 4q0 .7.02 1.03c.01.24.04.34.06.4q.18.4.6.59l.13.03.26.03c.24.02.55.02 1.03.02l1.16-.03v-.15a3 3 0 0 0-.15-.8L20.96 5a2 2 0 0 0-.81-.87L20 4.04a3 3 0 0 0-.92-.2q-.47-.03-1.17-.03z" clip-rule="evenodd"/></svg>