<svg viewBox="0 0 24 24" xmlns="http://www.w3.org/2000/svg" width="24" height="24"><path d="M10.56 5.7c.48.08.91.34 1.21.73l.1.13c.18.31.24.66.26.94q.04.5.03 1.22v6.56q0 .72-.03 1.22c-.02.28-.08.63-.27.94l-.09.13c-.3.39-.73.65-1.2.72l-.21.02c-.44.03-.8-.15-1.09-.3q-.44-.26-1.02-.67l-1.92-1.32c-.4-.27-.6-.41-.76-.5l-.15-.08a3 3 0 0 0-.66-.24l-.24-.04a8 8 0 0 0-1.07-.03l-.33-.01q-.13 0-.32-.06l-.12-.04a1.4 1.4 0 0 1-.71-.64l-.06-.13a1 1 0 0 1-.1-.44v-3.62q0-.17.1-.44l.06-.13q.24-.45.7-.64l.13-.05q.19-.04.32-.05h.33c.63 0 .86 0 1.07-.04l.24-.04q.35-.09.66-.24l.15-.08c.16-.1.37-.23.76-.5l1.92-1.32.55-.37.47-.3a2 2 0 0 1 1.09-.3zm3.99 2.57a1 1 0 0 1 1.42 0l2.31 2.32 2.3-2.31A1 1 0 0 1 22 9.69L19.7 12l2.3 2.3.07.08a1 1 0 0 1-1.4 1.41l-.08-.07-2.31-2.3-2.31 2.3-.08.07a1 1 0 0 1-1.4-1.4l.06-.08L16.87 12l-2.32-2.31a1 1 0 0 1 0-1.42"/></svg>