<svg viewBox="0 0 24 24" xmlns="http://www.w3.org/2000/svg" width="24" height="24"><path d="M14.69 5.88Q15.43 6 15.9 6.6L16 6.73C16.18 7.04 16.24 7.39 16.26 7.67Q16.3 8.17 16.29 8.9L16.29 15.1Q16.29 15.83 16.26 16.33C16.24 16.61 16.18 16.96 15.99 17.27L15.9 17.4Q15.43 18 14.69 18.12L14.49 18.14C14.05 18.16 13.68 17.99 13.39 17.84L10.72 16.02C10.25 15.69 10 15.52 9.8 15.41L9.62 15.31A3 3 0 0 0 9.09 15.13L8.9 15.09A8 8 0 0 0 7.6 15.04L6.46 15.04Q6.3 15.02 6.07 14.95L5.92 14.89A1.4 1.4 0 0 1 5.37 14.37L5.31 14.27Q5.17 13.96 5.17 13.74L5.16 10.26Q5.17 10.04 5.31 9.72L5.37 9.62Q5.57 9.29 5.92 9.12L6.07 9.05Q6.3 8.98 6.46 8.97L7.6 8.96C8.37 8.96 8.65 8.96 8.9 8.91L9.09 8.87Q9.36 8.81 9.62 8.68L9.8 8.59C10 8.49 10.25 8.31 10.72 7.99L12.92 6.47Q13.17 6.29 13.4 6.17A2 2 0 0 1 14.48 5.86Z"/></svg>