<svg viewBox="0 0 24 24" xmlns="http://www.w3.org/2000/svg" width="24" height="24"><path d="M14.69 5.88q.74.12 1.21.72l.1.13c.18.31.24.66.26.94q.04.5.03 1.23v6.2q0 .73-.03 1.23c-.02.28-.08.63-.27.94l-.09.13q-.47.6-1.21.72l-.2.02c-.44.02-.81-.15-1.1-.3l-.47-.3-.55-.38-1.65-1.14c-.47-.33-.72-.5-.92-.61l-.18-.1a3 3 0 0 0-.53-.18l-.19-.04a8 8 0 0 0-1.3-.05H6.46q-.16-.02-.39-.09l-.15-.06a1.4 1.4 0 0 1-.55-.52l-.06-.1q-.14-.31-.14-.53l-.01-.4v-3.08q.01-.22.15-.54l.06-.1q.2-.33.55-.5l.15-.07q.23-.07.39-.08l.4-.01h.74c.77 0 1.05 0 1.3-.05l.19-.04q.27-.06.53-.19l.18-.09c.2-.1.45-.28.92-.6l1.65-1.15.55-.37q.25-.18.48-.3a2 2 0 0 1 1.08-.31z"/></svg>