<svg viewBox="0 0 24 24" xmlns="http://www.w3.org/2000/svg" width="24" height="24"><path d="M18.7 5.24a.9.9 0 0 1 1.21.03l.07.06.21.27a8 8 0 0 1 1.2 2.55l.11.45a14.4 14.4 0 0 1 0 6.8l-.12.45a7.5 7.5 0 0 1-1.4 2.82.9.9 0 0 1-1.37-1.18c.37-.42.75-1.13 1.05-2.14l.1-.38a12.6 12.6 0 0 0 0-5.94l-.1-.38a6 6 0 0 0-.9-1.97l-.15-.17-.05-.07a.9.9 0 0 1 .15-1.2m-6.96.45.2.02q.75.12 1.22.72l.09.13c.19.31.24.66.27.94q.04.5.03 1.22v6.56q0 .71-.03 1.22c-.03.28-.08.63-.27.94l-.1.13c-.29.39-.72.65-1.2.72l-.2.03c-.44.02-.81-.16-1.1-.31q-.43-.26-1.02-.67l-1.92-1.32-.75-.5-.15-.08a3 3 0 0 0-.67-.24l-.23-.04a8 8 0 0 0-1.07-.03l-.33-.01q-.14 0-.32-.05l-.13-.05a1.4 1.4 0 0 1-.7-.64l-.07-.13a1 1 0 0 1-.1-.44v-3.62q0-.17.1-.44l.06-.13q.24-.45.71-.64l.13-.04q.18-.05.32-.06h.33c.63 0 .86 0 1.07-.04l.23-.04q.35-.09.67-.24l.15-.08.75-.5 1.92-1.32.55-.37.48-.3a2 2 0 0 1 1.08-.3"/><path d="M16.24 8.1a.9.9 0 0 1 1.2.02l.07.06.12.15q.43.58.68 1.46l.07.26q.23.91.23 1.95v.29a8 8 0 0 1-.3 1.91 4 4 0 0 1-.8 1.62l-.07.06a.9.9 0 0 1-1.3-1.24l.1-.13q.17-.24.35-.8.19-.66.22-1.48V12q0-.84-.17-1.52l-.05-.19q-.17-.56-.35-.8l-.1-.13-.05-.07a.9.9 0 0 1 .15-1.2"/></svg>