<svg viewBox="0 0 24 24" xmlns="http://www.w3.org/2000/svg" width="24" height="24"><path d="M1.23 1.26a.9.9 0 0 1 1.27 0l20.2 20.2.06.06a.9.9 0 0 1-1.27 1.27l-.07-.06-20.2-20.2a.9.9 0 0 1 0-1.27m17.76 1.12a.9.9 0 0 1 1.2.03l.07.06.16.19c.76.95 1.4 2.27 1.85 3.84.49 1.67.74 3.57.74 5.5s-.25 3.83-.74 5.5q-.19.63-.4 1.21l-1.42-1.41.1-.3c.43-1.5.66-3.22.66-5s-.23-3.5-.67-5a10 10 0 0 0-1.41-3.06l-.23-.29-.06-.07a.9.9 0 0 1 .15-1.2m-7.62 12.2v.7q0 .72-.03 1.22c-.03.28-.08.63-.27.94l-.1.13c-.29.39-.72.65-1.2.72l-.2.03c-.44.02-.81-.16-1.1-.31q-.43-.26-1.02-.67l-1.92-1.32-.75-.5-.15-.08a3 3 0 0 0-.67-.24l-.23-.04a8 8 0 0 0-1.07-.03l-.33-.01q-.14 0-.32-.05l-.13-.05a1.4 1.4 0 0 1-.7-.64l-.07-.12a1 1 0 0 1-.1-.45v-3.62q0-.17.1-.44l.06-.13q.24-.45.71-.64L2 8.94q.18-.05.32-.06h.33c.63 0 .86 0 1.07-.04l.23-.04q.35-.08.67-.24l.15-.08q.11-.06.3-.2z"/><path d="M16.5 5.24a.9.9 0 0 1 1.28.1 7.5 7.5 0 0 1 1.4 2.81l.12.45c.26 1.05.4 2.22.4 3.4v.5q-.06 1.53-.4 2.9l-.12.45q-.01.08-.04.14l-1.48-1.48q.19-.98.23-2.06l.01-.45c0-1.05-.12-2.07-.34-2.97l-.1-.38c-.3-1-.68-1.72-1.05-2.14a.9.9 0 0 1 .1-1.27M14.04 8.1a.9.9 0 0 1 1.2.02l.07.06.12.15q.43.58.68 1.47l.07.25q.23.92.23 1.95v.29q-.02.45-.08.9l-1.75-1.75a6 6 0 0 0-.14-.96l-.06-.18q-.16-.57-.34-.8l-.1-.14-.05-.07a.9.9 0 0 1 .15-1.2M9.76 5.7c.48.08.91.34 1.2.73l.1.13c.19.31.24.66.27.94q.02.3.02.7L8.93 5.79q.29-.1.62-.1z"/></svg>