<svg viewBox="0 0 24 24" xmlns="http://www.w3.org/2000/svg" width="24" height="24"><path d="M1.23 1.26A.9 .9 0 0 1 2.5 1.26L22.76 21.52A.9 .9 0 0 1 21.49 22.79L1.22 2.53A.9 .9 0 0 1 1.22 1.26M18.98 2.38A.9 .9 0 0 1 20.18 2.41L20.41 2.66C21.17 3.61 21.81 4.93 22.26 6.5C22.75 8.17 23 10.07 23 12C23 13.93 22.75 15.83 22.26 17.5Q22.07 18.13 21.86 18.71L20.44 17.3L20.54 17C20.97 15.5 21.2 13.78 21.2 12C21.2 10.22 20.97 8.5 20.53 7A10 10 0 0 0 19.12 3.94L18.83 3.58A.9 .9 0 0 1 18.98 2.38M11.36 14.58L11.36 15.28Q11.36 16 11.33 16.5C11.3 16.78 11.25 17.13 11.06 17.44L10.96 17.57C10.67 17.96 10.24 18.22 9.76 18.29L9.56 18.32C9.12 18.34 8.75 18.16 8.46 18.01Q8.03 17.75 7.44 17.34L4.62 15.44A3 3 0 0 0 3.95 15.2L3.72 15.16A8 8 0 0 0 2.65 15.13L2.32 15.12Q2.18 15.12 2 15.07L1.87 15.02A1.4 1.4 0 0 1 1.17 14.38L1.1 14.26A1 1 0 0 1 1 13.81L1 10.19Q1 10.02 1.1 9.75L1.16 9.62Q1.4 9.17 1.87 8.98L2 8.94Q2.18 8.89 2.32 8.88L2.65 8.88C3.28 8.88 3.51 8.88 3.72 8.84L3.95 8.8Q4.3 8.72 4.62 8.56L4.77 8.48Q4.88 8.42 5.07 8.28Z"/><path d="M16.5 5.24a.9.9 0 0 1 1.28.1 7.5 7.5 0 0 1 1.4 2.81l.12.45c.26 1.05.4 2.22.4 3.4v.5q-.06 1.53-.4 2.9l-.12.45q-.01.08-.04.14l-1.48-1.48q.19-.98.23-2.06l.01-.45c0-1.05-.12-2.07-.34-2.97l-.1-.38c-.3-1-.68-1.72-1.05-2.14a.9.9 0 0 1 .1-1.27M14.04 8.1A.9 .9 0 0 1 15.24 8.12L15.43 8.33Q15.86 8.91 16.11 9.8L16.18 10.05Q16.41 10.97 16.41 12L16.41 12.29Q16.39 12.74 16.33 13.19L14.58 11.44A6 6 0 0 0 14.44 10.48L14.38 10.3Q14.22 9.73 14.04 9.5L13.89 9.29A.9 .9 0 0 1 14.04 8.09M9.76 5.7c.48.08.91.34 1.2.73l.1.13c.19.31.24.66.27.94q.02.3.02.7L8.93 5.79q.29-.1.62-.1z"/></svg>