<svg viewBox="0 0 24 24" xmlns="http://www.w3.org/2000/svg" width="24" height="24"><path d="M13.6 5.7q.74.13 1.21.73l.1.13c.18.31.24.66.26.94q.04.5.03 1.22v6.56q0 .72-.03 1.22c-.02.28-.08.63-.27.94l-.09.13c-.3.39-.73.65-1.2.72l-.21.02c-.44.03-.8-.15-1.09-.3q-.43-.26-1.02-.67l-1.92-1.32c-.4-.27-.6-.41-.76-.5l-.15-.08a3 3 0 0 0-.66-.24l-.24-.04a8 8 0 0 0-1.07-.03l-.33-.01q-.13 0-.32-.06l-.12-.04a1.4 1.4 0 0 1-.71-.64l-.06-.13a1 1 0 0 1-.1-.44v-3.62q0-.17.1-.44L5 9.62q.24-.45.7-.64l.13-.05q.19-.04.32-.05h.33c.63 0 .86 0 1.07-.04l.24-.04q.34-.09.66-.24l.15-.08c.16-.1.37-.23.76-.5l1.92-1.32.55-.37.47-.3a2 2 0 0 1 1.09-.3zm4.28 2.4a.9.9 0 0 1 1.21.02l.06.06.13.15q.42.58.68 1.47l.07.25q.23.91.23 1.95v.29a8 8 0 0 1-.3 1.91 4 4 0 0 1-.8 1.62l-.07.06a.9.9 0 0 1-1.3-1.24l.1-.13q.16-.24.34-.8.19-.66.22-1.48V12q0-.84-.17-1.52l-.05-.19q-.17-.56-.34-.8l-.1-.13-.05-.07a.9.9 0 0 1 .14-1.2"/></svg>