<svg viewBox="0 0 24 24" xmlns="http://www.w3.org/2000/svg" width="24" height="24"><path fill-rule="evenodd" d="M9.97 2.41a5 5 0 0 1 4.06 0c1.49.66 2.63 2.64 4.9 6.58 2.29 3.95 3.43 5.93 3.26 7.54a5 5 0 0 1-2.04 3.53c-1.31.95-3.6.95-8.15.95s-6.84 0-8.15-.95a5 5 0 0 1-2.04-3.53c-.17-1.61.97-3.59 3.25-7.54 2.28-3.94 3.42-5.92 4.9-6.58M12 15.1a1 1 0 1 0 0 2 1 1 0 0 0 0-2M11.99 7c-.4 0-.64.09-.88.25a.8.8 0 0 0-.36.58v.1l.27 5.28q.02.29.33.49l.07.05q.29.15.57.15c.2 0 .5-.09.67-.2l.07-.05a.6.6 0 0 0 .25-.44l.27-5.28q.02-.4-.36-.66A1.4 1.4 0 0 0 12 7" clip-rule="evenodd"/></svg>