<svg viewBox="0 0 24 24" xmlns="http://www.w3.org/2000/svg" width="24" height="24"><path fill-rule="evenodd" d="M19.85 6.22c.7-.12 1.32.15 1.74.57.42.44.66 1.03.66 1.62 0 .72-.4 1.22-.81 1.53-.4.3-.87.48-1.25.6l-.09.03-4 1.24-.27.11.03.47.05.33v.03l.25 1.76 1.46 5.96.05.23.02.23a2 2 0 0 1-.58 1.45 2.5 2.5 0 0 1-1.77.65q-.97 0-1.62-.63c-.4-.4-.59-.9-.7-1.35V21l-.01-.05-.04-.2a84 84 0 0 0-1-4.05l-.23.92c-.37 1.48-.68 3-.77 3.42-.1.45-.3.96-.7 1.35q-.63.63-1.62.63a2.5 2.5 0 0 1-1.76-.65 1.9 1.9 0 0 1-.56-1.67v-.04l.01-.05.02-.08L7.8 14.5l.26-1.75v-.03a6 6 0 0 0 .09-.95l-.08-.03-4.9-1.37v-.08q-.33-.14-.62-.36c-.42-.31-.8-.81-.8-1.52 0-.59.24-1.19.66-1.62a2 2 0 0 1 1.89-.54l.39.11c1.2.3 4.77 1.15 7.29 1.15 2.71 0 6.64-.98 7.52-1.2l.14-.04.04-.02h.02zM20.1 8h-.02l-.12.04c-.83.22-5 1.27-7.99 1.27-2.79 0-6.58-.91-7.75-1.2l-.04-.02-.03-.01L3.89 8h-.11l-.09.06a.5.5 0 0 0-.14.35l.02.03.07.06q.21.15.72.33l.16.05 4.07 1.14h.03l.02.01q.42.14.72.38.32.27.43.55c.18.43.17.94.15 1.25-.02.33-.07.63-.1.8l-.26 1.8-.01.04v.04L8.1 20.95V21l.03.09c.05.04.2.14.51.14.24 0 .32-.07.35-.1q.11-.07.21-.48c.08-.33.4-1.96.78-3.46.19-.75.4-1.5.6-2.08q.16-.45.36-.8.1-.16.28-.36c.12-.11.37-.32.75-.32l.15.01c.33.05.54.25.63.34q.17.2.27.39.2.37.36.85c.23.63.46 1.45.66 2.25a74 74 0 0 1 .68 2.92l.04.2.01.06.05.18q.1.23.16.3c.04.03.12.1.35.1.32 0 .47-.1.51-.14q.07-.06.04-.1 0-.05-.02-.08v-.01l-1.46-6-.01-.05-.01-.04-.26-1.8c-.18-1.04-.1-1.64.1-2.01l.02-.04.02-.04.02-.02v-.02c.15-.2.35-.35.5-.44q.3-.18.75-.33l.02-.01 4-1.25.04-.01h.02l.24-.1q.34-.12.5-.24l.09-.08V8.4a.5.5 0 0 0-.14-.35L20.22 8zm-4.32 3.88.01-.01v-.01z" clip-rule="evenodd"/><path fill-rule="evenodd" d="M11.42.76a3 3 0 0 1 2.7 5.06l-.22.2a3 3 0 0 1-1.9.68l-.22-.01a3 3 0 0 1-1.26-.38l-.19-.12a3 3 0 0 1-1.01-1.14l-.1-.2a3 3 0 0 1-.2-1.52l.04-.22a3 3 0 0 1 .67-1.37l.15-.16A3 3 0 0 1 11.2.8zm.35 1.76A1.2 1.2 0 1 0 13.2 3.7l-.01-.18a1.2 1.2 0 0 0-1.42-1" clip-rule="evenodd"/></svg>