<svg viewBox="0 0 24 24" xmlns="http://www.w3.org/2000/svg" width="24" height="24"><path d="M11.36 16.3a.9.9 0 0 1 0 1.8H8.72l-.1-.01a.9.9 0 0 1 0-1.8h2.74m3.92-3.99a.9.9 0 0 1 0 1.8H8.72l-.1-.01a.9.9 0 0 1 0-1.8zm0-3.99a.9.9 0 0 1 0 1.8H8.72l-.1-.01a.9.9 0 0 1 0-1.8z"/><path fill-rule="evenodd" d="M12 .84a2.56 2.56 0 0 1 2.56 2.57v.78q.34 0 .64.03c.72.06 1.35.19 1.93.48a5 5 0 0 1 2.14 2.14l.1.22q.31.77.37 1.7.07 1.06.06 2.7v3.46q.02 1.64-.06 2.7a5 5 0 0 1-.37 1.7l-.1.22a5 5 0 0 1-1.97 2.05l-.17.1c-.58.29-1.2.41-1.93.47q-1.06.07-2.7.06h-1q-1.64.02-2.7-.06a5 5 0 0 1-1.7-.37l-.22-.1a5 5 0 0 1-2.15-2.15 5 5 0 0 1-.47-1.92q-.08-1.06-.06-2.7v-3.45q-.01-1.65.06-2.7c.06-.73.18-1.35.47-1.93A5 5 0 0 1 6.87 4.7c.58-.3 1.2-.42 1.93-.48l.64-.03V3.4A2.56 2.56 0 0 1 12 .84m-.5 5.13c-1.13 0-1.93 0-2.55.05s-.98.14-1.26.28a3 3 0 0 0-1.35 1.36c-.14.28-.24.64-.29 1.25C6 9.53 6 10.33 6 11.47v3.45c0 1.13 0 1.93.05 2.55s.15.98.29 1.26q.46.88 1.35 1.35l.11.05c.27.12.61.2 1.15.24.62.05 1.42.05 2.55.05h1c1.14 0 1.93 0 2.55-.05a3 3 0 0 0 1.26-.29l.21-.12q.74-.46 1.14-1.23l.05-.11c.12-.27.2-.61.24-1.15.05-.62.05-1.42.05-2.55v-3.45c0-1.14 0-1.94-.05-2.56a4 4 0 0 0-.24-1.14l-.05-.11a3 3 0 0 0-1.35-1.36 3 3 0 0 0-1.26-.28c-.62-.05-1.41-.05-2.55-.05zm.5-3.32a.76.76 0 0 0-.76.76v.76h1.52V3.4a.76.76 0 0 0-.76-.76" clip-rule="evenodd"/></svg>