<svg viewBox="0 0 24 24" xmlns="http://www.w3.org/2000/svg" width="24" height="24"><path d="M12 15.1A1 1 0 1 1 12 17.1A1 1 0 0 1 12 15.1M11.99 7C12.4 7 12.65 7.1 12.89 7.26Q13.27 7.53 13.25 7.93L12.98 13.2A0.6 0.6 0 0 1 12.73 13.65L12.66 13.7C12.48 13.81 12.19 13.9 11.99 13.9Q11.69 13.9 11.42 13.74L11.35 13.7Q11.05 13.5 11.02 13.2L10.75 7.93L10.75 7.83A0.8 0.8 0 0 1 11.11 7.25C11.35 7.09 11.58 7 11.99 7"/><path fill-rule="evenodd" d="M12 1A11 11 0 1 1 12 23A11 11 0 0 1 12 1M12 2.5A9.5 9.5 0 1 0 12 21.5A9.5 9.5 0 0 0 12 2.5" clip-rule="evenodd"/></svg>