<svg viewBox="0 0 24 24" xmlns="http://www.w3.org/2000/svg" width="24" height="24"><path d="M1 12a11 11 0 1 0 22 0a11 11 0 1 0 -22 0ZM2.8 12a9.2 9.2 0 1 1 18.4 0a9.2 9.2 0 1 1 -18.4 0ZM9.17 8.2L9.17 8.2C9.17 8.2 9.17 8.2 9.17 8.2A1.18 1.18 0 0 1 10.35 9.38C10.35 9.38 10.35 9.38 10.35 9.38L10.35 9.82C10.35 9.82 10.35 9.82 10.35 9.82A1.18 1.18 0 0 1 9.17 11C9.17 11 9.17 11 9.17 11L9.17 11C9.17 11 9.17 11 9.17 11A1.18 1.18 0 0 1 7.99 9.82C7.99 9.82 7.99 9.82 7.99 9.82L7.99 9.38C7.99 9.38 7.99 9.38 7.99 9.38A1.18 1.18 0 0 1 9.17 8.2C9.17 8.2 9.17 8.2 9.17 8.2ZM14.83 8.2L14.83 8.2C14.83 8.2 14.83 8.2 14.83 8.2A1.18 1.18 0 0 1 16.01 9.38C16.01 9.38 16.01 9.38 16.01 9.38L16.01 9.82C16.01 9.82 16.01 9.82 16.01 9.82A1.18 1.18 0 0 1 14.83 11C14.83 11 14.83 11 14.83 11L14.83 11C14.83 11 14.83 11 14.83 11A1.18 1.18 0 0 1 13.65 9.82C13.65 9.82 13.65 9.82 13.65 9.82L13.65 9.38C13.65 9.38 13.65 9.38 13.65 9.38A1.18 1.18 0 0 1 14.83 8.2C14.83 8.2 14.83 8.2 14.83 8.2ZM8.885 13.59L15.115 13.59C15.115 13.59 15.115 13.59 15.115 13.59A.9 .9 0 0 1 16.015 14.49C16.015 14.49 16.015 14.49 16.015 14.49L16.015 14.49C16.015 14.49 16.015 14.49 16.015 14.49A.9 .9 0 0 1 15.115 15.39C15.115 15.39 15.115 15.39 15.115 15.39L8.885 15.39C8.885 15.39 8.885 15.39 8.885 15.39A.9 .9 0 0 1 7.985 14.49C7.985 14.49 7.985 14.49 7.985 14.49L7.985 14.49C7.985 14.49 7.985 14.49 7.985 14.49A.9 .9 0 0 1 8.885 13.59C8.885 13.59 8.885 13.59 8.885 13.59Z"/></svg>