<svg viewBox="0 0 24 24" xmlns="http://www.w3.org/2000/svg" width="24" height="24"><path fill-rule="evenodd" d="M5.56 15.5a2.5 2.5 0 0 1 2.25 4.22l-.18.16c-.44.37-1 .57-1.58.57h-.19a2.5 2.5 0 0 1-1.04-.32l-.16-.1a2.5 2.5 0 0 1-.85-.95l-.07-.17a2.5 2.5 0 0 1-.17-1.26l.02-.19q.14-.65.56-1.14l.13-.14q.46-.45 1.1-.64zm.35 1.76a.7.7 0 1 0 .84.69l-.01-.1a.7.7 0 0 0-.83-.59m5.65-1.76a2.5 2.5 0 0 1 2.25 4.22l-.18.16c-.44.37-1 .57-1.58.57h-.19a2.5 2.5 0 0 1-1.04-.32l-.16-.1a2.5 2.5 0 0 1-.85-.95l-.07-.17a2.5 2.5 0 0 1-.17-1.26l.02-.19q.14-.65.56-1.14l.13-.14q.46-.45 1.1-.64zm.35 1.76a.7.7 0 1 0 .84.69l-.01-.1a.7.7 0 0 0-.83-.59m5.65-1.76a2.5 2.5 0 0 1 2.25 4.22l-.18.16c-.44.37-1 .57-1.58.57h-.19a2.5 2.5 0 0 1-1.04-.32l-.16-.1a2.5 2.5 0 0 1-.85-.95l-.07-.17a2.5 2.5 0 0 1-.17-1.26l.02-.19q.14-.65.56-1.14l.13-.14q.46-.45 1.1-.64zm.35 1.76a.7.7 0 1 0 .84.69l-.01-.1a.7.7 0 0 0-.83-.59M5.56 9.55a2.5 2.5 0 0 1 2.25 4.22l-.18.16c-.44.37-1 .57-1.58.57h-.19a2.5 2.5 0 0 1-1.04-.32l-.16-.1a2.5 2.5 0 0 1-.85-.95l-.07-.17a2.5 2.5 0 0 1-.17-1.26l.02-.19q.14-.65.56-1.14l.13-.14q.46-.46 1.1-.64zm.35 1.76a.7.7 0 1 0 .84.69l-.01-.1a.7.7 0 0 0-.83-.59m5.65-1.76a2.5 2.5 0 0 1 2.25 4.22l-.18.16c-.44.37-1 .57-1.58.57h-.19a2.5 2.5 0 0 1-1.04-.32l-.16-.1a2.5 2.5 0 0 1-.85-.95l-.07-.17a2.5 2.5 0 0 1-.17-1.26l.02-.19q.14-.65.56-1.14l.13-.14q.46-.46 1.1-.64zm.35 1.76a.7.7 0 1 0 .84.69l-.01-.1a.7.7 0 0 0-.83-.59m5.65-1.76a2.5 2.5 0 0 1 2.25 4.22l-.18.16c-.44.37-1 .57-1.58.57h-.19a2.5 2.5 0 0 1-1.04-.32l-.16-.1a2.5 2.5 0 0 1-.85-.95l-.07-.17a2.5 2.5 0 0 1-.17-1.26l.02-.19q.14-.65.56-1.14l.13-.14q.46-.46 1.1-.64zm.35 1.76a.7.7 0 1 0 .84.69l-.01-.1a.7.7 0 0 0-.83-.59M5.56 3.6a2.5 2.5 0 0 1 2.25 4.2l-.18.17c-.44.36-1 .57-1.58.57l-.19-.01a2.5 2.5 0 0 1-1.04-.32l-.16-.1a2.5 2.5 0 0 1-.85-.95L3.74 7a2.5 2.5 0 0 1-.17-1.26l.02-.18q.14-.65.56-1.14l.13-.14q.46-.46 1.1-.64zm.35 1.76a.7.7 0 1 0 .84.69l-.01-.1a.7.7 0 0 0-.83-.59m5.65-1.76a2.5 2.5 0 0 1 2.24 4.2l-.18.17c-.44.36-1 .57-1.58.57l-.19-.01a2.5 2.5 0 0 1-1.04-.32l-.16-.1a2.5 2.5 0 0 1-.85-.95L9.74 7a2.5 2.5 0 0 1-.17-1.26l.02-.18q.14-.65.56-1.14l.13-.14q.46-.46 1.1-.64zm.35 1.76a.7.7 0 1 0 .84.69l-.01-.1a.7.7 0 0 0-.83-.59m5.65-1.76a2.5 2.5 0 0 1 2.24 4.2l-.18.17c-.44.36-1 .57-1.58.57l-.19-.01a2.5 2.5 0 0 1-1.04-.32l-.16-.1a2.5 2.5 0 0 1-.85-.95L15.74 7a2.5 2.5 0 0 1-.17-1.26l.02-.18q.14-.65.56-1.14l.13-.14q.46-.46 1.1-.64zm.35 1.76a.7.7 0 1 0 .84.69l-.01-.1a.7.7 0 0 0-.83-.59" clip-rule="evenodd"/></svg>