<svg viewBox="0 0 24 24" xmlns="http://www.w3.org/2000/svg" width="24" height="24"><path d="M14.36 9.77a.9.9 0 0 1 1.28 1.27l-2.37 2.37 2.37 2.36.06.07a.9.9 0 0 1-1.27 1.26l-.07-.06L12 14.68l-2.36 2.36a.9.9 0 0 1-1.28-1.27l2.37-2.36-2.37-2.37-.06-.07a.9.9 0 0 1 1.27-1.26l.07.06L12 12.13z"/><path fill-rule="evenodd" d="M15.63 2.58c.96 0 1.87.4 2.52 1.1l1.9 2.08c.58.63.9 1.46.9 2.31v8.78c0 2.35-1.9 4.26-4.26 4.26H7.31a4.26 4.26 0 0 1-4.26-4.26V8.07a3.4 3.4 0 0 1 .87-2.29l.03-.02 1.9-2.08c.65-.7 1.56-1.1 2.52-1.1zm-10.6 4.7q-.2.38-.2.8v8.77a2.5 2.5 0 0 0 2.48 2.48h9.38a2.5 2.5 0 0 0 2.48-2.48V8.07q0-.41-.2-.78zm3.34-2.92c-.46 0-.9.19-1.2.53l-.57.62h10.8l-.56-.62a1.6 1.6 0 0 0-1.2-.53z" clip-rule="evenodd"/></svg>