<svg viewBox="0 0 24 24" xmlns="http://www.w3.org/2000/svg" width="24" height="24"><path d="M14.36 9.77A.9 .9 0 0 1 15.64 11.04L13.27 13.41L15.7 15.84A.9 .9 0 0 1 14.43 17.1L12 14.68L9.64 17.04A.9 .9 0 0 1 8.36 15.77L10.73 13.41L8.3 10.97A.9 .9 0 0 1 9.57 9.71L12 12.13Z"/><path fill-rule="evenodd" d="M15.63 2.58C16.59 2.58 17.5 2.98 18.15 3.68L20.05 5.76C20.63 6.39 20.95 7.22 20.95 8.07L20.95 16.85C20.95 19.2 19.05 21.11 16.69 21.11L7.31 21.11A4.26 4.26 0 0 1 3.05 16.85L3.05 8.07A3.4 3.4 0 0 1 3.92 5.78L5.85 3.68C6.5 2.98 7.41 2.58 8.37 2.58ZM5.03 7.28q-.2.38-.2.8v8.77a2.5 2.5 0 0 0 2.48 2.48h9.38a2.5 2.5 0 0 0 2.48-2.48V8.07q0-.41-.2-.78zm3.34-2.92c-.46 0-.9.19-1.2.53l-.57.62h10.8l-.56-.62a1.6 1.6 0 0 0-1.2-.53z" clip-rule="evenodd"/></svg>