<svg viewBox="0 0 24 24" xmlns="http://www.w3.org/2000/svg" width="24" height="24"><path d="M12.3 6.97A.5 .5 0 0 1 12.83 7.05L16.63 10.42C17.28 11.01 17.28 12.04 16.62 12.62L12.83 15.99A.49 .49 0 0 1 12.02 15.62L12.02 13.78C10.92 13.82 10.15 14.01 9.56 14.32C8.88 14.66 8.36 15.18 7.79 15.92A.5 .5 0 0 1 6.91 15.62C6.91 14.12 7.16 12.54 8.01 11.32C8.81 10.16 10.1 9.4 12.01 9.28L12.02 7.35Q12.07 7.09 12.31 6.97"/><path fill-rule="evenodd" d="M12 1A11 11 0 1 1 12 23A11 11 0 0 1 12 1M12 2.8A9.2 9.2 0 1 0 12 21.2A9.2 9.2 0 0 0 12 2.8" clip-rule="evenodd"/></svg>