<svg viewBox="0 0 24 24" xmlns="http://www.w3.org/2000/svg" width="24" height="24"><path d="M13.423 3.031A.9 .9 0 0 0 12.457 2.882A.9 .9 0 0 0 11.925 3.703L11.925 7.392A10.57 10.57 0 0 0 2.321 20.338A.9 .9 0 0 0 3.027 21.018A.9 .9 0 0 0 3.935 20.65A10 10 0 0 1 11.925 16.382L11.925 20.291A.9 .9 0 0 0 12.456 21.112A.9 .9 0 0 0 13.422 20.964L20.99 14.255A3 3 0 0 0 20.995 9.769L13.423 3.031ZM13.725 5.709L19.798 11.114A1.2 1.2 0 0 1 19.796 12.908L13.725 18.29L13.725 15.502A.9 .9 0 0 0 12.883 14.604A11.8 11.8 0 0 0 3.845 17.978A8.77 8.77 0 0 1 12.806 9.172A.9 .9 0 0 0 13.725 8.272L13.725 5.709Z"/></svg>