<svg viewBox="0 0 24 24" xmlns="http://www.w3.org/2000/svg" width="24" height="24"><path d="M11.51 3.1c-.4-.18-.88-.11-1.21.19L3.96 8.9q-.65.56-1.07 1c-.29.3-.56.65-.72 1.1a3 3 0 0 0 0 2c.16.44.43.79.72 1.09q.43.44 1.07 1l6.34 5.62a1.13 1.13 0 0 0 1.88-.85v-3.34c2 .1 3.38.46 4.46 1 1.27.65 2.23 1.63 3.34 3.04a1.13 1.13 0 0 0 2.02-.7c0-2.88-.49-5.97-2.15-8.36-1.55-2.24-4.03-3.72-7.67-3.97v-3.4l-.01-.17c-.06-.37-.3-.7-.66-.86m-1.13 4.44c0 .94.73 1.73 1.68 1.8 3.15.21 5.1 1.46 6.31 3.2a11.3 11.3 0 0 1 1.75 5.42 10 10 0 0 0-2.67-2.03c-1.36-.7-3.01-1.1-5.18-1.2a1.8 1.8 0 0 0-1.89 1.8v1.85l-5.22-4.63c-.45-.4-.75-.66-.97-.9l-.13-.14a1 1 0 0 1-.2-.3l-.02-.1a1.2 1.2 0 0 1 .03-.7l.03-.09q.06-.13.3-.37c.2-.23.51-.5.96-.9l5.22-4.63z"/></svg>