<svg viewBox="0 0 24 24" xmlns="http://www.w3.org/2000/svg" width="24" height="24"><path d="M12.49 3.1C12.89 2.92 13.37 2.99 13.7 3.29L20.04 8.91Q20.69 9.47 21.11 9.91Q21.57 10.35 21.83 11.01A3 3 0 0 1 21.83 13.01A3 3 0 0 1 21.11 14.1Q20.68 14.54 20.04 15.1L13.7 20.72A1.13 1.13 0 0 1 11.82 19.87L11.82 16.53C9.82 16.63 8.44 16.99 7.36 17.53A10 10 0 0 0 4.02 20.57A1.13 1.13 0 0 1 2 19.87C2 16.99 2.49 13.9 4.15 11.51C5.7 9.27 8.18 7.8 11.82 7.54L11.83 3.96C11.89 3.59 12.13 3.26 12.49 3.1M13.62 7.54a1.8 1.8 0 0 1-1.68 1.8c-3.15.21-5.1 1.46-6.31 3.2a11.3 11.3 0 0 0-1.75 5.42 10 10 0 0 1 2.67-2.03c1.36-.7 3.01-1.1 5.18-1.2a1.8 1.8 0 0 1 1.89 1.8v1.85l5.22-4.63c.45-.4.75-.66.97-.9l.13-.14a1 1 0 0 0 .2-.3l.02-.1a1.2 1.2 0 0 0-.03-.7l-.03-.09q-.06-.13-.3-.37c-.2-.23-.51-.5-.96-.9l-5.22-4.63z"/></svg>