<svg viewBox="0 0 24 24" xmlns="http://www.w3.org/2000/svg" width="24" height="24"><path d="M10.577 3.031L3.005 9.769A3 3 0 0 0 3.012 14.257L10.579 20.951A.9 .9 0 0 0 11.545 21.098A.9 .9 0 0 0 12.075 20.277L12.075 16.382A10 10 0 0 1 20.065 20.65A.9 .9 0 0 0 20.973 21.018A.9 .9 0 0 0 21.679 20.338A10.57 10.57 0 0 0 12.075 7.392L12.075 3.703A.9 .9 0 0 0 11.543 2.882A.9 .9 0 0 0 10.577 3.031ZM10.275 5.709L10.275 8.272A.9 .9 0 0 0 11.194 9.172A8.77 8.77 0 0 1 20.155 17.978A11.8 11.8 0 0 0 11.117 14.604A.9 .9 0 0 0 10.275 15.502L10.275 18.279L4.205 12.909A1.2 1.2 0 0 1 4.202 11.114L10.275 5.709Z"/></svg>