<svg viewBox="0 0 24 24" xmlns="http://www.w3.org/2000/svg" width="24" height="24"><path d="M14.07 11.58a.9.9 0 0 1 1.53.96l-3.11 4.93-.3.44c-.1.13-.26.32-.52.44-.32.15-.7.17-1.04.06l-.1-.04q-.32-.16-.47-.34l-.34-.4-1.26-1.56-.05-.07a.9.9 0 0 1 1.45-1.06l1.18 1.46z"/><path fill-rule="evenodd" d="M12.27 1a5 5 0 0 1 4.74 5v1.04c1.09.05 1.84.18 2.47.5a5 5 0 0 1 2.19 2.19c.54 1.07.54 2.47.54 5.27s0 4.2-.54 5.27l-.1.17a5 5 0 0 1-2.09 2.02l-.2.1c-.77.32-1.72.4-3.21.43L14.2 23H7.93c-1.49-.03-2.44-.12-3.2-.45l-.21-.1a5 5 0 0 1-2.1-2l-.09-.18C1.8 19.2 1.8 17.8 1.8 15c0-2.63 0-4.02.45-5.07l.1-.2a5 5 0 0 1 2-2.1l.18-.09A6 6 0 0 1 7 7.04V5.99a5 5 0 0 1 4.74-4.98L12 1zM9.8 8.8c-1.43 0-2.4 0-3.14.06-.72.06-1.08.17-1.32.29-.6.3-1.09.8-1.4 1.4-.12.24-.22.59-.28 1.31-.06.75-.06 1.71-.06 3.14s0 2.4.06 3.14c.06.72.16 1.07.28 1.31.31.6.8 1.1 1.4 1.4l.2.09c.24.08.58.15 1.12.2.74.06 1.7.06 3.14.06h4.42c1.43 0 2.4 0 3.14-.06a4 4 0 0 0 1.32-.29l.22-.12q.75-.48 1.18-1.28l.08-.2c.09-.24.16-.57.2-1.11.06-.75.06-1.71.06-3.14s0-2.4-.06-3.14a4 4 0 0 0-.2-1.1l-.08-.21a3 3 0 0 0-1.18-1.28l-.22-.12c-.24-.12-.6-.23-1.32-.29-.74-.06-1.7-.06-3.14-.06zm2.2-6a3.2 3.2 0 0 0-3.2 3.03V7h6.42V6a3.2 3.2 0 0 0-3.03-3.2z" clip-rule="evenodd"/></svg>