<svg viewBox="0 0 24 24" xmlns="http://www.w3.org/2000/svg" width="24" height="24"><path d="M18.37 8.08c.49.06.84.5.78 1l-.93 8.25q-.16 1.44-.37 2.4c-.16.66-.4 1.24-.86 1.73q-.27.3-.6.51c-.55.38-1.16.54-1.86.62q-.99.09-2.48.07h-.1q-1.5.02-2.48-.07a4 4 0 0 1-1.86-.62 4 4 0 0 1-.6-.5 3.7 3.7 0 0 1-.86-1.75q-.2-.95-.37-2.39l-.95-8.25a.9.9 0 0 1 1.78-.22l.95 8.2c.13 1.02.22 1.72.34 2.24.12.5.26.75.42.93q.15.14.31.26c.2.14.49.25 1.03.3.55.07 1.28.07 2.34.07s1.79 0 2.34-.06a2 2 0 0 0 1.03-.3l.3-.27a2 2 0 0 0 .43-.93c.12-.52.21-1.22.34-2.24l.92-8.2a.9.9 0 0 1 1-.78"/><path fill-rule="evenodd" d="M12.13 2.06c.62 0 1.14 0 1.59.14.82.27 1.47.9 1.76 1.72q.14.42.15.94h4.08a.9.9 0 0 1 0 1.8H4.3a.9.9 0 0 1 0-1.8h4.08q0-.52.15-.94a2.8 2.8 0 0 1 1.76-1.72c.45-.15.97-.14 1.59-.14zM12 3.86c-.82 0-1.02 0-1.15.05a1 1 0 0 0-.64.61c-.02.06-.03.14-.04.34h3.66c-.01-.2-.02-.28-.04-.34a1 1 0 0 0-.64-.6A5 5 0 0 0 12 3.85" clip-rule="evenodd"/></svg>