<svg viewBox="0 0 24 24" xmlns="http://www.w3.org/2000/svg" width="24" height="24"><path fill-rule="evenodd" d="M15.87 1.6a3.25 3.25 0 0 1 3.3 3.27v12.89q0 .94-.03 1.55c-.04.37-.1.87-.44 1.24-.41.47-1.02.7-1.64.64-.5-.06-.89-.37-1.16-.62q-.45-.43-1.07-1.12L12.5 16.9q-.3-.34-.43-.46L12 16.4h-.03l-.06.05-.44.45-2.29 2.45q-.62.7-1.07 1.1c-.27.25-.66.56-1.16.61a1.9 1.9 0 0 1-1.62-.64c-.33-.38-.4-.87-.44-1.23q-.04-.61-.03-1.54V4.85A3.2 3.2 0 0 1 8.14 1.6zM8.14 3.4c-.4 0-.81.16-1.08.43q-.4.38-.4 1.03v12.79a18 18 0 0 0 .06 1.61q.06-.02.19-.14.31-.29.96-1l2.29-2.45.54-.55c.18-.16.4-.33.68-.43l.15-.04a2 2 0 0 1 1.08.05q.42.17.68.43.25.23.54.56l2.32 2.54a19 19 0 0 0 1.15 1.16q.03-.05.04-.24.04-.43.03-1.4V4.86c0-.38-.15-.75-.43-1.02a1.5 1.5 0 0 0-1.07-.44z" clip-rule="evenodd"/></svg>