<svg viewBox="0 0 24 24" xmlns="http://www.w3.org/2000/svg" width="24" height="24"><path fill-rule="evenodd" d="M16.91 1.63a2.66 2.66 0 0 1 2.65 2.62v10.6q0 .75-.02 1.26c-.03.3-.08.71-.32 1.06a1.84 1.84 0 0 1-2.66.42v.07q0 .88-.03 1.45c-.03.36-.1.82-.42 1.2-.39.45-.98.7-1.58.66a2 2 0 0 1-1.14-.53q-.45-.37-1.07-.99l-1.33-1.28-.42-.4-.06-.04h-.02l-.06.05c-.1.07-.21.19-.42.39l-1.32 1.3q-.62.6-1.07.99c-.27.22-.66.5-1.15.53-.6.05-1.19-.2-1.58-.66a2 2 0 0 1-.42-1.2q-.04-.58-.03-1.46V7.25a2.6 2.6 0 0 1 2.64-2.62h.36v-.38a2.6 2.6 0 0 1 2.64-2.62zm-9.83 4.8a1 1 0 0 0-.62.24.8.8 0 0 0-.22.58v10.42a17 17 0 0 0 .06 1.52l.18-.13q.31-.26.95-.89l1.32-1.3.53-.48q.24-.22.64-.37l.14-.04a2 2 0 0 1 1.01.04q.4.14.65.37.25.2.52.48l1.33 1.3a17 17 0 0 0 1.12 1h.01l.03-.22c.03-.28.03-.68.03-1.3V7.26a.8.8 0 0 0-.24-.58 1 1 0 0 0-.61-.24zm3-3a1 1 0 0 0-.62.24.8.8 0 0 0-.22.58v.38h4.67a2.66 2.66 0 0 1 2.65 2.62v7.93l.15.11a17 17 0 0 0 .97.88l.03-.01.03-.2q.03-.34.02-1.12V4.25a.8.8 0 0 0-.24-.58 1 1 0 0 0-.61-.24z" clip-rule="evenodd"/></svg>