<svg viewBox="0 0 24 24" xmlns="http://www.w3.org/2000/svg" width="24" height="24"><path fill-rule="evenodd" d="M12.23 2.3c.48-1.26 2.2-1.74 3.22-.73l3.27 3.23c.62.62.84 1.54.54 2.37l-.36 1v.02l.02.02q.02.03.05.03l.07-.01a1.9 1.9 0 0 1 2.14.37l.37.35a2.5 2.5 0 0 1-.05 3.62l-5.62 5.3c.17.62 0 1.31-.51 1.8l-1.05.98a2.4 2.4 0 0 1-3.32-.04l-.6-.59c-.25-.25-.85-.25-1.17.18a7.4 7.4 0 0 1-2.76 2.42 3.3 3.3 0 0 1-1.9.25 3.5 3.5 0 0 1-1.88-1.03 3.4 3.4 0 0 1-1.03-1.87 3.2 3.2 0 0 1 .32-1.87 7.4 7.4 0 0 1 2.57-2.61q.3-.23.37-.55a.5.5 0 0 0-.15-.5l-.6-.58c-.92-.92-.9-2.4.04-3.29l1.05-.99a1.9 1.9 0 0 1 1.86-.42l2.32-2.2c1.24-1.17 2.2-3.09 2.8-4.66m-5.67 8.56-.07.03-1.05.98a.5.5 0 0 0 0 .72l.59.58c1.19 1.18.72 3.01-.5 3.81-.9.6-1.63 1.28-1.94 1.92q-.22.45-.16.8c.04.22.17.52.52.87.36.35.67.5.93.54q.39.06.88-.14c.68-.3 1.4-.99 2.04-1.84.86-1.15 2.7-1.53 3.86-.38l.6.59c.22.22.6.22.83 0l1.05-.98v-.04l-7.51-7.43zm7.5-8.03q-.14.04-.15.1c-.62 1.65-1.7 3.88-3.24 5.34l-2.12 2 6.23 6.16 5.5-5.17a.7.7 0 0 0 0-1.03l-.36-.36-.05-.03-.07.01c-1.43.67-3.17-.64-2.59-2.28l.36-1a.5.5 0 0 0-.11-.5L14.2 2.85q-.03-.04-.14-.02" clip-rule="evenodd"/></svg>