<svg viewBox="0 0 24 24" xmlns="http://www.w3.org/2000/svg" width="24" height="24"><path d="M8.4 16.2A.9 .9 0 0 0 9.3 17.1A.9 .9 0 0 0 10.2 16.2L10.2 15.688A2.41 2.41 0 0 0 9.495 13.985L7.938 12.426A5.74 5.74 0 0 1 7.942 4.31A5.74 5.74 0 0 1 16.058 4.31A5.74 5.74 0 0 1 16.062 12.426L14.505 13.985A2.41 2.41 0 0 0 13.8 15.688L13.8 16.2A.9 .9 0 0 0 14.7 17.1A.9 .9 0 0 0 15.6 16.2L15.6 15.688A.61 .61 0 0 1 15.778 15.257L17.335 13.698A7.54 7.54 0 0 0 17.33 3.037A7.54 7.54 0 0 0 6.67 3.037A7.54 7.54 0 0 0 6.665 13.698L8.222 15.257A.61 .61 0 0 1 8.4 15.688L8.4 16.2ZM9.792 18.39A.9 .9 0 0 0 8.922 19.523L9.295 20.915A2.8 2.8 0 0 0 12 22.99A2.8 2.8 0 0 0 14.705 20.915L15.078 19.523A.9 .9 0 0 0 14.208 18.39L9.792 18.39ZM11 20.19L13 20.19A1 1 0 0 1 12 21.17A1 1 0 0 1 11 20.19ZM13.2 9.54A.9 .9 0 1 1 14.28 10.98A6 6 0 0 1 12.9 11.73L12.9 16.2A.9 .9 0 0 1 11.1 16.2L11.1 11.73A6 6 0 0 1 9.72 10.98A.9 .9 0 1 1 10.8 9.54A4 4 0 0 0 12 10.09A4 4 0 0 0 13.2 9.54Z"/></svg>