<svg viewBox="0 0 24 24" xmlns="http://www.w3.org/2000/svg" width="24" height="24"><path fill-rule="evenodd" d="M14.2 18.39a.9.9 0 0 1 .87 1.13l-.36 1.4a2.8 2.8 0 0 1-5.41-.01l-.36-1.4a.9.9 0 0 1 .87-1.12zm-3.16 2.06a1 1 0 0 0 1.92 0l.08-.26h-2.07z" clip-rule="evenodd"/><path d="M12 .84a7.46 7.46 0 0 1 7.5 7.5c0 2.06-.7 3.9-2.03 5.3l-.27.29q-.42.38-.76.64-.34.25-.53.43a.9.9 0 0 0-.31.75v.45a.9.9 0 0 1-1.8 0v-.45c0-.94.36-1.56.86-2.04q.35-.32.68-.57t.62-.51l.2-.21a5.8 5.8 0 0 0 1.53-4.09A5.66 5.66 0 0 0 12 2.64a5.67 5.67 0 0 0-5.7 5.69v.32c.08 1.57.7 3 1.73 3.97l.3.26q.14.13.32.25c.2.16.46.35.68.57.5.48.86 1.1.86 2.05v.45a.9.9 0 0 1-1.8 0v-.45c0-.39-.11-.56-.32-.76q-.18-.18-.52-.43-.25-.19-.55-.45l-.2-.18a7.6 7.6 0 0 1-2.3-5.2v-.4A7.47 7.47 0 0 1 12 .84"/><path d="M13.2 9.54A.9 .9 0 1 1 14.28 10.98L13.74 10.26L14.26 10.99L14.21 11.03A6 6 0 0 1 12.9 11.73L12.9 16.2A.9 .9 0 0 1 11.1 16.2L11.1 11.72A5 5 0 0 1 9.79 11.02L9.73 10.99L10.26 10.26L9.72 10.98A.9 .9 0 0 1 10.8 9.54L10.82 9.56A4 4 0 0 0 12 10.09Q12.22 10.09 12.73 9.84L13.18 9.56Z"/></svg>