<svg viewBox="0 0 24 24" xmlns="http://www.w3.org/2000/svg" width="24" height="24"><path fill-rule="evenodd" d="M9.9 9.9c1.06 0 1.9.85 1.9 1.9v2a1.9 1.9 0 0 1-1.9 1.9h-2A1.9 1.9 0 0 1 6 13.8v-2c0-1.05.86-1.9 1.9-1.9zm-2 1.8a.1.1 0 0 0-.1.1v2q.01.09.1.1h2a.1.1 0 0 0 .1-.1v-2a.1.1 0 0 0-.1-.1z" clip-rule="evenodd"/><path fill-rule="evenodd" d="M16.17.85c.5 0 .9.4.9.9v.53a4.9 4.9 0 0 1 4.4 4.87v9.15c0 2.7-2.2 4.9-4.9 4.9H7.43a4.9 4.9 0 0 1-4.9-4.9V7.15a4.9 4.9 0 0 1 4.42-4.87v-.53a.9.9 0 0 1 1.8 0v.5h6.52v-.5c0-.5.4-.9.9-.9M4.33 16.3a3.1 3.1 0 0 0 3.1 3.1h9.14a3.1 3.1 0 0 0 3.1-3.1V8.4H4.33zM8.75 4.56a.9.9 0 0 1-1.8 0v-.47a3.1 3.1 0 0 0-2.57 2.5h15.24a3.1 3.1 0 0 0-2.55-2.5v.47a.9.9 0 0 1-1.8 0v-.5H8.75z" clip-rule="evenodd"/></svg>