<svg viewBox="0 0 24 24" xmlns="http://www.w3.org/2000/svg" width="24" height="24"><path fill-rule="evenodd" d="M16.17.9c.47 0 .85.38.85.85v.58c2.47.22 4.4 2.3 4.4 4.82v9.15a4.85 4.85 0 0 1-4.85 4.85H7.43a4.85 4.85 0 0 1-4.85-4.85V7.15A4.85 4.85 0 0 1 7 2.32v-.57a.85.85 0 0 1 1.7 0v.55h6.62v-.55c0-.47.38-.85.85-.85M4.27 8.4v7.9a3.15 3.15 0 0 0 3.16 3.15h9.14a3.15 3.15 0 0 0 3.15-3.15V8.4zM8.7 4.55a.85.85 0 1 1-1.7 0v-.53A3.15 3.15 0 0 0 4.3 6.7h15.4a3.15 3.15 0 0 0-2.67-2.65v.52a.85.85 0 1 1-1.7 0V4H8.7z" clip-rule="evenodd"/></svg>