<svg viewBox="0 0 24 24" xmlns="http://www.w3.org/2000/svg" width="24" height="24"><path fill-rule="evenodd" d="M12 7a5 5 0 1 1 0 10 5 5 0 0 1 0-10m0 1.8a3.2 3.2 0 1 0 0 6.4 3.2 3.2 0 0 0 0-6.4" clip-rule="evenodd"/><path fill-rule="evenodd" d="M14.25 2c.49 0 .79.03 1.05.14a2 2 0 0 1 .8.58c.24.29.38.68.64 1.47l.11.34q.05.17.1.23.1.18.3.23l.25.01c1.4 0 2.1 0 2.67.17a4 4 0 0 1 2.66 2.67c.18.57.18 1.26.18 2.66v4.58c-.03 1.3-.11 2.1-.44 2.74l-.15.27a4 4 0 0 1-1.6 1.47l-.16.08c-.61.26-1.38.33-2.57.35l-1.48.01H5.92a7 7 0 0 1-2.57-.36l-.16-.08a4 4 0 0 1-1.6-1.47l-.15-.27c-.33-.65-.4-1.44-.43-2.74V10.5c0-1.22 0-1.9.11-2.44l.06-.21A4 4 0 0 1 3.05 5.5v-.6a.9.9 0 0 1 .9-.8h.71c.5 0 .9.4.9.9h1.09l.1-.01A.5.5 0 0 0 7 4.84l.06-.08.04-.09.05-.14.11-.34c.26-.79.4-1.18.64-1.47a2 2 0 0 1 .8-.58c.27-.1.57-.13 1.05-.14zM10.3 3.8l-.96.02-.05.04-.04.1-.28.8-.11.34c-.02.03-.1.34-.27.61a2.3 2.3 0 0 1-1.43 1.03c-.3.07-.62.06-.66.06-1.52 0-1.88.02-2.13.1A2.2 2.2 0 0 0 2.9 8.36c-.07.24-.1.6-.1 2.12v3.11c0 1.15 0 1.9.05 2.48.05.56.13.79.2.92q.31.63.96.96c.13.07.36.15.91.2.58.04 1.34.04 2.49.04h9.2c1.15 0 1.9 0 2.48-.05.55-.04.79-.12.92-.19q.63-.33.96-.96c.06-.13.14-.36.19-.92.05-.58.05-1.33.05-2.48v-3.1c0-1.53-.02-1.9-.1-2.14a2.2 2.2 0 0 0-1.46-1.46 9 9 0 0 0-2.15-.1c-.03 0-.35.01-.66-.06a2.3 2.3 0 0 1-1.42-1.03c-.17-.27-.26-.58-.28-.61l-.11-.34-.28-.8-.05-.1-.04-.04h-.1c-.18-.02-.42-.02-.86-.02z" clip-rule="evenodd"/></svg>