<svg viewBox="0 0 24 24" xmlns="http://www.w3.org/2000/svg" width="24" height="24"><path d="M8.6 18.93a1.7 1.7 0 1 1-1.87 1.87v-.35a1.7 1.7 0 0 1 1.7-1.53zm11.24 0a1.7 1.7 0 1 1-1.87 1.87v-.35a1.7 1.7 0 0 1 1.7-1.53z"/><path fill-rule="evenodd" d="M2.53 2.27q.7 0 1.19.02.5.02 1 .23.75.34 1.22 1.02.28.45.4.95 0 .09.04.19h11.8q.98 0 1.64.03a3 3 0 0 1 1.3.37c.6.35 1.04.9 1.27 1.55a3 3 0 0 1 .1 1.34q-.1.66-.3 1.62l-.33 1.63q-.13.67-.25 1.14-.13.48-.41.91-.47.66-1.22 1-.48.19-.98.21-.48.04-1.16.03H8.13l.11.54c.06.23.1.33.15.38q.17.25.46.4.07.04.4.07c.25.02.57.02 1.06.02h10.26a.9.9 0 0 1 0 1.8H10.3q-.7 0-1.2-.03a3 3 0 0 1-.99-.22 3 3 0 0 1-1.23-1.03c-.2-.3-.3-.61-.4-.94l-.22-1.17-1.48-8.36c-.08-.49-.14-.8-.2-1.04a1 1 0 0 0-.14-.38 1 1 0 0 0-.47-.39 1 1 0 0 0-.4-.07l-1.05-.02H2a.9.9 0 0 1 0-1.8zM7.8 12.7h10.03q.7 0 1.03-.02c.23-.02.33-.05.4-.08q.28-.12.45-.37c.04-.06.1-.15.15-.37q.1-.33.23-1l.33-1.63c.14-.68.23-1.13.27-1.47.03-.34.01-.48-.02-.55a1 1 0 0 0-.48-.6c-.06-.03-.2-.08-.53-.11-.35-.03-.8-.03-1.5-.03H6.71z" clip-rule="evenodd"/></svg>