<svg viewBox="0 0 24 24" xmlns="http://www.w3.org/2000/svg" width="24" height="24"><path d="M8.6 18.93a1.7 1.7 0 1 1-1.87 1.87v-.35a1.7 1.7 0 0 1 1.7-1.53zm11.24 0a1.7 1.7 0 1 1-1.87 1.87v-.35a1.7 1.7 0 0 1 1.7-1.53z"/><path fill-rule="evenodd" d="M2.53 2.27Q3.23 2.27 3.72 2.29Q4.22 2.31 4.72 2.52Q5.47 2.86 5.94 3.54Q6.22 3.99 6.34 4.49Q6.34 4.58 6.38 4.68L18.18 4.68Q19.16 4.68 19.82 4.71A3 3 0 0 1 21.12 5.08C21.72 5.43 22.16 5.98 22.39 6.63A3 3 0 0 1 22.49 7.97Q22.39 8.63 22.19 9.59L21.86 11.22Q21.73 11.89 21.61 12.36Q21.48 12.84 21.2 13.27Q20.73 13.93 19.98 14.27Q19.5 14.46 19 14.48Q18.52 14.52 17.84 14.51L8.13 14.51L8.24 15.05C8.3 15.28 8.34 15.38 8.39 15.43Q8.56 15.68 8.85 15.83Q8.92 15.87 9.25 15.9C9.5 15.92 9.82 15.92 10.31 15.92L20.57 15.92A.9 .9 0 0 1 20.57 17.72L10.3 17.72Q9.6 17.72 9.1 17.69A3 3 0 0 1 8.11 17.47A3 3 0 0 1 6.88 16.44C6.68 16.14 6.58 15.83 6.48 15.5L4.78 5.97C4.7 5.48 4.64 5.17 4.58 4.93A1 1 0 0 0 4.44 4.55A1 1 0 0 0 3.97 4.16A1 1 0 0 0 3.57 4.09L2 4.07A.9 .9 0 0 1 2 2.27ZM7.8 12.7h10.03q.7 0 1.03-.02c.23-.02.33-.05.4-.08q.28-.12.45-.37c.04-.06.1-.15.15-.37q.1-.33.23-1l.33-1.63c.14-.68.23-1.13.27-1.47.03-.34.01-.48-.02-.55a1 1 0 0 0-.48-.6c-.06-.03-.2-.08-.53-.11-.35-.03-.8-.03-1.5-.03H6.71z" clip-rule="evenodd"/></svg>