<svg viewBox="0 0 24 24" xmlns="http://www.w3.org/2000/svg" width="24" height="24"><path d="M2.17 11.22a.9.9 0 0 1 1.73.5q-.27.92-.28 1.92v.28q.11 1.97 1.15 3.5l.15.2.1.15c.18.3.3.67.25 1.08l-.04.21a5 5 0 0 1-.66 1.5 11 11 0 0 0 3.42.55l.42-.01q1.47-.06 2.82-.48l.09-.02a.9.9 0 0 1 .44 1.74l-.45.13q-1.37.37-2.83.43h-.5q-2.14 0-4.08-.66l-.54-.2c-1-.38-1.02-1.54-.53-2.14l.11-.14q.36-.49.53-1.08A8.5 8.5 0 0 1 1.83 14v-.36q0-1.26.34-2.42"/><path fill-rule="evenodd" d="M14.12 1a8.89 8.89 0 0 1 7.33 13.92c-.17.25-.26.37-.3.5q-.06.17-.06.36c0 .13.04.22.1.4q.22.7.6 1.27c.28.4.41.6.42.75q0 .18-.11.34c-.1.1-.27.17-.64.3A13.8 13.8 0 0 1 9.9 17.7 8.89 8.89 0 0 1 14.12 1m-.36 1.81a7.1 7.1 0 0 0-6.73 7.08v.25a7.1 7.1 0 0 0 3.72 5.98l.02.02.03.01a12 12 0 0 0 8.95 1.31q-.16-.35-.28-.74c-.05-.15-.16-.46-.17-.88-.01-.33.04-.7.15-1l.06-.16c.15-.35.36-.65.46-.78a7 7 0 0 0 1.24-4.01l-.01-.37a7.1 7.1 0 0 0-7.08-6.72z" clip-rule="evenodd"/></svg>