<svg viewBox="0 0 24 24" xmlns="http://www.w3.org/2000/svg" width="24" height="24"><path d="M16.16 8.2a1 1 0 0 1 1.7 1.05l-4.08 6.58-.06.08a1 1 0 0 1-1.7-1.04l.06-.1zm-4.3-.08a1 1 0 0 1 1.69 1.05l-.05.09-3.68 5.93-.31.47c-.1.14-.3.36-.6.5a1.5 1.5 0 0 1-1.15.02l-.11-.04c-.25-.13-.41-.3-.5-.42q-.19-.2-.34-.46l-1.34-1.92a1 1 0 0 1 1.65-1.14l1.16 1.67L11.8 8.2z"/><path fill-rule="evenodd" d="M12 .7a11 11 0 1 1 0 22 11 11 0 0 1 0-22m0 1.5a9.5 9.5 0 1 0 0 19 9.5 9.5 0 0 0 0-19" clip-rule="evenodd"/></svg>