<svg viewBox="0 0 24 24" xmlns="http://www.w3.org/2000/svg" width="24" height="24"><path d="M10.34 7.4A1 1 0 0 1 11.68 7.33L14.53 10.17Q14.82 10.45 15.03 10.7Q15.28 10.96 15.43 11.39A2 2 0 0 1 15.43 12.63Q15.28 13.04 15.03 13.31Q14.82 13.57 14.53 13.84L11.76 16.62A1 1 0 0 1 10.34 15.2L13.11 12.43Q13.41 12.14 13.51 12.02L13.52 12C13.44 11.9 13.32 11.8 13.12 11.58L10.27 8.74A1 1 0 0 1 10.34 7.4"/><path fill-rule="evenodd" d="M12 1A11 11 0 1 1 12 23A11 11 0 0 1 12 1M12 2.5A9.5 9.5 0 1 0 12 21.5A9.5 9.5 0 0 0 12 2.5" clip-rule="evenodd"/></svg>