<svg viewBox="0 0 24 24" xmlns="http://www.w3.org/2000/svg" width="24" height="24"><path d="M6.6 18.46L18.2 18.46A4.52 4.52 0 0 0 22.718 14.066A4.52 4.52 0 0 0 18.451 9.427A6.52 6.52 0 0 0 12.985 3.512A6.52 6.52 0 0 0 5.943 7.419A5.54 5.54 0 0 0 1.07 13.249A5.54 5.54 0 0 0 6.6 18.46ZM6.6 16.66A3.74 3.74 0 0 1 2.86 12.926A3.74 3.74 0 0 1 6.589 9.18A.9 .9 0 0 0 7.445 8.547A4.72 4.72 0 0 1 12.839 5.314A4.72 4.72 0 0 1 16.658 10.309A.9 .9 0 0 0 17.716 11.263A2.72 2.72 0 0 1 20.909 13.697A2.72 2.72 0 0 1 18.2 16.66L6.6 16.66Z"/></svg>