<svg viewBox="0 0 24 24" xmlns="http://www.w3.org/2000/svg" width="24" height="24"><path d="M13.06 9.06a.9.9 0 0 1 1.52.95l-.05.08-2.41 3.83-.3.44c-.1.13-.26.32-.52.44-.32.15-.7.17-1.03.06l-.1-.04c-.22-.1-.38-.24-.48-.34l-.34-.4-.89-1.1-.05-.08a.9.9 0 0 1 1.45-1.05l.8 1 2.35-3.72z"/><path fill-rule="evenodd" d="M11.89 3.43c3.31 0 6.09 2.34 6.74 6.04a5.6 5.6 0 0 1 2.4 1.02 4.2 4.2 0 0 1 1.68 3.43c0 1.5-.57 2.68-1.55 3.46a5.6 5.6 0 0 1-3.49 1.08H6.92c-3.14 0-5.86-2.23-5.86-5.53 0-1.67.64-3 1.68-3.95.88-.8 2-1.29 3.19-1.5a6.4 6.4 0 0 1 5.96-4.05m0 1.8a4.6 4.6 0 0 0-4.44 3.33.9.9 0 0 1-.77.63c-1.09.11-2.05.5-2.73 1.12a3.4 3.4 0 0 0-1.09 2.62c0 2.15 1.75 3.73 4.06 3.73h10.75c1 0 1.82-.25 2.36-.68.52-.41.88-1.05.88-2.06 0-.93-.4-1.56-.97-2-.6-.45-1.4-.7-2.15-.74a.9.9 0 0 1-.85-.8c-.32-3.3-2.55-5.15-5.05-5.15" clip-rule="evenodd"/></svg>