<svg viewBox="0 0 24 24" xmlns="http://www.w3.org/2000/svg" width="24" height="24"><path d="M21.009 10.521Q21.071 10.966 21.519 11.015L22.404 11.11Q23.1 11.185 23.129 11.884A11.13 11.13 0 0 1 23.129 12.116Q23.1 12.815 22.404 12.89L21.519 12.985Q21.071 13.034 21.009 13.479A9.13 9.13 0 0 1 20.972 13.691Q20.878 14.131 21.282 14.33L22.081 14.722Q22.709 15.03 22.498 15.698A11.13 11.13 0 0 1 22.419 15.915Q22.152 16.562 21.472 16.395L20.608 16.182Q20.171 16.074 19.96 16.471A9.13 9.13 0 0 1 19.852 16.658Q19.613 17.039 19.925 17.364L20.542 18.006Q21.027 18.511 20.6 19.065A11.13 11.13 0 0 1 20.451 19.243Q19.979 19.759 19.398 19.369L18.658 18.873Q18.285 18.623 17.951 18.924A9.13 9.13 0 0 1 17.786 19.063Q17.431 19.339 17.613 19.751L17.973 20.565Q18.256 21.205 17.665 21.58A11.13 11.13 0 0 1 17.464 21.696Q16.844 22.021 16.431 21.455L15.906 20.736Q15.641 20.373 15.224 20.542A9.13 9.13 0 0 1 15.021 20.616Q14.593 20.754 14.623 21.203L14.683 22.092Q14.73 22.79 14.047 22.94A11.13 11.13 0 0 1 13.818 22.98Q13.125 23.073 12.93 22.401L12.683 21.545Q12.557 21.113 12.108 21.129A9.13 9.13 0 0 1 11.892 21.129Q11.443 21.113 11.317 21.545L11.07 22.401Q10.875 23.073 10.182 22.98A11.13 11.13 0 0 1 9.953 22.94Q9.27 22.79 9.317 22.092L9.377 21.203Q9.407 20.754 8.979 20.616A9.13 9.13 0 0 1 8.776 20.542Q8.359 20.373 8.094 20.736L7.569 21.455Q7.156 22.021 6.536 21.696A11.13 11.13 0 0 1 6.335 21.58Q5.744 21.205 6.027 20.565L6.387 19.751Q6.569 19.339 6.214 19.063A9.13 9.13 0 0 1 6.049 18.924Q5.715 18.623 5.342 18.873L4.602 19.369Q4.021 19.759 3.549 19.243A11.13 11.13 0 0 1 3.4 19.065Q2.973 18.511 3.458 18.006L4.075 17.364Q4.387 17.039 4.148 16.658A9.13 9.13 0 0 1 4.04 16.471Q3.829 16.074 3.392 16.182L2.528 16.395Q1.848 16.562 1.581 15.915A11.13 11.13 0 0 1 1.502 15.698Q1.291 15.03 1.919 14.722L2.718 14.33Q3.122 14.131 3.028 13.691A9.13 9.13 0 0 1 2.991 13.479Q2.929 13.034 2.481 12.985L1.596 12.89Q.9 12.815 .871 12.116A11.13 11.13 0 0 1 .871 11.884Q.9 11.185 1.596 11.11L2.481 11.015Q2.929 10.966 2.991 10.521A9.13 9.13 0 0 1 3.028 10.309Q3.122 9.869 2.718 9.67L1.919 9.278Q1.291 8.97 1.502 8.302A11.13 11.13 0 0 1 1.581 8.085Q1.848 7.438 2.528 7.605L3.392 7.818Q3.829 7.926 4.04 7.529A9.13 9.13 0 0 1 4.148 7.342Q4.387 6.961 4.075 6.636L3.458 5.994Q2.973 5.489 3.4 4.935A11.13 11.13 0 0 1 3.549 4.757Q4.021 4.241 4.602 4.631L5.342 5.127Q5.715 5.377 6.049 5.076A9.13 9.13 0 0 1 6.214 4.937Q6.569 4.661 6.387 4.249L6.027 3.435Q5.744 2.795 6.335 2.42A11.13 11.13 0 0 1 6.536 2.304Q7.156 1.979 7.569 2.545L8.094 3.264Q8.359 3.627 8.776 3.458A9.13 9.13 0 0 1 8.979 3.384Q9.407 3.246 9.377 2.797L9.317 1.908Q9.27 1.21 9.953 1.06A11.13 11.13 0 0 1 10.182 1.02Q10.875 .927 11.07 1.599L11.317 2.455Q11.443 2.887 11.892 2.871A9.13 9.13 0 0 1 12.108 2.871Q12.557 2.887 12.683 2.455L12.93 1.599Q13.125 .927 13.818 1.02A11.13 11.13 0 0 1 14.047 1.06Q14.73 1.21 14.683 1.908L14.623 2.797Q14.593 3.246 15.021 3.384A9.13 9.13 0 0 1 15.224 3.458Q15.641 3.627 15.906 3.264L16.431 2.545Q16.844 1.979 17.464 2.304A11.13 11.13 0 0 1 17.665 2.42Q18.256 2.795 17.973 3.435L17.613 4.249Q17.431 4.661 17.786 4.937A9.13 9.13 0 0 1 17.951 5.076Q18.285 5.377 18.658 5.127L19.398 4.631Q19.979 4.241 20.451 4.757A11.13 11.13 0 0 1 20.6 4.935Q21.027 5.489 20.542 5.994L19.925 6.636Q19.613 6.961 19.852 7.342A9.13 9.13 0 0 1 19.96 7.529Q20.171 7.926 20.608 7.818L21.472 7.605Q22.152 7.438 22.419 8.085A11.13 11.13 0 0 1 22.498 8.302Q22.709 8.97 22.081 9.278L21.282 9.67Q20.878 9.869 20.972 10.309A9.13 9.13 0 0 1 21.009 10.521ZM13.243 12.94Q12.543 12.94 12.193 13.546L9.569 18.091A.8 .8 0 0 0 10.055 19.264A7.52 7.52 0 0 0 19.264 13.947A.8 .8 0 0 0 18.491 12.94L13.243 12.94ZM10.565 12.606Q10.915 12 10.565 11.394L7.941 6.849A.8 .8 0 0 0 6.682 6.683A7.52 7.52 0 0 0 6.682 17.317A.8 .8 0 0 0 7.941 17.151L10.565 12.606ZM12.193 10.454Q12.543 11.06 13.243 11.06L18.491 11.06A.8 .8 0 0 0 19.264 10.053A7.52 7.52 0 0 0 10.055 4.736A.8 .8 0 0 0 9.569 5.909L12.193 10.454Z"/></svg>