<svg viewBox="0 0 24 24" xmlns="http://www.w3.org/2000/svg" width="24" height="24"><g clip-path="url(#a)"><path fill-rule="evenodd" d="m13.62 1 .61.1.1.03q.13.06.22.17.12.15.11.35l-.02 1.4a.3.3 0 0 0 .22.31l.35.13.13.05.04.02.05.02h.14a.3.3 0 0 0 .15-.12l.08.06-.08-.06.89-1.1q.11-.16.3-.2l.1-.01q.1 0 .19.03l.08.03.54.32.08.05a.5.5 0 0 1 .14.6l-.5 1.32a.3.3 0 0 0 .1.37l.4.33.04.03a.3.3 0 0 0 .3.03l.04-.02 1.2-.73a.5.5 0 0 1 .68.1l.4.48.05.08a.5.5 0 0 1-.07.62l-.91 1.05a.34.34 0 0 0-.03.39l.26.45.03.04a.3.3 0 0 0 .32.13l1.36-.27a.5.5 0 0 1 .62.33l.2.58.03.1a.5.5 0 0 1-.27.55l-1.23.68a.3.3 0 0 0-.15.34l.05.26.04.25v.06a.3.3 0 0 0 .26.22l1.39.22a.5.5 0 0 1 .46.5v.64a.53.53 0 0 1-.46.51l-1.38.22a.3.3 0 0 0-.26.28l-.1.5v.01a.3.3 0 0 0 .16.35l1.23.68a.5.5 0 0 1 .27.55l-.02.1-.21.58a.5.5 0 0 1-.61.32l-1.38-.26a.3.3 0 0 0-.35.17l-.12.23-.13.22a.3.3 0 0 0 .03.39l.91 1.05a.5.5 0 0 1 .07.62l-.05.07-.4.48a.5.5 0 0 1-.68.1l-1.2-.72a.3.3 0 0 0-.38.04l-.4.32q-.08.07-.1.18a.3.3 0 0 0 0 .2l.5 1.3q.08.18.02.38a.5.5 0 0 1-.24.28l-.54.32a.5.5 0 0 1-.68-.14l-.9-1.11a.3.3 0 0 0-.15-.1h-.09l-.08.02-.52.19a.3.3 0 0 0-.22.3l.02 1.4v.1a.5.5 0 0 1-.43.45l-.61.11a.53.53 0 0 1-.6-.36l-.45-1.33a.3.3 0 0 0-.32-.22h-.52a.3.3 0 0 0-.3.18l-.02.04-.45 1.33a.5.5 0 0 1-.23.3l-.27.07-.1-.01-.6-.1a.53.53 0 0 1-.44-.55l.02-1.4v-.05a.3.3 0 0 0-.18-.24l-.04-.02-.28-.1-.25-.1a.3.3 0 0 0-.25.04l-.07.07-.9 1.1a.5.5 0 0 1-.67.14l-.54-.32a.5.5 0 0 1-.22-.66l.5-1.3.01-.06a.3.3 0 0 0-.11-.32l-.4-.33a.3.3 0 0 0-.38-.04l-1.2.73a.5.5 0 0 1-.68-.1l-.4-.48a.5.5 0 0 1-.04-.62l.06-.08.91-1.05a.3.3 0 0 0 .08-.19.3.3 0 0 0-.05-.2L4 16.32a.3.3 0 0 0-.3-.17h-.04l-1.37.27a.5.5 0 0 1-.57-.24l-.05-.09-.2-.58a.53.53 0 0 1 .24-.65l1.23-.68q.09-.04.13-.15a.3.3 0 0 0 .02-.2l-.04-.25-.05-.25a.3.3 0 0 0-.26-.28l-1.38-.23a.5.5 0 0 1-.46-.51v-.72a.5.5 0 0 1 .37-.4l.09-.02 1.38-.22.05-.02a.3.3 0 0 0 .21-.26l.1-.5v-.06a.3.3 0 0 0-.12-.27l-.04-.03-1.22-.68a.53.53 0 0 1-.26-.65l.22-.58.04-.08a.5.5 0 0 1 .57-.25l1.37.27q.1.01.2-.03A.3.3 0 0 0 4 7.67l.12-.23.13-.22a.3.3 0 0 0 0-.35l-.02-.04-.92-1.05a.53.53 0 0 1-.02-.7l.4-.47.07-.07a.5.5 0 0 1 .61-.03l1.19.73.04.02a.3.3 0 0 0 .34-.06l.4-.33.03-.03a.3.3 0 0 0 .06-.34l-.5-1.31a.5.5 0 0 1 .23-.65l.53-.32.1-.04a.5.5 0 0 1 .58.18l.87 1.08.05.04q.16.14.31.08l.51-.2.05-.02a.3.3 0 0 0 .18-.24v-.05l-.02-1.4q0-.2.11-.35.13-.15.32-.2l.62-.1h.09q.15 0 .27.07.17.1.23.3l.45 1.32.02.05a.3.3 0 0 0 .3.17h.52a.3.3 0 0 0 .32-.22l.45-1.32.04-.1q.05-.12.2-.2.16-.11.36-.07m-3.17 21.9h-.07zm3.03 0h.05-.07zm-.11-.03-.06-.02zm-2.04-1.59-.46 1.33-.03.07.03-.07zm1.8 1.33.03.07zl-.46-1.33zm1.42-.1.02-.08zm-7.63-.76h.06zm10.08 0h.01l-.06-.01zm-10.78-.36-.06-.05zm10.52.24.06.05zl-.05-.05zm-5.35-.47-.01.03.06-.08zm-5.38-.18.01-.07zm8.62-.28-.03.06zm-5.26 0 .04.06zl-.04-.05zm5.35-.1-.01.02.07-.05zm-6.31-.25-.06.02zl.05-.02zm4.57-7.4a.8.8 0 0 0-.6.3l-.05.07-2.78 4.85a.75.75 0 0 0 .15.94q.14.11.3.16l.25.06a7.7 7.7 0 0 0 6.36-1.38 7.5 7.5 0 0 0 2.68-4.07l.01-.08a.75.75 0 0 0-.65-.85zm-2.5 6.53.09.02-.34-.07zm9.36-.02h.06zm-2.34-.31a.4.4 0 0 0-.06.18v-.06a.4.4 0 0 1 .1-.18zm-13.74.17.06.06zm6.04-.03.02.01-.1-.06zm-3.3-.13.03.05zl-.04-.06zm11.5-.44-.4.33zm2.64.12.04-.05zm.08-.14.02-.07v-.15.08q0 .08-.02.14m-11.36-.2v.09zm8.75.15.06-.02zm-8.72-.35v.03l.04-.12zm7.04-.08-.12.08.25-.18zm-9.05-.53h-.1zM7 17.65h.02zl-.09-.03zm.4-11.27a.8.8 0 0 0-.63.21 7.5 7.5 0 0 0-2.28 5.03V12a7.5 7.5 0 0 0 2 5.11l.25.27.07.06a.75.75 0 0 0 1.11-.22l2.79-4.85a.8.8 0 0 0 .04-.66l-.04-.09-2.77-4.86a.8.8 0 0 0-.55-.38m-.73 11.07.08.07zM8 17.27l-.03.04zm11.89-.94-.23.39-.03.06.04-.06zM4 16.17l-.05-.04zm18.04.11-.03.02zM20 16.16l-.01.02.06-.06zm2.45-.69-.2.58-.04.07.03-.07zm-2.08.58.5.1zm-18.62-1.1-.06.04zm1.37-.82.03-.05zm17.73-.06.01.03zm-17.67-.26v.2-.06q.01-.08 0-.14l-.05-.25zm-.13-.63q.04.06.04.13l-.01-.07-.06-.12zm17.9 0 .03-.06zm.18-.2-.05.05zl.06-.03zm-8.26-.12h.11zm9.77-.14h.06l.01-.01zM1 12.44q0 .04.04.09L1 12.46zm9.88-.33v.03V12zM23 11.68v-.07zm-22-.14a.4.4 0 0 1 .14-.19l-.06.06-.04.06zm20.24-.49 1.38.22.07.02-.07-.02zm-8.69-.01q.2.1.43.11h-.11l-.22-.06zM12 4.47q-.88 0-1.72.2l-.24.05a.8.8 0 0 0-.5.44.8.8 0 0 0 .04.66l2.76 4.85.05.09a.8.8 0 0 0 .6.3h5.57a.75.75 0 0 0 .73-.6 1 1 0 0 0 0-.34 7.5 7.5 0 0 0-6.98-5.64zm6.66 6.68h-.1l.2-.02zm-15.92-.1.07-.02.02-.01zm18.27-.12.06.04zm-18.03-.01-.06.04zm16.25-.1-.02.03zm-16.05-.64.01-.07zm17.63 0 .05.26zm0-.13v.02V10zM4.96 9.03l-.04.1zq.03-.1.09-.2zm17.47-.2.02-.06v-.01zm0-.3.02.07zm-20.9-.01-.01.07zm20.7-.58-.03-.05v-.02zm-2.58-.66.25.44a.4.4 0 0 0 .25.21l-.06-.02a.4.4 0 0 1-.2-.19zM1.83 7.8a.4.4 0 0 1 .27-.15l-.07.02-.07.03-.07.04zm20.24-.07.08.06-.05-.04zM4.34 7.27q-.14.22-.26.45l.13-.23.16-.28zm15.26-.11v-.08zM4.4 6.95a.4.4 0 0 1 0 .2v-.07a.4.4 0 0 0-.03-.2zm3.27-.58.16.11-.07-.06-.17-.09zm-.66-.05-.03.01zm13.7-.8.01-.08a.4.4 0 0 0-.05-.22l.03.07q.03.07.02.15zm-11.32-.2v.04l.02-.14zM3.3 5.26l.03-.05zm6.24-.3-.02.02.08-.1zm7.9-.23v.02zM11 4.43q-.5.07-.99.2l-.09.03.1-.03q.6-.15 1.23-.22zm6.45.03-.02.07zm-13.55.1.05-.02zm8.1-.19-.5.02.25-.01zm-2.85-.91-.51.2-.06.01.06-.02c.12-.04.39-.14.5-.2m5.47-.16.04.05zM12.25 3h.09zm-6.24-.14L6 2.93zm5.47.07.06.03zm6.48-.08-.02-.05v-.01zM6.1 2.7l.04-.04zm11.06-.44-.07-.02zm-2.6-.74-.01-.02.01.06zm-5.12-.05v.01l.03-.07zm1.42-.09-.02-.05zm2.34-.15v.01l.04-.05zm5.46 11.62h-.1z" clip-rule="evenodd"/></g><defs><clipPath id="a"><path d="M0 0h24v24H0z"/></clipPath></defs></svg>