<svg viewBox="0 0 24 24" xmlns="http://www.w3.org/2000/svg" width="24" height="24"><path fill-rule="evenodd" d="M21.009 10.521Q21.071 10.966 21.519 11.015L22.404 11.110Q23.100 11.185 23.129 11.884A11.13 11.13 0 0 1 23.129 12.116Q23.100 12.815 22.404 12.890L21.519 12.985Q21.071 13.034 21.009 13.479A9.13 9.13 0 0 1 20.972 13.691Q20.878 14.131 21.282 14.330L22.081 14.722Q22.709 15.030 22.498 15.698A11.13 11.13 0 0 1 22.419 15.915Q22.152 16.562 21.472 16.395L20.608 16.182Q20.171 16.074 19.960 16.471A9.13 9.13 0 0 1 19.852 16.658Q19.613 17.039 19.925 17.364L20.542 18.006Q21.027 18.511 20.600 19.065A11.13 11.13 0 0 1 20.451 19.243Q19.979 19.759 19.398 19.369L18.658 18.873Q18.285 18.623 17.951 18.924A9.13 9.13 0 0 1 17.786 19.063Q17.431 19.339 17.613 19.751L17.973 20.565Q18.256 21.205 17.665 21.580A11.13 11.13 0 0 1 17.464 21.696Q16.844 22.021 16.431 21.455L15.906 20.736Q15.641 20.373 15.224 20.542A9.13 9.13 0 0 1 15.021 20.616Q14.593 20.754 14.623 21.203L14.683 22.092Q14.730 22.790 14.047 22.940A11.13 11.13 0 0 1 13.818 22.980Q13.125 23.073 12.930 22.401L12.682 21.545Q12.557 21.113 12.108 21.129A9.13 9.13 0 0 1 11.892 21.129Q11.443 21.113 11.318 21.545L11.070 22.401Q10.875 23.073 10.182 22.980A11.13 11.13 0 0 1 9.953 22.940Q9.270 22.790 9.317 22.092L9.377 21.203Q9.407 20.754 8.979 20.616A9.13 9.13 0 0 1 8.776 20.542Q8.359 20.373 8.094 20.736L7.569 21.455Q7.156 22.021 6.536 21.696A11.13 11.13 0 0 1 6.335 21.580Q5.744 21.205 6.027 20.565L6.387 19.751Q6.569 19.339 6.214 19.063A9.13 9.13 0 0 1 6.049 18.924Q5.715 18.623 5.342 18.873L4.602 19.369Q4.021 19.759 3.549 19.243A11.13 11.13 0 0 1 3.400 19.065Q2.973 18.511 3.458 18.006L4.075 17.364Q4.387 17.039 4.148 16.658A9.13 9.13 0 0 1 4.040 16.471Q3.829 16.074 3.392 16.182L2.528 16.395Q1.848 16.562 1.581 15.915A11.13 11.13 0 0 1 1.502 15.698Q1.291 15.030 1.919 14.722L2.718 14.330Q3.122 14.131 3.028 13.691A9.13 9.13 0 0 1 2.991 13.479Q2.929 13.034 2.481 12.985L1.596 12.890Q0.900 12.815 0.871 12.116A11.13 11.13 0 0 1 0.871 11.884Q0.900 11.185 1.596 11.110L2.481 11.015Q2.929 10.966 2.991 10.521A9.13 9.13 0 0 1 3.028 10.309Q3.122 9.869 2.718 9.670L1.919 9.278Q1.291 8.970 1.502 8.302A11.13 11.13 0 0 1 1.581 8.085Q1.848 7.438 2.528 7.605L3.392 7.818Q3.829 7.926 4.040 7.529A9.13 9.13 0 0 1 4.148 7.342Q4.387 6.961 4.075 6.636L3.458 5.994Q2.973 5.489 3.400 4.935A11.13 11.13 0 0 1 3.549 4.757Q4.021 4.241 4.602 4.631L5.342 5.127Q5.715 5.377 6.049 5.076A9.13 9.13 0 0 1 6.214 4.937Q6.569 4.661 6.387 4.249L6.027 3.435Q5.744 2.795 6.335 2.420A11.13 11.13 0 0 1 6.536 2.304Q7.156 1.979 7.569 2.545L8.094 3.264Q8.359 3.627 8.776 3.458A9.13 9.13 0 0 1 8.979 3.384Q9.407 3.246 9.377 2.797L9.317 1.908Q9.270 1.210 9.953 1.060A11.13 11.13 0 0 1 10.182 1.020Q10.875 0.927 11.070 1.599L11.318 2.455Q11.443 2.887 11.892 2.871A9.13 9.13 0 0 1 12.108 2.871Q12.557 2.887 12.682 2.455L12.930 1.599Q13.125 0.927 13.818 1.020A11.13 11.13 0 0 1 14.047 1.060Q14.730 1.210 14.683 1.908L14.623 2.797Q14.593 3.246 15.021 3.384A9.13 9.13 0 0 1 15.224 3.458Q15.641 3.627 15.906 3.264L16.431 2.545Q16.844 1.979 17.464 2.304A11.13 11.13 0 0 1 17.665 2.420Q18.256 2.795 17.973 3.435L17.613 4.249Q17.431 4.661 17.786 4.937A9.13 9.13 0 0 1 17.951 5.076Q18.285 5.377 18.658 5.127L19.398 4.631Q19.979 4.241 20.451 4.757A11.13 11.13 0 0 1 20.600 4.935Q21.027 5.489 20.542 5.994L19.925 6.636Q19.613 6.961 19.852 7.342A9.13 9.13 0 0 1 19.960 7.529Q20.171 7.926 20.608 7.818L21.472 7.605Q22.152 7.438 22.419 8.085A11.13 11.13 0 0 1 22.498 8.302Q22.709 8.970 22.081 9.278L21.282 9.670Q20.878 9.869 20.972 10.309A9.13 9.13 0 0 1 21.009 10.521ZM13.243 12.940L18.491 12.940A0.8 0.8 0 0 1 19.264 13.947A7.52 7.52 0 0 1 10.055 19.264A0.8 0.8 0 0 1 9.569 18.091L12.193 13.546Q12.543 12.940 13.243 12.940ZM10.565 12.606L7.941 17.151A0.8 0.8 0 0 1 6.682 17.317A7.52 7.52 0 0 1 6.682 6.683A0.8 0.8 0 0 1 7.941 6.849L10.565 11.394Q10.915 12.000 10.565 12.606ZM12.193 10.454L9.569 5.909A0.8 0.8 0 0 1 10.055 4.736A7.52 7.52 0 0 1 19.264 10.053A0.8 0.8 0 0 1 18.491 11.060L13.243 11.060Q12.543 11.060 12.193 10.454Z" clip-rule="evenodd"/></svg>