<svg viewBox="0 0 24 24" xmlns="http://www.w3.org/2000/svg" width="24" height="24"><path fill-rule="evenodd" d="M7.72 7.72A2.46 2.46 0 0 1 11.21 7.72L19.98 16.49A2.46 2.46 0 0 1 16.33 19.79L7.55 11.02C6.77 10.05 6.82 8.62 7.72 7.72M11.54 12.48L17.7 18.6A.66 .66 0 0 0 18.54 17.58L12.48 11.54Z" clip-rule="evenodd"/><path d="M5.1 11.71A.9 .9 0 0 1 6.31 13.04L4.56 14.79A.9 .9 0 0 1 3.36 13.46L5.04 11.77ZM4.37 8.15a.9.9 0 0 1 0 1.79H1.9a.9.9 0 1 1 0-1.8zM3.36 3.36A.9 .9 0 0 1 4.56 3.29L6.36 5.11A.9 .9 0 0 1 5.1 6.37L3.28 4.56A.9 .9 0 0 1 3.35 3.36M13.52 3.3A.9 .9 0 0 1 14.72 4.63L12.99 6.36A.9 .9 0 0 1 11.79 5.03L13.47 3.35ZM9.04 1c.5 0 .9.4.9.9v2.38a.9.9 0 0 1-1.8 0V1.9c0-.5.4-.9.9-.9"/></svg>