<svg viewBox="0 0 24 24" xmlns="http://www.w3.org/2000/svg" width="24" height="24"><path fill-rule="evenodd" d="M12 1.5a6.44 6.44 0 0 1 6.4 7.08A6.44 6.44 0 1 1 12 19.57 6.44 6.44 0 1 1 5.6 8.59l-.03-.66A6.44 6.44 0 0 1 12 1.5m-5.96 8.85a4.63 4.63 0 1 0 4.73 7.9 6.4 6.4 0 0 1-1.11-4.32 6.5 6.5 0 0 1-3.62-3.58m11.92 0a6.5 6.5 0 0 1-3.62 3.58 6.5 6.5 0 0 1-1.11 4.31 4.64 4.64 0 1 0 4.74-7.9m-6.54 4.23q.01 1.22.58 2.23a4.6 4.6 0 0 0 .57-2.47 7 7 0 0 1-1.14 0zM16.07 9.93c-1.07 0-2.05.36-2.83.97q.41.58.67 1.25c1-.45 1.8-1.24 2.28-2.22zm-8.24 0a4.7 4.7 0 0 0 2.27 2.22q.27-.66.68-1.25a4.6 4.6 0 0 0-2.95-.97M12 3.3a4.63 4.63 0 0 0-4.63 4.87l.57-.03A6.4 6.4 0 0 1 12 9.58a6.4 6.4 0 0 1 4.63-1.41A4.63 4.63 0 0 0 12 3.3" clip-rule="evenodd"/><path d="m12 12.34-.12.23h.24z"/></svg>