<svg viewBox="0 0 24 24" xmlns="http://www.w3.org/2000/svg" width="24" height="24"><path fill-rule="evenodd" d="M7.72 7.72a2.46 2.46 0 0 1 3.49 0l8.6 8.58.17.19a2.46 2.46 0 0 1-3.65 3.3l-8.6-8.58-.18-.19c-.78-.97-.73-2.4.17-3.3m3.82 4.76 6.06 6.03.1.09a.66.66 0 0 0 .84-1.02l-6.06-6.04z" clip-rule="evenodd"/><path d="M5.1 11.71a.9.9 0 0 1 1.21 1.33l-1.68 1.69-.07.06a.9.9 0 0 1-1.2-1.33l1.68-1.69zm-.73-3.56a.9.9 0 0 1 0 1.79H1.9a.9.9 0 1 1 0-1.8zM3.36 3.36a.9.9 0 0 1 1.2-.07l.07.07L6.3 5.04l.06.07A.9.9 0 0 1 5.1 6.37l-.07-.06-1.68-1.68-.07-.07a.9.9 0 0 1 .07-1.2m10.17-.06a.9.9 0 0 1 1.2 1.33L13.05 6.3l-.06.06a.9.9 0 0 1-1.2-1.33l1.68-1.68zM9.04 1c.5 0 .9.4.9.9v2.38a.9.9 0 0 1-1.8 0V1.9c0-.5.4-.9.9-.9"/></svg>