<svg viewBox="0 0 24 24" xmlns="http://www.w3.org/2000/svg" width="24" height="24"><path fill-rule="evenodd" d="M14.74 7.22c1.02-.36 1.53-.54 1.86-.43a1 1 0 0 1 .62.62c.11.33-.07.85-.44 1.87l-1.45 4.01a3.7 3.7 0 0 1-2.04 2.04l-4.01 1.44c-1.02.37-1.53.55-1.86.44a1 1 0 0 1-.62-.62c-.11-.33.07-.84.43-1.86l1.43-4.02a3.7 3.7 0 0 1 2.05-2.04zm-3.01 3.43a1.38 1.38 0 1 0 .53 2.7 1.38 1.38 0 0 0-.53-2.7" clip-rule="evenodd"/><path fill-rule="evenodd" d="M12 1a11 11 0 1 1 0 22 11 11 0 0 1 0-22m0 1.8a9.2 9.2 0 1 0 0 18.4 9.2 9.2 0 0 0 0-18.4" clip-rule="evenodd"/></svg>