<svg viewBox="0 0 24 24" xmlns="http://www.w3.org/2000/svg" width="24" height="24"><path fill-rule="evenodd" d="M14.709 21.343C14.44 21.611 14.102 21.917 13.851 22.11C13.599 22.302 13.411 22.399 13.2 22.498C12.99 22.598 12.79 22.661 12.587 22.706C12.385 22.751 12.187 22.771 11.987 22.77C11.787 22.769 11.589 22.748 11.387 22.7C11.186 22.653 10.987 22.588 10.777 22.488C10.568 22.387 10.378 22.287 10.131 22.096C9.883 21.906 9.559 21.612 9.291 21.343C9.024 21.075 8.718 20.737 8.525 20.486C8.333 20.234 8.236 20.046 8.137 19.835C8.037 19.625 7.974 19.425 7.929 19.222C7.884 19.02 7.864 18.822 7.865 18.622C7.866 18.422 7.887 18.224 7.935 18.022C7.982 17.821 8.047 17.622 8.147 17.412C8.248 17.203 8.348 17.013 8.539 16.766C8.729 16.518 9.023 16.194 9.291 15.926C9.56 15.659 9.898 15.353 10.149 15.16C10.401 14.968 10.589 14.871 10.8 14.772C11.01 14.672 11.21 14.609 11.413 14.564C11.615 14.518 11.813 14.499 12.013 14.5C12.213 14.501 12.411 14.522 12.613 14.57C12.814 14.617 13.013 14.682 13.223 14.782C13.432 14.883 13.622 14.983 13.869 15.174C14.117 15.364 14.441 15.658 14.709 15.926C14.976 16.195 15.282 16.533 15.475 16.784C15.667 17.036 15.764 17.224 15.863 17.435C15.963 17.645 16.026 17.845 16.071 18.048C16.116 18.25 16.136 18.448 16.135 18.648C16.134 18.848 16.113 19.046 16.065 19.248C16.018 19.449 15.953 19.648 15.853 19.858C15.752 20.067 15.652 20.257 15.461 20.504C15.271 20.752 14.977 21.076 14.709 21.343ZM13.436 20.071C13.254 20.252 13.022 20.47 12.866 20.597C12.71 20.725 12.608 20.78 12.501 20.837C12.394 20.895 12.309 20.92 12.225 20.942C12.141 20.965 12.072 20.971 11.995 20.97C11.918 20.97 11.849 20.963 11.765 20.94C11.68 20.917 11.595 20.89 11.488 20.832C11.381 20.773 11.277 20.716 11.123 20.589C10.969 20.462 10.745 20.252 10.564 20.071C10.383 19.889 10.165 19.657 10.038 19.501C9.91 19.345 9.855 19.243 9.798 19.136C9.74 19.029 9.715 18.944 9.693 18.86C9.67 18.776 9.664 18.707 9.665 18.63C9.665 18.553 9.672 18.484 9.695 18.4C9.718 18.315 9.745 18.23 9.803 18.123C9.862 18.016 9.919 17.912 10.046 17.758C10.173 17.604 10.383 17.38 10.564 17.199C10.746 17.018 10.978 16.8 11.134 16.673C11.29 16.545 11.392 16.49 11.499 16.433C11.606 16.375 11.691 16.35 11.775 16.328C11.859 16.305 11.928 16.299 12.005 16.3C12.082 16.3 12.151 16.307 12.235 16.33C12.32 16.353 12.405 16.38 12.512 16.438C12.619 16.497 12.723 16.554 12.877 16.681C13.031 16.808 13.255 17.018 13.436 17.199C13.617 17.381 13.835 17.613 13.962 17.769C14.09 17.925 14.145 18.027 14.202 18.134C14.26 18.241 14.285 18.325 14.307 18.41C14.33 18.494 14.336 18.563 14.335 18.64C14.335 18.717 14.328 18.786 14.305 18.87C14.282 18.955 14.255 19.04 14.197 19.147C14.138 19.254 14.081 19.358 13.954 19.512C13.827 19.666 13.617 19.89 13.436 20.071ZM8.079 14.709C7.81 14.976 7.472 15.282 7.221 15.475C6.969 15.667 6.781 15.764 6.57 15.863C6.36 15.963 6.16 16.026 5.957 16.071C5.755 16.116 5.557 16.136 5.357 16.135C5.157 16.134 4.959 16.113 4.757 16.065C4.556 16.018 4.357 15.953 4.147 15.853C3.938 15.752 3.748 15.652 3.501 15.461C3.253 15.271 2.929 14.977 2.661 14.709C2.394 14.44 2.088 14.102 1.895 13.851C1.703 13.599 1.606 13.411 1.507 13.2C1.407 12.99 1.344 12.79 1.299 12.587C1.254 12.385 1.234 12.187 1.235 11.987C1.236 11.787 1.257 11.589 1.305 11.387C1.352 11.186 1.417 10.987 1.517 10.777C1.618 10.568 1.718 10.378 1.909 10.131C2.099 9.883 2.393 9.559 2.661 9.291C2.93 9.024 3.268 8.718 3.519 8.525C3.771 8.333 3.959 8.236 4.17 8.137C4.38 8.037 4.58 7.974 4.783 7.929C4.985 7.884 5.183 7.864 5.383 7.865C5.583 7.866 5.781 7.887 5.983 7.935C6.184 7.982 6.383 8.047 6.593 8.147C6.802 8.248 6.992 8.348 7.239 8.539C7.487 8.729 7.811 9.023 8.079 9.291C8.346 9.56 8.652 9.898 8.845 10.149C9.037 10.401 9.134 10.589 9.233 10.8C9.333 11.01 9.396 11.21 9.441 11.413C9.486 11.615 9.506 11.813 9.505 12.013C9.504 12.213 9.483 12.411 9.435 12.613C9.388 12.814 9.323 13.013 9.223 13.223C9.122 13.432 9.022 13.622 8.831 13.869C8.641 14.117 8.347 14.441 8.079 14.709ZM6.806 13.436C6.624 13.617 6.392 13.835 6.236 13.962C6.08 14.09 5.978 14.145 5.871 14.202C5.764 14.26 5.679 14.285 5.595 14.307C5.511 14.33 5.442 14.336 5.365 14.335C5.288 14.335 5.219 14.328 5.135 14.305C5.05 14.282 4.965 14.255 4.858 14.197C4.751 14.138 4.647 14.081 4.493 13.954C4.339 13.827 4.115 13.617 3.934 13.436C3.753 13.254 3.535 13.022 3.408 12.866C3.28 12.71 3.225 12.608 3.168 12.501C3.11 12.394 3.085 12.309 3.063 12.225C3.04 12.141 3.034 12.072 3.035 11.995C3.035 11.918 3.042 11.849 3.065 11.765C3.088 11.68 3.115 11.595 3.173 11.488C3.232 11.381 3.289 11.277 3.416 11.123C3.543 10.969 3.753 10.745 3.934 10.564C4.116 10.383 4.348 10.165 4.504 10.038C4.66 9.91 4.762 9.855 4.869 9.798C4.976 9.74 5.061 9.715 5.145 9.693C5.229 9.67 5.298 9.664 5.375 9.665C5.452 9.665 5.521 9.672 5.605 9.695C5.69 9.718 5.775 9.745 5.882 9.803C5.989 9.862 6.093 9.919 6.247 10.046C6.401 10.173 6.625 10.383 6.806 10.564C6.987 10.746 7.205 10.978 7.332 11.134C7.46 11.29 7.515 11.392 7.572 11.499C7.63 11.606 7.655 11.691 7.677 11.775C7.7 11.859 7.706 11.928 7.705 12.005C7.705 12.082 7.698 12.151 7.675 12.235C7.652 12.32 7.625 12.405 7.567 12.512C7.508 12.619 7.451 12.723 7.324 12.877C7.197 13.031 6.987 13.255 6.806 13.436ZM21.343 14.709C21.075 14.976 20.737 15.282 20.486 15.475C20.234 15.667 20.046 15.764 19.835 15.863C19.625 15.963 19.425 16.026 19.222 16.071C19.02 16.116 18.822 16.136 18.622 16.135C18.422 16.134 18.224 16.113 18.022 16.065C17.821 16.018 17.622 15.953 17.412 15.853C17.203 15.752 17.013 15.652 16.766 15.461C16.518 15.271 16.194 14.977 15.926 14.709C15.659 14.44 15.353 14.102 15.16 13.851C14.968 13.599 14.871 13.411 14.772 13.2C14.672 12.99 14.609 12.79 14.564 12.587C14.518 12.385 14.499 12.187 14.5 11.987C14.501 11.787 14.522 11.589 14.57 11.387C14.617 11.186 14.682 10.987 14.782 10.777C14.883 10.568 14.983 10.378 15.174 10.131C15.364 9.883 15.658 9.559 15.926 9.291C16.195 9.024 16.533 8.718 16.784 8.525C17.036 8.333 17.224 8.236 17.435 8.137C17.645 8.037 17.845 7.974 18.048 7.929C18.25 7.884 18.448 7.864 18.648 7.865C18.848 7.866 19.046 7.887 19.248 7.935C19.449 7.982 19.648 8.047 19.858 8.147C20.067 8.248 20.257 8.348 20.504 8.539C20.752 8.729 21.076 9.023 21.343 9.291C21.611 9.56 21.917 9.898 22.11 10.149C22.302 10.401 22.399 10.589 22.498 10.8C22.598 11.01 22.661 11.21 22.706 11.413C22.751 11.615 22.771 11.813 22.77 12.013C22.769 12.213 22.748 12.411 22.7 12.613C22.653 12.814 22.588 13.013 22.488 13.223C22.387 13.432 22.287 13.622 22.096 13.869C21.906 14.117 21.612 14.441 21.343 14.709ZM20.071 13.436C19.889 13.617 19.657 13.835 19.501 13.962C19.345 14.09 19.243 14.145 19.136 14.202C19.029 14.26 18.944 14.285 18.86 14.307C18.776 14.33 18.707 14.336 18.63 14.335C18.553 14.335 18.484 14.328 18.4 14.305C18.315 14.282 18.23 14.255 18.123 14.197C18.016 14.138 17.912 14.081 17.758 13.954C17.604 13.827 17.38 13.617 17.199 13.436C17.018 13.254 16.8 13.022 16.673 12.866C16.545 12.71 16.49 12.608 16.433 12.501C16.375 12.394 16.35 12.309 16.328 12.225C16.305 12.141 16.299 12.072 16.3 11.995C16.3 11.918 16.307 11.849 16.33 11.765C16.353 11.68 16.38 11.595 16.438 11.488C16.497 11.381 16.554 11.277 16.681 11.123C16.808 10.969 17.018 10.745 17.199 10.564C17.381 10.383 17.613 10.165 17.769 10.038C17.925 9.91 18.027 9.855 18.134 9.798C18.241 9.74 18.325 9.715 18.41 9.693C18.494 9.67 18.563 9.664 18.64 9.665C18.717 9.665 18.786 9.672 18.87 9.695C18.955 9.718 19.04 9.745 19.147 9.803C19.254 9.862 19.358 9.919 19.512 10.046C19.666 10.173 19.89 10.383 20.071 10.564C20.252 10.746 20.47 10.978 20.597 11.134C20.725 11.29 20.78 11.392 20.837 11.499C20.895 11.606 20.92 11.691 20.942 11.775C20.965 11.859 20.971 11.928 20.97 12.005C20.97 12.082 20.963 12.151 20.94 12.235C20.917 12.32 20.89 12.405 20.832 12.512C20.773 12.619 20.716 12.723 20.589 12.877C20.462 13.031 20.252 13.255 20.071 13.436ZM14.709 8.079C14.44 8.346 14.102 8.652 13.851 8.845C13.599 9.037 13.411 9.134 13.2 9.233C12.99 9.333 12.79 9.396 12.587 9.441C12.385 9.486 12.187 9.506 11.987 9.505C11.787 9.504 11.589 9.483 11.387 9.435C11.186 9.388 10.987 9.323 10.777 9.223C10.568 9.122 10.378 9.022 10.131 8.831C9.883 8.641 9.559 8.347 9.291 8.079C9.024 7.81 8.718 7.472 8.525 7.221C8.333 6.969 8.236 6.781 8.137 6.57C8.037 6.36 7.974 6.16 7.929 5.957C7.884 5.755 7.864 5.557 7.865 5.357C7.866 5.157 7.887 4.959 7.935 4.757C7.982 4.556 8.047 4.357 8.147 4.147C8.248 3.938 8.348 3.748 8.539 3.501C8.729 3.253 9.023 2.929 9.291 2.661C9.56 2.394 9.898 2.088 10.149 1.895C10.401 1.703 10.589 1.606 10.8 1.507C11.01 1.407 11.21 1.344 11.413 1.299C11.615 1.254 11.813 1.234 12.013 1.235C12.213 1.236 12.411 1.257 12.613 1.305C12.814 1.352 13.013 1.417 13.223 1.517C13.432 1.618 13.622 1.718 13.869 1.909C14.117 2.099 14.441 2.393 14.709 2.661C14.976 2.93 15.282 3.268 15.475 3.519C15.667 3.771 15.764 3.959 15.863 4.17C15.963 4.38 16.026 4.58 16.071 4.783C16.116 4.985 16.136 5.183 16.135 5.383C16.134 5.583 16.113 5.781 16.065 5.983C16.018 6.184 15.953 6.383 15.853 6.593C15.752 6.802 15.652 6.992 15.461 7.239C15.271 7.487 14.977 7.811 14.709 8.079ZM13.436 6.806C13.254 6.987 13.022 7.205 12.866 7.332C12.71 7.46 12.608 7.515 12.501 7.572C12.394 7.63 12.309 7.655 12.225 7.677C12.141 7.7 12.072 7.706 11.995 7.705C11.918 7.705 11.849 7.698 11.765 7.675C11.68 7.652 11.595 7.625 11.488 7.567C11.381 7.508 11.277 7.451 11.123 7.324C10.969 7.197 10.745 6.987 10.564 6.806C10.383 6.624 10.165 6.392 10.038 6.236C9.91 6.08 9.855 5.978 9.798 5.871C9.74 5.764 9.715 5.679 9.693 5.595C9.67 5.511 9.664 5.442 9.665 5.365C9.665 5.288 9.672 5.219 9.695 5.135C9.718 5.05 9.745 4.965 9.803 4.858C9.862 4.751 9.919 4.647 10.046 4.493C10.173 4.339 10.383 4.115 10.564 3.934C10.746 3.753 10.978 3.535 11.134 3.408C11.29 3.28 11.392 3.225 11.499 3.168C11.606 3.11 11.691 3.085 11.775 3.063C11.859 3.04 11.928 3.034 12.005 3.035C12.082 3.035 12.151 3.042 12.235 3.065C12.32 3.088 12.405 3.115 12.512 3.173C12.619 3.232 12.723 3.289 12.877 3.416C13.031 3.543 13.255 3.753 13.436 3.934C13.617 4.116 13.835 4.348 13.962 4.504C14.09 4.66 14.145 4.762 14.202 4.869C14.26 4.976 14.285 5.061 14.307 5.145C14.33 5.229 14.336 5.298 14.335 5.375C14.335 5.452 14.328 5.521 14.305 5.605C14.282 5.69 14.255 5.775 14.197 5.882C14.138 5.989 14.081 6.093 13.954 6.247C13.827 6.401 13.617 6.625 13.436 6.806Z" clip-rule="evenodd"/></svg>