<svg viewBox="0 0 24 24" xmlns="http://www.w3.org/2000/svg" width="24" height="24"><path fill-rule="evenodd" d="M11.1 14.65a2.7 2.7 0 0 1 1.8 0q.5.2.88.54.36.33.85.82t.82.85.53.87c.2.58.2 1.22 0 1.81q-.2.5-.53.87-.34.37-.82.85-.48.5-.85.82-.38.34-.87.53a2.7 2.7 0 0 1-1.82 0 3 3 0 0 1-.87-.53q-.36-.33-.85-.82t-.82-.85a3 3 0 0 1-.53-.87 2.7 2.7 0 0 1 0-1.81q.2-.5.53-.87.34-.37.82-.85.48-.5.85-.82.38-.35.87-.54m1.2 1.7a1 1 0 0 0-.6 0q-.06 0-.3.2c-.19.16-.41.38-.76.73l-.72.75a1 1 0 0 0-.2.3 1 1 0 0 0 0 .6q0 .06.2.3c.16.2.38.41.72.76.35.34.57.57.76.72q.24.21.3.2.3.12.6 0 .06.01.3-.2c.19-.15.4-.38.75-.72.35-.35.57-.57.73-.75a1 1 0 0 0 .2-.3 1 1 0 0 0 0-.6 1 1 0 0 0-.2-.31c-.16-.18-.38-.4-.73-.75l-.75-.72a1 1 0 0 0-.3-.21M4.46 8.02a2.7 2.7 0 0 1 1.81 0q.5.2.87.53.37.34.85.82.5.48.82.86.35.37.54.86c.2.59.2 1.23 0 1.82q-.2.49-.54.86-.33.37-.82.86-.48.48-.85.82t-.87.53c-.58.2-1.22.2-1.81 0a3 3 0 0 1-.87-.53q-.37-.33-.85-.82-.5-.48-.82-.86a3 3 0 0 1-.53-.86 2.7 2.7 0 0 1 0-1.82q.19-.49.53-.86.33-.37.82-.86.48-.48.85-.82.38-.33.87-.53m1.2 1.7a1 1 0 0 0-.6 0q-.04 0-.3.2l-.75.72c-.34.35-.57.57-.72.76q-.21.24-.2.3a1 1 0 0 0 0 .6q-.01.06.2.3c.15.19.38.41.72.76l.75.72q.25.2.3.2.3.1.6 0 .06 0 .31-.2l.75-.72c.35-.35.57-.57.73-.76q.19-.24.2-.3a1 1 0 0 0 0-.6 1 1 0 0 0-.2-.3c-.16-.19-.38-.41-.73-.76l-.75-.72a1 1 0 0 0-.3-.2m12.06-1.7a2.7 2.7 0 0 1 1.81 0q.5.2.87.53.37.34.85.82.5.48.82.86.34.37.54.87c.2.58.2 1.22 0 1.8q-.2.5-.54.87-.33.37-.82.86-.48.48-.85.82t-.87.53c-.59.2-1.23.2-1.81 0a3 3 0 0 1-.87-.53q-.37-.33-.85-.82-.5-.48-.82-.86a3 3 0 0 1-.54-.86 2.7 2.7 0 0 1 0-1.82q.2-.49.54-.86.33-.37.82-.86.48-.48.85-.82t.87-.53m1.2 1.7a1 1 0 0 0-.6 0q-.05 0-.3.2l-.75.72c-.35.35-.57.57-.72.76q-.21.24-.21.3a1 1 0 0 0 0 .6q.01.06.2.3c.16.19.38.41.73.76l.75.72q.25.2.3.2.3.1.6 0 .06 0 .3-.2c.2-.16.41-.38.76-.72.34-.35.57-.57.72-.76q.21-.24.2-.3a1 1 0 0 0 0-.6 1 1 0 0 0-.2-.3c-.15-.19-.38-.41-.72-.76l-.75-.72a1 1 0 0 0-.3-.2M11.1 1.39a2.7 2.7 0 0 1 1.8 0q.5.19.88.53.36.33.85.82t.82.85q.33.38.53.87c.2.59.2 1.23 0 1.81q-.2.5-.53.87-.34.37-.82.85-.48.5-.85.82-.38.35-.87.54c-.59.2-1.23.2-1.82 0a3 3 0 0 1-.86-.54q-.37-.33-.86-.82t-.82-.85a3 3 0 0 1-.53-.87 2.7 2.7 0 0 1 0-1.81q.2-.5.53-.87.34-.37.82-.85.48-.5.86-.82.37-.34.86-.53m1.2 1.7a1 1 0 0 0-.6 0q-.06-.01-.3.2c-.19.15-.41.38-.75.72-.35.35-.57.57-.73.75q-.2.25-.2.3a1 1 0 0 0 0 .6q0 .06.2.3c.16.2.38.42.73.76s.56.57.75.72q.24.21.3.21.3.1.6 0c.05-.02.13-.06.3-.2.19-.16.41-.38.75-.73l.73-.75a1 1 0 0 0 .2-.3 1 1 0 0 0 0-.6 1 1 0 0 0-.2-.3c-.16-.2-.38-.41-.73-.76-.34-.34-.56-.57-.75-.72a1 1 0 0 0-.3-.2" clip-rule="evenodd"/></svg>