<svg viewBox="0 0 24 24" xmlns="http://www.w3.org/2000/svg" width="24" height="24"><path fill-rule="evenodd" d="M16.38 9.27h.84q.38 0 .7.03l.33.04q.5.06.96.29l.22.13q.79.48 1.22 1.31l.07.16q.22.54.25 1.13l.02.33.01.37V17l-.03.34q-.04.59-.25 1.13l-.07.16q-.43.83-1.22 1.31l-.22.13q-.46.23-.96.29l-.33.03q-.32.03-.7.03h-3.95l-.34-.03q-.59-.04-1.13-.25l-.16-.07q-.83-.43-1.31-1.22l-.13-.22q-.22-.46-.3-.96l-.03-.33-.03-.7V13.9q0-.9.03-1.54l.04-.33q.06-.5.29-.96l.13-.23a3.3 3.3 0 0 1 1.31-1.21l.16-.07q.54-.23 1.13-.26l.33-.02 1.2-.01zm-1.87 2.04-1.15.01-.27.02q-.34.03-.45.08l-.07.03q-.31.16-.5.46l-.05.09a1 1 0 0 0-.1.32l-.01.2c-.03.33-.03.76-.03 1.42v1.83c0 .65 0 1.08.03 1.41l.02.2a1 1 0 0 0 .09.33l.04.09q.2.3.5.46l.08.03q.11.05.45.08l.27.02h2.98c.65 0 1.08 0 1.41-.02l.2-.02q.26-.04.33-.09l.09-.05q.3-.19.46-.5l.03-.07q.05-.12.08-.46l.02-.27V12.8l-.02-.27a2 2 0 0 0-.08-.45l-.03-.07q-.16-.32-.46-.5l-.1-.05a1 1 0 0 0-.31-.1l-.2-.01c-.34-.03-.77-.03-1.42-.03z" clip-rule="evenodd"/><path d="m11.43 3.56.28.02a2.73 2.73 0 0 1 2.45 2.71 1.02 1.02 0 0 1-2.04 0 .7.7 0 0 0-.7-.69H7.67l-1.15.01-.26.02q-.35.03-.46.08l-.07.03q-.31.16-.5.46l-.05.1q-.04.06-.09.31l-.02.2c-.03.34-.03.77-.03 1.42v2.63c0 .58 0 .72.03.82l.05.18c.14.41.5.72.94.8l.08.02.73.01a1.02 1.02 0 0 1 0 2.04h-.1q-.48 0-.86-.02l-.25-.04a3.3 3.3 0 0 1-2.54-2.35l-.06-.25-.05-.51V8.19q0-.9.03-1.54l.03-.33q.06-.5.3-.96l.12-.22A3.3 3.3 0 0 1 4.8 3.92l.16-.07q.54-.22 1.13-.25l.33-.02q.53-.03 1.2-.02z"/></svg>