<svg viewBox="0 0 24 24" xmlns="http://www.w3.org/2000/svg" width="24" height="24"><path fill-rule="evenodd" d="M16.38 9.27L17.22 9.27Q17.6 9.27 17.92 9.3L18.25 9.34Q18.75 9.4 19.21 9.63L19.43 9.76Q20.22 10.24 20.65 11.07L20.72 11.23Q20.94 11.77 20.97 12.36L21 13.06L21 17L20.97 17.34Q20.93 17.93 20.72 18.47L20.65 18.63Q20.22 19.46 19.43 19.94L19.21 20.07Q18.75 20.3 18.25 20.36L17.92 20.39Q17.6 20.42 17.22 20.42L13.27 20.42L12.93 20.39Q12.34 20.35 11.8 20.14L11.64 20.07Q10.81 19.64 10.33 18.85L10.2 18.63Q9.98 18.17 9.9 17.67L9.84 16.64L9.84 13.9Q9.84 13 9.87 12.36L9.91 12.03Q9.97 11.53 10.2 11.07L10.33 10.84A3.3 3.3 0 0 1 11.64 9.63L11.8 9.56Q12.34 9.33 12.93 9.3L14.46 9.27ZM14.51 11.31L13.09 11.34Q12.75 11.37 12.64 11.42L12.57 11.45Q12.26 11.61 12.07 11.91L12.02 12A1 1 0 0 0 11.92 12.32L11.91 12.52C11.88 12.85 11.88 13.28 11.88 13.94L11.88 15.77C11.88 16.42 11.88 16.85 11.91 17.18L11.93 17.38A1 1 0 0 0 12.02 17.71L12.06 17.8Q12.26 18.1 12.56 18.26L12.64 18.29Q12.75 18.34 13.09 18.37L16.34 18.39C16.99 18.39 17.42 18.39 17.75 18.37L17.95 18.35Q18.21 18.31 18.28 18.26L18.37 18.21Q18.67 18.02 18.83 17.71L18.86 17.64Q18.91 17.52 18.94 17.18L18.94 12.53A2 2 0 0 0 18.86 12.08L18.83 12.01Q18.67 11.69 18.37 11.51L18.27 11.46A1 1 0 0 0 17.96 11.36L17.76 11.35C17.42 11.32 16.99 11.32 16.34 11.32Z" clip-rule="evenodd"/><path d="M11.43 3.56L11.71 3.58A2.73 2.73 0 0 1 14.16 6.29A1.02 1.02 0 0 1 12.12 6.29A.7 .7 0 0 0 11.42 5.6L6.26 5.63Q5.91 5.66 5.8 5.71L5.73 5.74Q5.42 5.9 5.23 6.2L5.18 6.3Q5.14 6.36 5.09 6.61L5.07 6.81C5.04 7.15 5.04 7.58 5.04 8.23L5.04 10.86C5.04 11.44 5.04 11.58 5.07 11.68L5.12 11.86C5.26 12.27 5.62 12.58 6.06 12.66L6.87 12.69A1.02 1.02 0 0 1 6.87 14.73L6.77 14.73Q6.29 14.73 5.91 14.71L5.66 14.67A3.3 3.3 0 0 1 3.12 12.32L3.06 12.07L3.01 11.56L3.01 8.19Q3.01 7.29 3.04 6.65L3.07 6.32Q3.13 5.82 3.37 5.36L3.49 5.14A3.3 3.3 0 0 1 4.8 3.92L4.96 3.85Q5.5 3.63 6.09 3.6L6.42 3.58Q6.95 3.55 7.62 3.56Z"/></svg>