<svg viewBox="0 0 24 24" xmlns="http://www.w3.org/2000/svg" width="24" height="24"><path d="M8.824 10.207A.9 .9 0 0 0 9.648 9.238A.9 .9 0 0 0 8.679 8.413A4 4 0 0 0 5 12.4A.9 .9 0 0 0 5 12.404L5.024 18.322A3.976 3.976 0 0 0 9 22.296L15 22.296A3.976 3.976 0 0 0 18.976 18.322L19 12.404A.9 .9 0 0 0 19 12.4A4 4 0 0 0 15.321 8.413A.9 .9 0 0 0 14.352 9.238A.9 .9 0 0 0 15.176 10.207A2.2 2.2 0 0 1 17.2 12.398L17.176 18.316A.9 .9 0 0 0 17.176 18.32A2.176 2.176 0 0 1 15 20.496L9 20.496A2.176 2.176 0 0 1 6.824 18.32A.9 .9 0 0 0 6.824 18.316L6.8 12.398A2.2 2.2 0 0 1 8.824 10.207Z"/><path d="M12 3.4A.9 .9 0 0 1 12.9 4.22L12.9 14.8L14.32 13.4A.9 .9 0 0 1 15.59 14.66L12.64 17.62A.9 .9 0 0 1 11.37 17.62L8.48 14.72A.9 .9 0 0 1 9.76 13.46L11.11 14.81L11.11 4.2A.9 .9 0 0 1 12.01 3.4"/></svg>