<svg viewBox="0 0 24 24" xmlns="http://www.w3.org/2000/svg" width="24" height="24"><path d="M8.824 10.207A.9 .9 0 0 0 9.648 9.238A.9 .9 0 0 0 8.679 8.413A4 4 0 0 0 5 12.4A.9 .9 0 0 0 5 12.404L5.024 18.322A3.976 3.976 0 0 0 9 22.296L15 22.296A3.976 3.976 0 0 0 18.976 18.322L19 12.404A.9 .9 0 0 0 19 12.4A4 4 0 0 0 15.321 8.413A.9 .9 0 0 0 14.352 9.238A.9 .9 0 0 0 15.176 10.207A2.2 2.2 0 0 1 17.2 12.398L17.176 18.316A.9 .9 0 0 0 17.176 18.32A2.176 2.176 0 0 1 15 20.496L9 20.496A2.176 2.176 0 0 1 6.824 18.32A.9 .9 0 0 0 6.824 18.316L6.8 12.398A2.2 2.2 0 0 1 8.824 10.207Z"/><path d="M11.1 4.3L11.1 14.817L12 15.723L12.9 14.817L12.9 4.3A.9 .9 0 0 0 11.1 4.3ZM8.481 14.734L11.361 17.634A.9 .9 0 0 0 12.639 17.634L15.519 14.734A.9 .9 0 0 0 14.241 13.466L12 15.723L9.759 13.466A.9 .9 0 0 0 8.481 14.734Z"/></svg>