<svg viewBox="0 0 24 24" xmlns="http://www.w3.org/2000/svg" width="24" height="24"><path d="M14.01 10.26c.5 0 .9.4.9.9v1.94h2.03a.9.9 0 0 1 0 1.8H14.9v2.03a.9.9 0 0 1-1.8 0V14.9h-1.94a.9.9 0 0 1 0-1.8h1.94v-1.94c0-.5.4-.9.9-.9"/><path fill-rule="evenodd" d="M12.13 3.05c1.3.02 2.09.1 2.73.43a4 4 0 0 1 1.75 1.74c.24.48.34 1.03.39 1.82.79.04 1.35.15 1.83.4a4 4 0 0 1 1.74 1.74c.44.86.44 1.98.44 4.22v2.68c-.03 1.3-.11 2.1-.44 2.74l-.15.27a4 4 0 0 1-1.6 1.47l-.16.08c-.61.26-1.38.33-2.57.35l-1.48.01h-2.69a7 7 0 0 1-2.56-.36l-.17-.08a4 4 0 0 1-1.6-1.47l-.15-.27a5 5 0 0 1-.4-1.82 5 5 0 0 1-1.65-.32l-.16-.08a4 4 0 0 1-1.6-1.47l-.15-.27c-.33-.65-.41-1.44-.43-2.74V9.44c0-2.1 0-3.22.35-4.05l.08-.17a4 4 0 0 1 1.47-1.59l.28-.15c.64-.33 1.43-.41 2.73-.43l1.48-.01zM13.4 8.8c-1.15 0-1.9 0-2.48.05-.56.04-.79.12-.92.19a2.2 2.2 0 0 0-.96.96 2 2 0 0 0-.2.92c-.04.58-.04 1.33-.04 2.48v1.2c0 1.15 0 1.9.05 2.48.04.56.12.79.19.92q.33.63.96.96l.12.05c.15.05.38.1.8.14.57.05 1.33.05 2.48.05h1.2c1.15 0 1.9 0 2.48-.05.55-.04.79-.12.92-.19l.15-.09q.52-.3.8-.87l.06-.12c.05-.15.1-.38.14-.8.05-.58.05-1.33.05-2.48v-1.2c0-1.15 0-1.9-.05-2.48a3 3 0 0 0-.14-.8l-.05-.12a2.2 2.2 0 0 0-.96-.96 3 3 0 0 0-.92-.2c-.58-.04-1.33-.04-2.48-.04zM9.44 4.84c-1.15 0-1.9 0-2.48.05-.55.04-.79.12-.92.19a2.2 2.2 0 0 0-.96.96c-.07.13-.14.36-.19.92-.05.58-.05 1.33-.05 2.48v1.2c0 1.15 0 1.9.05 2.48.05.56.12.79.2.92q.32.63.95.96l.12.05c.15.05.38.1.8.14h.05v.17-1.96c0-2.1 0-3.22.36-4.05l.07-.17A4 4 0 0 1 8.92 7.6l.27-.15c.64-.33 1.44-.41 2.73-.43L13.41 7h2.01-.22v-.04a3 3 0 0 0-.15-.8L15 6.04a2.2 2.2 0 0 0-.96-.96 3 3 0 0 0-.92-.2c-.57-.04-1.33-.04-2.48-.04z" clip-rule="evenodd"/></svg>