<svg viewBox="0 0 24 24" xmlns="http://www.w3.org/2000/svg" width="24" height="24"><path d="M11.71 15.48a.9.9 0 0 1-1.7-.57z"/><path d="M12 4.3c2.65 0 4.9 2.07 4.9 4.7a.9.9 0 0 1-1.8 0c0-1.55-1.35-2.9-3.1-2.9S8.9 7.45 8.9 9v1.5a10 10 0 0 1 2.27-.2h.44c.83.02 1.58.4 1.99 1.03.44.69.42 1.58-.2 2.28l-.06.06-.02.01-.05.05a18 18 0 0 0-1.32 1.4l-.24.35-1.7-.57c.1-.33.34-.66.53-.9a11 11 0 0 1 1.3-1.4l.2-.2.03-.02.03-.04-.02-.04c-.04-.07-.2-.2-.51-.2h-.06l-.07-.01a12 12 0 0 0-2.54.24v1.86a.9.9 0 0 1-1.8 0V9c0-2.63 2.25-4.7 4.9-4.7"/><path fill-rule="evenodd" d="M12 1a8.1 8.1 0 0 1 8.11 8.11c0 2.87-1.55 5.17-3.6 6.7l-.4.3a8 8 0 0 0-2.05 2.34q-.45.7-.8 1.33c-.23.39-.46.78-.66 1.05A5 5 0 0 1 8.4 23a4.56 4.56 0 0 1-4.52-4.57V9.1A8.1 8.1 0 0 1 12 1m0 1.8a6.3 6.3 0 0 0-6.31 6.31v9.32a2.76 2.76 0 0 0 2.7 2.77 3.3 3.3 0 0 0 2.77-1.44l.1-.15q.18-.27.44-.74c.24-.4.52-.89.84-1.39a10 10 0 0 1 2.55-2.85l.35-.25c1.71-1.29 2.87-3.11 2.87-5.27a6.3 6.3 0 0 0-6-6.3z" clip-rule="evenodd"/></svg>