<svg viewBox="0 0 24 24" xmlns="http://www.w3.org/2000/svg" width="24" height="24"><path fill-rule="evenodd" d="M12 1.01a11 11 0 1 1 0 22 11 11 0 0 1 0-22m.69 1.83q-.24-.02-.31 0a.3.3 0 0 0-.14.12q-.05.06-.1.45l-.02.06c-.1.41-.53.65-.93.58-.42-.08-.64-.39-.96-.63-.28-.22-.59-.04-.91-.07h-.08l-.17-.03H9l-.08.03-.1.04c-.08.05-.07.03-.1.11l-.18.53c-.17.36-.95.53-.48 1.05.35.38 1.03.1 1.38-.15.34-.24.55-.78 1.04-.69.39.08.8.61 1.02.92.75 1.02-1.1 1-1.66 1.36-.22.14-.55.36-.67.6-.16.3 0 .45.05.77.06.53-.27.75-.66 1.04-.56.44-.44.7-.33 1.32.07.42-.02.83-.5.57-.25-.13-.38-.4-.66-.51a2 2 0 0 0-.68-.04c-.54.06-1.03.26-.88.89.11.49.64 1.09 1.15 1.16.54.07.86-.47 1.36-.53.27-.04.47.1.72.16.28.07.51.01.79.03.6.05 1.01.57 1.47.9.8.6 2.28.96 2.54 2.05.17.74.04 1.59-.38 2.22-.43.64-1.14 1.03-1.65 1.6a4 4 0 0 0-1.03 2.1q-.01.2.2.25A9.2 9.2 0 0 0 19 17.95l.02-.1-.03-.2q-.14-.61-.17-1.23c-.03-.42-.02-.81-.16-1.22a3 3 0 0 1-.24-1.25c.03-1.34-.63-.96-1.56-.9s-1.81-.4-2.23-1.26c-.43-.9-.15-1.58.52-2.21.35-.33.52-.76.84-1.09.34-.33.87-.37 1.31-.45.4-.06.8-.16 1.2-.07.45.11.67.48 1.03.73.36.26.6.29.78.22q.08-.02.15-.08a.4.4 0 0 0 .07-.18c.01-.08-.01-.13-.06-.24a9 9 0 0 0-.59-1.12c-.05-.05-.05-.04-.12-.06a3 3 0 0 0-.58.06q-.2.04-.25-.23c-.04-.24 0-.42-.19-.61a.8.8 0 0 0-.52-.21c-.45 0-.6.48-.84.76-.32.36-.95.48-1.37.23-.33-.2-.53-.86-.18-1.14.13-.1.3-.11.45-.15a.8.8 0 0 0 .56-.43q.24-.38.6-.68a.17.17 0 0 0-.03-.26l-.25-.18c-.06-.04-.14.02-.12.1.13.47-.29.66-.7.66-.27 0-.85-.06-.81-.45.03-.35.45-.7.75-.83v-.01a9 9 0 0 0-3.6-1.03m-8.96 8c-.22-.35-.33-.53-.44-.57a.3.3 0 0 0-.28.06c-.1.08-.11.28-.15.67a9.2 9.2 0 0 0 5.21 9.32q.34.17.47.15a.3.3 0 0 0 .2-.16c.04-.09.02-.23-.03-.52l-.15-1c-.07-.58-.06-1.18-.49-1.62-.42-.44-1.04-.57-1.3-1.17-.36-.82.16-1.82-.32-2.6-.54-.89-1.76-.6-2.22-1.62a9 9 0 0 0-.5-.93m4.6 2.61c-.25.06-.1-.12-.18.17-.07.25.06.7.05.97 0 .19-.09.59 0 .76.1.16.47.3.63.42q.75.57 1.05 1.46c.04.11.07.62.17.68.14.08.38-.3.5-.42.41-.41 1.06-.76 1.36-1.28.3-.55.16-.88-.32-1.15-.62-.34-1.22-.68-1.78-1.12-.2-.17-.35-.33-.62-.39a4 4 0 0 0-.86-.1m9.74-3.94a2 2 0 0 0-1.02.2c-.15.11-.26.39-.38.54-.15.17-.37.32-.5.5-.65.92.97.66 1.37.6.8-.13 1.64.02 2.21.64.71.77.15 1.41.22 2.18.03.41.28.8.34 1.22.02.12.18.15.23.04a9 9 0 0 0 .61-4.35q-.01-.21-.05-.28a.3.3 0 0 0-.11-.12q-.06-.04-.34-.06c-.35-.05-.71-.15-.95-.19a2.4 2.4 0 0 1-1.06-.45c-.17-.13-.37-.4-.57-.47M6.42 5.26c-.05-.2-.3-.32-.46-.18A9 9 0 0 0 4 7.47q-.06.09-.07.15t-.01.1.05.18c.23.59.41 1.34 1.04 1.16.48-.13.91-.26 1.42-.35.26-.04.2 0 .37-.16.14-.13.24-.34.38-.49.31-.34.39-.59.37-1.07-.02-.5-.48-.63-.77-1q-.26-.32-.36-.73" clip-rule="evenodd"/></svg>