<svg viewBox="0 0 24 24" xmlns="http://www.w3.org/2000/svg" width="24" height="24"><path fill-rule="evenodd" d="M10.93 1.54a3.2 3.2 0 0 1 2.96 3.21v.46h2.74a2.7 2.7 0 0 1 2.69 2.69v2.74h.46a3.17 3.17 0 1 1 .04 6.36h-.5v2.78a2.7 2.7 0 0 1-2.69 2.69h-3.27a1 1 0 0 1-1-1V20.2c0-.71-.6-1.35-1.5-1.4l-.2-.01c-.88.02-1.64.8-1.64 1.72v.96a1 1 0 0 1-1 1H4.8a2.73 2.73 0 0 1-2.72-2.72V16.5a1 1 0 0 1 .29-.7l.07-.07a1 1 0 0 1 .63-.22h1.27c.76 0 1.47-.69 1.55-1.55v-.17a1.66 1.66 0 0 0-1.58-1.64H3.06a1 1 0 0 1-1-.99V7.93l.02-.27a2.73 2.73 0 0 1 2.7-2.45h2.75v-.66a3.2 3.2 0 0 1 3.24-3.02zm-.2 1.8a1.4 1.4 0 0 0-1.4 1.37v1.31a1 1 0 0 1-.99 1H4.7a.93.93 0 0 0-.83.92v2.42h.43c1.87 0 3.36 1.6 3.38 3.41v.17c-.06 1.75-1.47 3.37-3.35 3.37h-.46v2.53a.93.93 0 0 0 .92.83h2.43v-.16a3.54 3.54 0 0 1 3.4-3.52h.34c1.65.12 3.2 1.34 3.2 3.2v.48h2.47a.9.9 0 0 0 .89-.9V16.2a1 1 0 0 1 .29-.7l.07-.07a1 1 0 0 1 .63-.22h1.31a1.4 1.4 0 0 0 1.38-1.42c0-.73-.62-1.33-1.42-1.34h-1.27a1 1 0 0 1-1-.99V7.9a.9.9 0 0 0-.88-.89h-3.55a1 1 0 0 1-1-.99V4.75a1.4 1.4 0 0 0-1.2-1.4z" clip-rule="evenodd"/></svg>