<svg viewBox="0 0 24 24" xmlns="http://www.w3.org/2000/svg" width="24" height="24"><path d="M19.9 7.27q.99.85 1.72 1.64l.41.44c.38.43.68.85.9 1.51l.03.14c.08.32.1.7.1 1.02q.01.51-.1 1.03l-.04.14a3.6 3.6 0 0 1-.89 1.5l-.41.45c-1.96 2.07-5.3 4.9-9.23 5.08h-.38a10 10 0 0 1-4.1-.94l1.37-1.38q1.33.51 2.73.53l.3-.01c3.17-.15 6.08-2.49 8-4.51l.37-.4c.3-.35.42-.53.52-.86l.03-.1a3 3 0 0 0 0-1.05l-.03-.1c-.1-.33-.21-.51-.52-.85l-.37-.4a21 21 0 0 0-1.68-1.6zM18.64 4.1A.9 .9 0 0 1 19.91 5.37L5.29 19.98A.9 .9 0 0 1 4.03 18.71L4.09 18.65Z"/><path d="M16.84 10.35q.26.78.27 1.65v.26a5.1 5.1 0 0 1-4.85 4.85H12a5 5 0 0 1-1.66-.27l1.53-1.53h.3a3.3 3.3 0 0 0 3.14-3.3v-.14zm-4.45-6.52c1.3.06 2.53.4 3.67.92l-1.38 1.38a8 8 0 0 0-2.67-.5h-.31c-2.97.14-5.7 2.2-7.61 4.12l-.39.4c-.52.55-.7.76-.83 1.1l-.06.15q-.05.17-.06.62 0 .46.06.63l.06.16c.13.33.3.54.83 1.1l.39.4q.57.58 1.26 1.16l-1.28 1.28q-.7-.6-1.28-1.2l-.4-.4c-.5-.55-.9-.96-1.18-1.65l-.12-.31a4 4 0 0 1-.14-1.17c0-.37.03-.8.14-1.16l.12-.31c.27-.69.67-1.1 1.19-1.64l.4-.41C4.85 6.42 8.16 3.82 12 3.82z"/><path d="M12.26 6.9q.73.04 1.4.27l-1.54 1.52H12A3.3 3.3 0 0 0 8.69 12v.12l-1.53 1.53a5 5 0 0 1-.26-1.39V12A5.1 5.1 0 0 1 12 6.9z"/></svg>