<svg viewBox="0 0 24 24" xmlns="http://www.w3.org/2000/svg" width="24" height="24"><path fill-rule="evenodd" d="M12.26 6.9a5.1 5.1 0 0 1 4.85 5.1v.26a5.1 5.1 0 0 1-4.85 4.85H12a5.1 5.1 0 0 1-5.1-4.85L6.89 12A5.1 5.1 0 0 1 12 6.9zM12 8.7A3.3 3.3 0 0 0 8.7 12v.17a3.3 3.3 0 0 0 3.3 3.14h.17a3.3 3.3 0 0 0 3.14-3.3v-.18a3.3 3.3 0 0 0-3.14-3.13z" clip-rule="evenodd"/><path fill-rule="evenodd" d="M12.36 3.83c3.58.15 6.68 2.51 8.67 4.48l.43.43q.65.62 1.07 1.23c.4.6.62 1.25.62 2.06l-.01.29a3.5 3.5 0 0 1-.6 1.76q-.44.6-1.08 1.24l-.43.42c-2 1.97-5.09 4.33-8.67 4.48H12c-3.5 0-6.56-2.15-8.63-4.1l-.4-.38c-.59-.58-1.13-1.1-1.5-1.66a3.5 3.5 0 0 1-.6-1.76l-.01-.3c0-.8.2-1.44.61-2.05.37-.55.91-1.08 1.5-1.66l.4-.39C5.44 5.98 8.5 3.82 12 3.82zM12 5.63c-2.8 0-5.43 1.75-7.38 3.59l-.38.37c-.64.63-1.02 1.01-1.27 1.38-.21.32-.31.6-.31 1.06v.16c.03.36.13.61.31.89.25.37.63.75 1.27 1.38l.38.37c1.95 1.83 4.58 3.6 7.38 3.6l.28-.01c2.88-.12 5.55-2.06 7.48-3.96l.43-.43c.39-.39.65-.68.84-.95.2-.32.3-.6.3-1.05v-.17a1.7 1.7 0 0 0-.3-.89 7 7 0 0 0-.84-.95l-.43-.43c-1.93-1.9-4.6-3.84-7.48-3.96z" clip-rule="evenodd"/></svg>