<svg viewBox="0 0 24 24" xmlns="http://www.w3.org/2000/svg" width="24" height="24"><path fill-rule="evenodd" d="M17.45 1.98A3.2 3.2 0 0 1 22.04 1.96L22.15 2.08A3.2 3.2 0 0 1 21.95 6.61L18.58 9.21A.8 .8 0 0 0 18.39 9.75L18.4 9.9L18.44 9.95A2.45 2.45 0 0 1 14.97 13.42L14.51 12.96L5.74 21.73C5.44 21.99 5.04 22.17 4.72 22.3Q4.14 22.51 3.52 22.67A20 20 0 0 1 2.18 22.96L2.06 22.98A.9 .9 0 0 1 1.02 21.94L1.04 21.81A20 20 0 0 1 1.71 19.27A3 3 0 0 1 2.34 18.19L11.04 9.49L10.58 9.03A2.45 2.45 0 0 1 14.05 5.55L14.11 5.61L14.25 5.63C14.41 5.63 14.6 5.59 14.78 5.42L17.39 2.05ZM3.7 19.38a2 2 0 0 0-.16.4q-.08.39.1.57c.14.13.3.17.58.11q.2-.05.35-.13.03 0 .05-.03l8.62-8.61-.93-.93zM12.78 6.83A.65 .65 0 0 0 11.85 7.75L16.25 12.15A.65 .65 0 0 0 17.17 11.22ZM20.76 3.23A1.4 1.4 0 0 0 18.78 3.2L16.09 6.67Q15.83 6.92 15.57 7.07L16.93 8.44Q17.09 8.17 17.33 7.91L20.79 5.23A1.4 1.4 0 0 0 20.76 3.23" clip-rule="evenodd"/></svg>