<svg viewBox="0 0 24 24" xmlns="http://www.w3.org/2000/svg" width="24" height="24"><path fill-rule="evenodd" d="M17.45 1.98a3.2 3.2 0 0 1 4.59-.02l.11.12a3.2 3.2 0 0 1-.2 4.53l-3.37 2.6a.8.8 0 0 0-.19.54l.01.15.04.05a2.45 2.45 0 0 1-3.47 3.47l-.46-.46-8.7 8.7-.07.07c-.3.26-.7.44-1.02.57q-.58.21-1.2.37a20 20 0 0 1-1.34.29l-.09.01h-.03v.01a.9.9 0 0 1-1.04-1.04v-.04l.02-.09a20 20 0 0 1 .67-2.54 3 3 0 0 1 .63-1.08l8.7-8.7-.46-.46a2.45 2.45 0 0 1 3.47-3.48l.06.06.14.02c.16 0 .35-.04.53-.21l2.61-3.37zM3.7 19.38a2 2 0 0 0-.16.4q-.08.39.1.57c.14.13.3.17.58.11q.2-.05.35-.13.03 0 .05-.03l8.62-8.61-.93-.93zm9.08-12.55a.65.65 0 0 0-.93.92l1.08 1.08.02.02.02.02 2.17 2.17h.01v.02l1.1 1.09a.65.65 0 0 0 .92-.93zm7.98-3.6a1.4 1.4 0 0 0-1.98-.03l-2.62 3.38-.07.09q-.26.25-.52.4l1.36 1.37q.16-.27.4-.53l.09-.07 3.37-2.61a1.4 1.4 0 0 0-.03-2" clip-rule="evenodd"/></svg>