<svg viewBox="0 0 24 24" xmlns="http://www.w3.org/2000/svg" width="24" height="24"><path fill-rule="evenodd" d="M13.12 1c.82 0 1.62.32 2.23.89l4.73 4.46a4.2 4.2 0 0 1 1.3 3.02v4.92q.01 1.38-.04 2.27a4 4 0 0 1-.4 1.65 4.2 4.2 0 0 1-1.84 1.83q-.33.17-.7.25-.06.22-.17.42a4.2 4.2 0 0 1-1.83 1.83 4 4 0 0 1-1.65.41q-.89.06-2.27.05H8.82q-1.38.01-2.27-.05a4 4 0 0 1-1.65-.4 4.2 4.2 0 0 1-1.83-1.84 4 4 0 0 1-.4-1.64q-.07-.9-.06-2.28V9.71q-.01-1.38.05-2.27a4 4 0 0 1 .4-1.65A4.2 4.2 0 0 1 5.6 3.7q.08-.21.18-.41A4.2 4.2 0 0 1 7.6 1.46a4 4 0 0 1 1.65-.41q.89-.06 2.27-.05zM8.85 5.04c-.97 0-1.65 0-2.18.05a3 3 0 0 0-1.07.24q-.76.4-1.16 1.16c-.12.24-.2.55-.24 1.07-.05.53-.05 1.22-.05 2.19v7c0 .98 0 1.66.05 2.2.04.51.12.82.24 1.06q.4.76 1.16 1.16c.24.12.55.2 1.07.25.53.04 1.21.04 2.18.04h3.6c.97 0 1.65 0 2.18-.04a3 3 0 0 0 1.07-.25q.76-.4 1.16-1.16c.12-.24.2-.55.24-1.07.05-.53.05-1.21.05-2.18v-4.09h-4.03q-.68 0-1.15-.02a3 3 0 0 1-.97-.24 2.5 2.5 0 0 1-1.08-1.09q-.22-.46-.25-.96-.02-.47-.02-1.16V5.04zm9.47 5.13q.36.8.37 1.7v4.92q0 .99-.02 1.72.57-.39.89-1c.12-.24.2-.55.24-1.07.05-.53.05-1.22.05-2.19v-4.08zm-7.13-1c0 .49 0 .81.02 1.06.02.24.05.34.08.4q.14.26.4.4c.07.03.16.07.4.09s.57.02 1.06.02h3.89a3 3 0 0 0-.72-1.17L11.6 5.51a2 2 0 0 0-.4-.28zm2.7-3.61 3.26 3.07h2.59a3 3 0 0 0-.72-1.16L14.3 3a2 2 0 0 0-.4-.29zm-2.34-3.02c-.97 0-1.65 0-2.18.04-.52.05-.83.13-1.07.25q-.5.26-.85.68h2.97c.7 0 1.37.22 1.93.63v-1.6z" clip-rule="evenodd"/></svg>