<svg viewBox="0 0 24 24" xmlns="http://www.w3.org/2000/svg" width="24" height="24"><path fill-rule="evenodd" d="M12.27 1c.83 0 1.62.31 2.23.88l4.73 4.47a4.2 4.2 0 0 1 1.3 3.02v7.42q.01 1.38-.04 2.28a4 4 0 0 1-.4 1.64 4.2 4.2 0 0 1-1.84 1.83 4 4 0 0 1-1.65.4q-.89.07-2.27.06h-3.66c-.93 0-2.67 0-3.27-.05a4 4 0 0 1-1.65-.4 4.2 4.2 0 0 1-1.83-1.84 4 4 0 0 1-.4-1.64q-.08-.9-.06-2.28V7.21q-.01-1.39.05-2.28a4 4 0 0 1 .4-1.65 4.2 4.2 0 0 1 1.84-1.83 4 4 0 0 1 1.65-.4C8 1 9.74 1 10.67 1zM10.7 2.54c-.97 0-2.65 0-3.18.04a3 3 0 0 0-1.07.24q-.76.4-1.16 1.16c-.12.24-.2.55-.24 1.07C5 5.6 5 6.27 5 7.24v9.52c0 .97 0 1.65.05 2.18.04.52.12.83.24 1.07q.4.76 1.16 1.16c.24.12.55.2 1.07.24.53.05 2.21.05 3.18.05h3.6c.97 0 1.65 0 2.18-.05.52-.04.83-.12 1.07-.24q.76-.4 1.16-1.16c.12-.24.2-.55.24-1.07.05-.53.05-1.21.05-2.18v-6.6h-4.03q-.68 0-1.15-.02a3 3 0 0 1-.97-.24 2.5 2.5 0 0 1-1.08-1.09q-.22-.46-.25-.96-.02-.47-.02-1.16V2.54zm2.34 4.12c0 .5 0 .82.02 1.06s.05.34.08.4q.14.27.4.4c.07.03.16.07.4.09s.57.02 1.06.02h3.89a3 3 0 0 0-.72-1.17L13.44 3a2 2 0 0 0-.4-.28z" clip-rule="evenodd"/></svg>