<svg viewBox="0 0 24 24" xmlns="http://www.w3.org/2000/svg" width="24" height="24"><path d="M3.25 6.1L20.84 6.1C20.84 6.1 20.84 6.1 20.84 6.1A.9 .9 0 0 1 21.74 7C21.74 7 21.74 7 21.74 7L21.74 7C21.74 7 21.74 7 21.74 7A.9 .9 0 0 1 20.84 7.9C20.84 7.9 20.84 7.9 20.84 7.9L3.25 7.9C3.25 7.9 3.25 7.9 3.25 7.9A.9 .9 0 0 1 2.35 7C2.35 7 2.35 7 2.35 7L2.35 7C2.35 7 2.35 7 2.35 7A.9 .9 0 0 1 3.25 6.1C3.25 6.1 3.25 6.1 3.25 6.1ZM5.88 11.1L18.22 11.1C18.22 11.1 18.22 11.1 18.22 11.1A.9 .9 0 0 1 19.12 12C19.12 12 19.12 12 19.12 12L19.12 12C19.12 12 19.12 12 19.12 12A.9 .9 0 0 1 18.22 12.9C18.22 12.9 18.22 12.9 18.22 12.9L5.88 12.9C5.88 12.9 5.88 12.9 5.88 12.9A.9 .9 0 0 1 4.98 12C4.98 12 4.98 12 4.98 12L4.98 12C4.98 12 4.98 12 4.98 12A.9 .9 0 0 1 5.88 11.1C5.88 11.1 5.88 11.1 5.88 11.1ZM8.47 16.1L15.57 16.1C15.57 16.1 15.57 16.1 15.57 16.1A.9 .9 0 0 1 16.47 17C16.47 17 16.47 17 16.47 17L16.47 17C16.47 17 16.47 17 16.47 17A.9 .9 0 0 1 15.57 17.9C15.57 17.9 15.57 17.9 15.57 17.9L8.47 17.9C8.47 17.9 8.47 17.9 8.47 17.9A.9 .9 0 0 1 7.57 17C7.57 17 7.57 17 7.57 17L7.57 17C7.57 17 7.57 17 7.57 17A.9 .9 0 0 1 8.47 16.1C8.47 16.1 8.47 16.1 8.47 16.1Z"/></svg>