<svg viewBox="0 0 24 24" xmlns="http://www.w3.org/2000/svg" width="24" height="24"><path fill-rule="evenodd" d="m14.77 1.36.2.05.1.04.1.04.17.13.08.08.06.08.1.18.04.1.03.1a1 1 0 0 1 0 .38L14.5 8.89a.1.1 0 0 0 .1.12h4.37a.9.9 0 0 1 .7 1.47l-9.54 11.79a1 1 0 0 1-.78.37 1 1 0 0 1-.99-1.18l1.16-6.35a.1.1 0 0 0-.1-.12H5.04a.9.9 0 0 1-.7-1.47l9.54-11.78a1 1 0 0 1 .32-.27l.11-.05a1 1 0 0 1 .35-.06zM6.93 13.2H9.4a1.9 1.9 0 0 1 1.87 2.24l-.6 3.28 6.4-7.9h-2.49a1.9 1.9 0 0 1-1.87-2.24l.6-3.29z" clip-rule="evenodd"/></svg>