<svg viewBox="0 0 24 24" xmlns="http://www.w3.org/2000/svg" width="24" height="24"><path fill-rule="evenodd" d="M14.77 1.36L15.17 1.49L15.48 1.78L15.65 2.16A1 1 0 0 1 15.65 2.54L14.5 8.89A.1 .1 0 0 0 14.6 9.01L18.97 9.01A.9 .9 0 0 1 19.67 10.48L10.13 22.27A1 1 0 0 1 9.35 22.64A1 1 0 0 1 8.36 21.46L9.52 15.11A.1 .1 0 0 0 9.42 14.99L5.04 14.99A.9 .9 0 0 1 4.34 13.52L13.88 1.74A1 1 0 0 1 14.2 1.47L14.31 1.42A1 1 0 0 1 14.66 1.36ZM6.93 13.2H9.4a1.9 1.9 0 0 1 1.87 2.24l-.6 3.28 6.4-7.9h-2.49a1.9 1.9 0 0 1-1.87-2.24l.6-3.29z" clip-rule="evenodd"/></svg>