<svg viewBox="0 0 24 24" xmlns="http://www.w3.org/2000/svg" width="24" height="24"><path d="M1.26 1.26A.9 .9 0 0 1 2.54 1.26L22.8 21.52A.9 .9 0 0 1 21.53 22.79L1.26 2.53A.9 .9 0 0 1 1.26 1.26M8.3 11.49L6.93 13.19L9.4 13.19A1.9 1.9 0 0 1 11.27 15.43L10.67 18.71L12.84 16.03L14.12 17.31L10.11 22.27A1 1 0 0 1 9.33 22.64A1 1 0 0 1 8.36 21.9A1 1 0 0 1 8.34 21.47L9.5 15.11A.1 .1 0 0 0 9.4 14.99L5.04 14.99A.9 .9 0 0 1 4.34 13.52L7.02 10.21ZM14.77 1.36L15.17 1.49L15.48 1.78L15.65 2.17L15.65 2.54L14.49 8.89A.1 .1 0 0 0 14.59 9.01L18.96 9.01A.9 .9 0 0 1 19.66 10.48L16.97 13.79L15.69 12.51L17.07 10.81L14.6 10.81A1.9 1.9 0 0 1 12.73 8.57L13.33 5.28L11.16 7.97L9.88 6.69L13.88 1.74A1 1 0 0 1 14.21 1.47L14.32 1.42A1 1 0 0 1 14.67 1.36Z"/></svg>