<svg viewBox="0 0 24 24" xmlns="http://www.w3.org/2000/svg" width="24" height="24"><path d="M1.26 1.26a.9.9 0 0 1 1.28 0l20.2 20.2.06.06a.9.9 0 0 1-1.27 1.27l-.07-.06-20.2-20.2a.9.9 0 0 1 0-1.27M8.3 11.49l-1.37 1.7H9.4a1.9 1.9 0 0 1 1.87 2.24l-.6 3.28 2.17-2.68 1.28 1.28-4 4.96h-.01a1 1 0 0 1-.78.37 1 1 0 0 1-.97-.74 1 1 0 0 1-.02-.43v-.01l1.16-6.35a.1.1 0 0 0-.1-.12H5.04a.9.9 0 0 1-.7-1.47l2.68-3.31zm6.47-10.13.2.05.1.04.1.04.17.13.08.08.06.08.1.19.04.1.03.1.02.21v.1l-.02.06-1.16 6.35a.1.1 0 0 0 .1.12h4.37a.9.9 0 0 1 .7 1.47l-2.69 3.31-1.28-1.28 1.38-1.7H14.6a1.9 1.9 0 0 1-1.87-2.24l.6-3.29-2.17 2.69-1.28-1.28 4-4.95a1 1 0 0 1 .33-.27l.11-.05a1 1 0 0 1 .35-.06z"/></svg>