<svg viewBox="0 0 24 24" xmlns="http://www.w3.org/2000/svg" width="24" height="24"><path fill-rule="evenodd" d="M8.2 2.55c.48 0 .8 0 1.13.05q1.03.17 1.86.78c.27.2.5.43.84.77l.04.05c.4.4.53.53.68.63q.5.37 1.09.46c.17.03.36.03.93.03h.85c1.47 0 2.65 0 3.59.12a4.2 4.2 0 0 1 2.66 1.22c.62.67.9 1.5 1.02 2.46.12.94.12 2.12.12 3.59v1.22c0 1.52 0 2.76-.13 3.73a4.2 4.2 0 0 1-1.11 2.55c-.68.68-1.54.97-2.55 1.1-.97.14-2.2.14-3.73.14H8.5c-1.53 0-2.76 0-3.73-.13a4.2 4.2 0 0 1-2.55-1.11 4.2 4.2 0 0 1-1.1-2.55c-.14-.97-.14-2.2-.14-3.73V9.18q-.02-1.64.07-2.72c.08-.74.23-1.39.6-1.97q.5-.76 1.27-1.26a4 4 0 0 1 1.97-.6c.72-.08 1.61-.08 2.72-.08zM7.66 4.3c-1.16 0-1.97 0-2.59.06-.6.06-.95.17-1.2.33q-.45.3-.74.75a2.6 2.6 0 0 0-.33 1.2c-.07.62-.07 1.42-.07 2.59v4.63c0 1.6 0 2.73.12 3.57.1.82.3 1.24.61 1.55.3.3.73.5 1.55.61.84.11 1.96.11 3.57.11h6.85c1.6 0 2.72 0 3.56-.11.82-.11 1.25-.31 1.55-.61s.5-.73.61-1.55c.12-.84.12-1.96.12-3.57v-1.1c0-1.53 0-2.6-.1-3.41-.11-.79-.3-1.2-.57-1.5l-.12-.12c-.3-.28-.71-.46-1.5-.56-.8-.1-1.88-.1-3.42-.1h-.85c-.48 0-.81 0-1.14-.06a4 4 0 0 1-1.86-.77c-.26-.2-.5-.44-.83-.77l-.05-.05c-.4-.4-.53-.53-.67-.64q-.49-.37-1.1-.45a7 7 0 0 0-.92-.03z" clip-rule="evenodd"/></svg>