<svg viewBox="0 0 24 24" xmlns="http://www.w3.org/2000/svg" width="24" height="24"><path fill-rule="evenodd" d="M17.44 7.6c1.63 0 2.7.2 3.4.44q.51.17.77.34h.6a.9.9 0 0 1 .01 1.79c-.05 1.89-.26 3.38-.9 4.43-.81 1.36-2.17 1.8-3.88 1.8-1.7 0-3.06-.44-3.88-1.8a8 8 0 0 1-.85-3.46 1 1 0 0 1-.05-.3.66.66 0 0 0-.66-.66.66.66 0 0 0-.66.65q0 .16-.05.3a8 8 0 0 1-.85 3.47c-.82 1.36-2.18 1.8-3.88 1.8s-3.07-.44-3.89-1.8c-.63-1.05-.84-2.54-.9-4.43a.9.9 0 0 1 .12-1.8h.5q.27-.16.77-.33c.7-.24 1.77-.44 3.4-.44s2.7.2 3.4.44a4 4 0 0 1 1.06.54 2.5 2.5 0 0 1 1.96 0l.28-.2q.27-.16.79-.34c.7-.24 1.77-.44 3.4-.44M6.56 9.4a9 9 0 0 0-2.99.4c.03 2.03.24 3.2.65 3.88.35.58.93.92 2.34.92s1.99-.34 2.34-.92c.4-.68.6-1.85.64-3.88l-.16-.06a9 9 0 0 0-2.82-.34m10.88 0a9 9 0 0 0-2.98.4c.03 2.03.24 3.2.64 3.88.35.58.94.92 2.34.92s2-.34 2.34-.92c.4-.68.61-1.85.64-3.88l-.15-.06a9 9 0 0 0-2.83-.34" clip-rule="evenodd"/></svg>