<svg viewBox="0 0 24 24" xmlns="http://www.w3.org/2000/svg" width="24" height="24"><path fill-rule="evenodd" d="M3.2 9.4a9 9 0 0 0 0 5.2h4a22 22 0 0 1 0-5.2zm.77-1.85h3.56c.43-1.84 1.1-3.27 1.82-4.32a9.2 9.2 0 0 0-5.38 4.32M12 3.01c-.76.6-1.93 2-2.6 4.54h5.2c-.67-2.54-1.84-3.95-2.6-4.54m2.96 6.38H9.04a20 20 0 0 0 0 5.22h5.92a20 20 0 0 0 0-5.22m1.83 5.22a22 22 0 0 0 0-5.22h4.01a9 9 0 0 1 0 5.22zm-2.2 1.84H9.4c.67 2.54 1.84 3.95 2.6 4.54.76-.6 1.93-2 2.6-4.54m-5.24 4.32a13 13 0 0 1-1.82-4.32H3.97a9.2 9.2 0 0 0 5.38 4.32m5.3 0c.73-1.05 1.4-2.48 1.82-4.32h3.56a9.2 9.2 0 0 1-5.38 4.32m5.38-13.22h-3.56a13 13 0 0 0-1.82-4.32 9.2 9.2 0 0 1 5.38 4.32M1 12a11 11 0 1 1 22 0 11 11 0 0 1-22 0" clip-rule="evenodd"/></svg>