<svg viewBox="0 0 24 24" xmlns="http://www.w3.org/2000/svg" width="24" height="24"><path d="M14.25 15.2c0-.56.5-1 1.05-.85q1.11.28 2 .75c1.36.72 2.5 1.87 2.5 3.37s-1.14 2.65-2.5 3.37A11.6 11.6 0 0 1 12 23c-2.02 0-3.9-.43-5.3-1.16-1.36-.72-2.5-1.87-2.5-3.37s1.14-2.65 2.5-3.37a9 9 0 0 1 2-.75c.54-.14 1.05.29 1.05.85 0 .44-.31.8-.73.92q-.83.24-1.48.58C6.4 17.3 6 17.97 6 18.47s.4 1.17 1.54 1.77c1.1.58 2.67.96 4.46.96s3.37-.38 4.46-.96c1.14-.6 1.54-1.27 1.54-1.77s-.4-1.17-1.54-1.77a8 8 0 0 0-1.48-.58 1 1 0 0 1-.73-.92"/><path fill-rule="evenodd" d="M11.56 1.22a.9.9 0 0 1 .9 0l.84.48a23 23 0 0 0 7.98 2.8h.1a.99.99 0 0 1 .48 1.75l-.9.73a13.5 13.5 0 0 1-8.05 2.99V18a.9.9 0 0 1-1.8 0V1.88a.9.9 0 0 1 .45-.66m1.35 6.95c2.31-.09 4.55-.85 6.42-2.21q-3.37-.76-6.42-2.42z" clip-rule="evenodd"/></svg>