<svg viewBox="0 0 24 24" xmlns="http://www.w3.org/2000/svg" width="24" height="24"><path d="M12.7 10.9a3.9 3.9 0 1 1-7.8 0 3.9 3.9 0 0 1 7.8 0m6.4 1.73a2.92 2.92 0 1 1-5.85 0 2.92 2.92 0 0 1 5.84 0"/><path fill-rule="evenodd" d="M12 1a11 11 0 1 1 0 22 11 11 0 0 1 0-22m0 1.8a9.2 9.2 0 0 0-7.54 14.46q.14.21.22.25a.3.3 0 0 0 .2.03q.09-.02.31-.21l.3-.23a5.63 5.63 0 0 1 7.94 1.38c.45.69.23 1.4-.2 1.98-.08.11.03-.06-.12.17-.16.24-.02.47.28.47.62 0 .84-.17 1.19-.47s.7-1.52 0-2.72l-.1-.15-.2-.3q-.19-.22-.2-.32a.3.3 0 0 1 .05-.2c.05-.07.12-.1.27-.18a4 4 0 0 1 4.4.57c.17.14.25.2.33.22q.1.02.2-.02.07-.05.22-.26A9.2 9.2 0 0 0 12 2.8" clip-rule="evenodd"/></svg>