<svg viewBox="0 0 24 24" xmlns="http://www.w3.org/2000/svg" width="24" height="24"><g clip-path="url(#a)"><path fill-rule="evenodd" d="M12 1c5.66 0 11 4.9 11 11 0 .99-.31 2.28-.67 3.44a43 43 0 0 1-1 2.87l-.09.23-.06.14q-.18.39-.4.78a8 8 0 0 1-2.89 2.98c-1.02.56-2.23.8-3.29.28l-.2-.1-.67-.4h-.01a1.7 1.7 0 0 1-.6-2.28l4.22-7.41q.16-.3.42-.5l.14-.1q.22-.12.45-.19l.16-.03.33-.03.16.02.16.03q.17.04.32.1l.14.08.67.39.2.13q.34.24.6.57.1-.58.11-1c0-5.06-4.5-9.2-9.2-9.2S2.8 6.94 2.8 12q0 .42.1 1 .33-.41.8-.7h.01l.67-.4.14-.07q.23-.1.48-.13l.16-.02q.17 0 .33.03l.16.03.16.05.3.15.13.1.12.1q.18.16.3.39l4.22 7.4.08.16a1.7 1.7 0 0 1-.54 2.04l-.15.1-.66.38c-1.11.65-2.41.43-3.5-.17a7.8 7.8 0 0 1-3.3-3.77l-.05-.12c-.32-.81-.76-1.97-1.11-3.15A13 13 0 0 1 1 12C1 5.9 6.34 1 12 1m2.74 19.73.56.33.15.07c.36.14.9.1 1.57-.27a6 6 0 0 0 2.2-2.3c.62-1.08.89-2.2.87-3.08-.03-.9-.34-1.41-.7-1.63l-.55-.32zM4.62 13.85c-.36.22-.68.73-.7 1.63-.03.89.24 2 .86 3.09a6 6 0 0 0 2.2 2.3c.77.42 1.36.4 1.72.19l.56-.33-4.1-7.2z" clip-rule="evenodd"/></g><defs><clipPath id="a"><path d="M0 0h24v24H0z"/></clipPath></defs></svg>