<svg viewBox="0 0 24 24" xmlns="http://www.w3.org/2000/svg" width="24" height="24"><path fill-rule="evenodd" d="M12 4a7.5 7.5 0 0 0-3.7-1.9 6 6 0 0 0-5.22 1.47 6.7 6.7 0 0 0-2 4.12 9.4 9.4 0 0 0 .8 5.24c.59 1.24 1.99 2.8 3.44 4.25a78 78 0 0 0 4.36 3.95 3.6 3.6 0 0 0 4.64 0 78 78 0 0 0 4.36-3.95c1.45-1.44 2.85-3 3.44-4.26a9.4 9.4 0 0 0 .8-5.23 6.7 6.7 0 0 0-2-4.12A6 6 0 0 0 15.7 2.1 7.5 7.5 0 0 0 12 4m-4.01-.18A4.3 4.3 0 0 0 4.23 4.9c-.7.61-1.24 1.7-1.43 3.05s0 2.85.66 4.25c.44.93 1.62 2.3 3.1 3.77a76 76 0 0 0 4.24 3.85c.7.6 1.7.6 2.4 0a76 76 0 0 0 4.25-3.85c1.47-1.46 2.65-2.84 3.1-3.77.65-1.4.83-2.91.65-4.25a5 5 0 0 0-1.43-3.05 4.3 4.3 0 0 0-3.76-1.07 5.7 5.7 0 0 0-3.16 1.8c-.45.51-1.25.51-1.7 0A5.7 5.7 0 0 0 8 3.82" clip-rule="evenodd"/></svg>