<svg viewBox="0 0 24 24" xmlns="http://www.w3.org/2000/svg" width="24" height="24"><path d="M21.46 1.26A.9 .9 0 0 1 22.73 2.54L2.47 22.8A.9 .9 0 0 1 1.2 21.53L1.27 21.46ZM21.42 6.07c.49-.25 1.11-.08 1.27.44a9.4 9.4 0 0 1-.58 6.42c-.58 1.25-1.98 2.82-3.43 4.26a78 78 0 0 1-4.36 3.95 3.6 3.6 0 0 1-4.64 0l-1.26-1.08a.86.86 0 0 1-.04-1.26.9.9 0 0 1 1.2-.04l1.22 1.05c.7.6 1.7.6 2.4 0a76 76 0 0 0 4.25-3.85c1.47-1.46 2.65-2.84 3.1-3.77.65-1.4.83-2.91.65-4.25a5 5 0 0 0-.23-.86c-.14-.41.06-.81.45-1.01M3.08 3.59A6 6 0 0 1 8.3 2.1c1.43.26 2.74.99 3.7 1.89a7.5 7.5 0 0 1 3.7-1.89 5 5 0 0 1 1.18-.06c.55.03.87.62.67 1.13a1 1 0 0 1-.93.62q-.35 0-.6.02a5.7 5.7 0 0 0-3.17 1.8c-.45.51-1.25.51-1.7 0A5.7 5.7 0 0 0 8 3.82 4.3 4.3 0 0 0 4.23 4.9 5 5 0 0 0 2.8 7.94c-.18 1.34 0 2.85.66 4.25.28.61.89 1.4 1.68 2.29a.9.9 0 0 1-.02 1.22.85.85 0 0 1-1.24-.02 13 13 0 0 1-2-2.74 9.4 9.4 0 0 1-.8-5.24 6.7 6.7 0 0 1 2-4.11"/></svg>