<svg viewBox="0 0 24 24" xmlns="http://www.w3.org/2000/svg" width="24" height="24"><path d="M12.36 1.4a10.6 10.6 0 0 0-7.3 2.9l-.37.38-.02.02-.01.01-.03.04-1.89-1.89a1 1 0 0 0-1.7.7V8.5a1 1 0 0 0 1 1h4.94a1 1 0 0 0 .7-1.7L5.92 6.02l.1-.11a8.8 8.8 0 0 1 6.35-2.71 8.8 8.8 0 0 1 0 17.6h-.34a8.8 8.8 0 0 1-7.96-5.87l-.04-.08a.9.9 0 0 0-1.66.69l.14.38a10.6 10.6 0 0 0 9.45 6.68h.4a10.6 10.6 0 0 0 0-21.2"/><path d="M11.95 6.04c.5 0 .9.4.9.9v5.36h3.57a.9.9 0 0 1 0 1.8h-4.46l-.24-.03h-.02l-.02-.01-.16-.07a.9.9 0 0 1-.46-.7V6.95c0-.5.4-.9.9-.9"/></svg>