<svg viewBox="0 0 24 24" xmlns="http://www.w3.org/2000/svg" width="24" height="24"><path fill-rule="evenodd" d="M11.14 1.07q1-.19 2 .06l.17.05c.81.24 1.52.76 2.27 1.3l.12.08 4.1 2.92.1.07.43.31c.43.32.84.64 1.16 1.05l.14.18q.45.64.67 1.4l.07.24c.13.6.12 1.2.12 1.84v7.15l-.02.48-.02.45c-.05.59-.16 1.2-.47 1.8q-.6 1.17-1.71 1.86l-.32.18q-.68.33-1.36.41l-.45.05-.93.04h-1.07c-.86 0-1.55-.68-1.55-1.54V14.2c0-.57 0-.95-.02-1.24q-.03-.3-.07-.4l-.03-.06a1 1 0 0 0-.33-.39l-.15-.1a1 1 0 0 0-.46-.09 17 17 0 0 0-1.24-.02h-.57c-.57 0-.95 0-1.24.02q-.29.04-.4.07l-.06.03q-.23.13-.39.33l-.09.15c-.03.07-.07.18-.1.46s-.02.67-.02 1.24v7.24c0 .8-.61 1.47-1.4 1.55h-.16l-1.56-.01-.44-.03a5 5 0 0 1-1.58-.36l-.23-.1a4.7 4.7 0 0 1-2.03-2.04q-.33-.67-.41-1.36l-.06-.45q-.03-.42-.03-.92l-.01-1.08v-6.07c0-.72 0-1.42.19-2.09l.07-.21q.26-.74.74-1.36l.17-.2c.4-.44.9-.8 1.42-1.16l.06-.04.04-.03 4.1-2.92.13-.09.59-.41c.58-.4 1.18-.76 1.84-.93zm1.56 1.8q-.6-.14-1.23-.03l-.17.04a4 4 0 0 0-1.24.65l-.59.4-.13.1-4.1 2.92-.05.04-.04.02c-.57.4-.9.65-1.13.9l-.1.12q-.25.32-.4.7l-.1.26c-.1.37-.11.79-.11 1.58v7.12l.04.8.04.35q.06.46.23.8l.11.2q.43.67 1.14 1.04l.12.06q.4.17 1.02.22l.38.02 1.23.01V14.2q0-.81.03-1.39c.03-.39.1-.77.29-1.13l.11-.2a3 3 0 0 1 1.15-1.06l.14-.07q.48-.2 1-.22.56-.04 1.38-.03h.57q.82 0 1.39.03.59.03 1.13.29l.2.1q.69.45 1.07 1.16l.06.14q.2.48.22 1 .04.55.03 1.38v7q.99.01 1.6-.04l.34-.04q.47-.07.8-.24l.2-.1q.67-.43 1.05-1.14l.05-.12q.18-.4.22-1.02l.02-.38.02-.43v-7.65q0-.57-.08-.9l-.04-.15q-.11-.4-.33-.74l-.16-.22a4 4 0 0 0-.8-.7L18.86 7l-.09-.06-4.1-2.92-.13-.1a8 8 0 0 0-1.65-1z" clip-rule="evenodd"/></svg>