<svg viewBox="0 0 24 24" xmlns="http://www.w3.org/2000/svg" width="24" height="24"><path d="M13.88 6.9A.5 .5 0 0 1 14.27 7.7L13.92 8.15C13.55 8.62 12.92 9.42 12.6 10.39L12.53 10.61A5.3 5.3 0 0 0 12.42 12.9L11.57 12.9A5 5 0 0 1 11.54 10.96L11.39 10.39A7 7 0 0 0 10.29 8.44L9.72 7.71A.5 .5 0 0 1 10.12 6.9Z"/><path d="M12.53 10.61a5.3 5.3 0 0 1 0 2.78h-1.07l.08-.35a5 5 0 0 0 0-2.08l-.08-.35z"/><path d="M12.38 12.6A5.3 5.3 0 0 1 12.53 13.39L12.6 13.61C12.92 14.58 13.55 15.38 13.92 15.85L15.75 18.2A.53 .53 0 0 1 15.29 18.98L8.7 18.98A.53 .53 0 0 1 8.29 18.13L10.29 15.56C10.69 15.04 11.22 14.27 11.46 13.39L11.54 13.04A5 5 0 0 1 11.63 12.6Z"/><path fill-rule="evenodd" d="M16.22 1.73A3.05 3.05 0 0 1 19.12 4.77L19.11 5.02A6 6 0 0 1 17.83 8.52L16.25 10.54C15.98 10.89 15.83 11.12 15.75 11.37A2 2 0 0 0 15.75 12.63C15.85 12.96 16.09 13.26 16.55 13.86L17.83 15.49A6 6 0 0 1 19.11 19.23L19.11 19.39A3.05 3.05 0 0 1 16.22 22.27L7.78 22.27A3.05 3.05 0 0 1 4.89 19.39L4.89 19.23C4.89 17.96 5.29 16.73 6.02 15.69L7.44 13.86C7.85 13.33 8.08 13.04 8.2 12.76L8.25 12.63A2 2 0 0 0 8.25 11.37A3 3 0 0 0 7.75 10.54L6.17 8.51A6 6 0 0 1 4.9 5.02L4.9 4.77A3.05 3.05 0 0 1 7.79 1.73L16.23 1.73M7.95 3.53C7.25 3.53 6.7 4.08 6.7 4.77C6.7 5.72 7.02 6.65 7.6 7.41L8.87 9.04C9.21 9.46 9.62 9.96 9.87 10.54L10.05 11.1C10.22 11.79 10.2 12.52 9.97 13.2C9.74 13.9 9.25 14.47 8.87 14.96L7.6 16.6A4.3 4.3 0 0 0 6.7 19.24C6.7 19.93 7.26 20.49 7.95 20.49L16.07 20.49C16.77 20.49 17.32 19.93 17.32 19.24A4.3 4.3 0 0 0 16.42 16.6L15.15 14.97C14.77 14.48 14.28 13.9 14.05 13.21A3.8 3.8 0 0 1 14.05 10.81L14.15 10.55C14.4 9.97 14.81 9.47 15.15 9.05L16.4 7.4C16.98 6.64 17.3 5.71 17.3 4.76C17.3 4.07 16.74 3.51 16.05 3.51Z" clip-rule="evenodd"/></svg>