<svg viewBox="0 0 24 24" xmlns="http://www.w3.org/2000/svg" width="24" height="24"><path d="M13.88 6.9a.5.5 0 0 1 .39.8l-.23.3-.12.15c-.37.47-1 1.27-1.32 2.24l-.07.22a5.3 5.3 0 0 0-.11 2.29h-.85a5 5 0 0 1-.03-1.94l-.08-.35-.07-.22a7 7 0 0 0-1.1-1.95l-.34-.43-.23-.3a.5.5 0 0 1 .4-.81z"/><path d="M12.53 10.61a5.3 5.3 0 0 1 0 2.78h-1.07l.08-.35a5 5 0 0 0 0-2.08l-.08-.35z"/><path d="M12.38 12.6a5.3 5.3 0 0 1 .15.79l.07.22c.32.97.95 1.77 1.32 2.24l.12.14 1.66 2.14.05.07a.53.53 0 0 1-.46.78H8.7a.53.53 0 0 1-.41-.85l1.66-2.14.34-.43c.4-.52.93-1.29 1.17-2.17l.08-.35a5 5 0 0 1 .09-.44z"/><path fill-rule="evenodd" d="M16.22 1.73a3.05 3.05 0 0 1 2.9 3.04l-.01.25a6 6 0 0 1-1.28 3.5l-1.27 1.62-.31.4c-.27.35-.42.58-.5.83a2 2 0 0 0 0 1.26c.1.33.34.63.8 1.23l1.28 1.63a6 6 0 0 1 1.28 3.74v.16a3.05 3.05 0 0 1-2.89 2.88H7.78a3.05 3.05 0 0 1-2.89-2.88v-.16c0-1.27.4-2.5 1.13-3.54l.15-.2 1.27-1.63c.41-.53.64-.82.76-1.1l.05-.13a2 2 0 0 0 0-1.26 3 3 0 0 0-.5-.83l-.3-.4-1.28-1.63A6 6 0 0 1 4.9 5.02v-.25a3.05 3.05 0 0 1 2.89-3.04h8.44m-8.28 1.8c-.7 0-1.25.55-1.25 1.24 0 .95.32 1.88.9 2.64l1.27 1.63c.34.42.75.92 1 1.5l.1.26.08.3c.17.69.15 1.42-.08 2.1-.23.7-.72 1.27-1.1 1.76L7.6 16.6a4.3 4.3 0 0 0-.9 2.64c0 .69.56 1.25 1.25 1.25h8.12c.7 0 1.25-.56 1.25-1.25a4.3 4.3 0 0 0-.9-2.64l-1.27-1.63c-.38-.49-.87-1.07-1.1-1.76a3.8 3.8 0 0 1 0-2.4l.1-.26c.25-.58.66-1.08 1-1.5L16.4 7.4c.58-.76.9-1.69.9-2.64 0-.69-.56-1.25-1.25-1.25z" clip-rule="evenodd"/></svg>