<svg viewBox="0 0 24 24" xmlns="http://www.w3.org/2000/svg" width="24" height="24"><path fill-rule="evenodd" d="M13.7 8.1a2.18 2.18 0 1 1 0 4.36 2.18 2.18 0 0 1 0-4.35m0 1.8a.38.38 0 1 0 0 .76.38.38 0 0 0 0-.75" clip-rule="evenodd"/><path fill-rule="evenodd" d="M18.1 1.87c1.3.02 2.08.1 2.73.43a4 4 0 0 1 1.74 1.75c.44.86.44 1.98.44 4.22v5.68c-.03 1.3-.11 2.1-.44 2.73l-.15.28a4 4 0 0 1-1.6 1.47l-.16.08q-.44.18-1.05.26a4 4 0 0 1-.33 1.18l-.16.28a4 4 0 0 1-1.6 1.47l-.16.08c-.61.26-1.37.33-2.57.35H5.92a7 7 0 0 1-2.56-.35l-.17-.08a4 4 0 0 1-1.6-1.47l-.15-.28c-.32-.64-.4-1.43-.42-2.73L1 15.73v-4.2c0-2.1 0-3.21.36-4.05l.07-.16a4 4 0 0 1 1.48-1.6l.27-.15a4 4 0 0 1 1.22-.34q.07-.58.26-1.02l.07-.16a4 4 0 0 1 1.47-1.6l.28-.15c.64-.33 1.43-.4 2.73-.43h8.87M7.66 13.71q-.16 0-.29.1l-4.54 4.07q0 .18.02.33c.04.56.12.8.19.92q.33.64.96.96l.12.06c.15.05.38.1.8.14.57.04 1.33.04 2.48.04h.92l.07-.07 3-3-3.44-3.43a.4.4 0 0 0-.29-.12m7.37 2.61q-.16 0-.28.12l-3.89 3.9h2.44c1.15 0 1.9 0 2.48-.05.56-.05.79-.13.92-.2l.15-.08q.53-.32.81-.88l.05-.12q.06-.15.12-.53l-2.5-2.06h-.01a.4.4 0 0 0-.29-.1M10.71 3.67c-1.15 0-1.9 0-2.49.04-.55.05-.78.13-.91.2a2.2 2.2 0 0 0-.96.96q-.06.08-.1.27h8.54c1.3.02 2.1.1 2.74.43a4 4 0 0 1 1.75 1.75c.43.85.43 1.97.43 4.21v5.4q.2-.05.3-.1l.15-.09q.52-.32.8-.87l.06-.12c.05-.15.1-.38.14-.8.05-.58.05-1.33.05-2.48v-4.2c0-1.15 0-1.9-.05-2.48a3 3 0 0 0-.14-.8l-.05-.12A2.2 2.2 0 0 0 20 3.9a3 3 0 0 0-.92-.2c-.58-.04-1.33-.04-2.48-.04zM7.4 6.93c-1.15 0-1.9 0-2.48.05-.56.05-.79.12-.92.2a2.2 2.2 0 0 0-.96.95c-.07.13-.15.37-.2.92-.04.58-.04 1.33-.04 2.48v3.96l3.37-3.02.17-.14a2.2 2.2 0 0 1 2.88.22L12.67 16l.82-.82.15-.14a2.2 2.2 0 0 1 2.84 0l1.43 1.18v-4.68c0-1.15 0-1.9-.05-2.48a3 3 0 0 0-.14-.8l-.05-.12a2.2 2.2 0 0 0-.96-.96 3 3 0 0 0-.92-.19q-.43-.04-1.02-.04H7.4" clip-rule="evenodd"/></svg>