<svg viewBox="0 0 24 24" xmlns="http://www.w3.org/2000/svg" width="24" height="24"><path fill-rule="evenodd" d="M15.94 5.66a2.4 2.4 0 1 1 0 4.8 2.4 2.4 0 0 1 0-4.8m0 1.8a.6.6 0 1 0 0 1.2.6.6 0 0 0 0-1.2" clip-rule="evenodd"/><path fill-rule="evenodd" d="M18.1 2c1.3.03 2.08.1 2.73.44a4 4 0 0 1 1.74 1.74c.44.86.44 1.98.44 4.22v8.68l-.01.27-.01.24c-.04 1-.13 1.67-.42 2.23l-.15.27a4 4 0 0 1-1.6 1.47l-.16.08c-.61.26-1.38.33-2.57.35l-1.48.01H5.93a7 7 0 0 1-2.57-.36l-.17-.08a4 4 0 0 1-1.6-1.47l-.15-.27c-.32-.65-.4-1.44-.42-2.74v-.24a1 1 0 0 1 0-.34L1 15.6V8.4c0-2.1 0-3.22.36-4.05l.07-.17A4 4 0 0 1 2.92 2.6l.27-.15c.64-.33 1.44-.41 2.74-.43L7.4 2h10.68m-.6 13a1 1 0 0 0-.33.12l-.1.07-5 5.01h4.54c1.15 0 1.9 0 2.48-.05.56-.04.79-.12.92-.19l.15-.09q.52-.3.8-.87l.06-.12c.05-.15.1-.38.14-.8l.01-.24-3.21-2.69-.1-.07a1 1 0 0 0-.35-.08m-8.65-3.07a.7.7 0 0 0-.46.16L2.8 17.05q.01.6.05 1.03c.04.56.12.79.19.92q.33.63.96.96l.12.05c.15.05.38.1.8.14.57.05 1.33.05 2.48.05h2.2q.08-.15.2-.29l3.64-3.64-4.16-4.15a.7.7 0 0 0-.44-.2M7.4 3.8c-1.15 0-1.9 0-2.48.05-.56.04-.79.12-.92.19a2.2 2.2 0 0 0-.96.96 2 2 0 0 0-.2.92C2.8 6.5 2.8 7.25 2.8 8.4v6.25l4.39-3.9.18-.15a2.45 2.45 0 0 1 3.18.24L14.72 15l1.08-1.08a2.45 2.45 0 0 1 3.12-.29l.19.14 2.1 1.75V8.4c0-1.15 0-1.9-.05-2.48a3 3 0 0 0-.14-.8L20.97 5a2 2 0 0 0-.81-.87l-.15-.09a3 3 0 0 0-.92-.2c-.58-.04-1.33-.04-2.48-.04z" clip-rule="evenodd"/></svg>