<svg viewBox="0 0 24 24" xmlns="http://www.w3.org/2000/svg" width="24" height="24"><path fill-rule="evenodd" d="M12 2.24c.58 0 1.2.1 1.73.34l6.89 3.14.2.1c.45.25.93.7.93 1.39 0 .79-.62 1.26-1.13 1.5l-2 .9 2 .9.2.1c.45.26.94.7.94 1.4 0 .79-.64 1.26-1.14 1.49l-1.94.88 1.96.94c.5.24 1.12.7 1.12 1.48 0 .8-.64 1.26-1.14 1.5l-6.82 3.1c-.54.25-1.2.35-1.8.35s-1.25-.1-1.79-.34l-6.83-3.12c-.5-.22-1.13-.7-1.13-1.49 0-.78.63-1.26 1.13-1.49l2-.9-2-.91c-.5-.23-1.14-.7-1.14-1.5 0-.78.64-1.25 1.14-1.48l2-.9-2-.92c-.5-.23-1.13-.7-1.13-1.49 0-.69.48-1.14.94-1.4l.2-.09 6.88-3.14A4 4 0 0 1 12 2.24m1.8 14.37c-.55.25-1.2.35-1.8.35-.53 0-1.1-.08-1.59-.26l-.2-.09-2.64-1.2-3.11 1.4 6.5 2.96q.38.17 1.04.19c.43 0 .81-.08 1.05-.2l6.51-2.96-3-1.45zM4.45 12.01l6.5 2.96.1.04q.37.14.95.15.66-.01 1.04-.19l6.5-2.96-3.1-1.4-2.64 1.2c-.54.25-1.2.35-1.8.35-.52 0-1.09-.08-1.58-.26l-.21-.08-2.64-1.21zM12 4.04c-.4 0-.76.08-.98.18l-6.56 3 6.5 2.96c.23.1.61.18 1.04.18q.59-.01.95-.14l.1-.04 2.96-1.35.1-.05 3.44-1.57-6.57-2.99c-.22-.1-.58-.18-.98-.18" clip-rule="evenodd"/></svg>