<svg viewBox="0 0 24 24" xmlns="http://www.w3.org/2000/svg" width="24" height="24"><path fill-rule="evenodd" d="M4.84 9.27a1 1 0 0 1 1.3.07c.38.38.37 1 0 1.38l-.7.67c-2 1.98-2 5.22 0 7.2a5.03 5.03 0 0 0 7.08 0l.8-.78a.97.97 0 0 1 1.38 0 1 1 0 0 1-.01 1.39l-.8.78a6.96 6.96 0 0 1-9.81 0 7.03 7.03 0 0 1 0-9.98l.69-.67z" clip-rule="evenodd"/><path fill-rule="evenodd" d="M13.84 8.81a.97.97 0 0 1 1.37.01c.37.39.37 1-.01 1.38l-5.03 4.99a.97.97 0 0 1-1.38-.01 1 1 0 0 1 .01-1.38z" clip-rule="evenodd"/><path fill-rule="evenodd" d="M10.38 3.77a6.96 6.96 0 0 1 9.54.25 7.03 7.03 0 0 1 0 9.98l-.69.67a.97.97 0 0 1-1.37-.01 1 1 0 0 1 0-1.38l.7-.67c2-1.98 2-5.22 0-7.2a5.03 5.03 0 0 0-7.08 0l-.8.78a.97.97 0 0 1-1.38-.01 1 1 0 0 1 .01-1.38l.8-.78z" clip-rule="evenodd"/></svg>