<svg viewBox="0 0 24 24" xmlns="http://www.w3.org/2000/svg" width="24" height="24"><path d="M8.1 11.1L20.47 11.1C20.47 11.1 20.47 11.1 20.47 11.1A.9 .9 0 0 1 21.37 12C21.37 12 21.37 12 21.37 12L21.37 12C21.37 12 21.37 12 21.37 12A.9 .9 0 0 1 20.47 12.9C20.47 12.9 20.47 12.9 20.47 12.9L8.1 12.9C8.1 12.9 8.1 12.9 8.1 12.9A.9 .9 0 0 1 7.2 12C7.2 12 7.2 12 7.2 12L7.2 12C7.2 12 7.2 12 7.2 12A.9 .9 0 0 1 8.1 11.1C8.1 11.1 8.1 11.1 8.1 11.1ZM8.1 16.62L20.47 16.62C20.47 16.62 20.47 16.62 20.47 16.62A.9 .9 0 0 1 21.37 17.52C21.37 17.52 21.37 17.52 21.37 17.52L21.37 17.52C21.37 17.52 21.37 17.52 21.37 17.52A.9 .9 0 0 1 20.47 18.42C20.47 18.42 20.47 18.42 20.47 18.42L8.1 18.42C8.1 18.42 8.1 18.42 8.1 18.42A.9 .9 0 0 1 7.2 17.52C7.2 17.52 7.2 17.52 7.2 17.52L7.2 17.52C7.2 17.52 7.2 17.52 7.2 17.52A.9 .9 0 0 1 8.1 16.62C8.1 16.62 8.1 16.62 8.1 16.62ZM8.1 5.58L20.47 5.58C20.47 5.58 20.47 5.58 20.47 5.58A.9 .9 0 0 1 21.37 6.48C21.37 6.48 21.37 6.48 21.37 6.48L21.37 6.48C21.37 6.48 21.37 6.48 21.37 6.48A.9 .9 0 0 1 20.47 7.38C20.47 7.38 20.47 7.38 20.47 7.38L8.1 7.38C8.1 7.38 8.1 7.38 8.1 7.38A.9 .9 0 0 1 7.2 6.48C7.2 6.48 7.2 6.48 7.2 6.48L7.2 6.48C7.2 6.48 7.2 6.48 7.2 6.48A.9 .9 0 0 1 8.1 5.58C8.1 5.58 8.1 5.58 8.1 5.58ZM2.561 17.522a1.203 1.203 0 1 0 2.405 0a1.203 1.203 0 1 0 -2.405 0ZM2.599 11.971a1.2 1.2 0 1 0 2.4 0a1.2 1.2 0 1 0 -2.4 0ZM2.6 6.451a1.199 1.199 0 1 0 2.398 0a1.199 1.199 0 1 0 -2.398 0Z"/></svg>