<svg viewBox="0 0 24 24" xmlns="http://www.w3.org/2000/svg" width="24" height="24"><path d="M3.92 16.33c.6.07 1.08.58 1.08 1.2a1.2 1.2 0 0 1-1.08 1.19h-.13c-.66 0-1.2-.55-1.2-1.21 0-.67.55-1.2 1.2-1.19zm16.55.29a.9.9 0 0 1 0 1.8H8.1a.9.9 0 0 1 0-1.8zM3.92 10.8c.6.07 1.07.59 1.08 1.2a1.2 1.2 0 0 1-1.08 1.2H3.8c-.66 0-1.2-.55-1.2-1.2 0-.67.53-1.2 1.2-1.2zm16.55.3a.9.9 0 0 1 0 1.8H8.1a.9.9 0 0 1 0-1.8zM3.92 5.29c.6.06 1.07.58 1.08 1.2 0 .62-.47 1.13-1.08 1.18l-.12.01c-.66 0-1.2-.55-1.2-1.2 0-.67.53-1.2 1.2-1.2zm16.55.29a.9.9 0 0 1 0 1.8H8.1a.9.9 0 0 1 0-1.8z"/></svg>