<svg viewBox="0 0 24 24" xmlns="http://www.w3.org/2000/svg" width="24" height="24"><path d="M14.78 4Q15.08 4 15.18 4.03Q15.38 4.08 15.46 4.26C15.5 4.34 15.53 4.47 15.57 4.74C15.63 5.13 15.67 5.32 15.64 5.42A.4 .4 0 0 1 15.35 5.76C15.25 5.8 15.09 5.8 14.76 5.8L5.98 5.8Q4.96 5.81 4.17 6.36L12 12.36L17.38 8.24C17.53 8.12 17.6 8.07 17.68 8.04L17.88 8.01C17.96 8.02 18.06 8.06 18.27 8.15L18.61 8.28Q19.33 8.5 19.4 8.6Q19.47 8.7 19.44 8.85C19.41 8.95 19.24 9.08 18.88 9.35L15.91 11.63L19.38 14.19A.9 .9 0 0 1 18.31 15.63L14.42 12.77L12.55 14.21A.9 .9 0 0 1 11.45 14.21L9.58 12.77L5.76 15.58A.9 .9 0 0 1 4.69 14.13L8.09 11.63L3.03 7.75Q2.78 8.34 2.78 9.01L2.79 15.17A3.2 3.2 0 0 0 6 18.2L18 18.2A3.2 3.2 0 0 0 21.2 15.16L21.19 8.63C21.23 8.45 21.27 8.4 21.41 8.3L21.72 8.16Q21.87 8.11 21.98 8.05C22.3 7.89 22.46 7.81 22.58 7.83Q22.74 7.85 22.84 7.97C22.92 8.07 22.94 8.2 22.96 8.47Q22.99 8.72 22.99 8.99L23 14.99A5 5 0 0 1 18 20L5.74 20A5 5 0 0 1 1 15.26L.98 9A5 5 0 0 1 5.72 4L5.98 4Z"/><path d="M20 1a3 3 0 1 1 0 6 3 3 0 0 1 0-6"/></svg>