<svg viewBox="0 0 24 24" xmlns="http://www.w3.org/2000/svg" width="24" height="24"><path fill-rule="evenodd" d="M17.98 4A5 5 0 0 1 22.98 8.99L22.99 14.99A5 5 0 0 1 18 20L5.74 20A5 5 0 0 1 1 15.26L.98 9A5 5 0 0 1 5.72 4L5.98 4ZM3.03 7.75Q2.78 8.34 2.78 9.01L2.79 15.01A3.2 3.2 0 0 0 6 18.2L18 18.2A3.2 3.2 0 0 0 21.2 15L21.19 9Q21.19 8.34 20.95 7.78L15.92 11.63L19.39 14.19A.9 .9 0 0 1 18.32 15.63L14.43 12.77L12.56 14.21A.9 .9 0 0 1 11.46 14.21L9.59 12.77L5.77 15.58A.9 .9 0 0 1 4.7 14.13L8.1 11.63ZM5.98 5.8q-1.02.01-1.81.56l7.83 6 7.8-5.98a3 3 0 0 0-1.82-.58z" clip-rule="evenodd"/></svg>