<svg viewBox="0 0 24 24" xmlns="http://www.w3.org/2000/svg" width="24" height="24"><path d="M14.78 4q.3 0 .4.03.2.05.28.23c.04.08.07.21.11.48.06.39.1.58.07.68a.4.4 0 0 1-.29.34c-.1.04-.26.04-.59.04H5.98q-1.02.01-1.81.56l7.83 6 5.38-4.12c.15-.12.22-.17.3-.2l.2-.03c.08.01.18.05.39.14l.34.13q.72.22.79.32t.04.25c-.03.1-.2.23-.56.5l-2.97 2.28 3.4 2.5.07.06a.9.9 0 0 1-1.07 1.44l-.07-.05-3.82-2.81-1.87 1.44a.9.9 0 0 1-1.1 0l-1.87-1.44-3.82 2.81a.9.9 0 0 1-1.07-1.45l3.4-2.5-5.06-3.88q-.25.59-.25 1.26l.01 6v.16A3.2 3.2 0 0 0 6 18.2h12a3.2 3.2 0 0 0 3.2-3.04v-.17l-.01-6v-.36c.04-.18.08-.23.22-.33l.31-.14q.15-.05.26-.11c.32-.16.48-.24.6-.22q.16.02.26.14c.08.1.1.23.12.5q.03.25.03.52l.01 6A5 5 0 0 1 18 20H5.74A5 5 0 0 1 1 15.26V15L.98 9a5 5 0 0 1 4.74-5h.26z"/><path d="M20 1a3 3 0 1 1 0 6 3 3 0 0 1 0-6"/></svg>