<svg viewBox="0 0 24 24" xmlns="http://www.w3.org/2000/svg" width="24" height="24"><path fill-rule="evenodd" d="M9.57 1.84a4 4 0 0 1 4.8 0l7.4 5.56a3 3 0 0 1 1.2 2.39l.02 6.14a5 5 0 0 1-4.74 5.02H5.73A5 5 0 0 1 1 16.23v-.26L.96 9.8a3 3 0 0 1 1.06-2.3l.14-.1zM2.99 9.09q-.21.31-.22.7l.02 6.17a3.2 3.2 0 0 0 3.2 3.2h12a3.2 3.2 0 0 0 3.2-3.22l-.02-6.15q-.01-.37-.2-.66l-5 3.78 3.36 2.6.06.07a.9.9 0 0 1-1.1 1.41l-.07-.05-6.08-4.73a.2.2 0 0 0-.21-.04l-.07.04-6.08 4.73-.07.05a.9.9 0 0 1-1.03-1.47l3.36-2.62zm10.3-5.81a2.2 2.2 0 0 0-2.64 0l-6.2 4.65 5.06 3.83 1.24-.97.14-.1a2 2 0 0 1 2.36.1l1.25.98 5.02-3.8z" clip-rule="evenodd"/></svg>