<svg viewBox="0 0 24 24" xmlns="http://www.w3.org/2000/svg" width="24" height="24"><path fill-rule="evenodd" d="M18.75 1.55C19.25 .93 20.01 .92 20.51 1.12C21.01 1.32 21.53 1.82 21.53 2.58L21.53 18.33C21.53 19.13 20.95 19.61 20.46 19.78C20.03 19.94 19.25 19.99 18.76 19.37L18.59 19.17A19 19 0 0 0 16.29 16.87C14.76 15.57 12.94 14.45 11.31 14.45L10.58 14.45C10.64 16.54 10.92 17.75 11.21 18.57C11.37 19.03 11.55 19.37 11.72 19.71Q11.92 20.07 12.1 20.51L12.26 21.02A1.7 1.7 0 0 1 10.81 22.98L7.04 23A1.3 1.3 0 0 1 5.75 21.7L5.75 14.45A4 4 0 0 1 5.87 6.44L11.31 6.44C13.28 6.44 15.11 5.31 16.51 4.05A16 16 0 0 0 18.71 1.61ZM7.55 21.2h2.89l-.32-.66q-.29-.51-.6-1.37a15 15 0 0 1-.74-4.72H7.55zM19.53 3.5c-.42.51-1.04 1.2-1.81 1.9a11 11 0 0 1-4.73 2.64v4.86c1.7.48 3.28 1.59 4.46 2.6a23 23 0 0 1 2.28 2.23V3.25zM5.87 8.24a2.2 2.2 0 0 0 0 4.41h5.32V8.24z" clip-rule="evenodd"/></svg>