<svg viewBox="0 0 24 24" xmlns="http://www.w3.org/2000/svg" width="24" height="24"><path d="M4.98 7.99L18.92 7.99C18.92 7.99 18.92 7.99 18.92 7.99A.9 .9 0 0 1 19.82 8.89C19.82 8.89 19.82 8.89 19.82 8.89L19.82 8.89C19.82 8.89 19.82 8.89 19.82 8.89A.9 .9 0 0 1 18.92 9.79C18.92 9.79 18.92 9.79 18.92 9.79L4.98 9.79C4.98 9.79 4.98 9.79 4.98 9.79A.9 .9 0 0 1 4.08 8.89C4.08 8.89 4.08 8.89 4.08 8.89L4.08 8.89C4.08 8.89 4.08 8.89 4.08 8.89A.9 .9 0 0 1 4.98 7.99C4.98 7.99 4.98 7.99 4.98 7.99ZM4.98 14.21L18.92 14.21C18.92 14.21 18.92 14.21 18.92 14.21A.9 .9 0 0 1 19.82 15.11C19.82 15.11 19.82 15.11 19.82 15.11L19.82 15.11C19.82 15.11 19.82 15.11 19.82 15.11A.9 .9 0 0 1 18.92 16.01C18.92 16.01 18.92 16.01 18.92 16.01L4.98 16.01C4.98 16.01 4.98 16.01 4.98 16.01A.9 .9 0 0 1 4.08 15.11C4.08 15.11 4.08 15.11 4.08 15.11L4.08 15.11C4.08 15.11 4.08 15.11 4.08 15.11A.9 .9 0 0 1 4.98 14.21C4.98 14.21 4.98 14.21 4.98 14.21Z"/></svg>