<svg viewBox="0 0 24 24" xmlns="http://www.w3.org/2000/svg" width="24" height="24"><path d="M21.46 1.26A.9 .9 0 0 1 22.74 2.54L2.47 22.8A.9 .9 0 0 1 1.2 21.53L1.26 21.46ZM19.5 11c.5 0 .9.4.9.9a8.4 8.4 0 0 1-7.5 8.35v1.84a.9.9 0 1 1-1.8 0v-1.84a8 8 0 0 1-2.75-.78l1.37-1.38a6.6 6.6 0 0 0 8.88-6.2c0-.5.4-.9.9-.9"/><path d="M17.1 12.02v.26A5.05 5.05 0 0 1 12 17h-.26a5 5 0 0 1-.81-.11l1.76-1.76a3.2 3.2 0 0 0 2.57-2.57l1.85-1.85zM4.5 11c.5 0 .9.4.9.9q0 1.26.46 2.42L4.5 15.68a8.4 8.4 0 0 1-.9-3.78c0-.5.4-.9.9-.9m7.76-10a5.1 5.1 0 0 1 4.26 2.66l-1.36 1.36A3.3 3.3 0 0 0 12 2.8a3.24 3.24 0 0 0-3.3 3.18v5.52l-1.67 1.66a5 5 0 0 1-.13-.87V5.97A5.04 5.04 0 0 1 12 .99z"/></svg>