<svg viewBox="0 0 24 24" xmlns="http://www.w3.org/2000/svg" width="24" height="24"><path d="M17.6 10.3c.5.04.86.48.81.97l-.03.28a6.4 6.4 0 0 1-1.83 3.67l-.23.22a6.5 6.5 0 0 1-3.4 1.59v2.13a.9.9 0 0 1-1.8 0v-2.13a6.4 6.4 0 0 1-3.65-1.8l-.2-.21a6.4 6.4 0 0 1-1.63-3.47l-.03-.28v-.1a.9.9 0 0 1 1.78-.15l.02.1.02.2c.12.92.53 1.79 1.17 2.48l.14.15a4.65 4.65 0 0 0 6.38.15l.17-.15a4.6 4.6 0 0 0 1.33-2.84l.01-.09a.9.9 0 0 1 .97-.73"/><path d="M12 5a3.1 3.1 0 0 1 3.13 3.05v2.7a3.1 3.1 0 0 1-3.12 3.06 3.1 3.1 0 0 1-3.13-3.05V8.05A3.1 3.1 0 0 1 12.01 5"/><path fill-rule="evenodd" d="M12 .7a11 11 0 1 1 0 22 11 11 0 0 1 0-22m0 1.8a9.2 9.2 0 1 0 0 18.4 9.2 9.2 0 0 0 0-18.4" clip-rule="evenodd"/></svg>