<svg viewBox="0 0 24 24" xmlns="http://www.w3.org/2000/svg" width="24" height="24"><path d="M19.5 11c.5 0 .9.4.9.9a8.4 8.4 0 0 1-7.5 8.35v1.84a.9.9 0 1 1-1.8 0v-1.84a8.4 8.4 0 0 1-7.5-8.35.9.9 0 0 1 1.8 0 6.6 6.6 0 0 0 13.2 0c0-.5.4-.9.9-.9"/><path fill-rule="evenodd" d="M12.26 1A5.04 5.04 0 0 1 17.11 5.97L17.1 12.28A5.05 5.05 0 0 1 12 17L11.74 17A5.04 5.04 0 0 1 6.9 12.28L6.9 5.97A5.04 5.04 0 0 1 12 .99ZM12 2.78a3.24 3.24 0 0 0-3.3 3.18v6.05A3.24 3.24 0 0 0 12 15.2c1.85 0 3.3-1.45 3.3-3.18V5.97A3.24 3.24 0 0 0 12 2.79" clip-rule="evenodd"/></svg>