<svg viewBox="0 0 24 24" xmlns="http://www.w3.org/2000/svg" width="24" height="24"><path fill-rule="evenodd" d="M14.67 2.73c.7-.59 1.86-.82 2.87-.23A11 11 0 0 1 12 23a11 11 0 0 1-9.6-5.6 2.2 2.2 0 0 1 .42-2.67c.62-.6 1.65-.9 2.65-.51q1.09.41 2.31.42a6.8 6.8 0 0 0 6.69-6.9q-.01-1.35-.46-2.52c-.36-.95 0-1.92.67-2.49m1.73 1.5c-.2-.11-.44.1-.36.3a9 9 0 0 1 .58 3.2 8.9 8.9 0 0 1-11.8 8.45l-.18-.07c-.22-.08-.45.13-.34.33A9 9 0 0 0 6 18.6a8.8 8.8 0 0 0 6 2.35c4.89 0 8.85-4 8.85-8.95a9 9 0 0 0-4.44-7.76" clip-rule="evenodd"/><path d="M8.78 6.85a.5.5 0 0 1 .46 0l.1.06q.1.12.12.18l.07.18.33.88.88.32.18.07c.03.02.17.08.24.23l.05.11v.24l-.05.11-.06.1c-.07.08-.16.11-.18.12l-.18.08-.88.32-.33.88-.07.18q0 .05-.12.18l-.1.06-.11.05a.5.5 0 0 1-.35-.05c-.15-.07-.2-.2-.23-.24l-.07-.18-.32-.88-.88-.32-.18-.08a.5.5 0 0 1-.25-.22.5.5 0 0 1 0-.46c.08-.15.21-.2.25-.23l.18-.07.88-.32.32-.88.07-.18c.02-.03.08-.17.23-.24m-5.05-5.8a.6.6 0 0 1 .56 0l.06.03a1 1 0 0 1 .2.27l.13.32.45 1.2 1.2.46.32.12c.07.03.23.1.31.27l.03.07a.6.6 0 0 1 0 .42l-.03.07-.03.06a1 1 0 0 1-.28.2q-.13.08-.31.13l-1.2.45-.46 1.2-.12.33a1 1 0 0 1-.21.27l-.06.03-.07.03a.6.6 0 0 1-.5-.03.6.6 0 0 1-.26-.3l-.13-.32-.44-1.2-1.21-.46-.32-.12a.6.6 0 0 1-.3-.27.6.6 0 0 1 0-.56.6.6 0 0 1 .3-.27l.32-.12 1.2-.45.45-1.2.13-.33c.03-.07.1-.22.27-.3"/></svg>