<svg viewBox="0 0 24 24" xmlns="http://www.w3.org/2000/svg" width="24" height="24"><path fill-rule="evenodd" d="M7.77 14.64a6.8 6.8 0 0 0 6.69-6.9q-.01-1.35-.46-2.52c-.36-.95 0-1.92.67-2.49.7-.59 1.86-.82 2.87-.23A11 11 0 0 1 12 23a11 11 0 0 1-9.6-5.6 2.2 2.2 0 0 1 .42-2.67c.62-.6 1.65-.9 2.65-.51q1.09.41 2.31.42M6 18.6a9 9 0 0 1-1.7-2.15c-.11-.2.12-.41.34-.33a9 9 0 0 0 3.13.58A8.9 8.9 0 0 0 16.5 6.24a9 9 0 0 0-.46-1.7c-.08-.22.16-.42.36-.3a9 9 0 0 1 2.27 1.9A9 9 0 0 1 20.84 12a8.9 8.9 0 0 1-8.85 8.95A8.8 8.8 0 0 1 6 18.59" clip-rule="evenodd"/></svg>