<svg viewBox="0 0 24 24" xmlns="http://www.w3.org/2000/svg" width="24" height="24"><path d="M11.41 1.08q.59-.18 1.18 0l.19.08q.27.14.46.3l.53.5 2.66 2.67a.9.9 0 1 1-1.27 1.28L12.9 3.65v7.44h7.45l-2.27-2.26-.06-.07A.9.9 0 0 1 19.3 7.5l.07.06 2.67 2.67.5.52q.24.25.38.66.2.58 0 1.17l-.07.2q-.14.27-.3.45l-.51.53-2.67 2.67-.07.06a.9.9 0 0 1-1.2-1.33l2.26-2.26H12.9v7.44l2.26-2.26.07-.06a.9.9 0 0 1 1.27 1.27l-.07.06-2.66 2.67q-.29.3-.53.5-.25.24-.65.39-.59.18-1.18 0l-.19-.08q-.27-.14-.46-.3l-.53-.51-2.66-2.67a.9.9 0 0 1 1.27-1.27l2.26 2.26v-7.45H3.65l2.27 2.27.06.07a.9.9 0 0 1-1.27 1.26l-.07-.06-2.67-2.67q-.28-.28-.5-.53c-.14-.17-.3-.38-.38-.65a2 2 0 0 1 0-1.17l.07-.2q.14-.27.31-.46l.5-.52 2.67-2.67a.9.9 0 0 1 1.28 1.27L3.65 11.1h7.45V3.64L8.84 5.91a.9.9 0 0 1-1.28-1.28l2.67-2.66q.29-.3.53-.5.25-.24.65-.39"/></svg>