<svg viewBox="0 0 24 24" xmlns="http://www.w3.org/2000/svg" width="24" height="24"><path fill-rule="evenodd" d="M16.3 2.48a2.9 2.9 0 0 1 3.68 2.8V17.3a2.3 2.3 0 0 1-1.57 2.18l-.98.36a2.64 2.64 0 0 1-3.5-2.37v-.16a2.4 2.4 0 0 1 1.62-2.27l2.26-.8h.01a.5.5 0 0 0 .35-.4l.01-.08V7.55L10.07 9.7v9.72A2.3 2.3 0 0 1 8.5 21.6l-.98.36H7.5a2.65 2.65 0 0 1-3.49-2.53c0-1 .56-1.92 1.58-2.26l2.3-.8.09-.04a.5.5 0 0 0 .27-.36V6.92c0-1.3.88-2.45 2.13-2.8zM6.2 18.87q-.35.1-.37.56a.85.85 0 0 0 1.11.83l.96-.35h.02a.5.5 0 0 0 .36-.48v-1.28zm9.96-2.13h-.02a.6.6 0 0 0-.4.56v.12c.07.55.6.88 1.11.72l.96-.35h.01a.5.5 0 0 0 .37-.48V16zm2.03-11.46c0-.73-.7-1.26-1.4-1.06l-5.9 1.64a1.1 1.1 0 0 0-.81 1.06v.93l8.11-2.16z" clip-rule="evenodd"/></svg>