<svg viewBox="0 0 24 24" xmlns="http://www.w3.org/2000/svg" width="24" height="24"><path fill-rule="evenodd" d="M18.66 2.34c.52-.18 1.14-.35 1.73-.14.58.2 1.05.62 1.31 1.17l.1.24.04.11c.15.56 0 1.14-.18 1.62q-.31.84-.93 2.15l-6.83 14.9a.9.9 0 0 1-1.7-.18l-.22-1.02c-.7-3.07-1-4.37-1.68-5.4a7 7 0 0 0-2.08-2.08c-1.03-.68-2.34-.99-5.4-1.68l-1.03-.23a.9.9 0 0 1-.18-1.7l14.9-6.83q1.31-.61 2.15-.93M19.8 3.9c-.03 0-.17 0-.55.14-.46.16-1.09.45-2 .87L4.77 10.63c2.01.47 3.33.85 4.44 1.57a9 9 0 0 1 2.6 2.6c.72 1.1 1.1 2.42 1.56 4.42L19.1 6.74c.41-.91.7-1.53.86-2 .14-.38.14-.52.14-.55v.01l-.05-.1-.15-.15z" clip-rule="evenodd"/></svg>