<svg viewBox="0 0 24 24" xmlns="http://www.w3.org/2000/svg" width="24" height="24"><path fill-rule="evenodd" d="M18.66 2.34C19.18 2.16 19.8 1.99 20.39 2.2C20.97 2.4 21.44 2.82 21.7 3.37L21.84 3.72C21.99 4.28 21.84 4.86 21.66 5.34Q21.35 6.18 20.73 7.49L13.9 22.39A.9 .9 0 0 1 12.2 22.21L11.98 21.19C11.28 18.12 10.98 16.82 10.3 15.79A7 7 0 0 0 8.22 13.71C7.19 13.03 5.88 12.72 2.82 12.03L1.79 11.8A.9 .9 0 0 1 1.61 10.1L16.51 3.27Q17.82 2.66 18.66 2.34M19.8 3.9C19.77 3.9 19.63 3.9 19.25 4.04C18.79 4.2 18.16 4.49 17.25 4.91L4.77 10.63C6.78 11.1 8.1 11.48 9.21 12.2A9 9 0 0 1 11.81 14.8C12.53 15.9 12.91 17.22 13.37 19.22L19.1 6.74C19.51 5.83 19.8 5.21 19.96 4.74C20.1 4.36 20.1 4.22 20.1 4.19L19.9 3.95Z" clip-rule="evenodd"/></svg>