<svg viewBox="0 0 24 24" xmlns="http://www.w3.org/2000/svg" width="24" height="24"><path d="M13.39 20.2c.5 0 .93.43.78.92C13.86 22.22 13 23 12 23s-1.86-.78-2.18-1.88c-.14-.5.29-.92.8-.92zm8.07-18.94a.9.9 0 0 1 1.28 1.28l-20.2 20.2-.07.06a.9.9 0 0 1-1.27-1.27l.06-.07zm-2.78 10.07c0 1.02.01 1.3.1 1.55l.06.17c.1.23.28.45.96 1.19l.04.05q.77.8 1.2 1.42c.28.39.63 1 .45 1.7q-.07.3-.24.55c-.38.63-1.04.78-1.51.84q-.73.07-1.83.06H8.32l1.99-1.99h7.53c.77 0 1.27 0 1.61-.04-.2-.28-.54-.66-1.07-1.23l-.09-.1a6 6 0 0 1-1.21-1.63l-.14-.36a7 7 0 0 1-.2-2.04v-1.04l1.94-1.93zM12 1q.3 0 .56.02a5.7 5.7 0 0 1 4.68 2.56l-1.4 1.4-.03-.05A3.9 3.9 0 0 0 12.45 3a8 8 0 0 0-.9 0 3.8 3.8 0 0 0-3.34 1.93 5.6 5.6 0 0 0-.94 3.02v3.52c0 .81 0 1.44-.2 2.04l-.14.36-.01.03-4.12 4.12-.04-.06q-.15-.25-.23-.55c-.18-.7.16-1.31.44-1.7.28-.4.71-.88 1.2-1.42l.04-.05c.68-.74.86-.96.96-1.2l.07-.16c.08-.25.1-.53.1-1.55V7.95a7.6 7.6 0 0 1 1.3-4.17 5.8 5.8 0 0 1 4.8-2.76z"/></svg>