<svg viewBox="0 0 24 24" xmlns="http://www.w3.org/2000/svg" width="24" height="24"><path d="M13.39 20.2c.5 0 .93.43.78.92C13.86 22.22 13.01 23 12 23c-1 0-1.86-.78-2.18-1.88-.14-.5.29-.92.79-.92zM12 1q.3 0 .56.02a6 6 0 0 1 2.65.7c.42.23.52.75.3 1.16-.3.53-1.01.64-1.58.42A5 5 0 0 0 12 2.99l-.45.01a3.8 3.8 0 0 0-3.34 1.93 5.6 5.6 0 0 0-.95 3.02v3.52c0 .81 0 1.44-.19 2.04l-.14.36a6 6 0 0 1-1.21 1.63l-.09.1c-.52.57-.86.95-1.07 1.23.35.04.84.04 1.61.04h11.67c.77 0 1.27 0 1.61-.04-.2-.28-.54-.66-1.07-1.23l-.09-.1a6 6 0 0 1-1.21-1.63l-.14-.36c-.2-.6-.2-1.23-.2-2.04v-2.2a.97.97 0 0 1 1.94 0v2.06c0 1.02.01 1.3.1 1.55l.06.17c.1.23.28.45.96 1.19l.04.05q.77.8 1.2 1.42c.28.39.63 1 .45 1.7q-.07.3-.24.55c-.38.63-1.04.78-1.51.84q-.74.07-1.8.06H6.07c-.7 0-1.33 0-1.8-.06s-1.14-.21-1.52-.84q-.15-.25-.23-.55c-.18-.7.16-1.31.43-1.7q.46-.6 1.21-1.42l.04-.05c.68-.74.86-.96.96-1.2l.07-.16c.08-.25.1-.53.1-1.55V7.95a7.6 7.6 0 0 1 1.29-4.17 5.8 5.8 0 0 1 4.8-2.76z"/><path d="M20 1a3 3 0 1 1 0 6 3 3 0 0 1 0-6"/></svg>