<svg viewBox="0 0 24 24" xmlns="http://www.w3.org/2000/svg" width="24" height="24"><path fill-rule="evenodd" d="M17 14.95c1.02 0 1.88.62 2.23 1.5h.97a.9.9 0 0 1 0 1.8h-.97a2.4 2.4 0 0 1-4.44 0H3.7a.9.9 0 0 1 0-1.8h11.07a2.4 2.4 0 0 1 2.23-1.5m0 1.8a.6.6 0 1 0 0 1.2.6.6 0 0 0 0-1.2M7 9.6c1.02 0 1.88.62 2.23 1.5H20.2a.9.9 0 0 1 0 1.8H9.23a2.4 2.4 0 0 1-4.46-.04l-.26.04H3.7a.9.9 0 0 1 0-1.8h.81l.26.04A2.4 2.4 0 0 1 7.01 9.6m0 1.8a.6.6 0 1 0 0 1.2.6.6 0 0 0 0-1.2M17 4.25c1.02 0 1.88.62 2.23 1.5h.97a.9.9 0 0 1 0 1.8h-.97a2.4 2.4 0 0 1-4.45 0H3.7a.9.9 0 0 1 0-1.8h11.1a2.4 2.4 0 0 1 2.2-1.5m0 1.8a.6.6 0 1 0 0 1.2.6.6 0 0 0 0-1.2" clip-rule="evenodd"/></svg>