<svg viewBox="0 0 24 24" xmlns="http://www.w3.org/2000/svg" width="24" height="24"><path d="M12.02 15.25a1.87 1.87 0 1 1 0 3.75 1.87 1.87 0 0 1 0-3.75M7.2 12.97a1.57 1.57 0 1 1 0 3.14 1.57 1.57 0 0 1 0-3.14M7 8.3a1.57 1.57 0 1 1 0 3.14A1.57 1.57 0 0 1 7 8.3m8.04-2.14a1.57 1.57 0 1 1 0 3.14 1.57 1.57 0 0 1 0-3.14m-4.46-.78a1.57 1.57 0 1 1 0 3.14 1.57 1.57 0 0 1 0-3.14"/><path fill-rule="evenodd" d="M12.8 1.68C15.16 1.68 17.48 2.38 19.3 3.82L19.9 4.34A5.67 5.67 0 0 1 19.66 12.78L18.18 14.1C17.99 14.26 17.95 14.41 17.95 14.5Q17.93 14.62 18.11 14.84L18.41 15.07C18.47 15.1 18.58 15.14 18.83 15.17L19.16 15.23C19.51 15.3 20 15.43 20.4 15.75L20.68 16.03C21.06 16.48 21.26 17.06 21.28 17.62A2.4 2.4 0 0 1 20.48 19.52C18.38 21.38 15.48 22.32 12.59 22.32L12.5 22.32A12.5 12.5 0 0 1 4.84 19.73L4.41 19.37A9.5 9.5 0 0 1 4.41 4.86A12.8 12.8 0 0 1 12.8 1.68M12.8 3.48A11 11 0 0 0 5.6 6.2A7.7 7.7 0 0 0 5.6 18.02A10.6 10.6 0 0 0 12.52 20.52L12.59 20.52C15.13 20.52 17.59 19.69 19.29 18.17L19.37 18.08Q19.48 17.93 19.47 17.68C19.47 17.44 19.37 17.25 19.28 17.17L19.06 17.06Q18.86 17 18.54 16.96Q18.08 16.88 17.68 16.72Q17.27 16.52 16.98 16.25A2.3 2.3 0 0 1 16.15 14.5C16.15 13.83 16.47 13.21 16.98 12.75L18.64 11.28A3.87 3.87 0 0 0 18.47 5.47L18.19 5.23A8.7 8.7 0 0 0 12.79 3.48" clip-rule="evenodd"/></svg>