<svg viewBox="0 0 24 24" xmlns="http://www.w3.org/2000/svg" width="24" height="24"><path d="M12.02 15.25a1.87 1.87 0 1 1 0 3.75 1.87 1.87 0 0 1 0-3.75M7.2 12.97a1.57 1.57 0 1 1 0 3.14 1.57 1.57 0 0 1 0-3.14M7 8.3a1.57 1.57 0 1 1 0 3.14A1.57 1.57 0 0 1 7 8.3m8.04-2.14a1.57 1.57 0 1 1 0 3.14 1.57 1.57 0 0 1 0-3.14m-4.46-.78a1.57 1.57 0 1 1 0 3.14 1.57 1.57 0 0 1 0-3.14"/><path fill-rule="evenodd" d="M12.8 1.68c2.36 0 4.68.7 6.5 2.14l.36.3.24.22a5.67 5.67 0 0 1-.24 8.44l-1.48 1.32c-.19.16-.23.31-.23.4q-.02.12.16.34l.07.06.15.12.08.05c.06.03.17.07.42.1l.33.06c.35.07.84.2 1.24.52l.1.1.18.18c.38.45.58 1.03.6 1.59a2.4 2.4 0 0 1-.8 1.9c-2.1 1.86-5 2.8-7.89 2.8h-.09a12.5 12.5 0 0 1-7.66-2.59l-.43-.36a9.5 9.5 0 0 1 0-14.51 12.8 12.8 0 0 1 8.39-3.18m0 1.8A11 11 0 0 0 5.6 6.2a7.7 7.7 0 0 0 0 11.82 10.6 10.6 0 0 0 6.92 2.5h.07c2.54 0 5-.83 6.7-2.35l.08-.09q.11-.15.1-.4c0-.24-.1-.43-.19-.51l-.22-.11q-.2-.06-.52-.1-.46-.08-.86-.24-.41-.2-.7-.47a2.3 2.3 0 0 1-.83-1.75c0-.67.32-1.29.83-1.75l1.49-1.32.17-.15a3.87 3.87 0 0 0-.17-5.81l-.28-.24a8.7 8.7 0 0 0-5.4-1.75" clip-rule="evenodd"/></svg>