<svg viewBox="0 0 24 24" xmlns="http://www.w3.org/2000/svg" width="24" height="24"><path d="M10.71 8.4C11.15 8.4 11.51 8.76 11.51 9.2L11.51 14.86A0.8 0.8 0 0 1 10.71 15.66L9 15.66A0.8 0.8 0 0 1 8.2 14.86L8.2 9.2C8.2 8.76 8.56 8.4 9 8.4ZM15.01 8.4C15.45 8.4 15.81 8.76 15.81 9.2L15.81 14.86A0.8 0.8 0 0 1 15.01 15.66L13.29 15.66A0.8 0.8 0 0 1 12.49 14.86L12.49 9.2C12.49 8.76 12.85 8.4 13.29 8.4Z"/><path fill-rule="evenodd" d="M12 1A11 11 0 1 1 12 23A11 11 0 0 1 12 1M12 2.5A9.5 9.5 0 1 0 12 21.5A9.5 9.5 0 0 0 12 2.5" clip-rule="evenodd"/></svg>