<svg viewBox="0 0 24 24" xmlns="http://www.w3.org/2000/svg" width="24" height="24"><path d="M14.15 8.4L14.15 8.4C14.15 8.4 14.15 8.4 14.15 8.4A1.66 1.66 0 0 1 15.81 10.06C15.81 10.06 15.81 10.06 15.81 10.06L15.81 14C15.81 14 15.81 14 15.81 14A1.66 1.66 0 0 1 14.15 15.66C14.15 15.66 14.15 15.66 14.15 15.66L14.15 15.66C14.15 15.66 14.15 15.66 14.15 15.66A1.66 1.66 0 0 1 12.49 14C12.49 14 12.49 14 12.49 14L12.49 10.06C12.49 10.06 12.49 10.06 12.49 10.06A1.66 1.66 0 0 1 14.15 8.4C14.15 8.4 14.15 8.4 14.15 8.4ZM9.855 8.4L9.855 8.4C9.855 8.4 9.855 8.4 9.855 8.4A1.655 1.655 0 0 1 11.51 10.055C11.51 10.055 11.51 10.055 11.51 10.055L11.51 14.005C11.51 14.005 11.51 14.005 11.51 14.005A1.655 1.655 0 0 1 9.855 15.66C9.855 15.66 9.855 15.66 9.855 15.66L9.855 15.66C9.855 15.66 9.855 15.66 9.855 15.66A1.655 1.655 0 0 1 8.2 14.005C8.2 14.005 8.2 14.005 8.2 14.005L8.2 10.055C8.2 10.055 8.2 10.055 8.2 10.055A1.655 1.655 0 0 1 9.855 8.4C9.855 8.4 9.855 8.4 9.855 8.4ZM1 12a11 11 0 1 0 22 0a11 11 0 1 0 -22 0ZM2.5 12a9.5 9.5 0 1 1 19 0a9.5 9.5 0 1 1 -19 0Z"/></svg>