<svg viewBox="0 0 24 24" xmlns="http://www.w3.org/2000/svg" width="24" height="24"><path fill-rule="evenodd" d="M9.12 3.56a2.4 2.4 0 0 1 2.15 2.38v12.43a2.4 2.4 0 0 1-2.15 2.14H5.65a2.4 2.4 0 0 1-2.14-2.14l-.01-.25V5.94a2.4 2.4 0 0 1 2.15-2.38l.25-.02h2.97zM5.9 5.34a.6.6 0 0 0-.6.6v12.18c0 .33.27.6.6.6h2.97a.6.6 0 0 0 .6-.6V5.94a.6.6 0 0 0-.6-.6zm12.45-1.78a2.4 2.4 0 0 1 2.15 2.38v12.43a2.4 2.4 0 0 1-2.15 2.14h-3.47a2.4 2.4 0 0 1-2.14-2.14l-.01-.25V5.94a2.4 2.4 0 0 1 2.15-2.38l.25-.02h2.97zm-3.22 1.78a.6.6 0 0 0-.6.6v12.18c0 .33.27.6.6.6h2.97a.6.6 0 0 0 .6-.6V5.94a.6.6 0 0 0-.6-.6z" clip-rule="evenodd"/></svg>