<svg viewBox="0 0 24 24" xmlns="http://www.w3.org/2000/svg" width="24" height="24"><path d="M9.622 11.466L4.939 16.212A3 3 0 0 0 4.628 20.054A3 3 0 0 0 8.355 21.032A8.542 8.542 0 0 1 15.645 21.032A3 3 0 0 0 19.372 20.054A3 3 0 0 0 19.061 16.212L14.378 11.466A3.341 3.341 0 0 0 9.622 11.466ZM10.903 12.73A1.541 1.541 0 0 1 13.097 12.73L17.779 17.476A1.2 1.2 0 0 1 17.904 19.013A1.2 1.2 0 0 1 16.413 19.404A10.342 10.342 0 0 0 7.587 19.404A1.2 1.2 0 0 1 6.096 19.013A1.2 1.2 0 0 1 6.221 17.476L10.903 12.73ZM5.777 14.492C5.633 14.553 5.482 14.599 5.324 14.626C5.166 14.654 5.001 14.666 4.829 14.657C4.657 14.648 4.477 14.623 4.292 14.573C4.107 14.522 3.913 14.452 3.721 14.355C3.528 14.257 3.328 14.135 3.138 13.988C2.947 13.84 2.753 13.665 2.577 13.47C2.4 13.274 2.228 13.051 2.078 12.816C1.929 12.581 1.791 12.321 1.679 12.06C1.568 11.799 1.475 11.52 1.409 11.248C1.343 10.977 1.3 10.697 1.281 10.433C1.263 10.17 1.27 9.907 1.296 9.666C1.321 9.425 1.372 9.194 1.435 8.987C1.499 8.779 1.583 8.589 1.675 8.42C1.768 8.251 1.875 8.103 1.989 7.972C2.102 7.841 2.227 7.731 2.356 7.636C2.486 7.541 2.623 7.464 2.767 7.403C2.911 7.342 3.062 7.297 3.22 7.269C3.378 7.242 3.543 7.229 3.715 7.238C3.887 7.247 4.067 7.272 4.252 7.323C4.437 7.373 4.631 7.443 4.823 7.541C5.016 7.638 5.216 7.76 5.406 7.908C5.597 8.055 5.791 8.23 5.967 8.426C6.144 8.621 6.316 8.844 6.466 9.079C6.615 9.314 6.753 9.574 6.865 9.835C6.976 10.096 7.069 10.376 7.135 10.647C7.201 10.918 7.244 11.198 7.263 11.462C7.281 11.726 7.274 11.988 7.248 12.229C7.223 12.47 7.172 12.701 7.109 12.908C7.045 13.116 6.961 13.306 6.869 13.475C6.776 13.644 6.669 13.793 6.555 13.923C6.442 14.054 6.317 14.165 6.188 14.259C6.058 14.354 5.921 14.431 5.777 14.492ZM5.173 12.736C5.209 12.707 5.244 12.674 5.278 12.629C5.312 12.585 5.346 12.534 5.374 12.467C5.403 12.4 5.432 12.322 5.451 12.226C5.469 12.13 5.484 12.018 5.486 11.893C5.487 11.769 5.48 11.625 5.459 11.479C5.438 11.333 5.404 11.171 5.359 11.015C5.315 10.859 5.256 10.695 5.19 10.541C5.124 10.387 5.046 10.232 4.964 10.093C4.882 9.953 4.789 9.819 4.699 9.705C4.608 9.59 4.511 9.488 4.421 9.405C4.331 9.321 4.241 9.257 4.161 9.205C4.081 9.154 4.006 9.122 3.939 9.097C3.872 9.072 3.813 9.062 3.759 9.055C3.704 9.049 3.657 9.052 3.611 9.058C3.565 9.064 3.525 9.076 3.485 9.093C3.445 9.11 3.408 9.131 3.371 9.16C3.335 9.188 3.3 9.221 3.266 9.266C3.232 9.311 3.198 9.361 3.17 9.428C3.141 9.496 3.112 9.574 3.093 9.669C3.075 9.765 3.06 9.877 3.058 10.002C3.057 10.126 3.064 10.27 3.085 10.416C3.106 10.563 3.14 10.724 3.185 10.88C3.229 11.036 3.288 11.201 3.354 11.354C3.42 11.508 3.498 11.663 3.58 11.802C3.662 11.942 3.755 12.076 3.845 12.19C3.936 12.305 4.033 12.407 4.123 12.491C4.213 12.574 4.303 12.639 4.383 12.69C4.463 12.741 4.538 12.773 4.605 12.798C4.672 12.823 4.731 12.833 4.785 12.84C4.84 12.846 4.887 12.844 4.933 12.837C4.979 12.831 5.019 12.819 5.059 12.802C5.099 12.785 5.136 12.764 5.173 12.736ZM21.233 7.403C21.377 7.464 21.514 7.541 21.643 7.635C21.773 7.73 21.896 7.84 22.009 7.97C22.123 8.1 22.23 8.247 22.322 8.415C22.414 8.583 22.498 8.771 22.562 8.977C22.625 9.184 22.676 9.412 22.703 9.652C22.729 9.891 22.738 10.152 22.72 10.415C22.702 10.678 22.661 10.957 22.596 11.228C22.531 11.499 22.44 11.778 22.329 12.04C22.219 12.301 22.082 12.562 21.933 12.798C21.784 13.034 21.612 13.259 21.436 13.456C21.259 13.653 21.065 13.83 20.874 13.979C20.682 14.128 20.481 14.251 20.288 14.35C20.095 14.449 19.899 14.52 19.714 14.571C19.528 14.622 19.346 14.648 19.173 14.657C19 14.666 18.835 14.654 18.676 14.626C18.518 14.599 18.367 14.553 18.223 14.492C18.079 14.431 17.942 14.354 17.813 14.26C17.683 14.165 17.56 14.055 17.447 13.925C17.333 13.795 17.226 13.648 17.134 13.48C17.042 13.312 16.958 13.124 16.894 12.918C16.831 12.712 16.78 12.483 16.753 12.244C16.727 12.004 16.718 11.743 16.736 11.48C16.754 11.217 16.795 10.938 16.86 10.667C16.925 10.396 17.016 10.117 17.127 9.855C17.237 9.594 17.374 9.333 17.523 9.097C17.672 8.861 17.844 8.636 18.02 8.439C18.197 8.242 18.391 8.065 18.582 7.916C18.774 7.767 18.975 7.644 19.168 7.545C19.361 7.446 19.557 7.375 19.742 7.324C19.928 7.273 20.11 7.247 20.283 7.238C20.456 7.229 20.621 7.242 20.78 7.269C20.938 7.296 21.089 7.342 21.233 7.403ZM20.388 9.058C20.342 9.052 20.294 9.049 20.239 9.056C20.183 9.063 20.123 9.073 20.055 9.099C19.987 9.125 19.911 9.159 19.829 9.212C19.747 9.265 19.656 9.332 19.565 9.417C19.474 9.503 19.376 9.608 19.286 9.725C19.195 9.842 19.103 9.978 19.021 10.118C18.94 10.259 18.862 10.415 18.797 10.569C18.733 10.724 18.676 10.888 18.633 11.044C18.589 11.2 18.557 11.359 18.538 11.504C18.518 11.649 18.512 11.79 18.515 11.912C18.517 12.035 18.533 12.144 18.552 12.238C18.571 12.331 18.6 12.407 18.628 12.472C18.657 12.538 18.69 12.587 18.723 12.631C18.757 12.675 18.792 12.707 18.828 12.736C18.864 12.764 18.901 12.785 18.941 12.802C18.981 12.819 19.021 12.831 19.068 12.837C19.114 12.844 19.162 12.847 19.217 12.84C19.273 12.833 19.333 12.822 19.401 12.796C19.469 12.77 19.545 12.736 19.627 12.683C19.709 12.63 19.8 12.563 19.891 12.478C19.982 12.392 20.08 12.287 20.17 12.17C20.261 12.054 20.353 11.918 20.435 11.777C20.516 11.636 20.594 11.48 20.659 11.326C20.723 11.171 20.78 11.007 20.823 10.851C20.867 10.696 20.899 10.536 20.918 10.391C20.938 10.246 20.944 10.105 20.941 9.983C20.939 9.861 20.923 9.751 20.904 9.658C20.885 9.564 20.856 9.488 20.828 9.423C20.799 9.357 20.766 9.308 20.733 9.264C20.699 9.22 20.664 9.188 20.628 9.159C20.592 9.131 20.555 9.11 20.515 9.093C20.475 9.076 20.435 9.064 20.388 9.058ZM9.517 10.253C9.366 10.275 9.214 10.28 9.058 10.266C8.902 10.253 8.744 10.223 8.583 10.171C8.423 10.12 8.258 10.05 8.096 9.956C7.933 9.861 7.767 9.745 7.608 9.603C7.449 9.46 7.289 9.293 7.144 9.102C6.999 8.912 6.858 8.694 6.738 8.461C6.619 8.227 6.51 7.968 6.426 7.703C6.341 7.438 6.275 7.152 6.234 6.872C6.193 6.591 6.175 6.298 6.179 6.019C6.184 5.741 6.214 5.46 6.262 5.201C6.311 4.942 6.384 4.691 6.469 4.466C6.554 4.241 6.66 4.032 6.772 3.85C6.885 3.667 7.012 3.507 7.142 3.369C7.272 3.231 7.411 3.117 7.551 3.021C7.69 2.926 7.835 2.852 7.981 2.795C8.126 2.738 8.275 2.7 8.425 2.678C8.576 2.656 8.729 2.651 8.884 2.665C9.04 2.678 9.199 2.708 9.359 2.76C9.519 2.812 9.684 2.881 9.847 2.976C10.009 3.07 10.176 3.186 10.334 3.329C10.493 3.471 10.653 3.638 10.798 3.829C10.943 4.019 11.084 4.237 11.204 4.471C11.324 4.704 11.433 4.963 11.517 5.228C11.601 5.493 11.667 5.779 11.708 6.06C11.749 6.34 11.768 6.633 11.763 6.912C11.758 7.19 11.728 7.471 11.68 7.73C11.632 7.989 11.559 8.24 11.474 8.465C11.389 8.691 11.282 8.899 11.17 9.082C11.058 9.264 10.93 9.424 10.8 9.562C10.671 9.7 10.532 9.814 10.392 9.91C10.252 10.005 10.108 10.079 9.962 10.136C9.816 10.193 9.668 10.232 9.517 10.253ZM9.371 8.391C9.41 8.374 9.45 8.353 9.491 8.32C9.532 8.287 9.574 8.25 9.617 8.194C9.659 8.139 9.705 8.074 9.745 7.988C9.785 7.903 9.827 7.8 9.859 7.682C9.891 7.564 9.919 7.425 9.935 7.28C9.951 7.135 9.958 6.972 9.955 6.811C9.951 6.65 9.936 6.478 9.912 6.314C9.888 6.15 9.852 5.981 9.809 5.827C9.766 5.673 9.712 5.52 9.655 5.388C9.598 5.255 9.532 5.133 9.469 5.031C9.406 4.929 9.337 4.846 9.275 4.777C9.213 4.709 9.153 4.661 9.097 4.621C9.042 4.582 8.991 4.558 8.944 4.539C8.896 4.52 8.853 4.511 8.81 4.506C8.768 4.5 8.729 4.501 8.689 4.507C8.649 4.513 8.611 4.523 8.572 4.54C8.532 4.557 8.493 4.578 8.452 4.611C8.411 4.644 8.368 4.682 8.326 4.737C8.283 4.792 8.238 4.858 8.197 4.943C8.157 5.028 8.115 5.131 8.083 5.249C8.052 5.367 8.024 5.506 8.008 5.651C7.992 5.797 7.984 5.959 7.988 6.12C7.992 6.282 8.006 6.454 8.031 6.618C8.055 6.782 8.091 6.95 8.134 7.104C8.176 7.259 8.231 7.411 8.287 7.543C8.344 7.676 8.41 7.798 8.474 7.9C8.537 8.002 8.605 8.086 8.667 8.154C8.729 8.222 8.79 8.27 8.845 8.31C8.9 8.349 8.951 8.373 8.999 8.392C9.047 8.412 9.09 8.42 9.132 8.426C9.175 8.431 9.214 8.43 9.253 8.424C9.293 8.418 9.331 8.408 9.371 8.391ZM15.575 2.678C15.725 2.7 15.873 2.738 16.019 2.795C16.164 2.852 16.308 2.925 16.447 3.02C16.586 3.115 16.725 3.228 16.854 3.365C16.983 3.502 17.11 3.66 17.222 3.841C17.334 4.022 17.441 4.228 17.526 4.452C17.611 4.675 17.685 4.925 17.734 5.182C17.783 5.44 17.814 5.72 17.82 5.997C17.826 6.275 17.809 6.568 17.769 6.849C17.729 7.13 17.664 7.416 17.581 7.682C17.498 7.948 17.39 8.209 17.27 8.444C17.151 8.678 17.01 8.899 16.865 9.091C16.72 9.283 16.559 9.452 16.399 9.596C16.24 9.74 16.073 9.857 15.909 9.953C15.746 10.048 15.58 10.118 15.419 10.171C15.258 10.223 15.099 10.253 14.943 10.266C14.787 10.28 14.634 10.275 14.483 10.253C14.332 10.232 14.184 10.193 14.039 10.136C13.893 10.079 13.75 10.006 13.61 9.911C13.471 9.816 13.333 9.703 13.204 9.566C13.075 9.43 12.947 9.271 12.835 9.09C12.723 8.909 12.617 8.703 12.532 8.479C12.446 8.256 12.373 8.007 12.324 7.749C12.274 7.491 12.243 7.212 12.237 6.934C12.232 6.656 12.248 6.363 12.288 6.082C12.328 5.802 12.393 5.515 12.476 5.249C12.56 4.983 12.668 4.722 12.787 4.487C12.907 4.253 13.048 4.033 13.193 3.841C13.338 3.649 13.499 3.479 13.658 3.335C13.817 3.192 13.985 3.074 14.148 2.979C14.312 2.883 14.477 2.813 14.638 2.76C14.799 2.708 14.959 2.679 15.115 2.665C15.271 2.651 15.424 2.656 15.575 2.678ZM15.189 4.506C15.146 4.511 15.103 4.52 15.054 4.54C15.006 4.56 14.954 4.584 14.898 4.625C14.841 4.666 14.779 4.716 14.716 4.786C14.653 4.857 14.584 4.944 14.521 5.048C14.457 5.152 14.391 5.278 14.334 5.412C14.278 5.547 14.225 5.701 14.183 5.857C14.141 6.012 14.106 6.182 14.083 6.346C14.06 6.51 14.047 6.682 14.045 6.842C14.042 7.002 14.051 7.163 14.068 7.306C14.085 7.45 14.114 7.586 14.146 7.701C14.178 7.817 14.22 7.916 14.26 7.999C14.3 8.082 14.345 8.145 14.387 8.199C14.429 8.253 14.471 8.29 14.511 8.322C14.552 8.354 14.591 8.374 14.63 8.391C14.669 8.408 14.707 8.418 14.747 8.424C14.786 8.43 14.826 8.431 14.868 8.426C14.911 8.42 14.955 8.411 15.003 8.391C15.052 8.371 15.104 8.347 15.16 8.306C15.216 8.265 15.279 8.215 15.341 8.145C15.404 8.074 15.473 7.988 15.537 7.883C15.601 7.779 15.667 7.654 15.723 7.519C15.78 7.384 15.833 7.23 15.875 7.074C15.917 6.919 15.951 6.75 15.974 6.585C15.997 6.421 16.01 6.249 16.013 6.089C16.015 5.929 16.006 5.768 15.989 5.625C15.972 5.482 15.943 5.345 15.911 5.23C15.879 5.114 15.837 5.015 15.797 4.932C15.757 4.849 15.712 4.786 15.671 4.732C15.629 4.678 15.587 4.642 15.546 4.61C15.506 4.578 15.467 4.557 15.428 4.54C15.389 4.523 15.351 4.513 15.311 4.507C15.271 4.501 15.232 4.5 15.189 4.506Z"/></svg>