<svg viewBox="0 0 24 24" xmlns="http://www.w3.org/2000/svg" width="24" height="24"><path fill-rule="evenodd" d="M12 10.4c.91 0 1.62.27 2.26.88.56.55 1.06 1.36 1.65 2.34l.16.23c.38.5.92.84 1.57 1.23.66.4 1.62.94 2.02 2v.01l.01.03q.21.56.22 1.15l-.02.3a3 3 0 0 1-2.92 2.76c-.87 0-1.85-.34-2.65-.6a8 8 0 0 0-2.3-.51 8 8 0 0 0-2.3.5c-.8.27-1.78.61-2.65.61a3 3 0 0 1-2.93-2.75l-.01-.31q0-.61.21-1.16c.4-1.08 1.37-1.63 2.03-2.03a4.6 4.6 0 0 0 1.73-1.46l.43-.7c.42-.67.8-1.23 1.23-1.63a3 3 0 0 1 2.26-.9m0 1.8c-.48 0-.73.1-1.02.38-.35.35-.73.93-1.36 1.97-.65 1.08-1.64 1.65-2.34 2.07-.78.48-1.13.73-1.26 1.1l-.01.02v.02q-.1.24-.1.5v.15c.07.67.6 1.12 1.14 1.12.52 0 1.18-.22 2.1-.51.83-.27 1.86-.6 2.85-.6 1 0 2.03.33 2.86.6.9.3 1.57.51 2.1.51.57 0 1.13-.51 1.13-1.26l-.01-.13a1 1 0 0 0-.1-.38v-.03c-.14-.39-.48-.64-1.27-1.1-.7-.43-1.68-1-2.34-2.08-.63-1.04-1-1.63-1.36-1.97-.28-.27-.53-.38-1.01-.38M3.63 7.24a3 3 0 0 1 1.93.79q.84.7 1.32 1.86c.37.88.49 1.82.33 2.64-.15.8-.6 1.62-1.47 1.97q-.4.15-.83.16c-.72 0-1.4-.34-1.93-.8q-.72-.62-1.2-1.58L1.67 12a4.7 4.7 0 0 1-.33-2.64c.15-.8.6-1.62 1.48-1.97l.2-.07q.3-.09.62-.08m-.08 1.8-.08.02c-.11.05-.29.2-.37.64-.08.42-.03 1 .22 1.61q.35.78.83 1.19c.32.27.6.36.76.36l.09-.01.07-.02c.12-.05.3-.2.38-.63.07-.43.02-1-.23-1.62a3 3 0 0 0-.83-1.19c-.32-.27-.6-.35-.76-.35zm16.81-1.8q.31 0 .62.08l.2.07.16.07a2.6 2.6 0 0 1 1.32 1.9c.15.82.04 1.76-.33 2.64q-.48 1.15-1.32 1.87c-.54.45-1.21.79-1.93.79q-.42 0-.82-.16c-.88-.35-1.33-1.16-1.48-1.97a4.7 4.7 0 0 1 .33-2.64c.3-.75.77-1.39 1.3-1.85.54-.46 1.2-.8 1.92-.8zm-.08 1.8a1.4 1.4 0 0 0-.69.36q-.47.41-.82 1.18c-.25.61-.3 1.2-.22 1.62s.26.58.37.63l.15.03h.08c.16-.03.41-.12.69-.36.31-.27.62-.67.83-1.19.25-.6.3-1.19.22-1.61s-.26-.59-.37-.64l-.16-.02zM8.73 2.67c.84 0 1.54.49 2.02 1.09.49.6.82 1.42.95 2.3l.04.36c.07.82-.05 1.61-.35 2.27-.33.73-.95 1.42-1.87 1.55l-.3.02c-.85 0-1.55-.49-2.03-1.09a5 5 0 0 1-.9-1.97l-.05-.33a5 5 0 0 1 .31-2.62c.33-.74.95-1.42 1.87-1.56zm-.04 1.8c-.1.02-.32.11-.5.52a3 3 0 0 0-.17 1.62l.04.22q.17.77.54 1.22c.27.34.5.41.61.41h.04c.11-.01.32-.11.5-.51q.24-.54.2-1.38l-.03-.24a3 3 0 0 0-.58-1.45c-.27-.34-.5-.41-.61-.41zm6.74-1.8.14.02c.92.13 1.54.82 1.88 1.56s.45 1.68.31 2.62c-.13.88-.46 1.7-.95 2.3a2.6 2.6 0 0 1-2.02 1.1l-.3-.03h-.01c-.92-.13-1.54-.82-1.87-1.55a5 5 0 0 1-.31-2.62l.06-.33c.15-.76.46-1.45.89-1.98a2.6 2.6 0 0 1 2.02-1.1zm-.26 1.82q-.2.03-.51.4c-.23.28-.44.7-.54 1.21l-.04.23a3 3 0 0 0 .17 1.62c.18.4.4.5.5.51h.04c.1 0 .34-.07.61-.4.26-.34.5-.84.58-1.45l.03-.24a3 3 0 0 0-.2-1.38c-.19-.4-.4-.5-.5-.52h-.04z" clip-rule="evenodd"/></svg>