<svg viewBox="0 0 24 24" xmlns="http://www.w3.org/2000/svg" width="24" height="24"><path d="M14.74 13.45c1.96 0 3.89.5 5.48 1.45q1.67.99 2.64 2.5a.9.9 0 0 1-1.5.97 6 6 0 0 0-2.06-1.93 9 9 0 0 0-4.56-1.2c-1.66 0-3.27.44-4.55 1.2a5.7 5.7 0 0 0-2.56 2.95.9.9 0 1 1-1.7-.59 7.5 7.5 0 0 1 3.33-3.9 11 11 0 0 1 5.48-1.45M4.66 8.35c.5 0 .9.4.9.9v1.85h1.95a.9.9 0 0 1 0 1.8H5.55v1.95a.9.9 0 0 1-1.8 0V12.9H1.91a.9.9 0 0 1 0-1.8h1.85V9.25c0-.5.4-.9.9-.9"/><path fill-rule="evenodd" d="M14.74 1a5.5 5.5 0 1 1 0 11 5.5 5.5 0 0 1 0-11m0 1.8a3.7 3.7 0 1 0 0 7.4 3.7 3.7 0 0 0 0-7.4" clip-rule="evenodd"/></svg>