<svg viewBox="0 0 24 24" xmlns="http://www.w3.org/2000/svg" width="24" height="24"><path fill-rule="evenodd" d="M6.74 2.77C7.5 2.66 8.24 2.87 8.85 3.42L9.22 3.84L10.76 6.19C11.46 7.42 11.66 8.83 10.74 10.04L10 11.04Q10.45 11.67 10.96 12.24L11.9 13.16Q12.41 13.61 12.96 14L13.86 13.34Q14.72 12.64 15.78 12.64Q16.71 12.66 17.58 13.11L17.87 13.27L20.34 14.92L20.46 15.03C21.11 15.66 21.36 16.45 21.23 17.26A4.3 4.3 0 0 1 20.16 19.36L20.09 19.44A5.8 5.8 0 0 1 14.56 21.11Q11.44 20.44 7.76 16.84L7.16 16.24Q3.6 12.62 2.9 9.54A5.8 5.8 0 0 1 4.4 4.05L4.62 3.84A4.3 4.3 0 0 1 6.72 2.77M7 4.55Q6.55 4.6 5.81 5.2L5.71 5.3A4 4 0 0 0 4.66 9.14C5.02 10.73 6.19 12.67 8.44 14.98L9.45 15.97C11.61 17.99 13.44 19.04 14.94 19.35A4 4 0 0 0 18.81 18.18Q19.4 17.45 19.45 17A.7 .7 0 0 0 19.21 16.33L16.91 14.8A2.4 2.4 0 0 0 15.78 14.44Q15.37 14.43 14.98 14.75L13.62 15.75A1.1 1.1 0 0 1 12.52 15.85L12.37 15.78Q11.2 15 10.2 14.04L9.65 13.46Q8.86 12.61 8.22 11.63A1.1 1.1 0 0 1 8.25 10.39L9.31 8.94C9.63 8.53 9.69 7.96 9.21 7.09L7.66 4.79A.7 .7 0 0 0 7 4.55" clip-rule="evenodd"/></svg>