<svg viewBox="0 0 24 24" xmlns="http://www.w3.org/2000/svg" width="24" height="24"><path fill-rule="evenodd" d="M6.74 2.77c.76-.11 1.5.1 2.11.65l.12.12.02.02.1.1.02.04.03.04.06.08.02.02.12.18v.01l1.39 2.1.01.03.02.03c.7 1.23.9 2.64-.02 3.85l-.02.02-.07.09-.65.89q.45.63.96 1.2l.3.31.2.2.44.41q.51.45 1.06.84l.9-.66q.86-.7 1.92-.7.93.02 1.8.47l.23.13.03.02.03.01 2.1 1.38.02.02.26.18.04.03.05.04.1.1.02.01c.65.63.9 1.42.77 2.23a4.3 4.3 0 0 1-1.07 2.1v.02l-.02.01-.03.03-.01.02h-.01a5.8 5.8 0 0 1-5.53 1.67q-3.12-.67-6.8-4.27l-.22-.21v-.01l-.09-.09-.07-.06v-.01l-.22-.22Q3.6 12.62 2.9 9.54a5.8 5.8 0 0 1 1.5-5.49h.01l.13-.13.01-.01.02-.02.03-.03.01-.01.01-.01a4.3 4.3 0 0 1 2.1-1.07M7 4.55q-.45.05-1.19.65l-.1.1a4 4 0 0 0-1.05 3.84c.36 1.59 1.53 3.53 3.78 5.84l.2.2.09.08v.01l.08.08.2.2.44.42c2.16 2.02 3.99 3.07 5.49 3.38a4 4 0 0 0 3.87-1.17q.59-.73.64-1.18a.7.7 0 0 0-.24-.67l-.04-.04-.2-.13-2.06-1.36a2.4 2.4 0 0 0-1.13-.36q-.41-.01-.8.31l-.03.03-.03.02-1.3.95a1.1 1.1 0 0 1-1.1.1l-.15-.07Q11.2 15 10.2 14.04l-.25-.25-.3-.32v-.01q-.79-.85-1.43-1.83a1.1 1.1 0 0 1 .03-1.24l.95-1.31.02-.02.01-.02.08-.1c.32-.41.38-.98-.1-1.85L7.83 5.02l-.1-.14-.02-.04-.05-.05A.7.7 0 0 0 7 4.55" clip-rule="evenodd"/></svg>