<svg viewBox="0 0 24 24" xmlns="http://www.w3.org/2000/svg" width="24" height="24"><path fill-rule="evenodd" d="M15.21 2.38q.98-.28 1.94 0 .7.23 1.27.72.53.46 1.28 1.21l.06.06q.76.74 1.25 1.3.51.56.75 1.27.3.99 0 1.98-.24.71-.75 1.28-.48.55-1.25 1.3l-1.14 1.12c-.3.3-.38.38-.44.46q-.2.25-.27.55l-.07.63v.04q-.14 1.42-.26 2.3c-.1.58-.23 1.13-.53 1.57a3.5 3.5 0 0 1-3.84 1.4 4 4 0 0 1-1.41-.87q-.67-.57-1.68-1.6l-.94-.93-3.63 3.61a.95.95 0 0 1-1.33-1.35l3.6-3.59-.82-.81q-1.04-1-1.63-1.67c-.4-.45-.74-.9-.9-1.41a3.5 3.5 0 0 1 1.4-3.9c.44-.29 1-.42 1.58-.51q.89-.14 2.32-.25h.04l.62-.08q.3-.08.54-.26c.09-.05.17-.13.46-.42l1.24-1.22q.74-.75 1.28-1.2c.38-.33.78-.6 1.26-.73m1.41 1.82q-.44-.14-.88 0c-.12.03-.3.12-.58.36-.3.25-.66.6-1.2 1.13l-1.2 1.19-.04.04q-.33.34-.63.57a3.5 3.5 0 0 1-2.05.67h-.06c-1 .1-1.71.17-2.23.25a2 2 0 0 0-.84.23c-.57.38-.83 1.1-.62 1.75.03.1.13.3.5.7.34.4.85.9 1.57 1.61l3.07 3.03c.71.7 1.21 1.2 1.6 1.54.41.35.61.45.71.48.66.2 1.36-.06 1.74-.63.05-.08.14-.29.23-.82.08-.52.15-1.22.24-2.21v-.06c.04-.34.06-.6.13-.86q.16-.66.57-1.22.23-.3.6-.64l.04-.04 1.1-1.1c.55-.53.92-.9 1.18-1.2s.34-.46.37-.6q.15-.44 0-.89a2 2 0 0 0-.37-.59c-.26-.3-.63-.66-1.17-1.2s-.9-.88-1.2-1.13a2 2 0 0 0-.58-.36" clip-rule="evenodd"/></svg>