<svg viewBox="0 0 24 24" xmlns="http://www.w3.org/2000/svg" width="24" height="24"><path fill-rule="evenodd" d="M15.21 2.38Q16.19 2.1 17.15 2.38Q17.85 2.61 18.42 3.1Q18.95 3.56 19.7 4.31L19.76 4.37Q20.52 5.11 21.01 5.67Q21.52 6.23 21.76 6.94Q22.06 7.93 21.76 8.92Q21.52 9.63 21.01 10.2Q20.53 10.75 19.76 11.5L18.62 12.62C18.32 12.92 18.24 13 18.18 13.08Q17.98 13.33 17.91 13.63L17.84 14.3Q17.7 15.72 17.58 16.6C17.48 17.18 17.35 17.73 17.05 18.17A3.5 3.5 0 0 1 13.21 19.57A4 4 0 0 1 11.8 18.7Q11.13 18.13 10.12 17.1L9.18 16.17L5.55 19.78A.95 .95 0 0 1 4.22 18.43L7.82 14.84L7 14.03Q5.96 13.03 5.37 12.36C4.97 11.91 4.63 11.46 4.47 10.95A3.5 3.5 0 0 1 5.87 7.05C6.31 6.76 6.87 6.63 7.45 6.54Q8.34 6.4 9.77 6.29L10.43 6.21Q10.73 6.13 10.97 5.95C11.06 5.9 11.14 5.82 11.43 5.53L12.67 4.31Q13.41 3.56 13.95 3.11C14.33 2.78 14.73 2.51 15.21 2.38M16.62 4.2Q16.18 4.06 15.74 4.2C15.62 4.23 15.44 4.32 15.16 4.56C14.86 4.81 14.5 5.16 13.96 5.69L12.72 6.92Q12.39 7.26 12.09 7.49A3.5 3.5 0 0 1 10.04 8.16L9.98 8.16C8.98 8.26 8.27 8.33 7.75 8.41A2 2 0 0 0 6.91 8.64C6.34 9.02 6.08 9.74 6.29 10.39C6.32 10.49 6.42 10.69 6.79 11.09C7.13 11.49 7.64 11.99 8.36 12.7L11.43 15.73C12.14 16.43 12.64 16.93 13.03 17.27C13.44 17.62 13.64 17.72 13.74 17.75C14.4 17.95 15.1 17.69 15.48 17.12C15.53 17.04 15.62 16.83 15.71 16.3C15.79 15.78 15.86 15.08 15.95 14.09L15.95 14.03C15.99 13.69 16.01 13.43 16.08 13.17Q16.24 12.51 16.65 11.95Q16.88 11.65 17.25 11.31L18.39 10.17C18.94 9.64 19.31 9.27 19.57 8.97C19.83 8.67 19.91 8.51 19.94 8.37Q20.09 7.93 19.94 7.48A2 2 0 0 0 19.57 6.89C19.31 6.59 18.94 6.23 18.4 5.69C17.86 5.15 17.5 4.81 17.2 4.56A2 2 0 0 0 16.62 4.2" clip-rule="evenodd"/></svg>