<svg viewBox="0 0 24 24" xmlns="http://www.w3.org/2000/svg" width="24" height="24"><path fill-rule="evenodd" d="M12 5.9a3.4 3.4 0 1 1 0 6.8 3.4 3.4 0 0 1 0-6.8m0 1.8a1.6 1.6 0 1 0 0 3.2 1.6 1.6 0 0 0 0-3.2" clip-rule="evenodd"/><path fill-rule="evenodd" d="M12 .99c4.52 0 8.38 3.08 8.38 7.74 0 5.16-3.1 9.8-5.33 12.49-.58.7-1.04 1.28-1.91 1.6-.36.13-.77.18-1.14.18s-.78-.05-1.14-.18c-.87-.32-1.32-.9-1.9-1.6-2.23-2.69-5.34-7.34-5.34-12.49C3.62 4.08 7.48 1 12 1m0 1.8c-3.73 0-6.58 2.47-6.58 5.94 0 4.49 2.75 8.72 4.92 11.34.64.78.8.94 1.15 1.06q.13.07.51.07.37 0 .52-.07c.34-.12.5-.28 1.14-1.06 2.17-2.6 4.92-6.84 4.92-11.34 0-3.47-2.85-5.94-6.58-5.94" clip-rule="evenodd"/></svg>