<svg viewBox="0 0 24 24" xmlns="http://www.w3.org/2000/svg" width="24" height="24"><path fill-rule="evenodd" d="M9.11 1.9a2 2 0 0 1 1.5.77l5 6.37L17.59 9l.81-.02.46.01a6 6 0 0 1 2.72.68c.87.5 1.44 1.3 1.44 2.34 0 .32-.06.78-.33 1.26q-.4.74-1.42 1.24-1.2.54-2.87.53c-.1 0-.59 0-.81-.02l-1.98-.05-5 6.37a2 2 0 0 1-1.5.78H7.95a1.6 1.6 0 0 1-1.33-.76 1.6 1.6 0 0 1-.1-1.5l2.18-5.07-2.3-.06-1.2 1.54a2 2 0 0 1-.72.65c-.34.19-.7.24-1.08.24h-.75a1.6 1.6 0 0 1-1.36-.7 1.7 1.7 0 0 1-.23-1.47L1.85 12l-.8-3a1.7 1.7 0 0 1 .25-1.47l.12-.14q.2-.22.45-.35l.18-.08q.26-.1.55-.1h.8c.7 0 1.38.32 1.8.88l1.19 1.5 2.3-.03-2.18-5.05q-.16-.37-.13-.76l.03-.2q.05-.28.2-.54l.12-.16q.19-.24.45-.39l.18-.09q.29-.12.59-.12zm2.31 9.06-5.89.09L3.8 8.84v-.01h-.01a.5.5 0 0 0-.38-.18h-.57l.8 3.03.02.07.01.07q.04.18 0 .35v.07l-.03.07-.81 3.04h.58c.16 0 .21-.02.23-.02l.14-.17h.01l1.49-1.9.28-.36.45.01 5.4.13-3.13 7.27h.78l.06-.02.05-.05.01-.01.01-.01 5.28-6.73.28-.36 2.89.08h.02l.74.02q1.42-.01 2.11-.36l.14-.06c.28-.16.4-.32.47-.44q.11-.2.1-.37c0-.29-.12-.55-.53-.78a5 5 0 0 0-2.29-.45c-.12 0-.59 0-.73.02h-.03l-2.89.08L9.2 3.78l-.02-.02-.05-.05-.05-.02h-.8z" clip-rule="evenodd"/></svg>