<svg viewBox="0 0 24 24" xmlns="http://www.w3.org/2000/svg" width="24" height="24"><path fill-rule="evenodd" d="M2.9 1c.5 0 .9.4.9.9v7.2q.8-.52 2-1.2l7.24-4.18q1.38-.83 2.3-1.26a3.6 3.6 0 0 1 1.86-.42c.93.1 1.77.6 2.32 1.35.38.51.51 1.14.57 1.82q.07 1 .06 2.61v8.36q.02 1.6-.06 2.61c-.06.67-.2 1.3-.57 1.82a3.3 3.3 0 0 1-2.32 1.34 3.6 3.6 0 0 1-1.86-.41q-.92-.44-2.3-1.26L5.81 16.1q-1.21-.68-2.01-1.2v7.29a.9.9 0 0 1-1.8 0V1.9c0-.5.4-.9.9-.9M17 3.84c-.13-.02-.38.01-.9.26-.53.24-1.2.62-2.16 1.18L6.71 9.45c-.96.56-1.63.94-2.1 1.28-.48.33-.63.53-.68.66a1.5 1.5 0 0 0 0 1.22c.05.13.2.33.68.66.47.34 1.14.72 2.1 1.28l7.23 4.17c.96.56 1.63.94 2.15 1.18.53.25.78.28.92.26q.65-.07 1.06-.6c.08-.12.18-.35.23-.93.05-.57.05-1.34.05-2.45V7.82c0-1.1 0-1.88-.05-2.45s-.15-.81-.23-.92A1.5 1.5 0 0 0 17 3.84" clip-rule="evenodd"/></svg>