<svg viewBox="0 0 24 24" xmlns="http://www.w3.org/2000/svg" width="24" height="24"><path fill-rule="evenodd" d="M19.87 5.47c.6.05 1.16.35 1.53.84.27.36.35.8.38 1.16q.04.57.03 1.4v6.26q0 .83-.03 1.4c-.04.37-.11.8-.38 1.16-.37.49-.92.8-1.53.84-.45.03-.86-.13-1.19-.3q-.5-.27-1.2-.72l-4.93-3.13-.37-.24v.99q0 .83-.03 1.4c-.03.37-.11.8-.38 1.16-.37.49-.92.8-1.53.84-.45.03-.86-.13-1.18-.3q-.51-.27-1.2-.72l-4.94-3.13q-.62-.39-1.04-.7a2 2 0 0 1-.72-.86 2 2 0 0 1-.08-1.44l.08-.2c.16-.39.45-.66.72-.87q.41-.3 1.04-.7L7.85 6.5q.7-.46 1.2-.72a2.3 2.3 0 0 1 1.2-.3c.6.05 1.15.35 1.52.84.27.36.35.8.38 1.16q.04.57.03 1.4v.98l.37-.23 4.93-3.13q.7-.46 1.2-.72a2.3 2.3 0 0 1 1.2-.3m-9.75 1.8q-.03 0-.24.1c-.25.13-.57.33-1.06.64L3.9 11.15c-.44.28-.72.45-.9.6-.18.13-.2.18-.18.15a.3.3 0 0 0 0 .22l.17.15c.2.15.47.32.9.6L8.83 16c.5.31.81.51 1.06.64q.21.1.24.1a.3.3 0 0 0 .2-.1l.04-.27c.02-.27.02-.65.02-1.23V8.87c0-.58 0-.96-.02-1.23l-.05-.27a.3.3 0 0 0-.19-.1m9.63 0q-.04 0-.24.1c-.25.13-.57.33-1.06.64l-4.93 3.13c-.44.28-.72.45-.91.6-.17.13-.18.18-.17.15a.3.3 0 0 0 0 .22l.17.15c.19.15.47.32.9.6L18.46 16c.5.31.81.51 1.06.64q.21.1.24.1a.3.3 0 0 0 .2-.1l.04-.27c.02-.27.02-.65.02-1.23V8.87c0-.58 0-.96-.02-1.23l-.05-.27a.3.3 0 0 0-.2-.1" clip-rule="evenodd"/></svg>