<svg viewBox="0 0 24 24" xmlns="http://www.w3.org/2000/svg" width="24" height="24"><path d="M13.33 7.77c.3-.02.56.08.78.2q.33.17.8.48l3.12 1.97q.41.26.69.47c.18.14.37.31.48.57l.05.13q.15.48-.05.95c-.1.26-.3.43-.48.57q-.28.21-.7.47l-3.11 1.97q-.47.3-.8.48c-.22.12-.49.22-.78.2a1.4 1.4 0 0 1-1.01-.55 1.5 1.5 0 0 1-.25-.77q-.04-.37-.03-.93v-.59l-.28.19-3.11 1.97q-.47.3-.8.48c-.22.12-.5.22-.79.2q-.62-.06-1-.55a1.5 1.5 0 0 1-.26-.77q-.02-.37-.02-.93v-3.96q0-.55.02-.93c.03-.24.08-.53.26-.77q.38-.5 1-.55c.3-.02.57.08.78.2q.35.17.8.48l3.12 1.97.28.18v-.58q0-.55.03-.93c.02-.24.07-.53.25-.77q.38-.5 1-.55"/><path fill-rule="evenodd" d="M12 .7a11 11 0 1 1 0 22 11 11 0 0 1 0-22m0 1.5a9.5 9.5 0 1 0 0 19 9.5 9.5 0 0 0 0-19" clip-rule="evenodd"/></svg>