<svg viewBox="0 0 24 24" xmlns="http://www.w3.org/2000/svg" width="24" height="24"><path fill-rule="evenodd" d="M13.76 5.47c.45-.03.86.13 1.19.3q.5.27 1.2.72l4.93 3.13q.62.39 1.04.7c.27.2.56.47.72.86l.08.2c.14.47.12.98-.08 1.44a2 2 0 0 1-.72.87q-.41.3-1.04.7l-4.93 3.12q-.7.46-1.2.72c-.33.17-.74.33-1.19.3a2.1 2.1 0 0 1-1.53-.84 2.3 2.3 0 0 1-.38-1.16q-.04-.57-.03-1.4v-.99l-.37.24-4.93 3.13q-.7.46-1.2.72c-.33.17-.74.33-1.19.3a2.1 2.1 0 0 1-1.52-.84c-.28-.36-.35-.8-.39-1.16q-.04-.57-.03-1.4V8.87q0-.83.03-1.4c.04-.37.11-.8.39-1.16.36-.49.92-.8 1.52-.84.45-.03.86.13 1.19.3q.5.27 1.2.72l4.93 3.13.37.23v-.98q0-.83.03-1.4c.04-.37.11-.8.38-1.16.37-.49.92-.8 1.53-.84m-9.5 1.8a.3.3 0 0 0-.2.1l-.04.27c-.03.27-.03.65-.03 1.23v6.26c0 .58 0 .96.03 1.23q.02.24.04.26.08.1.2.11l.24-.1c.24-.13.56-.33 1.06-.64l4.93-3.13a14 14 0 0 0 1.07-.75.3.3 0 0 0 0-.22c.02.03 0-.02-.17-.15a14 14 0 0 0-.9-.6L5.56 8a16 16 0 0 0-1.3-.74m9.62 0a.3.3 0 0 0-.2.1l-.04.27c-.02.27-.02.65-.02 1.23v6.26c0 .58 0 .96.02 1.23q.03.24.05.26.07.1.19.11.03 0 .24-.1c.25-.13.57-.33 1.06-.64l4.93-3.13a14 14 0 0 0 1.08-.75.3.3 0 0 0 0-.22c.01.03 0-.02-.17-.15-.19-.15-.47-.32-.9-.6L15.17 8a16 16 0 0 0-1.3-.74" clip-rule="evenodd"/></svg>