<svg viewBox="0 0 24 24" xmlns="http://www.w3.org/2000/svg" width="24" height="24"><path d="M16.406 7.906C16.495 7.863 16.539 7.841 16.573 7.828A1.18 1.18 0 0 1 18.198 8.848C18.2 8.884 18.2 8.933 18.2 9.032L18.2 14.968C18.2 15.067 18.2 15.116 18.198 15.152A1.18 1.18 0 0 1 16.573 16.172C16.539 16.159 16.495 16.137 16.406 16.094L13.684 14.781C13.595 14.738 13.551 14.717 13.517 14.703A1.18 1.18 0 0 0 11.892 15.723C11.89 15.759 11.89 15.809 11.89 15.908L11.89 15.032C11.89 15.143 11.89 15.198 11.888 15.236A1.18 1.18 0 0 1 10.145 16.196C10.112 16.178 10.065 16.149 9.972 16.09L5.167 13.058C5.083 13.005 5.042 12.979 5.013 12.958A1.18 1.18 0 0 1 5.013 11.042C5.042 11.021 5.083 10.995 5.167 10.942L9.972 7.91C10.065 7.851 10.112 7.822 10.145 7.804A1.18 1.18 0 0 1 11.888 8.764C11.89 8.802 11.89 8.857 11.89 8.968L11.89 8.092C11.89 8.191 11.89 8.241 11.892 8.277A1.18 1.18 0 0 0 13.517 9.297C13.551 9.283 13.595 9.262 13.684 9.219ZM1 12a11 11 0 1 0 22 0a11 11 0 1 0 -22 0ZM2.5 12a9.5 9.5 0 1 1 19 0a9.5 9.5 0 1 1 -19 0Z"/></svg>