<svg viewBox="0 0 24 24" xmlns="http://www.w3.org/2000/svg" width="24" height="24"><path d="M16.94 7.77c.4.03.77.23 1 .55.19.24.24.53.26.77q.02.38.02.93v3.96q0 .55-.02.93c-.02.25-.07.53-.25.77-.24.32-.6.52-1 .55-.3.02-.57-.08-.8-.2q-.32-.17-.8-.48l-3.1-1.97-.3-.19v.59l-.01.93c-.03.25-.08.53-.26.77-.23.32-.6.52-1 .55a1.4 1.4 0 0 1-.78-.2q-.35-.17-.8-.48l-3.12-1.97q-.43-.27-.7-.47a1.5 1.5 0 0 1-.48-.57q-.18-.47-.04-.95l.04-.13c.11-.26.3-.43.48-.57q.27-.21.7-.47l3.11-1.97q.48-.3.8-.48c.22-.12.49-.22.79-.2.4.03.77.23 1 .55.18.24.23.53.26.77q.03.38.02.93v.58l.28-.18 3.12-1.97q.46-.3.8-.48c.22-.12.48-.22.78-.2"/><path fill-rule="evenodd" d="M12 .7a11 11 0 1 1 0 22 11 11 0 0 1 0-22m0 1.5a9.5 9.5 0 1 0 0 19 9.5 9.5 0 0 0 0-19" clip-rule="evenodd"/></svg>