<svg viewBox="0 0 24 24" xmlns="http://www.w3.org/2000/svg" width="24" height="24"><path fill-rule="evenodd" d="M21.1 1c.5 0 .9.4.9.9v20.3a.9.9 0 0 1-1.8 0v-7.3q-.8.53-2 1.21l-7.24 4.18q-1.38.82-2.3 1.26c-.61.28-1.22.48-1.86.41a3.3 3.3 0 0 1-2.32-1.34 3.6 3.6 0 0 1-.57-1.82q-.08-1-.06-2.61V7.82q-.01-1.6.06-2.61c.06-.68.2-1.3.57-1.82A3.3 3.3 0 0 1 6.8 2.05c.64-.07 1.25.13 1.86.41q.92.44 2.3 1.26l7.23 4.18q1.21.68 2.01 1.2V1.9c0-.5.4-.9.9-.9M7 3.84c-.42.04-.8.26-1.06.6-.08.12-.18.35-.23.93-.05.57-.05 1.34-.05 2.45v8.36c0 1.1 0 1.88.05 2.45s.15.8.23.92c.25.35.64.57 1.06.61.14.02.39-.01.92-.26.52-.24 1.19-.62 2.15-1.18l7.23-4.17c.96-.56 1.63-.94 2.1-1.28.47-.33.63-.53.68-.66a1.5 1.5 0 0 0 0-1.22c-.05-.13-.2-.33-.68-.66-.47-.34-1.14-.72-2.1-1.28l-7.23-4.17C9.1 4.72 8.43 4.34 7.9 4.1c-.53-.25-.78-.28-.92-.26" clip-rule="evenodd"/></svg>