<svg viewBox="0 0 24 24" xmlns="http://www.w3.org/2000/svg" width="24" height="24"><path d="M8.69 9.212C8.69 8.805 8.69 8.601 8.717 8.465A1.44 1.44 0 0 1 10.655 7.399C10.785 7.45 10.956 7.559 11.3 7.777L15.691 10.566C15.994 10.758 16.146 10.854 16.242 10.943A1.44 1.44 0 0 1 16.242 13.057C16.146 13.146 15.994 13.242 15.691 13.434L11.3 16.223C10.956 16.441 10.785 16.55 10.655 16.601A1.44 1.44 0 0 1 8.717 15.535C8.69 15.399 8.69 15.195 8.69 14.788ZM1 12a11 11 0 1 0 22 0a11 11 0 1 0 -22 0ZM2.5 12a9.5 9.5 0 1 1 19 0a9.5 9.5 0 1 1 -19 0Z"/></svg>