<svg viewBox="0 0 24 24" xmlns="http://www.w3.org/2000/svg" width="24" height="24"><path d="M10 7.3c.32-.03.6.09.82.2q.34.18.8.48l3.79 2.4q.41.26.7.47c.17.14.37.32.49.59l.05.13q.15.5-.05 1a1.5 1.5 0 0 1-.5.58q-.27.21-.7.47l-3.78 2.4q-.46.3-.8.48c-.22.11-.5.23-.81.2-.42-.03-.8-.24-1.05-.57a1.5 1.5 0 0 1-.26-.8q-.03-.38-.02-.93V9.6q0-.54.02-.94c.02-.24.08-.54.26-.79.25-.33.63-.54 1.05-.57"/><path fill-rule="evenodd" d="M12 1A11 11 0 1 1 12 23A11 11 0 0 1 12 1M12 2.5A9.5 9.5 0 1 0 12 21.5A9.5 9.5 0 0 0 12 2.5" clip-rule="evenodd"/></svg>