<svg viewBox="0 0 24 24" xmlns="http://www.w3.org/2000/svg" width="24" height="24"><path d="M5.78 10.05C5.78 9.144 5.78 8.691 5.956 8.406A1.18 1.18 0 0 1 6.828 7.853C7.161 7.816 7.571 8.009 8.391 8.397L9.444 8.895C10.264 9.282 10.674 9.476 11.007 9.438A1.18 1.18 0 0 0 11.879 8.886C12.055 8.601 12.055 8.148 12.055 7.241L12.055 9.963C12.055 8.939 12.055 8.427 12.253 8.13A1.18 1.18 0 0 1 13.208 7.604C13.565 7.596 13.997 7.87 14.862 8.418L18.08 10.455C18.846 10.94 19.229 11.182 19.375 11.484A1.18 1.18 0 0 1 19.375 12.516C19.229 12.818 18.846 13.06 18.08 13.545L14.862 15.582C13.997 16.13 13.565 16.404 13.208 16.396A1.18 1.18 0 0 1 12.253 15.87C12.055 15.573 12.055 15.061 12.055 14.037L12.055 16.759C12.055 15.852 12.055 15.399 11.879 15.114A1.18 1.18 0 0 0 11.007 14.562C10.674 14.524 10.264 14.718 9.444 15.105L8.391 15.603C7.571 15.991 7.161 16.184 6.828 16.147A1.18 1.18 0 0 1 5.956 15.594C5.78 15.309 5.78 14.856 5.78 13.95ZM1 12a11 11 0 1 0 22 0a11 11 0 1 0 -22 0ZM2.5 12a9.5 9.5 0 1 1 19 0a9.5 9.5 0 1 1 -19 0Z"/></svg>