<svg viewBox="0 0 24 24" xmlns="http://www.w3.org/2000/svg" width="24" height="24"><path d="M15 7.33c.41.03.79.24 1.04.57.19.25.24.55.26.8q.03.38.02.93v4.8q0 .55-.02.94c-.02.24-.07.54-.26.8-.25.32-.63.53-1.04.57-.32.02-.6-.1-.82-.2q-.34-.19-.8-.5L9.6 13.66l-.37-.23v2.18a1 1 0 0 1-2 0V8.37a1 1 0 0 1 2 0v2.27l.37-.23 3.78-2.4q.46-.3.8-.48c.22-.11.5-.23.82-.2"/><path fill-rule="evenodd" d="M12 .7a11 11 0 1 1 0 22 11 11 0 0 1 0-22m0 1.5a9.5 9.5 0 1 0 0 19 9.5 9.5 0 0 0 0-19" clip-rule="evenodd"/></svg>