<svg viewBox="0 0 24 24" xmlns="http://www.w3.org/2000/svg" width="24" height="24"><path d="M12 5.1L12 5.1C12 5.1 12 5.1 12 5.1A.9 .9 0 0 1 12.9 6C12.9 6 12.9 6 12.9 6L12.9 18.12C12.9 18.12 12.9 18.12 12.9 18.12A.9 .9 0 0 1 12 19.02C12 19.02 12 19.02 12 19.02L12 19.02C12 19.02 12 19.02 12 19.02A.9 .9 0 0 1 11.1 18.12C11.1 18.12 11.1 18.12 11.1 18.12L11.1 6C11.1 6 11.1 6 11.1 6A.9 .9 0 0 1 12 5.1C12 5.1 12 5.1 12 5.1ZM6 11.1L10.2 11.1C10.2 11.1 10.2 11.1 10.2 11.1A.9 .9 0 0 1 11.1 12C11.1 12 11.1 12 11.1 12L11.1 12C11.1 12 11.1 12 11.1 12A.9 .9 0 0 1 10.2 12.9C10.2 12.9 10.2 12.9 10.2 12.9L6 12.9C6 12.9 6 12.9 6 12.9A.9 .9 0 0 1 5.1 12C5.1 12 5.1 12 5.1 12L5.1 12C5.1 12 5.1 12 5.1 12A.9 .9 0 0 1 6 11.1C6 11.1 6 11.1 6 11.1ZM13.74 11.1L18.05 11.1C18.05 11.1 18.05 11.1 18.05 11.1A.9 .9 0 0 1 18.95 12C18.95 12 18.95 12 18.95 12L18.95 12C18.95 12 18.95 12 18.95 12A.9 .9 0 0 1 18.05 12.9C18.05 12.9 18.05 12.9 18.05 12.9L13.74 12.9C13.74 12.9 13.74 12.9 13.74 12.9A.9 .9 0 0 1 12.84 12C12.84 12 12.84 12 12.84 12L12.84 12C12.84 12 12.84 12 12.84 12A.9 .9 0 0 1 13.74 11.1C13.74 11.1 13.74 11.1 13.74 11.1Z"/></svg>