<svg viewBox="0 0 24 24" xmlns="http://www.w3.org/2000/svg" width="24" height="24"><path d="M8.68 8.4c.5-.04.92.38.92.88v.2c0 .38-.3.68-.67.71a2 2 0 0 0-.92.2 2.2 2.2 0 0 0-.96.96c-.07.13-.15.36-.2.91-.04.58-.04 1.34-.04 2.48v1.2c0 1.14 0 1.9.05 2.47.04.56.12.79.19.92q.31.63.96.96l.12.05c.15.06.38.1.8.14.57.05 1.33.05 2.48.05h1.18c1.15 0 1.9 0 2.48-.05.56-.04.8-.12.92-.19l.15-.08q.53-.33.81-.88l.06-.12c.05-.15.1-.38.14-.8.04-.57.04-1.33.04-2.48v-1.19c0-1.14 0-1.9-.04-2.48a3 3 0 0 0-.14-.8l-.06-.11a2.2 2.2 0 0 0-.96-.97 3 3 0 0 0-.92-.19.7.7 0 0 1-.67-.7v-.2c0-.51.42-.93.92-.88a4 4 0 0 1 1.49.37 4 4 0 0 1 1.75 1.75c.43.85.43 1.98.43 4.21v2.67c-.02 1.3-.1 2.1-.43 2.74l-.16.27a4 4 0 0 1-1.59 1.47l-.16.08c-.62.27-1.38.34-2.57.35l-1.49.01H9.92a7 7 0 0 1-2.57-.36l-.16-.07a4 4 0 0 1-1.6-1.48l-.15-.27c-.32-.64-.4-1.44-.43-2.74v-2.67c0-2.1 0-3.21.36-4.05l.07-.16a4 4 0 0 1 1.48-1.6l.27-.15a4 4 0 0 1 1.49-.37"/><path d="M11.36 1.38a.9.9 0 0 1 1.28 0l2.88 2.88a.9.9 0 0 1-1.27 1.28L12.9 4.19v10.6a.9.9 0 0 1-1.8 0V4.19L9.75 5.54l-.07.06a.9.9 0 0 1-1.26-1.27l.06-.07z"/></svg>