<svg viewBox="0 0 24 24" xmlns="http://www.w3.org/2000/svg" width="24" height="24"><path fill-rule="evenodd" d="M6.13 12.75c1.05 0 1.57 0 2 .1a4 4 0 0 1 3.03 3.02c.1.44.1.96.1 2 0 1.05 0 1.57-.1 2l-.07.29a4 4 0 0 1-2.96 2.74l-.16.03c-.4.07-.92.07-1.84.07-.91 0-1.43 0-1.83-.07l-.17-.03a4 4 0 0 1-2.95-2.74l-.07-.28c-.1-.44-.1-.96-.1-2 0-.92 0-1.43.06-1.84l.04-.17a4 4 0 0 1 2.74-2.95l.28-.07c.44-.1.96-.1 2-.1m0 1.8c-1.14 0-1.41.01-1.6.05a2.2 2.2 0 0 0-1.67 1.67c-.04.19-.05.46-.05 1.6s.01 1.42.05 1.61a2.2 2.2 0 0 0 1.67 1.67c.19.04.46.05 1.6.05s1.42-.01 1.61-.05a2.2 2.2 0 0 0 1.67-1.67c.04-.19.05-.46.05-1.6s-.01-1.42-.05-1.61a2.2 2.2 0 0 0-1.67-1.67 9 9 0 0 0-1.6-.05" clip-rule="evenodd"/><path d="M14.76 20a1.5 1.5 0 1 1 0 3 1.5 1.5 0 0 1 0-3m6.25 0a1.5 1.5 0 1 1 0 3 1.5 1.5 0 0 1 0-3m-3.13-3.62a1.5 1.5 0 1 1 0 3 1.5 1.5 0 0 1 0-3m-3.12-3.13a1.5 1.5 0 1 1 0 3 1.5 1.5 0 0 1 0-3m6.25 0a1.5 1.5 0 1 1 0 3 1.5 1.5 0 0 1 0-3"/><path fill-rule="evenodd" d="M6.13 1c1.05 0 1.57 0 2 .1a4 4 0 0 1 3.03 3.02c.1.44.1.96.1 2 0 1.05 0 1.57-.1 2l-.07.29a4 4 0 0 1-2.96 2.74l-.16.03c-.4.07-.92.07-1.84.07-.91 0-1.43 0-1.83-.07l-.17-.03a4 4 0 0 1-2.95-2.74l-.07-.28c-.1-.44-.1-.96-.1-2 0-.92 0-1.43.06-1.84l.04-.17a4 4 0 0 1 2.74-2.95l.28-.07c.44-.1.96-.1 2-.1m0 1.8c-1.14 0-1.41.01-1.6.05a2.2 2.2 0 0 0-1.67 1.67c-.04.19-.05.46-.05 1.6s.01 1.42.05 1.61A2.2 2.2 0 0 0 4.53 9.4c.19.04.46.05 1.6.05s1.42-.01 1.61-.05a2.2 2.2 0 0 0 1.67-1.67c.04-.19.05-.46.05-1.6S9.45 4.7 9.4 4.51a2.2 2.2 0 0 0-1.67-1.67 9 9 0 0 0-1.6-.05M17.88 1c1.05 0 1.57 0 2 .1a4 4 0 0 1 3.03 3.02c.1.44.1.96.1 2 0 1.05 0 1.57-.1 2l-.07.29a4 4 0 0 1-2.96 2.74l-.16.03c-.4.07-.92.07-1.84.07-.91 0-1.43 0-1.83-.07l-.17-.03a4 4 0 0 1-2.95-2.74l-.07-.28c-.1-.44-.1-.96-.1-2 0-.92 0-1.43.06-1.84l.04-.17a4 4 0 0 1 2.74-2.95l.28-.07c.44-.1.96-.1 2-.1m0 1.8c-1.14 0-1.41.01-1.6.05a2.2 2.2 0 0 0-1.67 1.67c-.04.19-.05.46-.05 1.6s.01 1.42.05 1.61a2.2 2.2 0 0 0 1.67 1.67c.19.04.46.05 1.6.05s1.42-.01 1.61-.05a2.2 2.2 0 0 0 1.67-1.67c.04-.19.05-.46.05-1.6s-.01-1.42-.05-1.61a2.2 2.2 0 0 0-1.67-1.67 9 9 0 0 0-1.6-.05" clip-rule="evenodd"/></svg>