<svg viewBox="0 0 24 24" xmlns="http://www.w3.org/2000/svg" width="24" height="24"><path d="M12 15.08A1 1 0 1 1 12 17.08A1 1 0 0 1 12 15.08M12.19 6.9C13.36 6.9 14.42 7.61 14.88 8.7L14.88 8.71L14.98 8.97Q15.1 9.37 15.1 9.8L15.1 9.81A2.8 2.8 0 0 1 13.65 12.26L13.47 12.35L13.33 12.41A0.6 0.6 0 0 0 13.01 12.91A1 1 0 0 1 11.01 12.91C11.01 11.91 11.59 11.01 12.51 10.59L12.64 10.53L12.74 10.47A0.8 0.8 0 0 0 13.1 9.81L13.1 9.8L13.07 9.56L13.04 9.48L13.04 9.47A0.9 0.9 0 0 0 12.19 8.9L12.08 8.9C11.68 8.9 11.31 9.13 11.13 9.48L11.06 9.63L11.02 9.76A1 1 0 0 1 9.12 9.11L9.17 8.98L9.26 8.76A3.1 3.1 0 0 1 12.08 6.9Z"/><path fill-rule="evenodd" d="M12 1A11 11 0 1 1 12 23A11 11 0 0 1 12 1M12 2.5A9.5 9.5 0 1 0 12 21.5A9.5 9.5 0 0 0 12 2.5" clip-rule="evenodd"/></svg>