<svg viewBox="0 0 24 24" xmlns="http://www.w3.org/2000/svg" width="24" height="24"><path d="M12 14.78a1 1 0 1 1 0 2 1 1 0 0 1 0-2m.19-8.18c1.17 0 2.23.71 2.69 1.8v.01l.1.26q.12.4.12.83v.01a2.8 2.8 0 0 1-1.45 2.45l-.18.09-.14.06a.6.6 0 0 0-.32.5 1 1 0 0 1-2 0c0-1 .58-1.9 1.5-2.32l.13-.06.1-.06a.8.8 0 0 0 .36-.66V9.5l-.03-.24-.03-.08v-.01a.9.9 0 0 0-.85-.57h-.11c-.4 0-.77.23-.95.58l-.07.15-.04.13a1 1 0 0 1-1.9-.65l.05-.13.09-.22a3.1 3.1 0 0 1 2.82-1.86z"/><path fill-rule="evenodd" d="M12 .7a11 11 0 1 1 0 22 11 11 0 0 1 0-22m0 1.5a9.5 9.5 0 1 0 0 19 9.5 9.5 0 0 0 0-19" clip-rule="evenodd"/></svg>