<svg viewBox="0 0 24 24" xmlns="http://www.w3.org/2000/svg" width="24" height="24"><path d="M20.335 5.006A10.88 10.88 0 0 1 20.335 18.994A.8 .8 0 0 1 19.109 17.965A9.28 9.28 0 0 0 19.109 6.035A.8 .8 0 0 1 20.335 5.006ZM3.665 18.994A10.88 10.88 0 0 1 3.665 5.006A.8 .8 0 0 1 4.891 6.035A9.28 9.28 0 0 0 4.891 17.965A.8 .8 0 0 1 3.665 18.994ZM18.021 6.948A7.86 7.86 0 0 1 18.021 17.052A.8 .8 0 0 1 16.795 16.024A6.26 6.26 0 0 0 16.795 7.976A.8 .8 0 0 1 18.021 6.948ZM5.979 17.052A7.86 7.86 0 0 1 5.979 6.948A.8 .8 0 0 1 7.205 7.976A6.26 6.26 0 0 0 7.205 16.024A.8 .8 0 0 1 5.979 17.052ZM15.972 9.114A4.91 4.91 0 0 1 15.972 14.886A.8 .8 0 0 1 14.678 13.946A3.31 3.31 0 0 0 14.678 10.054A.8 .8 0 0 1 15.972 9.114ZM8.028 14.886A4.91 4.91 0 0 1 8.028 9.114A.8 .8 0 0 1 9.322 10.054A3.31 3.31 0 0 0 9.322 13.946A.8 .8 0 0 1 8.028 14.886ZM10.6 12a1.4 1.4 0 1 0 2.8 0a1.4 1.4 0 1 0 -2.8 0Z"/></svg>