<svg viewBox="0 0 24 24" xmlns="http://www.w3.org/2000/svg" width="24" height="24"><path d="M19.16 4.85a.8.8 0 0 1 1.13.1 10.9 10.9 0 0 1 0 14.1l-.06.07a.8.8 0 0 1-1.16-1.1l.26-.32a9.3 9.3 0 0 0-.26-11.72.8.8 0 0 1 .09-1.13m-15.39.03a.8.8 0 0 1 1.16 1.1l-.26.32a9.3 9.3 0 0 0 .26 11.72.8.8 0 0 1-1.22 1.03 10.9 10.9 0 0 1 0-14.1zm14.35 12.06a.8.8 0 0 1-1.24-1z"/><path d="m6.5 7.57.62.5a6.26 6.26 0 0 0-.18 7.63l.17.21.05.07a.8.8 0 0 1-1.25 1l-.05-.06-.2-.27a7.86 7.86 0 0 1 .22-9.59zm10.52-.61a.8.8 0 0 1 1.07.06l.05.07.2.26a7.86 7.86 0 0 1-.22 9.59l-.62-.5-.62-.5a6.26 6.26 0 0 0 .18-7.64l-.17-.21-.05-.07a.8.8 0 0 1 .18-1.06m-1 7.77a.8.8 0 0 1-1.26-1z"/><path d="M7.98 9.27a.8.8 0 0 1 1.26 1 2.8 2.8 0 0 0 0 3.46.8.8 0 1 1-1.27.99 4.4 4.4 0 0 1 .01-5.45m8.05.01a4.4 4.4 0 0 1-.01 5.45l-1.26-1a2.8 2.8 0 0 0 0-3.46zM12 10.63a1.37 1.37 0 1 1 0 2.74 1.37 1.37 0 0 1 0-2.74"/><path d="M14.9 9.14a.8.8 0 0 1 1.13.14l-1.26.99a.8.8 0 0 1 .13-1.13M5.88 7.06a.8.8 0 0 1 1.24 1z"/></svg>