<svg viewBox="0 0 24 24" xmlns="http://www.w3.org/2000/svg" width="24" height="24"><path d="M11.14 20.32a.9.9 0 0 1-1.27 1.27z"/><path d="M21.78 8.92A.9 .9 0 0 1 22.84 9.62A7.8 7.8 0 0 1 19.54 17.59C18.22 18.47 16.71 18.89 14.24 18.89L9.71 18.89L11.13 20.32L9.86 21.59L7.53 19.24C7.39 19.07 7.23 18.86 7.15 18.59A2 2 0 0 1 7.15 17.41L7.22 17.21Q7.36 16.95 7.52 16.76L9.86 14.41A.9 .9 0 1 1 11.13 15.68L9.72 17.1L14.23 17.1C16.47 17.1 17.61 16.72 18.54 16.1A6 6 0 0 0 21.07 9.98A.9 .9 0 0 1 21.78 8.92M15.97 4.23Q16.27 4.52 16.47 4.76Q16.71 5.01 16.86 5.41Q17.04 6 16.86 6.59L16.78 6.78Q16.64 7.05 16.48 7.24L14.15 9.59A.9 .9 0 0 1 12.87 8.32L14.3 6.9L9.76 6.9C7.52 6.9 6.39 7.28 5.46 7.9A6 6 0 0 0 2.92 14.02A.9 .9 0 0 1 1.16 14.37A7.8 7.8 0 0 1 4.46 6.41C5.77 5.53 7.29 5.11 9.76 5.11L14.3 5.11L12.87 3.68L14.15 2.41Z"/><path d="M12.87 2.4a.9.9 0 0 1 1.28 0l-1.28 1.28a.9.9 0 0 1 0-1.27"/></svg>