<svg viewBox="0 0 24 24" xmlns="http://www.w3.org/2000/svg" width="24" height="24"><path d="M11.14 20.32a.9.9 0 0 1-1.27 1.27z"/><path d="M21.78 8.92a.9.9 0 0 1 1.06.7 7.8 7.8 0 0 1-3.3 7.97c-1.32.88-2.83 1.3-5.3 1.3H9.71l1.42 1.43-.64.63-.63.64-1.83-1.82-.5-.53c-.14-.17-.3-.38-.38-.65a2 2 0 0 1 0-1.18l.07-.2q.14-.26.3-.45l.51-.53 1.83-1.82a.9.9 0 1 1 1.27 1.27L9.72 17.1h4.51c2.24 0 3.38-.38 4.31-1a6 6 0 0 0 2.53-6.12.9.9 0 0 1 .71-1.06m-5.81-4.69q.3.29.5.53.24.25.39.65.18.59 0 1.18l-.08.19q-.14.27-.3.46l-.51.53-1.82 1.82a.9.9 0 0 1-1.28-1.27L14.3 6.9H9.76c-2.24 0-3.37.38-4.3 1a6 6 0 0 0-2.54 6.12.9.9 0 0 1-1.76.35 7.8 7.8 0 0 1 3.3-7.96c1.31-.88 2.83-1.3 5.3-1.3h4.54l-1.43-1.43.64-.64.64-.63z"/><path d="M12.87 2.4a.9.9 0 0 1 1.28 0l-1.28 1.28a.9.9 0 0 1 0-1.27"/></svg>