<svg viewBox="0 0 24 24" xmlns="http://www.w3.org/2000/svg" width="24" height="24"><path d="M20.5 1.01Q20.92 1.01 21.24 1.03Q21.57 1.04 21.97 1.22Q22.52 1.5 22.8 2.05L22.88 2.25Q22.98 2.53 22.99 2.78Q23.01 3.11 23.01 3.51L23.01 10.1A.9 .9 0 0 1 21.21 10L21.21 4.07L4.1 21.2L10.1 21.2A.9 .9 0 0 1 10.1 22.99L2.77 22.98A2 2 0 0 1 2.04 22.78A2 2 0 0 1 1.21 21.96L1.12 21.76A2 2 0 0 1 1.02 21.23Q1 20.89 1 20.49L1 13.9A.9 .9 0 0 1 2.8 14L2.8 19.93L19.92 2.8L13.92 2.8A.9 .9 0 0 1 13.92 1L20.51 1"/></svg>