<svg viewBox="0 0 24 24" xmlns="http://www.w3.org/2000/svg" width="24" height="24"><path d="M22.1 15.11c.5 0 .9.4.9.9v.67c0 .6-.01 1.04-.08 1.43l-.05.23a5.9 5.9 0 0 1-4.76 4.58l-.2.03c-.47.06-1.04.06-1.9.06a.9.9 0 0 1 0-1.8c1.05 0 1.46 0 1.8-.06a4.1 4.1 0 0 0 3.27-3.03l.06-.31c.03-.17.05-.35.06-.63v-1.27a.9.9 0 0 1 .9-.8M1.9 15.12C2.4 15.12 2.8 15.52 2.8 16.02C2.8 17.06 2.8 17.47 2.86 17.8A4.1 4.1 0 0 0 5.89 21.08L6.21 21.14Q6.44 21.19 6.83 21.19L8.1 21.2A.9 .9 0 0 1 8 23L7.33 23C6.73 23 6.29 22.98 5.9 22.92L5.67 22.87A5.9 5.9 0 0 1 1.09 18.11L1.06 17.91C1 17.43 1 16.87 1 16C1 15.5 1.4 15.1 1.9 15.1M8 1A.9 .9 0 0 1 8 2.8C6.95 2.8 6.54 2.8 6.21 2.86A4.1 4.1 0 0 0 2.94 5.9L2.87 6.22C2.84 6.38 2.83 6.56 2.82 6.84L2.81 8.1A.9 .9 0 0 1 1 8L1 7.33C1 6.73 1.02 6.29 1.09 5.9L1.13 5.67A5.9 5.9 0 0 1 5.91 1.1L6.11 1.07C6.57 1 7.14 1 8 1M16.68 1Q17.56 1 18.11 1.1L18.34 1.14A5.9 5.9 0 0 1 22.92 5.9L22.95 6.1C23.01 6.58 23.01 7.14 23.01 8A.9 .9 0 0 1 21.21 8C21.21 6.95 21.21 6.54 21.15 6.21A4.1 4.1 0 0 0 18.12 2.94L17.81 2.87A4 4 0 0 0 17.18 2.82L15.92 2.81A.9 .9 0 0 1 16.02 1.01Z"/></svg>