<svg viewBox="0 0 24 24" xmlns="http://www.w3.org/2000/svg" width="24" height="24"><path fill-rule="evenodd" d="M10 3.04a4.9 4.9 0 0 1 4.27.13l7.95 4.15.12.07a1.9 1.9 0 0 1 .9 1.61v8.25a.9.9 0 1 1-1.8 0v-6.16l-1.79.93v4.05c0 1-.5 1.9-1.32 2.44l-.17.1-3.78 2.1a4.9 4.9 0 0 1-4.48.14l-.28-.14-3.78-2.1a2.9 2.9 0 0 1-1.49-2.54v-4.05l-2.57-1.34a1.9 1.9 0 0 1 0-3.36l7.95-4.15zM6.15 16.07c0 .4.22.77.57.97l3.77 2.1.18.09.43.16V15.3a5 5 0 0 1-1.1-.34l-.27-.13-3.58-1.87zm8.12-1.24q-.66.35-1.37.47v4.09q.3-.1.6-.26l3.78-2.1.13-.08c.27-.2.44-.53.44-.88v-3.1zm-.84-10.07a3.1 3.1 0 0 0-2.7-.08l-.16.08-7.95 4.15-.05.04v.1l.05.04 7.95 4.15.17.08a3.1 3.1 0 0 0 2.7-.08l7.94-4.15.03-.02.02-.02v-.1l-.02-.02-.03-.02z" clip-rule="evenodd"/></svg>