<svg viewBox="0 0 24 24" xmlns="http://www.w3.org/2000/svg" width="24" height="24"><path fill-rule="evenodd" d="M7.3 2.38q.41.05.7.2l.82.4 10.53 5.37q1.32.67 2.14 1.15c.52.33 1 .71 1.26 1.27a2.9 2.9 0 0 1 0 2.46c-.26.56-.74.94-1.26 1.27q-.8.48-2.14 1.15L8.82 21.02q-.47.25-.82.4c-.21.1-.5.2-.81.2a1.9 1.9 0 0 1-1.8-1.33c-.1-.3-.09-.6-.06-.84q.04-.37.14-.9l.16-.93c.12-.7.19-1.13.3-1.51A7 7 0 0 1 9.21 12a7 7 0 0 1-3.28-4.1c-.11-.4-.18-.82-.3-1.52l-.16-.93q-.1-.53-.14-.9-.07-.37.05-.84l.06-.15a1.9 1.9 0 0 1 1.75-1.18zm-.13 1.8-.06.05v.13l.13.78.16.94c.13.74.18 1.05.26 1.31a5.1 5.1 0 0 0 3.2 3.39c.26.09.56.16 1.3.33h.02l.06.02.14.06.12.08a.91.91 0 0 1-.34 1.62c-.74.17-1.04.24-1.3.33a5.1 5.1 0 0 0-3.2 3.39c-.08.26-.13.57-.26 1.31l-.16.94-.13.91.06.05.12-.05.71-.35 10.53-5.37c.92-.47 1.55-.8 2-1.07.45-.29.56-.45.6-.51q.2-.47 0-.94c-.04-.07-.15-.22-.6-.5a28 28 0 0 0-2-1.08L8 4.58z" clip-rule="evenodd"/></svg>