<svg viewBox="0 0 24 24" xmlns="http://www.w3.org/2000/svg" width="24" height="24"><path fill-rule="evenodd" d="M12 8.6a3.4 3.4 0 1 1 0 6.8 3.4 3.4 0 0 1 0-6.8m0 1.8a1.6 1.6 0 1 0 0 3.2 1.6 1.6 0 0 0 0-3.2" clip-rule="evenodd"/><path fill-rule="evenodd" d="M15.49 1.6C15.66 1.61 15.84 1.68 16.19 1.83Q17.55 2.4 18.71 3.29C19.01 3.52 19.17 3.64 19.26 3.79C19.38 3.97 19.39 3.98 19.41 4.2C19.43 4.37 19.31 4.9 19.08 5.97L19.05 6.19A2.5 2.5 0 0 0 20.77 8.89C21.81 9.21 22.33 9.38 22.47 9.48C22.64 9.62 22.65 9.62 22.75 9.82C22.83 9.98 22.85 10.17 22.9 10.55Q23 11.26 23 12L23 12.37Q22.97 12.92 22.9 13.45L22.84 13.9Q22.81 14.06 22.75 14.17L22.69 14.29C22.63 14.39 22.59 14.42 22.46 14.52L22.39 14.56C22.19 14.66 21.68 14.83 20.77 15.12L20.56 15.2Q19.81 15.5 19.36 16.25L19.26 16.46C19.02 16.96 18.97 17.52 19.08 18.03C19.32 19.09 19.43 19.63 19.41 19.8L19.39 19.93C19.38 20.03 19.35 20.07 19.26 20.22L19.18 20.32Q19.04 20.46 18.71 20.72L18.42 20.92Q17.38 21.67 16.19 22.17L15.77 22.34L15.35 22.4Q15.26 22.4 15.17 22.37L15.05 22.32A2 2 0 0 1 14.61 21.99L13.68 21.15A2.5 2.5 0 0 0 12.24 20.51L12 20.51A2.5 2.5 0 0 0 10.32 21.15L9.39 21.99Q9.07 22.28 8.95 22.32L8.65 22.4L8.5 22.4Q8.38 22.4 8.22 22.34L7.8 22.17Q6.6 21.67 5.57 20.93L5.27 20.71Q4.95 20.47 4.81 20.32L4.73 20.22C4.63 20.07 4.61 20.04 4.6 19.93L4.58 19.8Q4.56 19.68 4.65 19.25L4.91 18.03A2.5 2.5 0 0 0 3.43 15.2L3.23 15.12C2.31 14.82 1.8 14.67 1.6 14.56L1.53 14.52C1.39 14.42 1.35 14.39 1.3 14.29L1.15 13.9L1.09 13.45Q1.02 12.92 .99 12.37L.99 12Q.99 11.44 1.04 10.9L1.09 10.54C1.14 10.17 1.16 9.98 1.24 9.82C1.34 9.62 1.34 9.62 1.53 9.48Q1.63 9.41 2.03 9.27L3.23 8.88C3.73 8.72 4.18 8.41 4.5 7.95L4.63 7.75Q5.05 6.98 4.95 6.19L4.91 5.97C4.67 4.9 4.56 4.37 4.58 4.2A.7 .7 0 0 1 4.73 3.78Q4.79 3.68 4.93 3.57L5.28 3.29Q6.28 2.51 7.46 1.98L7.8 1.83C8.15 1.68 8.33 1.61 8.5 1.6A.7 .7 0 0 1 8.94 1.68C9.1 1.75 9.5 2.11 10.31 2.85Q10.9 3.39 11.74 3.49L11.99 3.5Q12.87 3.48 13.5 3L13.67 2.85C14.47 2.11 14.87 1.75 15.03 1.68A.7 .7 0 0 1 15.48 1.6M14.88 4.18A4.3 4.3 0 0 1 12 5.3L11.56 5.28C10.62 5.18 9.76 4.78 9.1 4.18L8.4 3.54Q7.35 3.98 6.47 4.64L6.67 5.58C6.88 6.53 6.77 7.55 6.3 8.47L6.2 8.65A4.3 4.3 0 0 1 3.78 10.6L2.87 10.89A9 9 0 0 0 2.87 13.11L3.77 13.41C4.77 13.71 5.64 14.38 6.2 15.35L6.3 15.53C6.77 16.45 6.88 17.47 6.67 18.42L6.47 19.35Q7.37 20.03 8.39 20.46L9.1 19.82A4.3 4.3 0 0 1 12 18.7L12.2 18.7C13.24 18.75 14.18 19.17 14.9 19.82L15.6 20.46Q16.65 20.01 17.53 19.35L17.33 18.42A4.3 4.3 0 0 1 17.8 15.35L17.91 15.17A4.3 4.3 0 0 1 20.22 13.4L21.13 13.1Q21.2 12.56 21.2 12L21.2 11.7Q21.18 11.28 21.13 10.9L20.23 10.6C19.3 10.3 18.47 9.7 17.91 8.83L17.81 8.65A4.3 4.3 0 0 1 17.33 5.58L17.53 4.65A9 9 0 0 0 15.6 3.54Z" clip-rule="evenodd"/></svg>