<svg viewBox="0 0 24 24" xmlns="http://www.w3.org/2000/svg" width="24" height="24"><path fill-rule="evenodd" d="M12 8.6a3.4 3.4 0 1 1 0 6.8 3.4 3.4 0 0 1 0-6.8m0 1.8a1.6 1.6 0 1 0 0 3.2 1.6 1.6 0 0 0 0-3.2" clip-rule="evenodd"/><path fill-rule="evenodd" d="M15.49 1.6c.17.01.35.08.7.23q1.36.57 2.52 1.46c.3.23.46.35.55.5.12.18.13.19.15.41.02.17-.1.7-.33 1.77l-.03.22a2.5 2.5 0 0 0 1.72 2.7c1.04.32 1.56.49 1.7.59.17.14.18.14.28.34.08.16.1.35.15.73q.1.71.1 1.45v.37q-.03.55-.1 1.08l-.06.45q-.03.16-.09.27l-.06.12c-.06.1-.1.13-.23.23l-.07.04c-.2.1-.71.27-1.62.56l-.21.08q-.75.3-1.2 1.05l-.1.21c-.24.5-.29 1.06-.18 1.57.24 1.06.35 1.6.33 1.77l-.02.13c-.01.1-.04.14-.13.29l-.08.1q-.14.14-.47.4l-.29.2q-1.04.75-2.23 1.25l-.42.17-.28.06h-.14q-.09 0-.18-.03l-.12-.05a2 2 0 0 1-.44-.33l-.93-.84a2.5 2.5 0 0 0-1.44-.64H12a2.5 2.5 0 0 0-1.68.64l-.93.84q-.32.29-.44.33l-.12.05-.18.03H8.5q-.12 0-.28-.06l-.42-.17q-1.2-.5-2.23-1.24l-.3-.22q-.32-.24-.46-.39l-.08-.1c-.1-.15-.12-.18-.13-.29l-.02-.13q-.02-.12.07-.55l.26-1.22a2.5 2.5 0 0 0-1.48-2.83l-.2-.08c-.92-.3-1.43-.45-1.63-.56l-.07-.04c-.14-.1-.18-.13-.23-.23l-.06-.12-.09-.27-.06-.45q-.07-.53-.1-1.08V12q0-.56.05-1.1l.05-.36c.05-.37.07-.56.15-.72.1-.2.1-.2.29-.34q.1-.07.5-.21l1.2-.39c.5-.16.95-.47 1.27-.93l.13-.2q.42-.77.32-1.56l-.04-.22c-.24-1.07-.35-1.6-.33-1.77a.7.7 0 0 1 .15-.42q.06-.1.2-.21l.35-.28q1-.78 2.18-1.31l.34-.15c.35-.15.53-.22.7-.23a.7.7 0 0 1 .44.08c.16.07.56.43 1.37 1.17q.59.54 1.43.64l.25.01q.88-.02 1.51-.5l.17-.15c.8-.74 1.2-1.1 1.36-1.17a.7.7 0 0 1 .45-.08m-.6 2.58A4.3 4.3 0 0 1 12 5.3h-.09l-.25-.02h-.1c-.94-.1-1.8-.5-2.46-1.1l-.7-.64q-1.05.44-1.93 1.1l.2.94c.21.95.1 1.97-.37 2.89l-.1.18a4.3 4.3 0 0 1-2.42 1.95l-.91.29a9 9 0 0 0 0 2.22l.9.3c1 .3 1.87.97 2.43 1.94l.1.18c.47.92.58 1.94.37 2.89l-.2.93q.9.68 1.92 1.11l.71-.64A4.3 4.3 0 0 1 12 18.7h.2c1.04.05 1.98.47 2.7 1.12l.7.64q1.05-.45 1.93-1.11l-.2-.93a4.3 4.3 0 0 1 .47-3.07l.11-.18a4.3 4.3 0 0 1 2.31-1.77l.91-.3q.07-.54.07-1.1v-.3q-.02-.42-.07-.8l-.9-.3c-.93-.3-1.76-.9-2.32-1.77l-.1-.18a4.3 4.3 0 0 1-.48-3.07l.2-.93a9 9 0 0 0-1.93-1.11z" clip-rule="evenodd"/></svg>