<svg viewBox="0 0 24 24" xmlns="http://www.w3.org/2000/svg" width="24" height="24"><path d="M22.14.96c.5 0 .9.4.9.9v4.08a.9.9 0 0 1-1.8 0v-1.9l-7.19 7.22A.9.9 0 0 1 12.77 10l7.2-7.23h-2.01a.9.9 0 0 1 0-1.8z"/><path d="M14.01 4.16a.9.9 0 1 1-.01 1.8h-1.53c-1.15 0-5.33 0-5.91.05-.55.05-.79.12-.92.2a2.2 2.2 0 0 0-.96.95c-.07.13-.15.37-.2.92a34 34 0 0 0-.04 2.48v1.2c0 1.15 0 2.7.04 3.28.05.56.13.79.2.92q.32.64.95.96l.13.05c.14.06.38.11.8.14.55.05 4.54.05 5.81.05h1.3c1.14 0 1.9 0 2.48-.05.55-.04.78-.12.91-.2l.16-.07q.52-.33.8-.88l.06-.12c.05-.15.1-.38.14-.8.04-.58.05-2.13.05-3.28v-1.6c0-.5.4-.9.9-.9s.9.4.9.89v1.6l-.01 2.3c-.02 1.3-.1 2.08-.43 2.73l-.15.27a4 4 0 0 1-1.6 1.47l-.16.08c-.62.26-1.38.33-2.57.35l-1.48.01H12.6v.96h2.34a.9.9 0 0 1 0 1.8h-6.6a.9.9 0 0 1 0-1.8h2.46v-.96H7.55a7 7 0 0 1-2.57-.36l-.16-.07a4 4 0 0 1-1.6-1.48l-.15-.27c-.33-.64-.4-1.43-.43-2.73v-3.49c0-2.1 0-3.22.36-4.05l.08-.17a4 4 0 0 1 1.47-1.59l.27-.15c.65-.33 1.44-.41 2.74-.43l4.91-.01z"/></svg>