<svg viewBox="0 0 24 24" xmlns="http://www.w3.org/2000/svg" width="24" height="24"><path d="M11.22 6.92a.9.9 0 1 1 0 1.8H9.67c-1.15 0-1.9 0-2.48.05-.55.04-.78.12-.92.19a2.2 2.2 0 0 0-.96.96c-.06.13-.14.36-.19.92s-.05 1.33-.05 2.48v1.2c0 1.15 0 1.9.05 2.48.05.55.13.79.2.92q.32.63.95.96l.13.05c.14.05.38.1.8.14.57.05 1.32.05 2.47.05h1.2c1.15 0 1.9 0 2.48-.05.56-.05.79-.12.92-.2l.15-.08q.53-.32.81-.87l.05-.12c.06-.15.11-.38.14-.8.05-.58.05-1.33.05-2.48v-1.6c0-.5.4-.9.9-.9s.9.4.9.89V16c-.02 1.3-.1 2.08-.43 2.72l-.16.28a4 4 0 0 1-1.59 1.47l-.16.08c-.62.26-1.38.33-2.57.35H8.2a7 7 0 0 1-2.57-.35l-.16-.08A4 4 0 0 1 3.87 19l-.15-.28c-.33-.64-.41-1.43-.43-2.73v-2.68c0-2.1 0-3.22.35-4.05l.08-.17a4 4 0 0 1 1.47-1.6l.28-.15c.64-.32 1.43-.4 2.73-.43h3.02"/><path d="M20.55 2.52c.5 0 .9.4.9.9V7.5a.9.9 0 0 1-1.8 0V5.6l-8.39 8.42a.9.9 0 0 1-1.27-1.27l8.4-8.43h-2.02a.9.9 0 0 1 0-1.8z"/></svg>