<svg viewBox="0 0 24 24" xmlns="http://www.w3.org/2000/svg" width="24" height="24"><path d="M22.14.96c.5 0 .9.4.9.9v4.08a.9.9 0 0 1-1.8 0v-1.9l-7.19 7.22A.9.9 0 0 1 12.77 10l7.2-7.23h-2.01a.9.9 0 0 1 0-1.8z"/><path d="M14.01 4.16A.9 .9 0 1 1 14 5.96L12.47 5.96C11.32 5.96 7.14 5.96 6.56 6.01C6.01 6.06 5.77 6.13 5.64 6.21A2.2 2.2 0 0 0 4.68 7.16C4.61 7.29 4.53 7.53 4.48 8.08A34 34 0 0 0 4.44 10.56L4.44 11.76C4.44 12.91 4.44 14.46 4.48 15.04C4.53 15.6 4.61 15.83 4.68 15.96Q5 16.6 5.63 16.92L5.76 16.97C5.9 17.03 6.14 17.08 6.56 17.11C7.11 17.16 11.1 17.16 12.37 17.16L13.67 17.16C14.81 17.16 15.57 17.16 16.15 17.11C16.7 17.07 16.93 16.99 17.06 16.91L17.22 16.84Q17.74 16.51 18.02 15.96L18.08 15.84C18.13 15.69 18.18 15.46 18.22 15.04C18.26 14.46 18.27 12.91 18.27 11.76L18.27 10.16C18.27 9.66 18.67 9.26 19.17 9.26C19.67 9.26 20.07 9.66 20.07 10.15L20.06 14.05C20.04 15.35 19.96 16.13 19.63 16.78L19.48 17.05A4 4 0 0 1 17.88 18.52L17.72 18.6C17.1 18.86 16.34 18.93 15.15 18.95L12.6 18.96L12.6 19.92L14.94 19.92A.9 .9 0 0 1 14.94 21.72L8.34 21.72A.9 .9 0 0 1 8.34 19.92L10.8 19.92L10.8 18.96L7.55 18.96A7 7 0 0 1 4.98 18.6L4.82 18.53A4 4 0 0 1 3.22 17.05L3.07 16.78C2.74 16.14 2.67 15.35 2.64 14.05L2.64 10.56C2.64 8.46 2.64 7.34 3 6.51L3.08 6.34A4 4 0 0 1 4.55 4.75L4.82 4.6C5.47 4.27 6.26 4.19 7.56 4.17L12.47 4.16Z"/></svg>