<svg viewBox="0 0 24 24" xmlns="http://www.w3.org/2000/svg" width="24" height="24"><path fill-rule="evenodd" d="M19.6 1a3.4 3.4 0 1 1-2.55 5.65l-9.22 4.6a3.4 3.4 0 0 1 0 1.51L17 17.4a3.4 3.4 0 1 1-.76 1.63l-9.28-4.67A3.39 3.39 0 0 1 1.1 12a3.4 3.4 0 0 1 5.87-2.34l9.28-4.63q-.05-.3-.05-.63A3.4 3.4 0 0 1 19.6 1m0 16.98a1.6 1.6 0 0 0-1.46.98l-.02.03a1.6 1.6 0 0 0 1.49 2.2 1.6 1.6 0 1 0 0-3.2M4.5 10.4a1.6 1.6 0 1 0 0 3.2 1.6 1.6 0 0 0 0-3.2m15.1-7.6a1.6 1.6 0 1 0 0 3.2 1.6 1.6 0 0 0 0-3.2" clip-rule="evenodd"/></svg>