<svg viewBox="0 0 24 24" xmlns="http://www.w3.org/2000/svg" width="24" height="24"><path d="M14.07 8.58a.9.9 0 0 1 1.53.96l-3.11 4.93-.3.44c-.1.13-.26.32-.52.44-.32.15-.7.17-1.04.06l-.1-.04q-.32-.16-.47-.34l-.34-.4-1.26-1.56-.05-.08a.9.9 0 0 1 1.45-1.05l1.18 1.46z"/><path fill-rule="evenodd" d="M11.7 2.39a1 1 0 0 1 .7.04 25 25 0 0 0 6.7 2.4l1.2.23.14.05a.9.9 0 0 1 .58.79c.33 5.64-1.47 9.57-3.56 12.09a13 13 0 0 1-3.1 2.74q-.71.45-1.3.67c-.34.15-.73.26-1.06.26s-.72-.11-1.07-.26a9 9 0 0 1-1.29-.67A13 13 0 0 1 6.54 18c-2.09-2.52-3.89-6.45-3.56-12.1L3 5.76a.9.9 0 0 1 .71-.69c3.43-.66 4.8-1.13 7.9-2.63zm.3 1.84A26 26 0 0 1 4.75 6.7c-.12 4.8 1.45 8.06 3.18 10.15a11 11 0 0 0 2.67 2.37q.6.36 1 .53c.3.11.42.12.4.12s.1 0 .4-.12q.4-.17 1-.53c.8-.5 1.76-1.28 2.67-2.37 1.73-2.09 3.3-5.35 3.18-10.15A26 26 0 0 1 12 4.23" clip-rule="evenodd"/></svg>