<svg viewBox="0 0 24 24" xmlns="http://www.w3.org/2000/svg" width="24" height="24"><path fill-rule="evenodd" d="M14.16 14.18a.9.9 0 0 1 1.69.61l-.85-.3.85.3v.03l-.02.03a2 2 0 0 1-.19.37c-.12.21-.33.5-.62.78A4.3 4.3 0 0 1 12 17.09c-1.44 0-2.4-.52-3.02-1.1a4 4 0 0 1-.8-1.14l-.02-.03v-.02l.84-.3-.85.3a.9.9 0 0 1 1.7-.62v.01l.06.11q.08.16.3.38c.3.27.83.6 1.8.6.95 0 1.49-.33 1.77-.6a2 2 0 0 0 .38-.5" clip-rule="evenodd"/><path d="M9.17 8.2c.65 0 1.18.63 1.18 1.4S9.82 11 9.17 11s-1.18-.63-1.18-1.4.53-1.4 1.18-1.4m5.66 0c.66 0 1.18.63 1.18 1.4S15.5 11 14.83 11s-1.18-.63-1.18-1.4.53-1.4 1.18-1.4"/><path fill-rule="evenodd" d="M12 1a11 11 0 1 1 0 22 11 11 0 0 1 0-22m0 1.8a9.2 9.2 0 1 0 0 18.4 9.2 9.2 0 0 0 0-18.4" clip-rule="evenodd"/></svg>