<svg viewBox="0 0 24 24" xmlns="http://www.w3.org/2000/svg" width="24" height="24"><path d="M9.1 8a1.7 1.7 0 0 1 3.06 0l.05.14L13.64 12l3.85 1.43a1.7 1.7 0 0 1 .13 3.12l-.13.05-3.85 1.43-1.43 3.87a1.68 1.68 0 0 1-3.16 0l-1.42-3.87-3.85-1.43a1.7 1.7 0 0 1 0-3.17L7.63 12l1.42-3.86zm.2 4.68a1.7 1.7 0 0 1-1 1l-3.6 1.34 3.6 1.34c.4.15.74.45.93.83l.07.17 1.33 3.62 1.34-3.62.07-.17q.31-.59.92-.83l3.61-1.34-3.6-1.34a1.7 1.7 0 0 1-1-1l-1.34-3.62zM17 1.2a1.7 1.7 0 0 1 1.58 0l.15.09c.33.23.5.58.62.82q.22.49.48 1.22l.17.46.05.12.01.04.04.01.12.05.45.17q.74.26 1.22.48c.27.13.69.35.91.77l.09.2c.15.38.15.82 0 1.2l-.09.2-.09.15c-.23.32-.58.5-.82.62q-.47.22-1.22.48l-.45.17-.12.05-.04.01-.01.04-.05.12-.17.46q-.26.73-.48 1.22c-.11.24-.3.59-.62.82l-.15.1-.19.08a1.7 1.7 0 0 1-1.4-.09 2 2 0 0 1-.77-.91q-.21-.49-.48-1.22l-.16-.46-.05-.12-.01-.04-.04-.01-.13-.05-.45-.17q-.73-.26-1.21-.48a2 2 0 0 1-.92-.77c-.26-.5-.26-1.1 0-1.6.23-.42.64-.64.92-.77q.47-.22 1.21-.48l.45-.17.13-.05.03-.01.02-.04.05-.12.16-.46q.27-.73.48-1.22c.13-.27.35-.69.77-.91m-12.34 0a1.5 1.5 0 0 1 1.4 0l.14.1c.3.2.46.51.54.7q.18.37.37.93l.19.5v.03l.03.01.5.2q.57.19.94.36c.2.1.58.29.79.68l.07.17q.2.53 0 1.07l-.07.17-.09.13c-.21.3-.52.46-.7.54q-.38.18-.93.37l-.5.19H7.3l-.01.04-.2.5q-.18.56-.36.94c-.08.18-.24.49-.54.7l-.13.09-.17.07c-.4.16-.85.13-1.24-.07-.38-.2-.57-.59-.67-.8q-.18-.37-.37-.93l-.19-.5v-.03l-.03-.01-.5-.19q-.57-.2-.94-.37c-.2-.1-.58-.29-.79-.67a1.5 1.5 0 0 1 0-1.41c.2-.4.58-.58.8-.68q.37-.17.92-.37l.5-.19h.03l.01-.03.2-.51q.18-.56.36-.93c.1-.21.29-.59.67-.8M17.8 3.04q-.14.31-.36.93l-.17.45q-.06.19-.18.44l-.1.16-.09.12-.2.2-.12.1-.15.09q-.25.13-.44.19l-.45.16-.93.36.93.36.45.17c.15.05.39.13.6.28l.1.09q.18.14.3.32l.1.16q.13.25.18.44l.17.45.36.93.35-.93.17-.45c.06-.16.14-.4.28-.6q.17-.24.41-.41c.2-.15.44-.23.6-.28l.45-.17.93-.36q-.32-.14-.93-.36l-.45-.16c-.16-.06-.4-.14-.6-.29a2 2 0 0 1-.4-.41c-.15-.2-.23-.44-.29-.6l-.17-.45zm-12.5.52-.19.5q-.04.14-.15.36l-.09.14-.07.1-.19.19-.1.08-.14.08q-.22.12-.36.16l-.5.18-.15.06.15.06.5.19c.11.04.32.1.5.23l.1.08q.15.13.26.29l.09.14.15.36.19.5.05.16.06-.15.19-.51c.04-.1.1-.32.24-.5q.15-.21.36-.37c.18-.12.39-.2.5-.23l.5-.2.15-.05-.15-.06-.5-.18c-.11-.04-.32-.11-.5-.24a2 2 0 0 1-.36-.37c-.13-.18-.2-.39-.24-.5l-.19-.5-.06-.16z"/></svg>