<svg viewBox="0 0 24 24" xmlns="http://www.w3.org/2000/svg" width="24" height="24"><path fill-rule="evenodd" d="M10.8 1.26a2.9 2.9 0 0 1 2.56.08l.11.06c.56.35.92.97 1.22 1.6.34.72.7 1.7 1.16 2.94l.23.62.21.56.11.2.06.08q.09.12.21.2l.08.05c.1.05.28.12.69.27l.62.23 1.66.62q.75.3 1.28.54c.67.32 1.33.7 1.66 1.33l.08.16a3 3 0 0 1 0 2.4l-.08.16c-.33.62-.99 1.01-1.66 1.33q-.54.26-1.28.54l-1.66.62-.62.23-.69.27-.08.05-.21.2-.06.07q-.04.06-.1.21l-.22.56-.23.62c-.46 1.24-.82 2.22-1.16 2.94-.3.63-.66 1.25-1.22 1.6l-.11.06a2.9 2.9 0 0 1-2.56.08l-.16-.08c-.62-.33-1.01-.99-1.33-1.66q-.26-.54-.54-1.28l-.62-1.66-.23-.62-.27-.69-.05-.08-.2-.2-.07-.07q-.06-.04-.21-.1l-.56-.22-.62-.23c-1.24-.46-2.22-.82-2.94-1.16a3.6 3.6 0 0 1-1.6-1.22l-.06-.11a2.9 2.9 0 0 1 0-2.72l.06-.11c.35-.56.97-.92 1.6-1.22q1.08-.49 2.94-1.16l.62-.23.56-.21.2-.11.08-.06q.12-.09.2-.21l.05-.08c.05-.1.12-.28.27-.7l.23-.6.62-1.67q.3-.75.54-1.28c.32-.67.7-1.33 1.33-1.66zm1.72 1.67a1.1 1.1 0 0 0-.91-.06l-.13.06c-.05.03-.23.18-.54.84-.3.63-.63 1.53-1.1 2.8l-.23.62c-.15.4-.27.75-.46 1.05l-.08.13q-.21.3-.5.55l-.2.15q-.37.26-.85.42l-.95.35c-1.27.47-2.17.8-2.8 1.1-.5.23-.7.4-.79.48l-.05.06c-.17.33-.17.71 0 1.04l.05.06c.08.09.3.25.8.48.62.3 1.52.63 2.79 1.1l.62.23.33.12q.48.16.85.42l.2.15q.29.24.5.55l.08.13c.19.3.31.65.46 1.05l.23.62.61 1.64q.27.69.49 1.16c.31.66.5.81.54.84l.13.06q.46.16.9-.06l.07-.05c.09-.08.25-.3.48-.8.3-.62.63-1.52 1.1-2.79l.23-.62.12-.33q.16-.48.42-.85l.15-.2q.24-.29.55-.5l.13-.08c.3-.19.65-.31 1.05-.46l.62-.23 1.64-.61q.68-.27 1.16-.49c.66-.31.81-.5.84-.54l.06-.13q.15-.39 0-.78l-.06-.13c-.03-.05-.18-.23-.84-.54q-.47-.21-1.16-.49l-1.64-.61-.62-.23c-.4-.15-.75-.27-1.05-.46l-.13-.08a3 3 0 0 1-.55-.5l-.15-.2q-.26-.37-.42-.85l-.12-.33-.23-.62a40 40 0 0 0-1.1-2.8c-.23-.5-.4-.7-.48-.79z" clip-rule="evenodd"/></svg>