<svg viewBox="0 0 24 24" xmlns="http://www.w3.org/2000/svg" width="24" height="24"><path d="M14.45 9.18q.12 0 .21.07a.37.37 0 0 1 .1.52l-1.77 2.8q-.1.15-.26.26a1.12 1.12 0 0 1-1.3-1.82l2.8-1.76a.4.4 0 0 1 .22-.07M5.6 11.1a.9.9 0 0 1 0 1.8H4.51a.9.9 0 0 1 0-1.8zm13.99 0a.9.9 0 0 1 0 1.8H18.5a.9.9 0 0 1 0-1.8h1.1M6.07 6.07A.9 .9 0 0 1 7.35 6.07L8.11 6.84A.9 .9 0 0 1 6.85 8.11L6.08 7.34A.9 .9 0 0 1 6.08 6.07M16.68 6.07A.9 .9 0 0 1 17.95 7.34L17.18 8.11A.9 .9 0 0 1 15.91 6.84L15.97 6.77ZM12 3.6c.5 0 .9.4.9.9v1.1a.9.9 0 0 1-1.8 0V4.5c0-.5.4-.9.9-.9"/><path fill-rule="evenodd" d="M12 1.1A10.9 10.9 0 0 1 22.9 12L22.9 12.5A11 11 0 0 1 20.16 19.23L20.01 19.39A2.03 2.03 0 0 1 17.03 19.39A6.84 6.84 0 0 0 6.97 19.39A2 2 0 0 1 4.02 19.42L3.84 19.23A10.9 10.9 0 0 1 12 1.1M12 2.9A9.1 9.1 0 0 0 5.18 18.03L5.31 18.18A.23 .23 0 0 0 5.65 18.18L5.95 17.85A8.63 8.63 0 0 1 18.05 17.85L18.39 18.21A.2 .2 0 0 0 18.52 18.25A.2 .2 0 0 0 18.69 18.18L18.82 18.03A9 9 0 0 0 21.1 12L21.1 11.53A9.1 9.1 0 0 0 12 2.9" clip-rule="evenodd"/></svg>