<svg viewBox="0 0 24 24" xmlns="http://www.w3.org/2000/svg" width="24" height="24"><path d="M14.45 9.18q.12 0 .21.07a.37.37 0 0 1 .1.52l-1.77 2.8q-.1.15-.26.26a1.12 1.12 0 0 1-1.3-1.82l2.8-1.76a.4.4 0 0 1 .22-.07M5.6 11.1a.9.9 0 0 1 0 1.8H4.51a.9.9 0 0 1 0-1.8zm13.99 0a.9.9 0 0 1 0 1.8H18.5a.9.9 0 0 1 0-1.8h1.1M6.07 6.07a.9.9 0 0 1 1.28 0l.7.7.06.07a.9.9 0 0 1-1.26 1.27l-.07-.06-.7-.71a.9.9 0 0 1 0-1.27m10.6 0a.9.9 0 0 1 1.27 1.27l-.7.7-.07.07a.9.9 0 0 1-1.27-1.27l.06-.07zM12 3.6c.5 0 .9.4.9.9v1.1a.9.9 0 0 1-1.8 0V4.5c0-.5.4-.9.9-.9"/><path fill-rule="evenodd" d="M12 1.1A10.9 10.9 0 0 1 22.9 12v.5a11 11 0 0 1-2.74 6.73l-.15.16a2.03 2.03 0 0 1-2.98 0 6.84 6.84 0 0 0-10.06 0 2 2 0 0 1-2.95.03L4 19.41v-.01l-.15-.16-.01-.01A10.9 10.9 0 0 1 12 1.1m0 1.8a9.1 9.1 0 0 0-6.82 15.13l.1.12.03.03a.23.23 0 0 0 .34 0l.3-.33a8.63 8.63 0 0 1 12.1 0l.3.32.04.04a.2.2 0 0 0 .13.04.2.2 0 0 0 .17-.07l.13-.15A9 9 0 0 0 21.1 12v-.47A9.1 9.1 0 0 0 12 2.9" clip-rule="evenodd"/></svg>