<svg viewBox="0 0 24 24" xmlns="http://www.w3.org/2000/svg" width="24" height="24"><path d="M2.76 10.76C2.76 7.96 2.76 6.56 3.305 5.49A5 5 0 0 1 5.49 3.305C6.56 2.76 7.96 2.76 10.76 2.76L13.25 2.76C16.05 2.76 17.45 2.76 18.52 3.305A5 5 0 0 1 20.705 5.49C21.25 6.56 21.25 7.96 21.25 10.76L21.25 13.24C21.25 16.04 21.25 17.44 20.705 18.51A5 5 0 0 1 18.52 20.695C17.45 21.24 16.05 21.24 13.25 21.24L10.76 21.24C7.96 21.24 6.56 21.24 5.49 20.695A5 5 0 0 1 3.305 18.51C2.76 17.44 2.76 16.04 2.76 13.24ZM4.56 14.32C4.56 16.112 4.56 17.008 4.909 17.693A3.2 3.2 0 0 0 6.307 19.091C6.992 19.44 7.888 19.44 9.68 19.44L14.33 19.44C16.122 19.44 17.018 19.44 17.703 19.091A3.2 3.2 0 0 0 19.101 17.693C19.45 17.008 19.45 16.112 19.45 14.32L19.45 9.68C19.45 7.888 19.45 6.992 19.101 6.307A3.2 3.2 0 0 0 17.703 4.909C17.018 4.56 16.122 4.56 14.33 4.56L9.68 4.56C7.888 4.56 6.992 4.56 6.307 4.909A3.2 3.2 0 0 0 4.909 6.307C4.56 6.992 4.56 7.888 4.56 9.68Z"/></svg>