<svg viewBox="0 0 24 24" xmlns="http://www.w3.org/2000/svg" width="24" height="24"><path fill-rule="evenodd" d="M10.65 1.38a2.6 2.6 0 0 1 2.7 0c.55.33.87.96 1.11 1.56q.39.98.93 2.67c.22.7.28.83.35.91q.13.18.34.25c.1.04.24.05.98.05q1.77-.01 2.82.06c.65.05 1.35.16 1.83.57a2.6 2.6 0 0 1 .84 2.57c-.15.63-.65 1.12-1.15 1.54q-.81.68-2.25 1.7c-.6.44-.7.53-.76.62a1 1 0 0 0-.13.41c0 .1.02.24.25.94q.57 1.68.82 2.7c.16.63.27 1.33.02 1.92a2.6 2.6 0 0 1-2.18 1.59c-.64.05-1.27-.27-1.82-.61q-.89-.56-2.32-1.62a4 4 0 0 0-.81-.53 1 1 0 0 0-.44 0c-.1.03-.22.1-.81.53q-1.43 1.06-2.32 1.62c-.55.34-1.18.66-1.82.6a2.6 2.6 0 0 1-2.18-1.58c-.25-.59-.14-1.29.02-1.92q.25-1.02.82-2.7c.23-.7.25-.84.25-.94a1 1 0 0 0-.13-.41 4 4 0 0 0-.76-.61q-1.45-1.04-2.25-1.7c-.5-.43-1-.92-1.15-1.55a2.6 2.6 0 0 1 .84-2.57c.48-.41 1.18-.52 1.83-.57q1.05-.07 2.82-.06c.74 0 .88 0 .98-.05a1 1 0 0 0 .34-.25c.07-.08.12-.2.35-.91q.54-1.69.93-2.67c.24-.6.56-1.23 1.1-1.56m1.77 1.54a.8.8 0 0 0-.84 0s-.14.13-.38.71c-.24.57-.5 1.38-.87 2.53-.19.57-.34 1.08-.65 1.48q-.46.57-1.14.82c-.47.18-1 .16-1.6.16-1.21 0-2.07 0-2.68.05-.63.05-.79.14-.8.15a.8.8 0 0 0-.25.79s.07.17.56.59c.46.4 1.15.9 2.13 1.61.49.35.92.65 1.2 1.07q.4.61.44 1.34c.02.5-.16 1-.34 1.57a40 40 0 0 0-.78 2.56c-.16.65-.11.81-.11.8a.8.8 0 0 0 .67.5c.01 0 .2-.03.73-.36a40 40 0 0 0 2.2-1.53c.48-.35.9-.68 1.39-.81a2.6 2.6 0 0 1 1.4 0c.49.13.91.46 1.4.8a40 40 0 0 0 2.19 1.54c.54.34.72.35.73.36a.8.8 0 0 0 .67-.5s.05-.16-.1-.8c-.15-.6-.41-1.4-.79-2.56-.18-.57-.36-1.07-.34-1.57q.04-.73.43-1.34c.28-.42.72-.72 1.2-1.07a40 40 0 0 0 2.14-1.61c.5-.43.57-.6.57-.6a.8.8 0 0 0-.26-.78s-.13-.1-.8-.15c-.61-.05-1.47-.05-2.68-.05-.6 0-1.13.02-1.6-.16a2.6 2.6 0 0 1-1.14-.82c-.31-.4-.46-.9-.65-1.48a40 40 0 0 0-.87-2.53c-.24-.58-.37-.7-.38-.71" clip-rule="evenodd"/></svg>