<svg viewBox="0 0 24 24" xmlns="http://www.w3.org/2000/svg" width="24" height="24"><path fill-rule="evenodd" d="M14.94 6.89c1.22 0 2.2.98 2.2 2.2V20.8a2.2 2.2 0 0 1-4.4 0V9.1c0-1.22.99-2.2 2.2-2.2m0 1.8a.4.4 0 0 0-.4.4v11.7a.4.4 0 0 0 .8 0V9.1a.4.4 0 0 0-.4-.4M3.21 11.88c1.21 0 2.2.98 2.2 2.2v6.72a2.2 2.2 0 0 1-4.4 0v-6.72c0-1.22.99-2.2 2.2-2.2m0 1.8a.4.4 0 0 0-.4.4v6.72a.4.4 0 0 0 .8 0v-6.72a.4.4 0 0 0-.4-.4M9.08 1c1.21 0 2.2.98 2.2 2.2v17.6a2.2 2.2 0 0 1-4.4 0V3.2c0-1.22.98-2.2 2.2-2.2m0 1.8a.4.4 0 0 0-.4.4v17.6a.4.4 0 1 0 .8 0V3.2a.4.4 0 0 0-.4-.4M20.8 4.23c1.22 0 2.2.98 2.2 2.2V20.8a2.2 2.2 0 0 1-4.4 0V6.43c0-1.22 1-2.2 2.2-2.2m0 1.8a.4.4 0 0 0-.4.4V20.8a.4.4 0 1 0 .8 0V6.43a.4.4 0 0 0-.4-.4" clip-rule="evenodd"/></svg>