<svg viewBox="0 0 24 24" xmlns="http://www.w3.org/2000/svg" width="24" height="24"><path fill-rule="evenodd" d="M10.04 17c.4.03.87.18 1.22.6.31.38.44.87.5 1.38v.33c.04 1.62-.87 3.3-2.54 3.63-1.73.34-3.5-1-3.85-2.82-.09-.45-.1-.9.07-1.32.16-.44.46-.73.8-.93.3-.18.65-.28.95-.35s.64-.13.93-.18l.88-.2c.29-.08.67-.15 1.04-.13m-.15 1.8q-.14 0-.48.08c-.24.06-.62.16-.95.22-.35.07-.61.11-.86.17a2 2 0 0 0-.48.17v.07q-.01.08.02.27c.2.99 1.12 1.52 1.74 1.4l.1-.03c.5-.17 1-.83 1-1.79l-.02-.2zm4.24-5.92c.37-.01.75.06 1.04.13.34.08.58.15.88.2l.93.19q.47.1.95.35c.34.2.64.5.8.93q.22.64.07 1.32c-.34 1.77-2.01 3.08-3.69 2.85l-.16-.02c-1.78-.35-2.7-2.25-2.53-3.96l.02-.2q.08-.68.47-1.19a1.7 1.7 0 0 1 1.22-.6m.11 1.94-.03.21c-.1 1.15.53 1.92 1.08 2.03l.12.01c.62.04 1.44-.48 1.62-1.41a1 1 0 0 0 .02-.33l-.03-.03q-.09-.07-.45-.15c-.25-.06-.5-.1-.86-.17-.33-.06-.7-.16-.94-.21q-.36-.09-.5-.08zm-7.8-9.71a2.6 2.6 0 0 1 1.5.58c.47.37.87.87 1.2 1.41A11 11 0 0 1 10.49 11l.06.5a5 5 0 0 1-.42 2.98 3.3 3.3 0 0 1-2.46 1.69l-.22.04c-1.33.2-2.43-.16-3.21-1.07a6 6 0 0 1-1.18-2.86l-.08-.48a8 8 0 0 1 .44-4.55c.55-1.19 1.52-2.02 2.77-2.12zm-.28 1.82c-.4.1-.8.4-1.1 1.06a6.3 6.3 0 0 0-.3 3.52l.07.44q.29 1.44.78 2c.3.36.74.58 1.58.46l.27-.05c.6-.14.9-.4 1.08-.74.2-.4.31-1 .22-1.95l-.06-.42a9 9 0 0 0-1.1-3.21 3 3 0 0 0-.77-.93c-.23-.18-.4-.2-.5-.2zM17.8 1l.23.04c1.15.17 2.03.97 2.55 2.08.54 1.17.71 2.74.44 4.55-.2 1.3-.54 2.5-1.26 3.34a3.3 3.3 0 0 1-2.97 1.1l-.24-.03c-1.19-.17-2.14-.71-2.68-1.72a5.6 5.6 0 0 1-.35-3.49l.09-.5c.23-1.2.67-2.4 1.25-3.37.33-.54.73-1.04 1.2-1.4A2.5 2.5 0 0 1 17.8 1m-.22 1.8a1 1 0 0 0-.42.21q-.36.29-.76.93a9 9 0 0 0-1.03 2.77l-.07.43c-.18 1.19-.08 1.93.16 2.37.2.38.58.68 1.35.8l.3.02c.65.04 1.01-.17 1.28-.48a5 5 0 0 0 .85-2.44l.04-.3a6 6 0 0 0-.33-3.23c-.35-.75-.83-1.04-1.28-1.08z" clip-rule="evenodd"/></svg>