<svg viewBox="0 0 24 24" xmlns="http://www.w3.org/2000/svg" width="24" height="24"><path d="M12 21.2a.9.9 0 1 1 0 1.8.9.9 0 0 1 0-1.8m-7.78-2.7a.9.9 0 1 1 1.27 1.28.9.9 0 0 1-1.27-1.28m14.28 0a.9.9 0 1 1 1.28 1.28.9.9 0 0 1-1.28-1.27"/><path fill-rule="evenodd" d="M12.26 7A5 5 0 0 1 17 12v.26A5 5 0 0 1 12 17h-.26a5 5 0 0 1-4.73-4.74L7 12a5 5 0 0 1 5-5zM12 8.8a3.2 3.2 0 1 0 0 6.4 3.2 3.2 0 0 0 0-6.4" clip-rule="evenodd"/><path d="M1.9 11.1a.9.9 0 1 1 0 1.8.9.9 0 0 1 0-1.8m20.2 0a.9.9 0 1 1 0 1.8.9.9 0 0 1 0-1.8M4.22 4.22A.9.9 0 1 1 5.5 5.5a.9.9 0 0 1-1.27-1.27m14.27-.01a.9.9 0 1 1 1.28 1.27.9.9 0 0 1-1.27-1.27M12 1a.9.9 0 1 1 0 1.8.9.9 0 0 1 0-1.8"/></svg>