<svg viewBox="0 0 24 24" xmlns="http://www.w3.org/2000/svg" width="24" height="24"><path d="M7 11.971a5.003 5.003 0 1 0 10.005 0a5.003 5.003 0 1 0 -10.005 0ZM8.802 11.971a3.2 3.2 0 1 1 6.4 0a3.2 3.2 0 1 1 -6.4 0ZM18.237 19.141a.904 .904 0 1 0 1.809 0a.904 .904 0 1 0 -1.809 0ZM3.953 19.11a.902 .902 0 1 0 1.803 0a.902 .902 0 1 0 -1.803 0ZM11.1 1.9a.9 .9 0 1 0 1.8 0a.9 .9 0 1 0 -1.8 0ZM21.2 12a.9 .9 0 1 0 1.8 0a.9 .9 0 1 0 -1.8 0ZM1 12a.9 .9 0 1 0 1.8 0a.9 .9 0 1 0 -1.8 0ZM11.1 22.1a.9 .9 0 1 0 1.8 0a.9 .9 0 1 0 -1.8 0ZM4.032 4.839a.854 .854 0 1 0 1.707 0a.854 .854 0 1 0 -1.707 0ZM18.283 4.833a.881 .881 0 1 0 1.762 0a.881 .881 0 1 0 -1.762 0Z"/></svg>