<svg viewBox="0 0 24 24" xmlns="http://www.w3.org/2000/svg" width="24" height="24"><path d="M12 19.4c.5 0 .9.4.9.9v1.8a.9.9 0 0 1-1.8 0v-1.8c0-.5.4-.9.9-.9m-6.5-2.17a.9.9 0 0 1 1.27 1.28l-1.28 1.27a.9.9 0 0 1-1.27-1.27zm11.73 0a.9.9 0 0 1 1.27 0l1.28 1.28a.9.9 0 1 1-1.28 1.27l-1.27-1.27a.9.9 0 0 1 0-1.28"/><path fill-rule="evenodd" d="M12.26 7A5 5 0 0 1 17 12v.26A5 5 0 0 1 12 17h-.26a5 5 0 0 1-4.73-4.74L7 12a5 5 0 0 1 5-5zM12 8.8a3.2 3.2 0 1 0 0 6.4 3.2 3.2 0 0 0 0-6.4" clip-rule="evenodd"/><path d="M3.7 11.1a.9.9 0 0 1 0 1.8H1.9a.9.9 0 0 1 0-1.8zm18.4 0a.9.9 0 0 1 0 1.8h-1.8a.9.9 0 0 1 0-1.8zM4.22 4.22a.9.9 0 0 1 1.27 0L6.77 5.5a.9.9 0 1 1-1.28 1.27L4.22 5.5a.9.9 0 0 1 0-1.28m14.28 0a.9.9 0 0 1 1.28 1.28L18.5 6.77a.9.9 0 0 1-1.27-1.27zM12 1c.5 0 .9.4.9.9v1.8a.9.9 0 0 1-1.8 0V1.9c0-.5.4-.9.9-.9"/></svg>