<svg viewBox="0 0 24 24" xmlns="http://www.w3.org/2000/svg" width="24" height="24"><path d="M16.7 11.36a.9.9 0 0 1 1.2-.06l.07.06L21 14.41q.3.3.5.53.24.25.4.65.18.6 0 1.18l-.08.2q-.15.25-.31.45l-.5.53L17.96 21a.9.9 0 0 1-1.28-1.28l2.6-2.6H2.76a.9.9 0 0 1 0-1.8h16.62l-2.69-2.68-.06-.07a.9.9 0 0 1 .06-1.2M6.03 3a.9.9 0 0 1 1.28 1.28l-2.6 2.6h16.53a.9.9 0 0 1 0 1.8H4.61l2.69 2.68.06.07A.9.9 0 0 1 6.1 12.7l-.07-.06-3.05-3.05-.5-.53c-.14-.17-.3-.38-.38-.65a2 2 0 0 1 0-1.18l.07-.2q.14-.26.3-.45l.51-.53z"/></svg>