<svg viewBox="0 0 24 24" xmlns="http://www.w3.org/2000/svg" width="24" height="24"><path d="M15.6 2.1a1.8 1.8 0 0 1 1.17 0l.19.07q.27.15.46.31l.53.5L21 6.04a.9.9 0 0 1-1.28 1.28l-2.6-2.6v16.53a.9.9 0 0 1-1.8 0V4.61L12.64 7.3l-.07.06A.9.9 0 0 1 11.3 6.1l.06-.07L14.41 3q.29-.3.53-.51c.17-.14.38-.3.65-.38m-7.82-.15a.9.9 0 0 1 .9.8v16.62l2.7-2.69.06-.06a.9.9 0 0 1 1.27 1.27l-.06.07-3.05 3.05-.53.5c-.17.14-.38.3-.65.38q-.6.2-1.18 0l-.2-.07q-.25-.14-.45-.3l-.53-.51L3 17.97a.9.9 0 0 1 1.27-1.28l2.6 2.6V2.76a.9.9 0 0 1 .9-.8"/></svg>