<svg viewBox="0 0 24 24" xmlns="http://www.w3.org/2000/svg" width="24" height="24"><path d="M4.28 7.18q.58-.2 1.17 0l.2.07q.27.14.45.3l.53.51L8.45 9.9a.9.9 0 0 1-1.27 1.27L5.77 9.74v1.3c0 2.25.37 3.38 1 4.31a6 6 0 0 0 6.11 2.54.9.9 0 0 1 .35 1.76 7.8 7.8 0 0 1-7.96-3.3c-.88-1.32-1.3-2.83-1.3-5.3V9.74l-1.42 1.42-.64-.64-.64-.63L3.1 8.06l.52-.5q.25-.24.66-.38m6.51-2.78a7.8 7.8 0 0 1 7.96 3.3c.88 1.31 1.3 2.83 1.3 5.3v1.3l1.43-1.41.63.63.64.64-1.82 1.82q-.3.3-.53.5-.25.24-.65.39-.6.18-1.18 0l-.2-.08a2 2 0 0 1-.45-.3l-.53-.5-1.82-1.83a.9.9 0 0 1 1.27-1.27l1.42 1.41V13c0-2.24-.38-3.37-1-4.3a6 6 0 0 0-6.12-2.54.9.9 0 0 1-.35-1.77"/><path d="M21.48 12.89a.9.9 0 0 1 1.27 1.27zM2.55 11.16a.9.9 0 0 1-1.28-1.27z"/></svg>