<svg viewBox="0 0 24 24" xmlns="http://www.w3.org/2000/svg" width="24" height="24"><path fill-rule="evenodd" clip-rule="evenodd" d="M5.672 3.7L18.328 3.7C19.963 3.7 20.781 3.7 21.406 4.018A2.92 2.92 0 0 1 22.682 5.294C23 5.919 23 6.737 23 8.372L23 15.628C23 17.263 23 18.081 22.682 18.706A2.92 2.92 0 0 1 21.406 19.982C20.781 20.3 19.963 20.3 18.328 20.3L5.672 20.3C4.037 20.3 3.219 20.3 2.594 19.982A2.92 2.92 0 0 1 1.318 18.706C1 18.081 1 17.263 1 15.628L1 8.372C1 6.737 1 5.919 1.318 5.294A2.92 2.92 0 0 1 2.594 4.018C3.219 3.7 4.037 3.7 5.672 3.7ZM4.592 5.5L19.408 5.5C20.035 5.5 20.349 5.5 20.588 5.622A1.12 1.12 0 0 1 21.078 6.112C21.2 6.351 21.2 6.665 21.2 7.292L21.2 16.708C21.2 17.335 21.2 17.649 21.078 17.888A1.12 1.12 0 0 1 20.588 18.378C20.349 18.5 20.035 18.5 19.408 18.5L4.592 18.5C3.965 18.5 3.651 18.5 3.412 18.378A1.12 1.12 0 0 1 2.922 17.888C2.8 17.649 2.8 17.335 2.8 16.708L2.8 7.292C2.8 6.665 2.8 6.351 2.922 6.112A1.12 1.12 0 0 1 3.412 5.622C3.651 5.5 3.965 5.5 4.592 5.5Z"/></svg>