<svg viewBox="0 0 24 24" xmlns="http://www.w3.org/2000/svg" width="24" height="24"><path fill-rule="evenodd" clip-rule="evenodd" d="M8.372 1L15.628 1C17.263 1 18.081 1 18.706 1.318A2.92 2.92 0 0 1 19.982 2.594C20.3 3.219 20.3 4.037 20.3 5.672L20.3 18.328C20.3 19.963 20.3 20.781 19.982 21.406A2.92 2.92 0 0 1 18.706 22.682C18.081 23 17.263 23 15.628 23L8.372 23C6.737 23 5.919 23 5.294 22.682A2.92 2.92 0 0 1 4.018 21.406C3.7 20.781 3.7 19.963 3.7 18.328L3.7 5.672C3.7 4.037 3.7 3.219 4.018 2.594A2.92 2.92 0 0 1 5.294 1.318C5.919 1 6.737 1 8.372 1ZM7.292 2.8L16.708 2.8C17.335 2.8 17.649 2.8 17.888 2.922A1.12 1.12 0 0 1 18.378 3.412C18.5 3.651 18.5 3.965 18.5 4.592L18.5 19.408C18.5 20.035 18.5 20.349 18.378 20.588A1.12 1.12 0 0 1 17.888 21.078C17.649 21.2 17.335 21.2 16.708 21.2L7.292 21.2C6.665 21.2 6.351 21.2 6.112 21.078A1.12 1.12 0 0 1 5.622 20.588C5.5 20.349 5.5 20.035 5.5 19.408L5.5 4.592C5.5 3.965 5.5 3.651 5.622 3.412A1.12 1.12 0 0 1 6.112 2.922C6.351 2.8 6.665 2.8 7.292 2.8Z"/></svg>