<svg viewBox="0 0 24 24" xmlns="http://www.w3.org/2000/svg" width="24" height="24"><path fill-rule="evenodd" d="M17.92 8.45c1.15 0 2.2.4 2.98 1.16s1.2 1.82 1.2 3.03v5.91a.9.9 0 0 1-1.8 0v-.02c-.93.7-2.08.96-3.2.96-1.7 0-3.38-1.07-3.38-3.02 0-1.02.58-1.8 1.26-2.32a5 5 0 0 1 2.35-.92l1.07-.12 1.9-.15v-.32c0-.77-.27-1.35-.66-1.74a2.4 2.4 0 0 0-1.72-.65c-1 0-1.86.58-2.22 1.42l-1.65-.7a4.2 4.2 0 0 1 3.87-2.52m2.36 6.31q-.76.05-1.69.14l-1.05.11c-.53.07-1.08.28-1.47.58-.4.3-.55.6-.55.88 0 .64.54 1.22 1.57 1.22a3.3 3.3 0 0 0 2.28-.72c.45-.4.82-1.08.91-2.2M6.55 5.99A1.3 1.3 0 0 1 8.9 5.99L13.53 18.32A.9 .9 0 0 1 11.85 18.95L10.45 15.24L5 15.24L3.6 18.95A.9 .9 0 0 1 1.96 18.24L6.5 6.09ZM5.68 13.44h4.1L7.73 7.97z" clip-rule="evenodd"/><path d="M15.7 11.67a.9.9 0 0 1-1.65-.7z"/></svg>