<svg viewBox="0 0 24 24" xmlns="http://www.w3.org/2000/svg" width="24" height="24"><path d="M12.76 9.3a.9.9 0 0 1 1.27 0l.73.74.07.07a.9.9 0 0 1-1.27 1.26l-.07-.06-.73-.73a.9.9 0 0 1 0-1.27"/><path fill-rule="evenodd" d="M12.89 2.27a2.7 2.7 0 0 1 3.79 0l.89.87.07.08q.2.23.24.54l.01.1v.1q-.02.37-.26.65a1.25 1.25 0 0 0 .07 1.7l.08.07a1.25 1.25 0 0 0 1.6-.01h.01l.08-.07q.3-.2.67-.2l.1.02q.36.04.61.3l.89.89a2.7 2.7 0 0 1 0 3.81l-3.47 3.47-7.15 7.14a2.7 2.7 0 0 1-3.8 0l-.9-.87a1.1 1.1 0 0 1-.05-1.47l.07-.1a1.25 1.25 0 0 0-1.83-1.66 1.1 1.1 0 0 1-1.47-.06l-.87-.88a2.7 2.7 0 0 1 0-3.8l7.14-7.16 1.38-1.38zm2.53 1.28a.9.9 0 0 0-1.27 0l-2.1 2.08-.85.85.64.63.06.07a.9.9 0 0 1-1.27 1.27l-.07-.07-.63-.63-6.38 6.4a.9.9 0 0 0 0 1.27l.45.46A3.05 3.05 0 0 1 8.11 20l.47.46a.9.9 0 0 0 1.27 0l6.4-6.38h-.01l-.73-.74a.9.9 0 0 1 1.27-1.27l.73.73h.01l2.94-2.94a.9.9 0 0 0 0-1.27L20 8.1a3.05 3.05 0 0 1-3.58-.53A3.05 3.05 0 0 1 15.88 4z" clip-rule="evenodd"/></svg>