<svg viewBox="0 0 24 24" xmlns="http://www.w3.org/2000/svg" width="24" height="24"><path d="M12.76 9.3A.9 .9 0 0 1 14.03 9.3L14.83 10.11A.9 .9 0 0 1 13.56 11.37L12.76 10.58A.9 .9 0 0 1 12.76 9.31"/><path fill-rule="evenodd" d="M12.89 2.27A2.7 2.7 0 0 1 16.68 2.27L17.64 3.22Q17.84 3.45 17.88 3.76L17.89 3.96Q17.87 4.33 17.63 4.61A1.25 1.25 0 0 0 17.7 6.31L17.78 6.38A1.25 1.25 0 0 0 19.38 6.37L19.47 6.3Q19.77 6.1 20.14 6.1L20.24 6.12Q20.6 6.16 20.85 6.42L21.74 7.31A2.7 2.7 0 0 1 21.74 11.12L11.12 21.73A2.7 2.7 0 0 1 7.32 21.73L6.42 20.86A1.1 1.1 0 0 1 6.37 19.39L6.44 19.29A1.25 1.25 0 0 0 4.61 17.63A1.1 1.1 0 0 1 3.14 17.57L2.27 16.69A2.7 2.7 0 0 1 2.27 12.89L10.79 4.35ZM15.42 3.55A.9 .9 0 0 0 14.15 3.55L11.2 6.48L11.9 7.18A.9 .9 0 0 1 10.63 8.45L9.93 7.75L3.55 14.15A.9 .9 0 0 0 3.55 15.42L4 15.88A3.05 3.05 0 0 1 8.11 20L8.58 20.46A.9 .9 0 0 0 9.85 20.46L16.24 14.08L15.51 13.34A.9 .9 0 0 1 16.78 12.07L17.52 12.8L20.46 9.86A.9 .9 0 0 0 20.46 8.59L20 8.1A3.05 3.05 0 0 1 16.42 7.57A3.05 3.05 0 0 1 15.88 4Z" clip-rule="evenodd"/></svg>