<svg viewBox="0 0 24 24" xmlns="http://www.w3.org/2000/svg" width="24" height="24"><g clip-path="url(#a)"><path d="M12.27 1a11 11 0 0 1 .3 22H12A11.04 11.04 0 0 1 1 11.89l.01-.5A11 11 0 0 1 3.8 4.67a.9.9 0 0 1 1.34 1.2A9.2 9.2 0 0 0 2.8 11.5l-.02.41A9.24 9.24 0 0 0 12 21.2h.48a9.2 9.2 0 0 0 .42-18.36v3.69a.9.9 0 0 1-1.8 0v-4.4q0-.23.09-.45l.05-.1q.08-.15.2-.27l.09-.07q.13-.1.3-.17l.1-.04q.16-.04.33-.04"/><path d="M7.05 6.67q.15-.02.28.07l5.84 4.09a1.68 1.68 0 1 1-2.34 2.34L6.74 7.32a.42.42 0 0 1 .31-.65"/></g><defs><clipPath id="a"><path d="M0 0h24v24H0z"/></clipPath></defs></svg>