<svg viewBox="0 0 24 24" xmlns="http://www.w3.org/2000/svg" width="24" height="24"><path fill-rule="evenodd" d="M15.8 9.5a.9.9 0 0 1 .83.55l3.62 8.45.04.09a.9.9 0 0 1-1.65.7l-.04-.08-.8-1.87h-3.99l-.8 1.87a.9.9 0 0 1-1.65-.7l3.62-8.46.06-.12a.9.9 0 0 1 .77-.43m-1.22 6.04h2.45L15.8 12.7z" clip-rule="evenodd"/><path d="M9.17 3.47c.5 0 .9.4.9.9v.9h4.53l.09.01a.9.9 0 0 1 0 1.8H13.2q-.18.6-.57 1.55a18 18 0 0 1-2.38 4.18 5 5 0 0 0 .98.59.9.9 0 0 1-.45 1.74l.2-.82-.2.82h-.02l-.03-.01-.3-.11a5 5 0 0 1-1.36-.86 21 21 0 0 1-3.55 2.98l-.09.05-.02.02H5.4l-.09.05a.9.9 0 0 1-.9-1.54l.07-.05.02-.01.06-.04.27-.18q.36-.24.97-.72c.58-.45 1.28-1.07 2.01-1.84l-.13-.16a8 8 0 0 1-1.35-2.46A5 5 0 0 1 6.1 9.2v-.04l.9-.02-.9.01a.9.9 0 0 1 1.8-.02V9.1v.11l.13.5c.14.4.41 1.02.97 1.77a16 16 0 0 0 2.3-4.4H3.72a.9.9 0 1 1 0-1.8h4.53v-.91c0-.5.4-.9.9-.9m2.09 9.93"/></svg>