<svg viewBox="0 0 24 24" xmlns="http://www.w3.org/2000/svg" width="24" height="24"><path fill-rule="evenodd" d="M9.97 2.41a5 5 0 0 1 4.06 0c1.49.66 2.63 2.64 4.9 6.58 2.29 3.95 3.43 5.93 3.26 7.54l-.04.27a5 5 0 0 1-2 3.26l-.12.08c-1.33.87-3.61.87-8.03.87h-1.6C7 21 5.12 20.9 3.96 20.14l-.12-.08a5 5 0 0 1-2-3.26l-.04-.27c-.15-1.41.7-3.1 2.45-6.14l.8-1.4c2.21-3.82 3.35-5.8 4.77-6.51zm3.33 1.64a3.2 3.2 0 0 0-2.6 0c-.29.13-.71.46-1.42 1.46-.7.98-1.5 2.38-2.66 4.38s-1.96 3.4-2.47 4.5c-.5 1.1-.58 1.64-.55 1.95.1.9.57 1.73 1.3 2.26.26.18.76.39 1.97.5 1.2.1 2.82.11 5.13.11s3.93 0 5.13-.11c1.21-.11 1.71-.32 1.97-.5a3.2 3.2 0 0 0 1.3-2.26c.03-.3-.04-.84-.55-1.95-.5-1.1-1.31-2.5-2.47-4.5s-1.97-3.4-2.66-4.38c-.7-1-1.13-1.33-1.42-1.46" clip-rule="evenodd"/></svg>