<svg viewBox="0 0 24 24" xmlns="http://www.w3.org/2000/svg" width="24" height="24"><path fill-rule="evenodd" d="M12 1a5.1 5.1 0 0 1 5.1 5.1v.12a.9.9 0 0 1-1.8 0V6.1a3.3 3.3 0 0 0-6.6 0v2.82h8.2a4 4 0 0 1 3.8 4v4.48a4 4 0 0 1-3.8 3.79H7.1a4 4 0 0 1-3.8-3.79v-4.48a4 4 0 0 1 3.6-3.98V6.1A5.1 5.1 0 0 1 12 1m-4.7 9.72a2.2 2.2 0 0 0-2.2 2.2v4.27c0 1.22.98 2.2 2.2 2.2h9.4a2.2 2.2 0 0 0 2.2-2.2v-4.27a2.2 2.2 0 0 0-2.2-2.2z" clip-rule="evenodd"/><path d="M12 13a1.5 1.5 0 0 1 1.16 2.46l-.12.14-.02.08-.01.14v.68a1 1 0 0 1-2 0v-.81l-.04-.08-.11-.14q-.34-.41-.36-.97c0-.83.68-1.5 1.5-1.5"/></svg>