<svg viewBox="0 0 24 24" xmlns="http://www.w3.org/2000/svg" width="24" height="24"><path fill-rule="evenodd" d="M12 1a5.1 5.1 0 0 1 5.1 5.1v.12a.9.9 0 0 1-1.8 0V6.1a3.3 3.3 0 0 0-6.6 0v2.82h8.2a4 4 0 0 1 3.8 4v4.48a4 4 0 0 1-3.8 3.79H7.1a4 4 0 0 1-3.8-3.79v-4.48a4 4 0 0 1 3.6-3.98V6.1A5.1 5.1 0 0 1 12 1m-4.7 9.72a2.2 2.2 0 0 0-2.2 2.2v4.27c0 1.22.98 2.2 2.2 2.2h9.4a2.2 2.2 0 0 0 2.2-2.2v-4.27a2.2 2.2 0 0 0-2.2-2.2z" clip-rule="evenodd"/><path d="M12 13A1.5 1.5 0 0 1 13.16 15.46L13.04 15.6L13.01 15.82L13.01 16.5A1 1 0 0 1 11.01 16.5L11.01 15.69L10.86 15.47Q10.52 15.06 10.5 14.5C10.5 13.67 11.18 13 12 13"/></svg>