<svg viewBox="0 0 24 24" xmlns="http://www.w3.org/2000/svg" width="24" height="24"><path d="M8.8 13.7A.9 .9 0 0 0 7.9 14.6A.9 .9 0 0 0 8.8 15.5L9 15.5A.9 .9 0 0 1 8.1 14.6A.9 .9 0 0 1 9 13.7A2.2 2.2 0 0 1 6.8 11.502L6.83 5.575A.9 .9 0 0 0 6.83 5.57A2.17 2.17 0 0 1 9 3.4L15 3.4A2.17 2.17 0 0 1 17.17 5.57A.9 .9 0 0 0 17.17 5.575L17.2 11.502A2.2 2.2 0 0 1 15 13.7A.9 .9 0 0 1 15.9 14.6A.9 .9 0 0 1 15 15.5L15.2 15.5A.9 .9 0 0 0 16.1 14.6A.9 .9 0 0 0 15.2 13.7L15 13.7A.9 .9 0 0 0 14.1 14.6A.9 .9 0 0 0 15 15.5A4 4 0 0 0 19 11.5A.9 .9 0 0 0 19 11.495L18.97 5.568A3.97 3.97 0 0 0 15 1.6L9 1.6A3.97 3.97 0 0 0 5.03 5.568L5 11.495A.9 .9 0 0 0 5 11.5A4 4 0 0 0 9 15.5A.9 .9 0 0 0 9.9 14.6A.9 .9 0 0 0 9 13.7L8.8 13.7Z"/><path d="M11.36 6.42A.9 .9 0 0 1 12.64 6.42L15.52 9.3A.9 .9 0 0 1 14.25 10.58L12.9 9.23L12.9 19.83A.9 .9 0 0 1 11.1 19.83L11.1 9.23L9.68 10.64A.9 .9 0 0 1 8.42 9.37L8.48 9.3Z"/></svg>