<svg viewBox="0 0 24 24" xmlns="http://www.w3.org/2000/svg" width="24" height="24"><path d="M9 15.5A.9 .9 0 0 0 9.9 14.6A.9 .9 0 0 0 9 13.7A2.2 2.2 0 0 1 6.8 11.502L6.83 5.575A.9 .9 0 0 0 6.83 5.57A2.17 2.17 0 0 1 9 3.4L15 3.4A2.17 2.17 0 0 1 17.17 5.57A.9 .9 0 0 0 17.17 5.575L17.2 11.502A2.2 2.2 0 0 1 15 13.7A.9 .9 0 0 0 14.1 14.6A.9 .9 0 0 0 15 15.5A4 4 0 0 0 19 11.5A.9 .9 0 0 0 19 11.495L18.97 5.568A3.97 3.97 0 0 0 15 1.6L9 1.6A3.97 3.97 0 0 0 5.03 5.568L5 11.495A.9 .9 0 0 0 5 11.5A4 4 0 0 0 9 15.5Z"/><path d="M11.1 9.208L11.1 19.83A.9 .9 0 0 0 12.9 19.83L12.9 9.223L11.997 8.32ZM9.683 10.61L11.997 8.32L14.264 10.586A.899 .899 0 0 0 15.536 9.314L12.636 6.414A.9 .9 0 0 0 11.367 6.41L8.417 9.33A.9 .9 0 0 0 9.683 10.61Z"/></svg>