<svg viewBox="0 0 24 24" xmlns="http://www.w3.org/2000/svg" width="24" height="24"><path fill-rule="evenodd" d="M11.65 5.1a3.9 3.9 0 0 1 3.9 3.9v6a3.9 3.9 0 0 1-3.9 3.9H4.9A3.9 3.9 0 0 1 1 15V9a3.9 3.9 0 0 1 3.9-3.9zM4.9 6.9A2.1 2.1 0 0 0 2.8 9v6c0 1.16.94 2.1 2.1 2.1h6.75a2.1 2.1 0 0 0 2.1-2.1V9a2.1 2.1 0 0 0-2.1-2.1zm15.04.23A2.1 2.1 0 0 1 23.01 9v6a2.1 2.1 0 0 1-3.06 1.87l-2.4-1.24a1.9 1.9 0 0 1-1.03-1.69v-3.86c0-.71.4-1.36 1.02-1.69zM21.21 9a.3.3 0 0 0-.44-.26l-2.4 1.25a.1.1 0 0 0-.05.09v3.86q0 .06.06.09l2.4 1.24c.2.1.43-.04.43-.27z" clip-rule="evenodd"/></svg>