<svg viewBox="0 0 24 24" xmlns="http://www.w3.org/2000/svg" width="24" height="24"><path d="M21.46 1.26a.9.9 0 0 1 1.28 1.28l-20.2 20.2-.07.06a.9.9 0 0 1-1.27-1.27l.06-.07zM15.55 15a3.9 3.9 0 0 1-3.9 3.9H8.92l1.8-1.8h.93a2.1 2.1 0 0 0 2.1-2.1v-.93l1.8-1.8zm-3.9-9.9c.95 0 1.83.35 2.5.92L12.89 7.3q-.53-.39-1.23-.4H4.9A2.1 2.1 0 0 0 2.8 9v6c0 .65.3 1.23.76 1.62L2.3 17.89A4 4 0 0 1 .99 15V9.02a3.9 3.9 0 0 1 3.9-3.9z"/><path fill-rule="evenodd" d="M20.93 6.9c1.1 0 2.08.88 2.08 2.1v6a2.1 2.1 0 0 1-3.06 1.86l-2.4-1.24a1.9 1.9 0 0 1-1.03-1.69V11.3zM21.2 9a.3.3 0 0 0-.44-.27l-2.4 1.25a.1.1 0 0 0-.05.09v3.86q0 .06.06.09l2.4 1.24c.2.1.43-.04.43-.27z" clip-rule="evenodd"/></svg>