<svg viewBox="0 0 24 24" xmlns="http://www.w3.org/2000/svg" width="24" height="24"><path d="M18.98 2.38a.9.9 0 0 1 1.2.03l.07.06.16.19c.76.95 1.4 2.27 1.85 3.84.49 1.67.74 3.57.74 5.5s-.25 3.83-.74 5.5a11 11 0 0 1-2.01 4.03l-.06.06a.9.9 0 0 1-1.3-1.24l.23-.29A10 10 0 0 0 20.53 17c.44-1.5.67-3.22.67-5s-.23-3.5-.67-5a10 10 0 0 0-1.41-3.06l-.23-.29-.06-.07a.9.9 0 0 1 .15-1.2"/><path d="M17.78 5.33a7.5 7.5 0 0 1 1.4 2.82c.34 1.17.52 2.5.52 3.85s-.18 2.68-.52 3.85a7.5 7.5 0 0 1-1.4 2.82.9.9 0 0 1-1.37-1.18c.37-.42.75-1.13 1.05-2.14.28-1 .44-2.15.44-3.35s-.16-2.36-.44-3.35c-.3-1-.68-1.72-1.05-2.14z"/><path fill-rule="evenodd" d="M9.76 5.7c.48.08.91.34 1.2.73.27.34.34.75.37 1.07q.04.5.03 1.22v6.56q0 .72-.03 1.22c-.03.32-.1.73-.36 1.07a2 2 0 0 1-1.42.75c-.43.02-.8-.16-1.08-.31q-.45-.26-1.03-.67l-1.92-1.32a8 8 0 0 0-.9-.58 3 3 0 0 0-.9-.28 8 8 0 0 0-1.07-.03l-.33-.01q-.19 0-.45-.1a1.4 1.4 0 0 1-.86-1.21L1 13.48v-3.29q0-.17.1-.44l.06-.13q.24-.45.71-.64L2 8.94q.18-.05.32-.06h.33c.63 0 .86 0 1.07-.04q.46-.07.9-.28c.2-.1.38-.22.9-.58l1.92-1.32q.6-.41 1.03-.67a2 2 0 0 1 1.08-.3zm-.41 1.86q-.28.17-.89.59L6.54 9.47c-.48.32-.8.54-1.13.71a5 5 0 0 1-2.6.5v2.65c.49 0 .83 0 1.18.05q.74.1 1.42.44c.34.17.65.39 1.13.71l1.92 1.32a14 14 0 0 0 1.03.66l.02-.01.02-.16c.03-.23.03-.55.03-1.06V8.72q0-.73-.03-1.06l-.02-.16h-.02z" clip-rule="evenodd"/><path d="M14.04 8.1a.9.9 0 0 1 1.2.02l.07.06.12.15q.42.58.68 1.46a8 8 0 0 1 0 4.41 4 4 0 0 1-.8 1.62.9.9 0 0 1-1.36-1.18c.11-.13.29-.43.43-.94a6.3 6.3 0 0 0-.34-4.2l-.1-.14-.05-.07a.9.9 0 0 1 .15-1.2m2.46-2.85a.9.9 0 0 1 1.28.1L16.4 6.5a.9.9 0 0 1 .1-1.27"/></svg>