<svg viewBox="0 0 24 24" xmlns="http://www.w3.org/2000/svg" width="24" height="24"><path d="M18.98 2.38A.9 .9 0 0 1 20.18 2.41L20.41 2.66C21.17 3.61 21.81 4.93 22.26 6.5C22.75 8.17 23 10.07 23 12C23 13.93 22.75 15.83 22.26 17.5A11 11 0 0 1 20.25 21.53L20.19 21.59A.9 .9 0 0 1 18.89 20.35L19.12 20.06A10 10 0 0 0 20.53 17C20.97 15.5 21.2 13.78 21.2 12C21.2 10.22 20.97 8.5 20.53 7A10 10 0 0 0 19.12 3.94L18.83 3.58A.9 .9 0 0 1 18.98 2.38"/><path d="M17.78 5.33a7.5 7.5 0 0 1 1.4 2.82c.34 1.17.52 2.5.52 3.85s-.18 2.68-.52 3.85a7.5 7.5 0 0 1-1.4 2.82.9.9 0 0 1-1.37-1.18c.37-.42.75-1.13 1.05-2.14.28-1 .44-2.15.44-3.35s-.16-2.36-.44-3.35c-.3-1-.68-1.72-1.05-2.14z"/><path fill-rule="evenodd" d="M9.76 5.7C10.24 5.78 10.67 6.04 10.96 6.43C11.23 6.77 11.3 7.18 11.33 7.5Q11.37 8 11.36 8.72L11.36 15.28Q11.36 16 11.33 16.5C11.3 16.82 11.23 17.23 10.97 17.57A2 2 0 0 1 9.55 18.32C9.12 18.34 8.75 18.16 8.47 18.01Q8.02 17.75 7.44 17.34L5.52 16.02A8 8 0 0 0 4.62 15.44A3 3 0 0 0 3.72 15.16A8 8 0 0 0 2.65 15.13L2.32 15.12Q2.13 15.12 1.87 15.02A1.4 1.4 0 0 1 1.01 13.81L1 10.19Q1 10.02 1.1 9.75L1.16 9.62Q1.4 9.17 1.87 8.98L2 8.94Q2.18 8.89 2.32 8.88L2.65 8.88C3.28 8.88 3.51 8.88 3.72 8.84Q4.18 8.77 4.62 8.56C4.82 8.46 5 8.34 5.52 7.98L7.44 6.66Q8.04 6.25 8.47 5.99A2 2 0 0 1 9.55 5.69ZM9.35 7.56Q9.07 7.73 8.46 8.15L6.54 9.47C6.06 9.79 5.74 10.01 5.41 10.18A5 5 0 0 1 2.81 10.68L2.81 13.33C3.3 13.33 3.64 13.33 3.99 13.38Q4.73 13.48 5.41 13.82C5.75 13.99 6.06 14.21 6.54 14.53L8.46 15.85A14 14 0 0 0 9.49 16.51L9.53 16.34C9.56 16.11 9.56 15.79 9.56 15.28L9.56 8.72Q9.56 7.99 9.53 7.66L9.49 7.5Z" clip-rule="evenodd"/><path d="M14.04 8.1A.9 .9 0 0 1 15.24 8.12L15.43 8.33Q15.85 8.91 16.11 9.79A8 8 0 0 1 16.11 14.2A4 4 0 0 1 15.31 15.82A.9 .9 0 0 1 13.95 14.64C14.06 14.51 14.24 14.21 14.38 13.7A6.3 6.3 0 0 0 14.04 9.5L13.89 9.29A.9 .9 0 0 1 14.04 8.09M16.5 5.24a.9.9 0 0 1 1.28.1L16.4 6.5a.9.9 0 0 1 .1-1.27"/></svg>