<svg viewBox="0 0 24 24" xmlns="http://www.w3.org/2000/svg" width="24" height="24"><path fill-rule="evenodd" d="M10.56 5.7c.48.08.91.34 1.21.73l.1.13c.18.31.24.66.26.94q.04.5.03 1.22v6.56q0 .71-.03 1.22c-.02.28-.08.63-.27.94l-.09.13c-.3.39-.73.65-1.2.72l-.21.02c-.44.03-.8-.15-1.09-.3q-.44-.26-1.02-.67l-1.92-1.32c-.4-.27-.6-.41-.76-.5l-.15-.08a3 3 0 0 0-.66-.24l-.24-.04a8 8 0 0 0-1.07-.03l-.33-.01q-.13 0-.32-.06l-.12-.04a1.4 1.4 0 0 1-.71-.64l-.06-.13a1 1 0 0 1-.1-.44v-3.62q0-.17.1-.44l.06-.13q.24-.45.7-.64l.13-.05q.19-.04.32-.05h.33c.63 0 .86 0 1.07-.04l.24-.04q.35-.09.66-.24l.15-.08.76-.5 1.92-1.32.55-.37.47-.3a2 2 0 0 1 1.09-.3zm-.4 1.86q-.15.08-.37.23l-.53.36-1.91 1.32q-.52.36-.88.57l-.26.14q-.5.24-1.05.37l-.37.07c-.34.05-.69.05-1.18.05v2.66c.5 0 .84 0 1.18.05l.37.07q.55.12 1.05.37l.26.14q.36.21.88.57l1.91 1.32a14 14 0 0 0 1.04.66l.01-.01.03-.16c.02-.23.02-.55.02-1.06V8.72q0-.73-.02-1.06 0-.12-.03-.16h-.01z" clip-rule="evenodd"/><path d="M14.55 8.27a1 1 0 0 1 1.42 0l2.31 2.32 2.3-2.31A1 1 0 0 1 22 9.69L19.7 12l2.3 2.3.07.08a1 1 0 0 1-1.4 1.41l-.08-.07-2.3-2.3-2.32 2.3-.08.08a1 1 0 0 1-1.4-1.41l.06-.08L16.87 12l-2.32-2.31a1 1 0 0 1 0-1.42"/></svg>