<svg viewBox="0 0 24 24" xmlns="http://www.w3.org/2000/svg" width="24" height="24"><path d="M16.6 12.44a1.31 1.31 0 1 1 .5 2.58 1.31 1.31 0 0 1-.5-2.58"/><path fill-rule="evenodd" d="M15.18 2.34a3.9 3.9 0 0 1 4.75 3.8v1.78a4.9 4.9 0 0 1 1.75 3.75v4.11c0 2.7-2.2 4.9-4.9 4.9h-9.5a4.9 4.9 0 0 1-4.9-4.9V9.12A4.9 4.9 0 0 1 6.2 4.34zm-7.9 6.23a3.1 3.1 0 0 0-3.1 3.1v4.11a3.1 3.1 0 0 0 3.1 3.1h9.5a3.1 3.1 0 0 0 3.1-3.1v-4.11a3.1 3.1 0 0 0-3.1-3.1zm10.85-2.42a2.1 2.1 0 0 0-2.56-2.05l-8.97 2a3 3 0 0 0-2 1.46c.77-.5 1.69-.8 2.68-.8h9.5q.7 0 1.35.2z" clip-rule="evenodd"/></svg>